%TF.GenerationSoftware,KiCad,Pcbnew,(5.1.9)-1*%
%TF.CreationDate,2021-03-08T10:45:14+00:00*%
%TF.ProjectId,gps_tracker_basic,6770735f-7472-4616-936b-65725f626173,1.0*%
%TF.SameCoordinates,Original*%
%TF.FileFunction,Soldermask,Top*%
%TF.FilePolarity,Negative*%
%FSLAX46Y46*%
G04 Gerber Fmt 4.6, Leading zero omitted, Abs format (unit mm)*
G04 Created by KiCad (PCBNEW (5.1.9)-1) date 2021-03-08 10:45:14*
%MOMM*%
%LPD*%
G01*
G04 APERTURE LIST*
%ADD10C,1.000000*%
%ADD11O,2.500000X1.000000*%
%ADD12R,2.500000X2.500000*%
%ADD13R,2.000000X1.400000*%
%ADD14R,0.900000X0.800000*%
%ADD15C,2.500000*%
%ADD16R,5.100000X2.350000*%
%ADD17R,1.800000X2.500000*%
%ADD18O,1.700000X1.700000*%
%ADD19R,1.700000X1.700000*%
%ADD20O,0.890000X1.550000*%
%ADD21O,1.250000X0.950000*%
%ADD22O,1.350000X1.350000*%
%ADD23R,1.350000X1.350000*%
%ADD24C,0.100000*%
%ADD25R,0.800000X0.900000*%
%ADD26C,1.400000*%
%ADD27R,1.400000X1.400000*%
%ADD28R,0.650000X1.060000*%
%ADD29R,1.524000X1.524000*%
%ADD30R,0.775000X0.220000*%
%ADD31C,0.300000*%
%ADD32R,0.250000X0.700000*%
%ADD33R,2.850000X1.600000*%
%ADD34R,2.400000X2.000000*%
G04 APERTURE END LIST*
%TO.C,C31*%
G36*
G01*
X144634799Y-103651000D02*
X145534801Y-103651000D01*
G75*
G02*
X145784800Y-103900999I0J-249999D01*
G01*
X145784800Y-104426001D01*
G75*
G02*
X145534801Y-104676000I-249999J0D01*
G01*
X144634799Y-104676000D01*
G75*
G02*
X144384800Y-104426001I0J249999D01*
G01*
X144384800Y-103900999D01*
G75*
G02*
X144634799Y-103651000I249999J0D01*
G01*
G37*
G36*
G01*
X144634799Y-101826000D02*
X145534801Y-101826000D01*
G75*
G02*
X145784800Y-102075999I0J-249999D01*
G01*
X145784800Y-102601001D01*
G75*
G02*
X145534801Y-102851000I-249999J0D01*
G01*
X144634799Y-102851000D01*
G75*
G02*
X144384800Y-102601001I0J249999D01*
G01*
X144384800Y-102075999D01*
G75*
G02*
X144634799Y-101826000I249999J0D01*
G01*
G37*
%TD*%
%TO.C,C30*%
G36*
G01*
X146641399Y-103651000D02*
X147541401Y-103651000D01*
G75*
G02*
X147791400Y-103900999I0J-249999D01*
G01*
X147791400Y-104426001D01*
G75*
G02*
X147541401Y-104676000I-249999J0D01*
G01*
X146641399Y-104676000D01*
G75*
G02*
X146391400Y-104426001I0J249999D01*
G01*
X146391400Y-103900999D01*
G75*
G02*
X146641399Y-103651000I249999J0D01*
G01*
G37*
G36*
G01*
X146641399Y-101826000D02*
X147541401Y-101826000D01*
G75*
G02*
X147791400Y-102075999I0J-249999D01*
G01*
X147791400Y-102601001D01*
G75*
G02*
X147541401Y-102851000I-249999J0D01*
G01*
X146641399Y-102851000D01*
G75*
G02*
X146391400Y-102601001I0J249999D01*
G01*
X146391400Y-102075999D01*
G75*
G02*
X146641399Y-101826000I249999J0D01*
G01*
G37*
%TD*%
%TO.C,C32*%
G36*
G01*
X148647999Y-103651000D02*
X149548001Y-103651000D01*
G75*
G02*
X149798000Y-103900999I0J-249999D01*
G01*
X149798000Y-104426001D01*
G75*
G02*
X149548001Y-104676000I-249999J0D01*
G01*
X148647999Y-104676000D01*
G75*
G02*
X148398000Y-104426001I0J249999D01*
G01*
X148398000Y-103900999D01*
G75*
G02*
X148647999Y-103651000I249999J0D01*
G01*
G37*
G36*
G01*
X148647999Y-101826000D02*
X149548001Y-101826000D01*
G75*
G02*
X149798000Y-102075999I0J-249999D01*
G01*
X149798000Y-102601001D01*
G75*
G02*
X149548001Y-102851000I-249999J0D01*
G01*
X148647999Y-102851000D01*
G75*
G02*
X148398000Y-102601001I0J249999D01*
G01*
X148398000Y-102075999D01*
G75*
G02*
X148647999Y-101826000I249999J0D01*
G01*
G37*
%TD*%
D10*
%TO.C,U10*%
X119072300Y-107317600D03*
D11*
X111672300Y-104137600D03*
X127672300Y-111757600D03*
X111672300Y-109217600D03*
X127672300Y-106677600D03*
X111672300Y-101597600D03*
X127672300Y-114297600D03*
X127672300Y-104137600D03*
X111672300Y-114297600D03*
X127672300Y-101597600D03*
X127672300Y-109217600D03*
X111672300Y-106677600D03*
X111672300Y-111757600D03*
%TD*%
D12*
%TO.C,U4*%
X124873300Y-121621700D03*
X124873300Y-99111700D03*
D13*
X108623300Y-114081700D03*
X108623300Y-111541700D03*
X108623300Y-109001700D03*
X108623300Y-106461700D03*
X108623300Y-103921700D03*
X108623300Y-101381700D03*
%TD*%
%TO.C,R33*%
G36*
G01*
X109848000Y-94255700D02*
X110218000Y-94255700D01*
G75*
G02*
X110353000Y-94390700I0J-135000D01*
G01*
X110353000Y-94660700D01*
G75*
G02*
X110218000Y-94795700I-135000J0D01*
G01*
X109848000Y-94795700D01*
G75*
G02*
X109713000Y-94660700I0J135000D01*
G01*
X109713000Y-94390700D01*
G75*
G02*
X109848000Y-94255700I135000J0D01*
G01*
G37*
G36*
G01*
X109848000Y-93235700D02*
X110218000Y-93235700D01*
G75*
G02*
X110353000Y-93370700I0J-135000D01*
G01*
X110353000Y-93640700D01*
G75*
G02*
X110218000Y-93775700I-135000J0D01*
G01*
X109848000Y-93775700D01*
G75*
G02*
X109713000Y-93640700I0J135000D01*
G01*
X109713000Y-93370700D01*
G75*
G02*
X109848000Y-93235700I135000J0D01*
G01*
G37*
%TD*%
%TO.C,R11*%
G36*
G01*
X113634300Y-97230100D02*
X113264300Y-97230100D01*
G75*
G02*
X113129300Y-97095100I0J135000D01*
G01*
X113129300Y-96825100D01*
G75*
G02*
X113264300Y-96690100I135000J0D01*
G01*
X113634300Y-96690100D01*
G75*
G02*
X113769300Y-96825100I0J-135000D01*
G01*
X113769300Y-97095100D01*
G75*
G02*
X113634300Y-97230100I-135000J0D01*
G01*
G37*
G36*
G01*
X113634300Y-98250100D02*
X113264300Y-98250100D01*
G75*
G02*
X113129300Y-98115100I0J135000D01*
G01*
X113129300Y-97845100D01*
G75*
G02*
X113264300Y-97710100I135000J0D01*
G01*
X113634300Y-97710100D01*
G75*
G02*
X113769300Y-97845100I0J-135000D01*
G01*
X113769300Y-98115100D01*
G75*
G02*
X113634300Y-98250100I-135000J0D01*
G01*
G37*
%TD*%
%TO.C,R7*%
G36*
G01*
X114777300Y-97230100D02*
X114407300Y-97230100D01*
G75*
G02*
X114272300Y-97095100I0J135000D01*
G01*
X114272300Y-96825100D01*
G75*
G02*
X114407300Y-96690100I135000J0D01*
G01*
X114777300Y-96690100D01*
G75*
G02*
X114912300Y-96825100I0J-135000D01*
G01*
X114912300Y-97095100D01*
G75*
G02*
X114777300Y-97230100I-135000J0D01*
G01*
G37*
G36*
G01*
X114777300Y-98250100D02*
X114407300Y-98250100D01*
G75*
G02*
X114272300Y-98115100I0J135000D01*
G01*
X114272300Y-97845100D01*
G75*
G02*
X114407300Y-97710100I135000J0D01*
G01*
X114777300Y-97710100D01*
G75*
G02*
X114912300Y-97845100I0J-135000D01*
G01*
X114912300Y-98115100D01*
G75*
G02*
X114777300Y-98250100I-135000J0D01*
G01*
G37*
%TD*%
D14*
%TO.C,Q4*%
X110087100Y-97025600D03*
X112087100Y-96075600D03*
X112087100Y-97975600D03*
%TD*%
%TO.C,C17*%
G36*
G01*
X104335900Y-111355200D02*
X104335900Y-111855200D01*
G75*
G02*
X104110900Y-112080200I-225000J0D01*
G01*
X103660900Y-112080200D01*
G75*
G02*
X103435900Y-111855200I0J225000D01*
G01*
X103435900Y-111355200D01*
G75*
G02*
X103660900Y-111130200I225000J0D01*
G01*
X104110900Y-111130200D01*
G75*
G02*
X104335900Y-111355200I0J-225000D01*
G01*
G37*
G36*
G01*
X105885900Y-111355200D02*
X105885900Y-111855200D01*
G75*
G02*
X105660900Y-112080200I-225000J0D01*
G01*
X105210900Y-112080200D01*
G75*
G02*
X104985900Y-111855200I0J225000D01*
G01*
X104985900Y-111355200D01*
G75*
G02*
X105210900Y-111130200I225000J0D01*
G01*
X105660900Y-111130200D01*
G75*
G02*
X105885900Y-111355200I0J-225000D01*
G01*
G37*
%TD*%
%TO.C,C33*%
G36*
G01*
X106989900Y-109424000D02*
X106649900Y-109424000D01*
G75*
G02*
X106509900Y-109284000I0J140000D01*
G01*
X106509900Y-109004000D01*
G75*
G02*
X106649900Y-108864000I140000J0D01*
G01*
X106989900Y-108864000D01*
G75*
G02*
X107129900Y-109004000I0J-140000D01*
G01*
X107129900Y-109284000D01*
G75*
G02*
X106989900Y-109424000I-140000J0D01*
G01*
G37*
G36*
G01*
X106989900Y-110384000D02*
X106649900Y-110384000D01*
G75*
G02*
X106509900Y-110244000I0J140000D01*
G01*
X106509900Y-109964000D01*
G75*
G02*
X106649900Y-109824000I140000J0D01*
G01*
X106989900Y-109824000D01*
G75*
G02*
X107129900Y-109964000I0J-140000D01*
G01*
X107129900Y-110244000D01*
G75*
G02*
X106989900Y-110384000I-140000J0D01*
G01*
G37*
%TD*%
%TO.C,C18*%
G36*
G01*
X104335900Y-113044300D02*
X104335900Y-113544300D01*
G75*
G02*
X104110900Y-113769300I-225000J0D01*
G01*
X103660900Y-113769300D01*
G75*
G02*
X103435900Y-113544300I0J225000D01*
G01*
X103435900Y-113044300D01*
G75*
G02*
X103660900Y-112819300I225000J0D01*
G01*
X104110900Y-112819300D01*
G75*
G02*
X104335900Y-113044300I0J-225000D01*
G01*
G37*
G36*
G01*
X105885900Y-113044300D02*
X105885900Y-113544300D01*
G75*
G02*
X105660900Y-113769300I-225000J0D01*
G01*
X105210900Y-113769300D01*
G75*
G02*
X104985900Y-113544300I0J225000D01*
G01*
X104985900Y-113044300D01*
G75*
G02*
X105210900Y-112819300I225000J0D01*
G01*
X105660900Y-112819300D01*
G75*
G02*
X105885900Y-113044300I0J-225000D01*
G01*
G37*
%TD*%
%TO.C,C16*%
G36*
G01*
X104335900Y-109716900D02*
X104335900Y-110216900D01*
G75*
G02*
X104110900Y-110441900I-225000J0D01*
G01*
X103660900Y-110441900D01*
G75*
G02*
X103435900Y-110216900I0J225000D01*
G01*
X103435900Y-109716900D01*
G75*
G02*
X103660900Y-109491900I225000J0D01*
G01*
X104110900Y-109491900D01*
G75*
G02*
X104335900Y-109716900I0J-225000D01*
G01*
G37*
G36*
G01*
X105885900Y-109716900D02*
X105885900Y-110216900D01*
G75*
G02*
X105660900Y-110441900I-225000J0D01*
G01*
X105210900Y-110441900D01*
G75*
G02*
X104985900Y-110216900I0J225000D01*
G01*
X104985900Y-109716900D01*
G75*
G02*
X105210900Y-109491900I225000J0D01*
G01*
X105660900Y-109491900D01*
G75*
G02*
X105885900Y-109716900I0J-225000D01*
G01*
G37*
%TD*%
%TO.C,C15*%
G36*
G01*
X106649900Y-111830600D02*
X106989900Y-111830600D01*
G75*
G02*
X107129900Y-111970600I0J-140000D01*
G01*
X107129900Y-112250600D01*
G75*
G02*
X106989900Y-112390600I-140000J0D01*
G01*
X106649900Y-112390600D01*
G75*
G02*
X106509900Y-112250600I0J140000D01*
G01*
X106509900Y-111970600D01*
G75*
G02*
X106649900Y-111830600I140000J0D01*
G01*
G37*
G36*
G01*
X106649900Y-110870600D02*
X106989900Y-110870600D01*
G75*
G02*
X107129900Y-111010600I0J-140000D01*
G01*
X107129900Y-111290600D01*
G75*
G02*
X106989900Y-111430600I-140000J0D01*
G01*
X106649900Y-111430600D01*
G75*
G02*
X106509900Y-111290600I0J140000D01*
G01*
X106509900Y-111010600D01*
G75*
G02*
X106649900Y-110870600I140000J0D01*
G01*
G37*
%TD*%
%TO.C,R2*%
G36*
G01*
X131487500Y-90087000D02*
X132037500Y-90087000D01*
G75*
G02*
X132237500Y-90287000I0J-200000D01*
G01*
X132237500Y-90687000D01*
G75*
G02*
X132037500Y-90887000I-200000J0D01*
G01*
X131487500Y-90887000D01*
G75*
G02*
X131287500Y-90687000I0J200000D01*
G01*
X131287500Y-90287000D01*
G75*
G02*
X131487500Y-90087000I200000J0D01*
G01*
G37*
G36*
G01*
X131487500Y-88437000D02*
X132037500Y-88437000D01*
G75*
G02*
X132237500Y-88637000I0J-200000D01*
G01*
X132237500Y-89037000D01*
G75*
G02*
X132037500Y-89237000I-200000J0D01*
G01*
X131487500Y-89237000D01*
G75*
G02*
X131287500Y-89037000I0J200000D01*
G01*
X131287500Y-88637000D01*
G75*
G02*
X131487500Y-88437000I200000J0D01*
G01*
G37*
%TD*%
%TO.C,R12*%
G36*
G01*
X134634000Y-122598600D02*
X134634000Y-122968600D01*
G75*
G02*
X134499000Y-123103600I-135000J0D01*
G01*
X134229000Y-123103600D01*
G75*
G02*
X134094000Y-122968600I0J135000D01*
G01*
X134094000Y-122598600D01*
G75*
G02*
X134229000Y-122463600I135000J0D01*
G01*
X134499000Y-122463600D01*
G75*
G02*
X134634000Y-122598600I0J-135000D01*
G01*
G37*
G36*
G01*
X135654000Y-122598600D02*
X135654000Y-122968600D01*
G75*
G02*
X135519000Y-123103600I-135000J0D01*
G01*
X135249000Y-123103600D01*
G75*
G02*
X135114000Y-122968600I0J135000D01*
G01*
X135114000Y-122598600D01*
G75*
G02*
X135249000Y-122463600I135000J0D01*
G01*
X135519000Y-122463600D01*
G75*
G02*
X135654000Y-122598600I0J-135000D01*
G01*
G37*
%TD*%
D15*
%TO.C,H2*%
X149500000Y-74500000D03*
%TD*%
%TO.C,H1*%
X104500000Y-119500000D03*
%TD*%
%TO.C,R26*%
G36*
G01*
X145902000Y-120186000D02*
X146452000Y-120186000D01*
G75*
G02*
X146652000Y-120386000I0J-200000D01*
G01*
X146652000Y-120786000D01*
G75*
G02*
X146452000Y-120986000I-200000J0D01*
G01*
X145902000Y-120986000D01*
G75*
G02*
X145702000Y-120786000I0J200000D01*
G01*
X145702000Y-120386000D01*
G75*
G02*
X145902000Y-120186000I200000J0D01*
G01*
G37*
G36*
G01*
X145902000Y-118536000D02*
X146452000Y-118536000D01*
G75*
G02*
X146652000Y-118736000I0J-200000D01*
G01*
X146652000Y-119136000D01*
G75*
G02*
X146452000Y-119336000I-200000J0D01*
G01*
X145902000Y-119336000D01*
G75*
G02*
X145702000Y-119136000I0J200000D01*
G01*
X145702000Y-118736000D01*
G75*
G02*
X145902000Y-118536000I200000J0D01*
G01*
G37*
%TD*%
D16*
%TO.C,L3*%
X135255000Y-101074400D03*
X135255000Y-105224400D03*
%TD*%
%TO.C,C21*%
G36*
G01*
X145715800Y-111917600D02*
X145215800Y-111917600D01*
G75*
G02*
X144990800Y-111692600I0J225000D01*
G01*
X144990800Y-111242600D01*
G75*
G02*
X145215800Y-111017600I225000J0D01*
G01*
X145715800Y-111017600D01*
G75*
G02*
X145940800Y-111242600I0J-225000D01*
G01*
X145940800Y-111692600D01*
G75*
G02*
X145715800Y-111917600I-225000J0D01*
G01*
G37*
G36*
G01*
X145715800Y-113467600D02*
X145215800Y-113467600D01*
G75*
G02*
X144990800Y-113242600I0J225000D01*
G01*
X144990800Y-112792600D01*
G75*
G02*
X145215800Y-112567600I225000J0D01*
G01*
X145715800Y-112567600D01*
G75*
G02*
X145940800Y-112792600I0J-225000D01*
G01*
X145940800Y-113242600D01*
G75*
G02*
X145715800Y-113467600I-225000J0D01*
G01*
G37*
%TD*%
%TO.C,C3*%
G36*
G01*
X126661100Y-83865600D02*
X127161100Y-83865600D01*
G75*
G02*
X127386100Y-84090600I0J-225000D01*
G01*
X127386100Y-84540600D01*
G75*
G02*
X127161100Y-84765600I-225000J0D01*
G01*
X126661100Y-84765600D01*
G75*
G02*
X126436100Y-84540600I0J225000D01*
G01*
X126436100Y-84090600D01*
G75*
G02*
X126661100Y-83865600I225000J0D01*
G01*
G37*
G36*
G01*
X126661100Y-82315600D02*
X127161100Y-82315600D01*
G75*
G02*
X127386100Y-82540600I0J-225000D01*
G01*
X127386100Y-82990600D01*
G75*
G02*
X127161100Y-83215600I-225000J0D01*
G01*
X126661100Y-83215600D01*
G75*
G02*
X126436100Y-82990600I0J225000D01*
G01*
X126436100Y-82540600D01*
G75*
G02*
X126661100Y-82315600I225000J0D01*
G01*
G37*
%TD*%
%TO.C,C1*%
G36*
G01*
X125339500Y-87333000D02*
X125339500Y-87673000D01*
G75*
G02*
X125199500Y-87813000I-140000J0D01*
G01*
X124919500Y-87813000D01*
G75*
G02*
X124779500Y-87673000I0J140000D01*
G01*
X124779500Y-87333000D01*
G75*
G02*
X124919500Y-87193000I140000J0D01*
G01*
X125199500Y-87193000D01*
G75*
G02*
X125339500Y-87333000I0J-140000D01*
G01*
G37*
G36*
G01*
X126299500Y-87333000D02*
X126299500Y-87673000D01*
G75*
G02*
X126159500Y-87813000I-140000J0D01*
G01*
X125879500Y-87813000D01*
G75*
G02*
X125739500Y-87673000I0J140000D01*
G01*
X125739500Y-87333000D01*
G75*
G02*
X125879500Y-87193000I140000J0D01*
G01*
X126159500Y-87193000D01*
G75*
G02*
X126299500Y-87333000I0J-140000D01*
G01*
G37*
%TD*%
%TO.C,C2*%
G36*
G01*
X125339500Y-89111000D02*
X125339500Y-89451000D01*
G75*
G02*
X125199500Y-89591000I-140000J0D01*
G01*
X124919500Y-89591000D01*
G75*
G02*
X124779500Y-89451000I0J140000D01*
G01*
X124779500Y-89111000D01*
G75*
G02*
X124919500Y-88971000I140000J0D01*
G01*
X125199500Y-88971000D01*
G75*
G02*
X125339500Y-89111000I0J-140000D01*
G01*
G37*
G36*
G01*
X126299500Y-89111000D02*
X126299500Y-89451000D01*
G75*
G02*
X126159500Y-89591000I-140000J0D01*
G01*
X125879500Y-89591000D01*
G75*
G02*
X125739500Y-89451000I0J140000D01*
G01*
X125739500Y-89111000D01*
G75*
G02*
X125879500Y-88971000I140000J0D01*
G01*
X126159500Y-88971000D01*
G75*
G02*
X126299500Y-89111000I0J-140000D01*
G01*
G37*
%TD*%
%TO.C,C4*%
G36*
G01*
X130704400Y-83228300D02*
X130204400Y-83228300D01*
G75*
G02*
X129979400Y-83003300I0J225000D01*
G01*
X129979400Y-82553300D01*
G75*
G02*
X130204400Y-82328300I225000J0D01*
G01*
X130704400Y-82328300D01*
G75*
G02*
X130929400Y-82553300I0J-225000D01*
G01*
X130929400Y-83003300D01*
G75*
G02*
X130704400Y-83228300I-225000J0D01*
G01*
G37*
G36*
G01*
X130704400Y-84778300D02*
X130204400Y-84778300D01*
G75*
G02*
X129979400Y-84553300I0J225000D01*
G01*
X129979400Y-84103300D01*
G75*
G02*
X130204400Y-83878300I225000J0D01*
G01*
X130704400Y-83878300D01*
G75*
G02*
X130929400Y-84103300I0J-225000D01*
G01*
X130929400Y-84553300D01*
G75*
G02*
X130704400Y-84778300I-225000J0D01*
G01*
G37*
%TD*%
%TO.C,C5*%
G36*
G01*
X134132500Y-92757600D02*
X134472500Y-92757600D01*
G75*
G02*
X134612500Y-92897600I0J-140000D01*
G01*
X134612500Y-93177600D01*
G75*
G02*
X134472500Y-93317600I-140000J0D01*
G01*
X134132500Y-93317600D01*
G75*
G02*
X133992500Y-93177600I0J140000D01*
G01*
X133992500Y-92897600D01*
G75*
G02*
X134132500Y-92757600I140000J0D01*
G01*
G37*
G36*
G01*
X134132500Y-91797600D02*
X134472500Y-91797600D01*
G75*
G02*
X134612500Y-91937600I0J-140000D01*
G01*
X134612500Y-92217600D01*
G75*
G02*
X134472500Y-92357600I-140000J0D01*
G01*
X134132500Y-92357600D01*
G75*
G02*
X133992500Y-92217600I0J140000D01*
G01*
X133992500Y-91937600D01*
G75*
G02*
X134132500Y-91797600I140000J0D01*
G01*
G37*
%TD*%
%TO.C,C6*%
G36*
G01*
X133063160Y-89430200D02*
X133403160Y-89430200D01*
G75*
G02*
X133543160Y-89570200I0J-140000D01*
G01*
X133543160Y-89850200D01*
G75*
G02*
X133403160Y-89990200I-140000J0D01*
G01*
X133063160Y-89990200D01*
G75*
G02*
X132923160Y-89850200I0J140000D01*
G01*
X132923160Y-89570200D01*
G75*
G02*
X133063160Y-89430200I140000J0D01*
G01*
G37*
G36*
G01*
X133063160Y-88470200D02*
X133403160Y-88470200D01*
G75*
G02*
X133543160Y-88610200I0J-140000D01*
G01*
X133543160Y-88890200D01*
G75*
G02*
X133403160Y-89030200I-140000J0D01*
G01*
X133063160Y-89030200D01*
G75*
G02*
X132923160Y-88890200I0J140000D01*
G01*
X132923160Y-88610200D01*
G75*
G02*
X133063160Y-88470200I140000J0D01*
G01*
G37*
%TD*%
%TO.C,C7*%
G36*
G01*
X135593000Y-83639000D02*
X135933000Y-83639000D01*
G75*
G02*
X136073000Y-83779000I0J-140000D01*
G01*
X136073000Y-84059000D01*
G75*
G02*
X135933000Y-84199000I-140000J0D01*
G01*
X135593000Y-84199000D01*
G75*
G02*
X135453000Y-84059000I0J140000D01*
G01*
X135453000Y-83779000D01*
G75*
G02*
X135593000Y-83639000I140000J0D01*
G01*
G37*
G36*
G01*
X135593000Y-82679000D02*
X135933000Y-82679000D01*
G75*
G02*
X136073000Y-82819000I0J-140000D01*
G01*
X136073000Y-83099000D01*
G75*
G02*
X135933000Y-83239000I-140000J0D01*
G01*
X135593000Y-83239000D01*
G75*
G02*
X135453000Y-83099000I0J140000D01*
G01*
X135453000Y-82819000D01*
G75*
G02*
X135593000Y-82679000I140000J0D01*
G01*
G37*
%TD*%
%TO.C,C8*%
G36*
G01*
X134409000Y-84585200D02*
X134069000Y-84585200D01*
G75*
G02*
X133929000Y-84445200I0J140000D01*
G01*
X133929000Y-84165200D01*
G75*
G02*
X134069000Y-84025200I140000J0D01*
G01*
X134409000Y-84025200D01*
G75*
G02*
X134549000Y-84165200I0J-140000D01*
G01*
X134549000Y-84445200D01*
G75*
G02*
X134409000Y-84585200I-140000J0D01*
G01*
G37*
G36*
G01*
X134409000Y-85545200D02*
X134069000Y-85545200D01*
G75*
G02*
X133929000Y-85405200I0J140000D01*
G01*
X133929000Y-85125200D01*
G75*
G02*
X134069000Y-84985200I140000J0D01*
G01*
X134409000Y-84985200D01*
G75*
G02*
X134549000Y-85125200I0J-140000D01*
G01*
X134549000Y-85405200D01*
G75*
G02*
X134409000Y-85545200I-140000J0D01*
G01*
G37*
%TD*%
%TO.C,C9*%
G36*
G01*
X146845200Y-95831000D02*
X147185200Y-95831000D01*
G75*
G02*
X147325200Y-95971000I0J-140000D01*
G01*
X147325200Y-96251000D01*
G75*
G02*
X147185200Y-96391000I-140000J0D01*
G01*
X146845200Y-96391000D01*
G75*
G02*
X146705200Y-96251000I0J140000D01*
G01*
X146705200Y-95971000D01*
G75*
G02*
X146845200Y-95831000I140000J0D01*
G01*
G37*
G36*
G01*
X146845200Y-94871000D02*
X147185200Y-94871000D01*
G75*
G02*
X147325200Y-95011000I0J-140000D01*
G01*
X147325200Y-95291000D01*
G75*
G02*
X147185200Y-95431000I-140000J0D01*
G01*
X146845200Y-95431000D01*
G75*
G02*
X146705200Y-95291000I0J140000D01*
G01*
X146705200Y-95011000D01*
G75*
G02*
X146845200Y-94871000I140000J0D01*
G01*
G37*
%TD*%
%TO.C,C10*%
G36*
G01*
X144162600Y-112601400D02*
X143822600Y-112601400D01*
G75*
G02*
X143682600Y-112461400I0J140000D01*
G01*
X143682600Y-112181400D01*
G75*
G02*
X143822600Y-112041400I140000J0D01*
G01*
X144162600Y-112041400D01*
G75*
G02*
X144302600Y-112181400I0J-140000D01*
G01*
X144302600Y-112461400D01*
G75*
G02*
X144162600Y-112601400I-140000J0D01*
G01*
G37*
G36*
G01*
X144162600Y-113561400D02*
X143822600Y-113561400D01*
G75*
G02*
X143682600Y-113421400I0J140000D01*
G01*
X143682600Y-113141400D01*
G75*
G02*
X143822600Y-113001400I140000J0D01*
G01*
X144162600Y-113001400D01*
G75*
G02*
X144302600Y-113141400I0J-140000D01*
G01*
X144302600Y-113421400D01*
G75*
G02*
X144162600Y-113561400I-140000J0D01*
G01*
G37*
%TD*%
%TO.C,C11*%
G36*
G01*
X140682800Y-112601400D02*
X140342800Y-112601400D01*
G75*
G02*
X140202800Y-112461400I0J140000D01*
G01*
X140202800Y-112181400D01*
G75*
G02*
X140342800Y-112041400I140000J0D01*
G01*
X140682800Y-112041400D01*
G75*
G02*
X140822800Y-112181400I0J-140000D01*
G01*
X140822800Y-112461400D01*
G75*
G02*
X140682800Y-112601400I-140000J0D01*
G01*
G37*
G36*
G01*
X140682800Y-113561400D02*
X140342800Y-113561400D01*
G75*
G02*
X140202800Y-113421400I0J140000D01*
G01*
X140202800Y-113141400D01*
G75*
G02*
X140342800Y-113001400I140000J0D01*
G01*
X140682800Y-113001400D01*
G75*
G02*
X140822800Y-113141400I0J-140000D01*
G01*
X140822800Y-113421400D01*
G75*
G02*
X140682800Y-113561400I-140000J0D01*
G01*
G37*
%TD*%
%TO.C,C12*%
G36*
G01*
X138600000Y-110417000D02*
X138260000Y-110417000D01*
G75*
G02*
X138120000Y-110277000I0J140000D01*
G01*
X138120000Y-109997000D01*
G75*
G02*
X138260000Y-109857000I140000J0D01*
G01*
X138600000Y-109857000D01*
G75*
G02*
X138740000Y-109997000I0J-140000D01*
G01*
X138740000Y-110277000D01*
G75*
G02*
X138600000Y-110417000I-140000J0D01*
G01*
G37*
G36*
G01*
X138600000Y-111377000D02*
X138260000Y-111377000D01*
G75*
G02*
X138120000Y-111237000I0J140000D01*
G01*
X138120000Y-110957000D01*
G75*
G02*
X138260000Y-110817000I140000J0D01*
G01*
X138600000Y-110817000D01*
G75*
G02*
X138740000Y-110957000I0J-140000D01*
G01*
X138740000Y-111237000D01*
G75*
G02*
X138600000Y-111377000I-140000J0D01*
G01*
G37*
%TD*%
%TO.C,C13*%
G36*
G01*
X137330000Y-110417000D02*
X136990000Y-110417000D01*
G75*
G02*
X136850000Y-110277000I0J140000D01*
G01*
X136850000Y-109997000D01*
G75*
G02*
X136990000Y-109857000I140000J0D01*
G01*
X137330000Y-109857000D01*
G75*
G02*
X137470000Y-109997000I0J-140000D01*
G01*
X137470000Y-110277000D01*
G75*
G02*
X137330000Y-110417000I-140000J0D01*
G01*
G37*
G36*
G01*
X137330000Y-111377000D02*
X136990000Y-111377000D01*
G75*
G02*
X136850000Y-111237000I0J140000D01*
G01*
X136850000Y-110957000D01*
G75*
G02*
X136990000Y-110817000I140000J0D01*
G01*
X137330000Y-110817000D01*
G75*
G02*
X137470000Y-110957000I0J-140000D01*
G01*
X137470000Y-111237000D01*
G75*
G02*
X137330000Y-111377000I-140000J0D01*
G01*
G37*
%TD*%
%TO.C,C14*%
G36*
G01*
X134094400Y-76234900D02*
X134434400Y-76234900D01*
G75*
G02*
X134574400Y-76374900I0J-140000D01*
G01*
X134574400Y-76654900D01*
G75*
G02*
X134434400Y-76794900I-140000J0D01*
G01*
X134094400Y-76794900D01*
G75*
G02*
X133954400Y-76654900I0J140000D01*
G01*
X133954400Y-76374900D01*
G75*
G02*
X134094400Y-76234900I140000J0D01*
G01*
G37*
G36*
G01*
X134094400Y-75274900D02*
X134434400Y-75274900D01*
G75*
G02*
X134574400Y-75414900I0J-140000D01*
G01*
X134574400Y-75694900D01*
G75*
G02*
X134434400Y-75834900I-140000J0D01*
G01*
X134094400Y-75834900D01*
G75*
G02*
X133954400Y-75694900I0J140000D01*
G01*
X133954400Y-75414900D01*
G75*
G02*
X134094400Y-75274900I140000J0D01*
G01*
G37*
%TD*%
%TO.C,C19*%
G36*
G01*
X145361000Y-116933800D02*
X145361000Y-116593800D01*
G75*
G02*
X145501000Y-116453800I140000J0D01*
G01*
X145781000Y-116453800D01*
G75*
G02*
X145921000Y-116593800I0J-140000D01*
G01*
X145921000Y-116933800D01*
G75*
G02*
X145781000Y-117073800I-140000J0D01*
G01*
X145501000Y-117073800D01*
G75*
G02*
X145361000Y-116933800I0J140000D01*
G01*
G37*
G36*
G01*
X144401000Y-116933800D02*
X144401000Y-116593800D01*
G75*
G02*
X144541000Y-116453800I140000J0D01*
G01*
X144821000Y-116453800D01*
G75*
G02*
X144961000Y-116593800I0J-140000D01*
G01*
X144961000Y-116933800D01*
G75*
G02*
X144821000Y-117073800I-140000J0D01*
G01*
X144541000Y-117073800D01*
G75*
G02*
X144401000Y-116933800I0J140000D01*
G01*
G37*
%TD*%
%TO.C,C20*%
G36*
G01*
X145361000Y-114800200D02*
X145361000Y-114460200D01*
G75*
G02*
X145501000Y-114320200I140000J0D01*
G01*
X145781000Y-114320200D01*
G75*
G02*
X145921000Y-114460200I0J-140000D01*
G01*
X145921000Y-114800200D01*
G75*
G02*
X145781000Y-114940200I-140000J0D01*
G01*
X145501000Y-114940200D01*
G75*
G02*
X145361000Y-114800200I0J140000D01*
G01*
G37*
G36*
G01*
X144401000Y-114800200D02*
X144401000Y-114460200D01*
G75*
G02*
X144541000Y-114320200I140000J0D01*
G01*
X144821000Y-114320200D01*
G75*
G02*
X144961000Y-114460200I0J-140000D01*
G01*
X144961000Y-114800200D01*
G75*
G02*
X144821000Y-114940200I-140000J0D01*
G01*
X144541000Y-114940200D01*
G75*
G02*
X144401000Y-114800200I0J140000D01*
G01*
G37*
%TD*%
%TO.C,C22*%
G36*
G01*
X140416400Y-109147800D02*
X140416400Y-109647800D01*
G75*
G02*
X140191400Y-109872800I-225000J0D01*
G01*
X139741400Y-109872800D01*
G75*
G02*
X139516400Y-109647800I0J225000D01*
G01*
X139516400Y-109147800D01*
G75*
G02*
X139741400Y-108922800I225000J0D01*
G01*
X140191400Y-108922800D01*
G75*
G02*
X140416400Y-109147800I0J-225000D01*
G01*
G37*
G36*
G01*
X141966400Y-109147800D02*
X141966400Y-109647800D01*
G75*
G02*
X141741400Y-109872800I-225000J0D01*
G01*
X141291400Y-109872800D01*
G75*
G02*
X141066400Y-109647800I0J225000D01*
G01*
X141066400Y-109147800D01*
G75*
G02*
X141291400Y-108922800I225000J0D01*
G01*
X141741400Y-108922800D01*
G75*
G02*
X141966400Y-109147800I0J-225000D01*
G01*
G37*
%TD*%
%TO.C,C23*%
G36*
G01*
X140416400Y-107649200D02*
X140416400Y-108149200D01*
G75*
G02*
X140191400Y-108374200I-225000J0D01*
G01*
X139741400Y-108374200D01*
G75*
G02*
X139516400Y-108149200I0J225000D01*
G01*
X139516400Y-107649200D01*
G75*
G02*
X139741400Y-107424200I225000J0D01*
G01*
X140191400Y-107424200D01*
G75*
G02*
X140416400Y-107649200I0J-225000D01*
G01*
G37*
G36*
G01*
X141966400Y-107649200D02*
X141966400Y-108149200D01*
G75*
G02*
X141741400Y-108374200I-225000J0D01*
G01*
X141291400Y-108374200D01*
G75*
G02*
X141066400Y-108149200I0J225000D01*
G01*
X141066400Y-107649200D01*
G75*
G02*
X141291400Y-107424200I225000J0D01*
G01*
X141741400Y-107424200D01*
G75*
G02*
X141966400Y-107649200I0J-225000D01*
G01*
G37*
%TD*%
%TO.C,C24*%
G36*
G01*
X140416400Y-106150600D02*
X140416400Y-106650600D01*
G75*
G02*
X140191400Y-106875600I-225000J0D01*
G01*
X139741400Y-106875600D01*
G75*
G02*
X139516400Y-106650600I0J225000D01*
G01*
X139516400Y-106150600D01*
G75*
G02*
X139741400Y-105925600I225000J0D01*
G01*
X140191400Y-105925600D01*
G75*
G02*
X140416400Y-106150600I0J-225000D01*
G01*
G37*
G36*
G01*
X141966400Y-106150600D02*
X141966400Y-106650600D01*
G75*
G02*
X141741400Y-106875600I-225000J0D01*
G01*
X141291400Y-106875600D01*
G75*
G02*
X141066400Y-106650600I0J225000D01*
G01*
X141066400Y-106150600D01*
G75*
G02*
X141291400Y-105925600I225000J0D01*
G01*
X141741400Y-105925600D01*
G75*
G02*
X141966400Y-106150600I0J-225000D01*
G01*
G37*
%TD*%
%TO.C,C25*%
G36*
G01*
X144980000Y-105707000D02*
X144980000Y-105367000D01*
G75*
G02*
X145120000Y-105227000I140000J0D01*
G01*
X145400000Y-105227000D01*
G75*
G02*
X145540000Y-105367000I0J-140000D01*
G01*
X145540000Y-105707000D01*
G75*
G02*
X145400000Y-105847000I-140000J0D01*
G01*
X145120000Y-105847000D01*
G75*
G02*
X144980000Y-105707000I0J140000D01*
G01*
G37*
G36*
G01*
X144020000Y-105707000D02*
X144020000Y-105367000D01*
G75*
G02*
X144160000Y-105227000I140000J0D01*
G01*
X144440000Y-105227000D01*
G75*
G02*
X144580000Y-105367000I0J-140000D01*
G01*
X144580000Y-105707000D01*
G75*
G02*
X144440000Y-105847000I-140000J0D01*
G01*
X144160000Y-105847000D01*
G75*
G02*
X144020000Y-105707000I0J140000D01*
G01*
G37*
%TD*%
%TO.C,C26*%
G36*
G01*
X148915000Y-116455000D02*
X148915000Y-115955000D01*
G75*
G02*
X149140000Y-115730000I225000J0D01*
G01*
X149590000Y-115730000D01*
G75*
G02*
X149815000Y-115955000I0J-225000D01*
G01*
X149815000Y-116455000D01*
G75*
G02*
X149590000Y-116680000I-225000J0D01*
G01*
X149140000Y-116680000D01*
G75*
G02*
X148915000Y-116455000I0J225000D01*
G01*
G37*
G36*
G01*
X147365000Y-116455000D02*
X147365000Y-115955000D01*
G75*
G02*
X147590000Y-115730000I225000J0D01*
G01*
X148040000Y-115730000D01*
G75*
G02*
X148265000Y-115955000I0J-225000D01*
G01*
X148265000Y-116455000D01*
G75*
G02*
X148040000Y-116680000I-225000J0D01*
G01*
X147590000Y-116680000D01*
G75*
G02*
X147365000Y-116455000I0J225000D01*
G01*
G37*
%TD*%
%TO.C,C27*%
G36*
G01*
X151328000Y-100389500D02*
X151328000Y-99889500D01*
G75*
G02*
X151553000Y-99664500I225000J0D01*
G01*
X152003000Y-99664500D01*
G75*
G02*
X152228000Y-99889500I0J-225000D01*
G01*
X152228000Y-100389500D01*
G75*
G02*
X152003000Y-100614500I-225000J0D01*
G01*
X151553000Y-100614500D01*
G75*
G02*
X151328000Y-100389500I0J225000D01*
G01*
G37*
G36*
G01*
X149778000Y-100389500D02*
X149778000Y-99889500D01*
G75*
G02*
X150003000Y-99664500I225000J0D01*
G01*
X150453000Y-99664500D01*
G75*
G02*
X150678000Y-99889500I0J-225000D01*
G01*
X150678000Y-100389500D01*
G75*
G02*
X150453000Y-100614500I-225000J0D01*
G01*
X150003000Y-100614500D01*
G75*
G02*
X149778000Y-100389500I0J225000D01*
G01*
G37*
%TD*%
%TO.C,C28*%
G36*
G01*
X152217000Y-110486000D02*
X152217000Y-109986000D01*
G75*
G02*
X152442000Y-109761000I225000J0D01*
G01*
X152892000Y-109761000D01*
G75*
G02*
X153117000Y-109986000I0J-225000D01*
G01*
X153117000Y-110486000D01*
G75*
G02*
X152892000Y-110711000I-225000J0D01*
G01*
X152442000Y-110711000D01*
G75*
G02*
X152217000Y-110486000I0J225000D01*
G01*
G37*
G36*
G01*
X150667000Y-110486000D02*
X150667000Y-109986000D01*
G75*
G02*
X150892000Y-109761000I225000J0D01*
G01*
X151342000Y-109761000D01*
G75*
G02*
X151567000Y-109986000I0J-225000D01*
G01*
X151567000Y-110486000D01*
G75*
G02*
X151342000Y-110711000I-225000J0D01*
G01*
X150892000Y-110711000D01*
G75*
G02*
X150667000Y-110486000I0J225000D01*
G01*
G37*
%TD*%
%TO.C,C29*%
G36*
G01*
X151328000Y-94547500D02*
X151328000Y-94047500D01*
G75*
G02*
X151553000Y-93822500I225000J0D01*
G01*
X152003000Y-93822500D01*
G75*
G02*
X152228000Y-94047500I0J-225000D01*
G01*
X152228000Y-94547500D01*
G75*
G02*
X152003000Y-94772500I-225000J0D01*
G01*
X151553000Y-94772500D01*
G75*
G02*
X151328000Y-94547500I0J225000D01*
G01*
G37*
G36*
G01*
X149778000Y-94547500D02*
X149778000Y-94047500D01*
G75*
G02*
X150003000Y-93822500I225000J0D01*
G01*
X150453000Y-93822500D01*
G75*
G02*
X150678000Y-94047500I0J-225000D01*
G01*
X150678000Y-94547500D01*
G75*
G02*
X150453000Y-94772500I-225000J0D01*
G01*
X150003000Y-94772500D01*
G75*
G02*
X149778000Y-94547500I0J225000D01*
G01*
G37*
%TD*%
%TO.C,D1*%
G36*
G01*
X134417750Y-120973000D02*
X135330250Y-120973000D01*
G75*
G02*
X135574000Y-121216750I0J-243750D01*
G01*
X135574000Y-121704250D01*
G75*
G02*
X135330250Y-121948000I-243750J0D01*
G01*
X134417750Y-121948000D01*
G75*
G02*
X134174000Y-121704250I0J243750D01*
G01*
X134174000Y-121216750D01*
G75*
G02*
X134417750Y-120973000I243750J0D01*
G01*
G37*
G36*
G01*
X134417750Y-119098000D02*
X135330250Y-119098000D01*
G75*
G02*
X135574000Y-119341750I0J-243750D01*
G01*
X135574000Y-119829250D01*
G75*
G02*
X135330250Y-120073000I-243750J0D01*
G01*
X134417750Y-120073000D01*
G75*
G02*
X134174000Y-119829250I0J243750D01*
G01*
X134174000Y-119341750D01*
G75*
G02*
X134417750Y-119098000I243750J0D01*
G01*
G37*
%TD*%
%TO.C,D2*%
G36*
G01*
X131750750Y-120973000D02*
X132663250Y-120973000D01*
G75*
G02*
X132907000Y-121216750I0J-243750D01*
G01*
X132907000Y-121704250D01*
G75*
G02*
X132663250Y-121948000I-243750J0D01*
G01*
X131750750Y-121948000D01*
G75*
G02*
X131507000Y-121704250I0J243750D01*
G01*
X131507000Y-121216750D01*
G75*
G02*
X131750750Y-120973000I243750J0D01*
G01*
G37*
G36*
G01*
X131750750Y-119098000D02*
X132663250Y-119098000D01*
G75*
G02*
X132907000Y-119341750I0J-243750D01*
G01*
X132907000Y-119829250D01*
G75*
G02*
X132663250Y-120073000I-243750J0D01*
G01*
X131750750Y-120073000D01*
G75*
G02*
X131507000Y-119829250I0J243750D01*
G01*
X131507000Y-119341750D01*
G75*
G02*
X131750750Y-119098000I243750J0D01*
G01*
G37*
%TD*%
%TO.C,D3*%
G36*
G01*
X151757800Y-83082450D02*
X151757800Y-82169950D01*
G75*
G02*
X152001550Y-81926200I243750J0D01*
G01*
X152489050Y-81926200D01*
G75*
G02*
X152732800Y-82169950I0J-243750D01*
G01*
X152732800Y-83082450D01*
G75*
G02*
X152489050Y-83326200I-243750J0D01*
G01*
X152001550Y-83326200D01*
G75*
G02*
X151757800Y-83082450I0J243750D01*
G01*
G37*
G36*
G01*
X149882800Y-83082450D02*
X149882800Y-82169950D01*
G75*
G02*
X150126550Y-81926200I243750J0D01*
G01*
X150614050Y-81926200D01*
G75*
G02*
X150857800Y-82169950I0J-243750D01*
G01*
X150857800Y-83082450D01*
G75*
G02*
X150614050Y-83326200I-243750J0D01*
G01*
X150126550Y-83326200D01*
G75*
G02*
X149882800Y-83082450I0J243750D01*
G01*
G37*
%TD*%
%TO.C,D4*%
G36*
G01*
X149173250Y-113088000D02*
X148260750Y-113088000D01*
G75*
G02*
X148017000Y-112844250I0J243750D01*
G01*
X148017000Y-112356750D01*
G75*
G02*
X148260750Y-112113000I243750J0D01*
G01*
X149173250Y-112113000D01*
G75*
G02*
X149417000Y-112356750I0J-243750D01*
G01*
X149417000Y-112844250D01*
G75*
G02*
X149173250Y-113088000I-243750J0D01*
G01*
G37*
G36*
G01*
X149173250Y-114963000D02*
X148260750Y-114963000D01*
G75*
G02*
X148017000Y-114719250I0J243750D01*
G01*
X148017000Y-114231750D01*
G75*
G02*
X148260750Y-113988000I243750J0D01*
G01*
X149173250Y-113988000D01*
G75*
G02*
X149417000Y-114231750I0J-243750D01*
G01*
X149417000Y-114719250D01*
G75*
G02*
X149173250Y-114963000I-243750J0D01*
G01*
G37*
%TD*%
D17*
%TO.C,D5*%
X133096000Y-114141000D03*
X133096000Y-110141000D03*
%TD*%
D18*
%TO.C,J1*%
X104521000Y-80264000D03*
X104521000Y-82804000D03*
X104521000Y-85344000D03*
X104521000Y-87884000D03*
D19*
X104521000Y-90424000D03*
%TD*%
D20*
%TO.C,J2*%
X137343000Y-121800000D03*
X144343000Y-121800000D03*
D21*
X138343000Y-119100000D03*
X143343000Y-119100000D03*
%TD*%
D22*
%TO.C,J3*%
X151892000Y-114776000D03*
D23*
X151892000Y-112776000D03*
%TD*%
D18*
%TO.C,J4*%
X104521000Y-96393000D03*
X104521000Y-98933000D03*
X104521000Y-101473000D03*
X104521000Y-104013000D03*
D19*
X104521000Y-106553000D03*
%TD*%
D24*
%TO.C,BOOT*%
G36*
X150952102Y-78598000D02*
G01*
X150952102Y-78573466D01*
X150956912Y-78524635D01*
X150966484Y-78476510D01*
X150980728Y-78429555D01*
X150999505Y-78384222D01*
X151022636Y-78340949D01*
X151049896Y-78300150D01*
X151081024Y-78262221D01*
X151115721Y-78227524D01*
X151153650Y-78196396D01*
X151194449Y-78169136D01*
X151237722Y-78146005D01*
X151283055Y-78127228D01*
X151330010Y-78112984D01*
X151378135Y-78103412D01*
X151426966Y-78098602D01*
X151451500Y-78098602D01*
X151451500Y-78098000D01*
X151951500Y-78098000D01*
X151951500Y-78098602D01*
X151976034Y-78098602D01*
X152024865Y-78103412D01*
X152072990Y-78112984D01*
X152119945Y-78127228D01*
X152165278Y-78146005D01*
X152208551Y-78169136D01*
X152249350Y-78196396D01*
X152287279Y-78227524D01*
X152321976Y-78262221D01*
X152353104Y-78300150D01*
X152380364Y-78340949D01*
X152403495Y-78384222D01*
X152422272Y-78429555D01*
X152436516Y-78476510D01*
X152446088Y-78524635D01*
X152450898Y-78573466D01*
X152450898Y-78598000D01*
X152451500Y-78598000D01*
X152451500Y-79098000D01*
X150951500Y-79098000D01*
X150951500Y-78598000D01*
X150952102Y-78598000D01*
G37*
G36*
X152451500Y-79398000D02*
G01*
X152451500Y-79898000D01*
X152450898Y-79898000D01*
X152450898Y-79922534D01*
X152446088Y-79971365D01*
X152436516Y-80019490D01*
X152422272Y-80066445D01*
X152403495Y-80111778D01*
X152380364Y-80155051D01*
X152353104Y-80195850D01*
X152321976Y-80233779D01*
X152287279Y-80268476D01*
X152249350Y-80299604D01*
X152208551Y-80326864D01*
X152165278Y-80349995D01*
X152119945Y-80368772D01*
X152072990Y-80383016D01*
X152024865Y-80392588D01*
X151976034Y-80397398D01*
X151951500Y-80397398D01*
X151951500Y-80398000D01*
X151451500Y-80398000D01*
X151451500Y-80397398D01*
X151426966Y-80397398D01*
X151378135Y-80392588D01*
X151330010Y-80383016D01*
X151283055Y-80368772D01*
X151237722Y-80349995D01*
X151194449Y-80326864D01*
X151153650Y-80299604D01*
X151115721Y-80268476D01*
X151081024Y-80233779D01*
X151049896Y-80195850D01*
X151022636Y-80155051D01*
X150999505Y-80111778D01*
X150980728Y-80066445D01*
X150966484Y-80019490D01*
X150956912Y-79971365D01*
X150952102Y-79922534D01*
X150952102Y-79898000D01*
X150951500Y-79898000D01*
X150951500Y-79398000D01*
X152451500Y-79398000D01*
G37*
%TD*%
%TO.C,RST*%
G36*
X130952200Y-92656702D02*
G01*
X130976734Y-92656702D01*
X131025565Y-92661512D01*
X131073690Y-92671084D01*
X131120645Y-92685328D01*
X131165978Y-92704105D01*
X131209251Y-92727236D01*
X131250050Y-92754496D01*
X131287979Y-92785624D01*
X131322676Y-92820321D01*
X131353804Y-92858250D01*
X131381064Y-92899049D01*
X131404195Y-92942322D01*
X131422972Y-92987655D01*
X131437216Y-93034610D01*
X131446788Y-93082735D01*
X131451598Y-93131566D01*
X131451598Y-93156100D01*
X131452200Y-93156100D01*
X131452200Y-93656100D01*
X131451598Y-93656100D01*
X131451598Y-93680634D01*
X131446788Y-93729465D01*
X131437216Y-93777590D01*
X131422972Y-93824545D01*
X131404195Y-93869878D01*
X131381064Y-93913151D01*
X131353804Y-93953950D01*
X131322676Y-93991879D01*
X131287979Y-94026576D01*
X131250050Y-94057704D01*
X131209251Y-94084964D01*
X131165978Y-94108095D01*
X131120645Y-94126872D01*
X131073690Y-94141116D01*
X131025565Y-94150688D01*
X130976734Y-94155498D01*
X130952200Y-94155498D01*
X130952200Y-94156100D01*
X130452200Y-94156100D01*
X130452200Y-92656100D01*
X130952200Y-92656100D01*
X130952200Y-92656702D01*
G37*
G36*
X130152200Y-94156100D02*
G01*
X129652200Y-94156100D01*
X129652200Y-94155498D01*
X129627666Y-94155498D01*
X129578835Y-94150688D01*
X129530710Y-94141116D01*
X129483755Y-94126872D01*
X129438422Y-94108095D01*
X129395149Y-94084964D01*
X129354350Y-94057704D01*
X129316421Y-94026576D01*
X129281724Y-93991879D01*
X129250596Y-93953950D01*
X129223336Y-93913151D01*
X129200205Y-93869878D01*
X129181428Y-93824545D01*
X129167184Y-93777590D01*
X129157612Y-93729465D01*
X129152802Y-93680634D01*
X129152802Y-93656100D01*
X129152200Y-93656100D01*
X129152200Y-93156100D01*
X129152802Y-93156100D01*
X129152802Y-93131566D01*
X129157612Y-93082735D01*
X129167184Y-93034610D01*
X129181428Y-92987655D01*
X129200205Y-92942322D01*
X129223336Y-92899049D01*
X129250596Y-92858250D01*
X129281724Y-92820321D01*
X129316421Y-92785624D01*
X129354350Y-92754496D01*
X129395149Y-92727236D01*
X129438422Y-92704105D01*
X129483755Y-92685328D01*
X129530710Y-92671084D01*
X129578835Y-92661512D01*
X129627666Y-92656702D01*
X129652200Y-92656702D01*
X129652200Y-92656100D01*
X130152200Y-92656100D01*
X130152200Y-94156100D01*
G37*
%TD*%
%TO.C,L1*%
G36*
G01*
X128420150Y-83903300D02*
X128932650Y-83903300D01*
G75*
G02*
X129151400Y-84122050I0J-218750D01*
G01*
X129151400Y-84559550D01*
G75*
G02*
X128932650Y-84778300I-218750J0D01*
G01*
X128420150Y-84778300D01*
G75*
G02*
X128201400Y-84559550I0J218750D01*
G01*
X128201400Y-84122050D01*
G75*
G02*
X128420150Y-83903300I218750J0D01*
G01*
G37*
G36*
G01*
X128420150Y-82328300D02*
X128932650Y-82328300D01*
G75*
G02*
X129151400Y-82547050I0J-218750D01*
G01*
X129151400Y-82984550D01*
G75*
G02*
X128932650Y-83203300I-218750J0D01*
G01*
X128420150Y-83203300D01*
G75*
G02*
X128201400Y-82984550I0J218750D01*
G01*
X128201400Y-82547050D01*
G75*
G02*
X128420150Y-82328300I218750J0D01*
G01*
G37*
%TD*%
%TO.C,L2*%
G36*
G01*
X143510250Y-115072000D02*
X142747750Y-115072000D01*
G75*
G02*
X142529000Y-114853250I0J218750D01*
G01*
X142529000Y-114415750D01*
G75*
G02*
X142747750Y-114197000I218750J0D01*
G01*
X143510250Y-114197000D01*
G75*
G02*
X143729000Y-114415750I0J-218750D01*
G01*
X143729000Y-114853250D01*
G75*
G02*
X143510250Y-115072000I-218750J0D01*
G01*
G37*
G36*
G01*
X143510250Y-117197000D02*
X142747750Y-117197000D01*
G75*
G02*
X142529000Y-116978250I0J218750D01*
G01*
X142529000Y-116540750D01*
G75*
G02*
X142747750Y-116322000I218750J0D01*
G01*
X143510250Y-116322000D01*
G75*
G02*
X143729000Y-116540750I0J-218750D01*
G01*
X143729000Y-116978250D01*
G75*
G02*
X143510250Y-117197000I-218750J0D01*
G01*
G37*
%TD*%
D25*
%TO.C,Q1*%
X116459000Y-86909400D03*
X117409000Y-88909400D03*
X115509000Y-88909400D03*
%TD*%
%TO.C,Q2*%
X151257000Y-84801200D03*
X152207000Y-86801200D03*
X150307000Y-86801200D03*
%TD*%
%TO.C,Q3*%
X150368000Y-105807000D03*
X151318000Y-107807000D03*
X149418000Y-107807000D03*
%TD*%
%TO.C,R1*%
G36*
G01*
X148322000Y-78798000D02*
X148322000Y-78428000D01*
G75*
G02*
X148457000Y-78293000I135000J0D01*
G01*
X148727000Y-78293000D01*
G75*
G02*
X148862000Y-78428000I0J-135000D01*
G01*
X148862000Y-78798000D01*
G75*
G02*
X148727000Y-78933000I-135000J0D01*
G01*
X148457000Y-78933000D01*
G75*
G02*
X148322000Y-78798000I0J135000D01*
G01*
G37*
G36*
G01*
X147302000Y-78798000D02*
X147302000Y-78428000D01*
G75*
G02*
X147437000Y-78293000I135000J0D01*
G01*
X147707000Y-78293000D01*
G75*
G02*
X147842000Y-78428000I0J-135000D01*
G01*
X147842000Y-78798000D01*
G75*
G02*
X147707000Y-78933000I-135000J0D01*
G01*
X147437000Y-78933000D01*
G75*
G02*
X147302000Y-78798000I0J135000D01*
G01*
G37*
%TD*%
%TO.C,R3*%
G36*
G01*
X134627200Y-88990200D02*
X134257200Y-88990200D01*
G75*
G02*
X134122200Y-88855200I0J135000D01*
G01*
X134122200Y-88585200D01*
G75*
G02*
X134257200Y-88450200I135000J0D01*
G01*
X134627200Y-88450200D01*
G75*
G02*
X134762200Y-88585200I0J-135000D01*
G01*
X134762200Y-88855200D01*
G75*
G02*
X134627200Y-88990200I-135000J0D01*
G01*
G37*
G36*
G01*
X134627200Y-90010200D02*
X134257200Y-90010200D01*
G75*
G02*
X134122200Y-89875200I0J135000D01*
G01*
X134122200Y-89605200D01*
G75*
G02*
X134257200Y-89470200I135000J0D01*
G01*
X134627200Y-89470200D01*
G75*
G02*
X134762200Y-89605200I0J-135000D01*
G01*
X134762200Y-89875200D01*
G75*
G02*
X134627200Y-90010200I-135000J0D01*
G01*
G37*
%TD*%
%TO.C,R4*%
G36*
G01*
X147842000Y-79761500D02*
X147842000Y-80131500D01*
G75*
G02*
X147707000Y-80266500I-135000J0D01*
G01*
X147437000Y-80266500D01*
G75*
G02*
X147302000Y-80131500I0J135000D01*
G01*
X147302000Y-79761500D01*
G75*
G02*
X147437000Y-79626500I135000J0D01*
G01*
X147707000Y-79626500D01*
G75*
G02*
X147842000Y-79761500I0J-135000D01*
G01*
G37*
G36*
G01*
X148862000Y-79761500D02*
X148862000Y-80131500D01*
G75*
G02*
X148727000Y-80266500I-135000J0D01*
G01*
X148457000Y-80266500D01*
G75*
G02*
X148322000Y-80131500I0J135000D01*
G01*
X148322000Y-79761500D01*
G75*
G02*
X148457000Y-79626500I135000J0D01*
G01*
X148727000Y-79626500D01*
G75*
G02*
X148862000Y-79761500I0J-135000D01*
G01*
G37*
%TD*%
%TO.C,R5*%
G36*
G01*
X133894800Y-81439600D02*
X133894800Y-81069600D01*
G75*
G02*
X134029800Y-80934600I135000J0D01*
G01*
X134299800Y-80934600D01*
G75*
G02*
X134434800Y-81069600I0J-135000D01*
G01*
X134434800Y-81439600D01*
G75*
G02*
X134299800Y-81574600I-135000J0D01*
G01*
X134029800Y-81574600D01*
G75*
G02*
X133894800Y-81439600I0J135000D01*
G01*
G37*
G36*
G01*
X132874800Y-81439600D02*
X132874800Y-81069600D01*
G75*
G02*
X133009800Y-80934600I135000J0D01*
G01*
X133279800Y-80934600D01*
G75*
G02*
X133414800Y-81069600I0J-135000D01*
G01*
X133414800Y-81439600D01*
G75*
G02*
X133279800Y-81574600I-135000J0D01*
G01*
X133009800Y-81574600D01*
G75*
G02*
X132874800Y-81439600I0J135000D01*
G01*
G37*
%TD*%
%TO.C,R6*%
G36*
G01*
X133894800Y-82709600D02*
X133894800Y-82339600D01*
G75*
G02*
X134029800Y-82204600I135000J0D01*
G01*
X134299800Y-82204600D01*
G75*
G02*
X134434800Y-82339600I0J-135000D01*
G01*
X134434800Y-82709600D01*
G75*
G02*
X134299800Y-82844600I-135000J0D01*
G01*
X134029800Y-82844600D01*
G75*
G02*
X133894800Y-82709600I0J135000D01*
G01*
G37*
G36*
G01*
X132874800Y-82709600D02*
X132874800Y-82339600D01*
G75*
G02*
X133009800Y-82204600I135000J0D01*
G01*
X133279800Y-82204600D01*
G75*
G02*
X133414800Y-82339600I0J-135000D01*
G01*
X133414800Y-82709600D01*
G75*
G02*
X133279800Y-82844600I-135000J0D01*
G01*
X133009800Y-82844600D01*
G75*
G02*
X132874800Y-82709600I0J135000D01*
G01*
G37*
%TD*%
%TO.C,R8*%
G36*
G01*
X142690000Y-113016000D02*
X143060000Y-113016000D01*
G75*
G02*
X143195000Y-113151000I0J-135000D01*
G01*
X143195000Y-113421000D01*
G75*
G02*
X143060000Y-113556000I-135000J0D01*
G01*
X142690000Y-113556000D01*
G75*
G02*
X142555000Y-113421000I0J135000D01*
G01*
X142555000Y-113151000D01*
G75*
G02*
X142690000Y-113016000I135000J0D01*
G01*
G37*
G36*
G01*
X142690000Y-111996000D02*
X143060000Y-111996000D01*
G75*
G02*
X143195000Y-112131000I0J-135000D01*
G01*
X143195000Y-112401000D01*
G75*
G02*
X143060000Y-112536000I-135000J0D01*
G01*
X142690000Y-112536000D01*
G75*
G02*
X142555000Y-112401000I0J135000D01*
G01*
X142555000Y-112131000D01*
G75*
G02*
X142690000Y-111996000I135000J0D01*
G01*
G37*
%TD*%
%TO.C,R9*%
G36*
G01*
X141420000Y-113016000D02*
X141790000Y-113016000D01*
G75*
G02*
X141925000Y-113151000I0J-135000D01*
G01*
X141925000Y-113421000D01*
G75*
G02*
X141790000Y-113556000I-135000J0D01*
G01*
X141420000Y-113556000D01*
G75*
G02*
X141285000Y-113421000I0J135000D01*
G01*
X141285000Y-113151000D01*
G75*
G02*
X141420000Y-113016000I135000J0D01*
G01*
G37*
G36*
G01*
X141420000Y-111996000D02*
X141790000Y-111996000D01*
G75*
G02*
X141925000Y-112131000I0J-135000D01*
G01*
X141925000Y-112401000D01*
G75*
G02*
X141790000Y-112536000I-135000J0D01*
G01*
X141420000Y-112536000D01*
G75*
G02*
X141285000Y-112401000I0J135000D01*
G01*
X141285000Y-112131000D01*
G75*
G02*
X141420000Y-111996000I135000J0D01*
G01*
G37*
%TD*%
%TO.C,R10*%
G36*
G01*
X135730400Y-110882400D02*
X136100400Y-110882400D01*
G75*
G02*
X136235400Y-111017400I0J-135000D01*
G01*
X136235400Y-111287400D01*
G75*
G02*
X136100400Y-111422400I-135000J0D01*
G01*
X135730400Y-111422400D01*
G75*
G02*
X135595400Y-111287400I0J135000D01*
G01*
X135595400Y-111017400D01*
G75*
G02*
X135730400Y-110882400I135000J0D01*
G01*
G37*
G36*
G01*
X135730400Y-109862400D02*
X136100400Y-109862400D01*
G75*
G02*
X136235400Y-109997400I0J-135000D01*
G01*
X136235400Y-110267400D01*
G75*
G02*
X136100400Y-110402400I-135000J0D01*
G01*
X135730400Y-110402400D01*
G75*
G02*
X135595400Y-110267400I0J135000D01*
G01*
X135595400Y-109997400D01*
G75*
G02*
X135730400Y-109862400I135000J0D01*
G01*
G37*
%TD*%
%TO.C,R13*%
G36*
G01*
X132447000Y-122968600D02*
X132447000Y-122598600D01*
G75*
G02*
X132582000Y-122463600I135000J0D01*
G01*
X132852000Y-122463600D01*
G75*
G02*
X132987000Y-122598600I0J-135000D01*
G01*
X132987000Y-122968600D01*
G75*
G02*
X132852000Y-123103600I-135000J0D01*
G01*
X132582000Y-123103600D01*
G75*
G02*
X132447000Y-122968600I0J135000D01*
G01*
G37*
G36*
G01*
X131427000Y-122968600D02*
X131427000Y-122598600D01*
G75*
G02*
X131562000Y-122463600I135000J0D01*
G01*
X131832000Y-122463600D01*
G75*
G02*
X131967000Y-122598600I0J-135000D01*
G01*
X131967000Y-122968600D01*
G75*
G02*
X131832000Y-123103600I-135000J0D01*
G01*
X131562000Y-123103600D01*
G75*
G02*
X131427000Y-122968600I0J135000D01*
G01*
G37*
%TD*%
%TO.C,R14*%
G36*
G01*
X120617400Y-90841800D02*
X120987400Y-90841800D01*
G75*
G02*
X121122400Y-90976800I0J-135000D01*
G01*
X121122400Y-91246800D01*
G75*
G02*
X120987400Y-91381800I-135000J0D01*
G01*
X120617400Y-91381800D01*
G75*
G02*
X120482400Y-91246800I0J135000D01*
G01*
X120482400Y-90976800D01*
G75*
G02*
X120617400Y-90841800I135000J0D01*
G01*
G37*
G36*
G01*
X120617400Y-89821800D02*
X120987400Y-89821800D01*
G75*
G02*
X121122400Y-89956800I0J-135000D01*
G01*
X121122400Y-90226800D01*
G75*
G02*
X120987400Y-90361800I-135000J0D01*
G01*
X120617400Y-90361800D01*
G75*
G02*
X120482400Y-90226800I0J135000D01*
G01*
X120482400Y-89956800D01*
G75*
G02*
X120617400Y-89821800I135000J0D01*
G01*
G37*
%TD*%
%TO.C,R15*%
G36*
G01*
X122497000Y-90841800D02*
X122867000Y-90841800D01*
G75*
G02*
X123002000Y-90976800I0J-135000D01*
G01*
X123002000Y-91246800D01*
G75*
G02*
X122867000Y-91381800I-135000J0D01*
G01*
X122497000Y-91381800D01*
G75*
G02*
X122362000Y-91246800I0J135000D01*
G01*
X122362000Y-90976800D01*
G75*
G02*
X122497000Y-90841800I135000J0D01*
G01*
G37*
G36*
G01*
X122497000Y-89821800D02*
X122867000Y-89821800D01*
G75*
G02*
X123002000Y-89956800I0J-135000D01*
G01*
X123002000Y-90226800D01*
G75*
G02*
X122867000Y-90361800I-135000J0D01*
G01*
X122497000Y-90361800D01*
G75*
G02*
X122362000Y-90226800I0J135000D01*
G01*
X122362000Y-89956800D01*
G75*
G02*
X122497000Y-89821800I135000J0D01*
G01*
G37*
%TD*%
%TO.C,R16*%
G36*
G01*
X119398200Y-90841800D02*
X119768200Y-90841800D01*
G75*
G02*
X119903200Y-90976800I0J-135000D01*
G01*
X119903200Y-91246800D01*
G75*
G02*
X119768200Y-91381800I-135000J0D01*
G01*
X119398200Y-91381800D01*
G75*
G02*
X119263200Y-91246800I0J135000D01*
G01*
X119263200Y-90976800D01*
G75*
G02*
X119398200Y-90841800I135000J0D01*
G01*
G37*
G36*
G01*
X119398200Y-89821800D02*
X119768200Y-89821800D01*
G75*
G02*
X119903200Y-89956800I0J-135000D01*
G01*
X119903200Y-90226800D01*
G75*
G02*
X119768200Y-90361800I-135000J0D01*
G01*
X119398200Y-90361800D01*
G75*
G02*
X119263200Y-90226800I0J135000D01*
G01*
X119263200Y-89956800D01*
G75*
G02*
X119398200Y-89821800I135000J0D01*
G01*
G37*
%TD*%
%TO.C,R17*%
G36*
G01*
X119779200Y-87387400D02*
X120149200Y-87387400D01*
G75*
G02*
X120284200Y-87522400I0J-135000D01*
G01*
X120284200Y-87792400D01*
G75*
G02*
X120149200Y-87927400I-135000J0D01*
G01*
X119779200Y-87927400D01*
G75*
G02*
X119644200Y-87792400I0J135000D01*
G01*
X119644200Y-87522400D01*
G75*
G02*
X119779200Y-87387400I135000J0D01*
G01*
G37*
G36*
G01*
X119779200Y-86367400D02*
X120149200Y-86367400D01*
G75*
G02*
X120284200Y-86502400I0J-135000D01*
G01*
X120284200Y-86772400D01*
G75*
G02*
X120149200Y-86907400I-135000J0D01*
G01*
X119779200Y-86907400D01*
G75*
G02*
X119644200Y-86772400I0J135000D01*
G01*
X119644200Y-86502400D01*
G75*
G02*
X119779200Y-86367400I135000J0D01*
G01*
G37*
%TD*%
%TO.C,R18*%
G36*
G01*
X150106800Y-89495600D02*
X150476800Y-89495600D01*
G75*
G02*
X150611800Y-89630600I0J-135000D01*
G01*
X150611800Y-89900600D01*
G75*
G02*
X150476800Y-90035600I-135000J0D01*
G01*
X150106800Y-90035600D01*
G75*
G02*
X149971800Y-89900600I0J135000D01*
G01*
X149971800Y-89630600D01*
G75*
G02*
X150106800Y-89495600I135000J0D01*
G01*
G37*
G36*
G01*
X150106800Y-88475600D02*
X150476800Y-88475600D01*
G75*
G02*
X150611800Y-88610600I0J-135000D01*
G01*
X150611800Y-88880600D01*
G75*
G02*
X150476800Y-89015600I-135000J0D01*
G01*
X150106800Y-89015600D01*
G75*
G02*
X149971800Y-88880600I0J135000D01*
G01*
X149971800Y-88610600D01*
G75*
G02*
X150106800Y-88475600I135000J0D01*
G01*
G37*
%TD*%
%TO.C,R19*%
G36*
G01*
X118610800Y-87387400D02*
X118980800Y-87387400D01*
G75*
G02*
X119115800Y-87522400I0J-135000D01*
G01*
X119115800Y-87792400D01*
G75*
G02*
X118980800Y-87927400I-135000J0D01*
G01*
X118610800Y-87927400D01*
G75*
G02*
X118475800Y-87792400I0J135000D01*
G01*
X118475800Y-87522400D01*
G75*
G02*
X118610800Y-87387400I135000J0D01*
G01*
G37*
G36*
G01*
X118610800Y-86367400D02*
X118980800Y-86367400D01*
G75*
G02*
X119115800Y-86502400I0J-135000D01*
G01*
X119115800Y-86772400D01*
G75*
G02*
X118980800Y-86907400I-135000J0D01*
G01*
X118610800Y-86907400D01*
G75*
G02*
X118475800Y-86772400I0J135000D01*
G01*
X118475800Y-86502400D01*
G75*
G02*
X118610800Y-86367400I135000J0D01*
G01*
G37*
%TD*%
%TO.C,R20*%
G36*
G01*
X151249800Y-89495600D02*
X151619800Y-89495600D01*
G75*
G02*
X151754800Y-89630600I0J-135000D01*
G01*
X151754800Y-89900600D01*
G75*
G02*
X151619800Y-90035600I-135000J0D01*
G01*
X151249800Y-90035600D01*
G75*
G02*
X151114800Y-89900600I0J135000D01*
G01*
X151114800Y-89630600D01*
G75*
G02*
X151249800Y-89495600I135000J0D01*
G01*
G37*
G36*
G01*
X151249800Y-88475600D02*
X151619800Y-88475600D01*
G75*
G02*
X151754800Y-88610600I0J-135000D01*
G01*
X151754800Y-88880600D01*
G75*
G02*
X151619800Y-89015600I-135000J0D01*
G01*
X151249800Y-89015600D01*
G75*
G02*
X151114800Y-88880600I0J135000D01*
G01*
X151114800Y-88610600D01*
G75*
G02*
X151249800Y-88475600I135000J0D01*
G01*
G37*
%TD*%
%TO.C,R21*%
G36*
G01*
X116191000Y-91320200D02*
X116191000Y-90950200D01*
G75*
G02*
X116326000Y-90815200I135000J0D01*
G01*
X116596000Y-90815200D01*
G75*
G02*
X116731000Y-90950200I0J-135000D01*
G01*
X116731000Y-91320200D01*
G75*
G02*
X116596000Y-91455200I-135000J0D01*
G01*
X116326000Y-91455200D01*
G75*
G02*
X116191000Y-91320200I0J135000D01*
G01*
G37*
G36*
G01*
X115171000Y-91320200D02*
X115171000Y-90950200D01*
G75*
G02*
X115306000Y-90815200I135000J0D01*
G01*
X115576000Y-90815200D01*
G75*
G02*
X115711000Y-90950200I0J-135000D01*
G01*
X115711000Y-91320200D01*
G75*
G02*
X115576000Y-91455200I-135000J0D01*
G01*
X115306000Y-91455200D01*
G75*
G02*
X115171000Y-91320200I0J135000D01*
G01*
G37*
%TD*%
%TO.C,R22*%
G36*
G01*
X152342000Y-89495600D02*
X152712000Y-89495600D01*
G75*
G02*
X152847000Y-89630600I0J-135000D01*
G01*
X152847000Y-89900600D01*
G75*
G02*
X152712000Y-90035600I-135000J0D01*
G01*
X152342000Y-90035600D01*
G75*
G02*
X152207000Y-89900600I0J135000D01*
G01*
X152207000Y-89630600D01*
G75*
G02*
X152342000Y-89495600I135000J0D01*
G01*
G37*
G36*
G01*
X152342000Y-88475600D02*
X152712000Y-88475600D01*
G75*
G02*
X152847000Y-88610600I0J-135000D01*
G01*
X152847000Y-88880600D01*
G75*
G02*
X152712000Y-89015600I-135000J0D01*
G01*
X152342000Y-89015600D01*
G75*
G02*
X152207000Y-88880600I0J135000D01*
G01*
X152207000Y-88610600D01*
G75*
G02*
X152342000Y-88475600I135000J0D01*
G01*
G37*
%TD*%
%TO.C,R23*%
G36*
G01*
X115385000Y-75220800D02*
X115755000Y-75220800D01*
G75*
G02*
X115890000Y-75355800I0J-135000D01*
G01*
X115890000Y-75625800D01*
G75*
G02*
X115755000Y-75760800I-135000J0D01*
G01*
X115385000Y-75760800D01*
G75*
G02*
X115250000Y-75625800I0J135000D01*
G01*
X115250000Y-75355800D01*
G75*
G02*
X115385000Y-75220800I135000J0D01*
G01*
G37*
G36*
G01*
X115385000Y-74200800D02*
X115755000Y-74200800D01*
G75*
G02*
X115890000Y-74335800I0J-135000D01*
G01*
X115890000Y-74605800D01*
G75*
G02*
X115755000Y-74740800I-135000J0D01*
G01*
X115385000Y-74740800D01*
G75*
G02*
X115250000Y-74605800I0J135000D01*
G01*
X115250000Y-74335800D01*
G75*
G02*
X115385000Y-74200800I135000J0D01*
G01*
G37*
%TD*%
%TO.C,R24*%
G36*
G01*
X117925000Y-75195400D02*
X118295000Y-75195400D01*
G75*
G02*
X118430000Y-75330400I0J-135000D01*
G01*
X118430000Y-75600400D01*
G75*
G02*
X118295000Y-75735400I-135000J0D01*
G01*
X117925000Y-75735400D01*
G75*
G02*
X117790000Y-75600400I0J135000D01*
G01*
X117790000Y-75330400D01*
G75*
G02*
X117925000Y-75195400I135000J0D01*
G01*
G37*
G36*
G01*
X117925000Y-74175400D02*
X118295000Y-74175400D01*
G75*
G02*
X118430000Y-74310400I0J-135000D01*
G01*
X118430000Y-74580400D01*
G75*
G02*
X118295000Y-74715400I-135000J0D01*
G01*
X117925000Y-74715400D01*
G75*
G02*
X117790000Y-74580400I0J135000D01*
G01*
X117790000Y-74310400D01*
G75*
G02*
X117925000Y-74175400I135000J0D01*
G01*
G37*
%TD*%
%TO.C,R25*%
G36*
G01*
X119775000Y-75278400D02*
X119775000Y-75648400D01*
G75*
G02*
X119640000Y-75783400I-135000J0D01*
G01*
X119370000Y-75783400D01*
G75*
G02*
X119235000Y-75648400I0J135000D01*
G01*
X119235000Y-75278400D01*
G75*
G02*
X119370000Y-75143400I135000J0D01*
G01*
X119640000Y-75143400D01*
G75*
G02*
X119775000Y-75278400I0J-135000D01*
G01*
G37*
G36*
G01*
X120795000Y-75278400D02*
X120795000Y-75648400D01*
G75*
G02*
X120660000Y-75783400I-135000J0D01*
G01*
X120390000Y-75783400D01*
G75*
G02*
X120255000Y-75648400I0J135000D01*
G01*
X120255000Y-75278400D01*
G75*
G02*
X120390000Y-75143400I135000J0D01*
G01*
X120660000Y-75143400D01*
G75*
G02*
X120795000Y-75278400I0J-135000D01*
G01*
G37*
%TD*%
%TO.C,R27*%
G36*
G01*
X149465000Y-111310000D02*
X149465000Y-110940000D01*
G75*
G02*
X149600000Y-110805000I135000J0D01*
G01*
X149870000Y-110805000D01*
G75*
G02*
X150005000Y-110940000I0J-135000D01*
G01*
X150005000Y-111310000D01*
G75*
G02*
X149870000Y-111445000I-135000J0D01*
G01*
X149600000Y-111445000D01*
G75*
G02*
X149465000Y-111310000I0J135000D01*
G01*
G37*
G36*
G01*
X148445000Y-111310000D02*
X148445000Y-110940000D01*
G75*
G02*
X148580000Y-110805000I135000J0D01*
G01*
X148850000Y-110805000D01*
G75*
G02*
X148985000Y-110940000I0J-135000D01*
G01*
X148985000Y-111310000D01*
G75*
G02*
X148850000Y-111445000I-135000J0D01*
G01*
X148580000Y-111445000D01*
G75*
G02*
X148445000Y-111310000I0J135000D01*
G01*
G37*
%TD*%
%TO.C,R28*%
G36*
G01*
X147378000Y-110758000D02*
X147008000Y-110758000D01*
G75*
G02*
X146873000Y-110623000I0J135000D01*
G01*
X146873000Y-110353000D01*
G75*
G02*
X147008000Y-110218000I135000J0D01*
G01*
X147378000Y-110218000D01*
G75*
G02*
X147513000Y-110353000I0J-135000D01*
G01*
X147513000Y-110623000D01*
G75*
G02*
X147378000Y-110758000I-135000J0D01*
G01*
G37*
G36*
G01*
X147378000Y-111778000D02*
X147008000Y-111778000D01*
G75*
G02*
X146873000Y-111643000I0J135000D01*
G01*
X146873000Y-111373000D01*
G75*
G02*
X147008000Y-111238000I135000J0D01*
G01*
X147378000Y-111238000D01*
G75*
G02*
X147513000Y-111373000I0J-135000D01*
G01*
X147513000Y-111643000D01*
G75*
G02*
X147378000Y-111778000I-135000J0D01*
G01*
G37*
%TD*%
%TO.C,R29*%
G36*
G01*
X148985000Y-109797000D02*
X148985000Y-110167000D01*
G75*
G02*
X148850000Y-110302000I-135000J0D01*
G01*
X148580000Y-110302000D01*
G75*
G02*
X148445000Y-110167000I0J135000D01*
G01*
X148445000Y-109797000D01*
G75*
G02*
X148580000Y-109662000I135000J0D01*
G01*
X148850000Y-109662000D01*
G75*
G02*
X148985000Y-109797000I0J-135000D01*
G01*
G37*
G36*
G01*
X150005000Y-109797000D02*
X150005000Y-110167000D01*
G75*
G02*
X149870000Y-110302000I-135000J0D01*
G01*
X149600000Y-110302000D01*
G75*
G02*
X149465000Y-110167000I0J135000D01*
G01*
X149465000Y-109797000D01*
G75*
G02*
X149600000Y-109662000I135000J0D01*
G01*
X149870000Y-109662000D01*
G75*
G02*
X150005000Y-109797000I0J-135000D01*
G01*
G37*
%TD*%
%TO.C,R30*%
G36*
G01*
X141395000Y-100224000D02*
X141395000Y-99674000D01*
G75*
G02*
X141595000Y-99474000I200000J0D01*
G01*
X141995000Y-99474000D01*
G75*
G02*
X142195000Y-99674000I0J-200000D01*
G01*
X142195000Y-100224000D01*
G75*
G02*
X141995000Y-100424000I-200000J0D01*
G01*
X141595000Y-100424000D01*
G75*
G02*
X141395000Y-100224000I0J200000D01*
G01*
G37*
G36*
G01*
X139745000Y-100224000D02*
X139745000Y-99674000D01*
G75*
G02*
X139945000Y-99474000I200000J0D01*
G01*
X140345000Y-99474000D01*
G75*
G02*
X140545000Y-99674000I0J-200000D01*
G01*
X140545000Y-100224000D01*
G75*
G02*
X140345000Y-100424000I-200000J0D01*
G01*
X139945000Y-100424000D01*
G75*
G02*
X139745000Y-100224000I0J200000D01*
G01*
G37*
%TD*%
%TO.C,R31*%
G36*
G01*
X145205000Y-99843000D02*
X145205000Y-99293000D01*
G75*
G02*
X145405000Y-99093000I200000J0D01*
G01*
X145805000Y-99093000D01*
G75*
G02*
X146005000Y-99293000I0J-200000D01*
G01*
X146005000Y-99843000D01*
G75*
G02*
X145805000Y-100043000I-200000J0D01*
G01*
X145405000Y-100043000D01*
G75*
G02*
X145205000Y-99843000I0J200000D01*
G01*
G37*
G36*
G01*
X143555000Y-99843000D02*
X143555000Y-99293000D01*
G75*
G02*
X143755000Y-99093000I200000J0D01*
G01*
X144155000Y-99093000D01*
G75*
G02*
X144355000Y-99293000I0J-200000D01*
G01*
X144355000Y-99843000D01*
G75*
G02*
X144155000Y-100043000I-200000J0D01*
G01*
X143755000Y-100043000D01*
G75*
G02*
X143555000Y-99843000I0J200000D01*
G01*
G37*
%TD*%
%TO.C,R32*%
G36*
G01*
X141395000Y-98700000D02*
X141395000Y-98150000D01*
G75*
G02*
X141595000Y-97950000I200000J0D01*
G01*
X141995000Y-97950000D01*
G75*
G02*
X142195000Y-98150000I0J-200000D01*
G01*
X142195000Y-98700000D01*
G75*
G02*
X141995000Y-98900000I-200000J0D01*
G01*
X141595000Y-98900000D01*
G75*
G02*
X141395000Y-98700000I0J200000D01*
G01*
G37*
G36*
G01*
X139745000Y-98700000D02*
X139745000Y-98150000D01*
G75*
G02*
X139945000Y-97950000I200000J0D01*
G01*
X140345000Y-97950000D01*
G75*
G02*
X140545000Y-98150000I0J-200000D01*
G01*
X140545000Y-98700000D01*
G75*
G02*
X140345000Y-98900000I-200000J0D01*
G01*
X139945000Y-98900000D01*
G75*
G02*
X139745000Y-98700000I0J200000D01*
G01*
G37*
%TD*%
D26*
%TO.C,SW1*%
X142795000Y-74547000D03*
X140295000Y-74547000D03*
X137795000Y-74547000D03*
X142795000Y-71247000D03*
X140295000Y-71247000D03*
D27*
X137795000Y-71247000D03*
%TD*%
D26*
%TO.C,SW2*%
X142795000Y-80389000D03*
X140295000Y-80389000D03*
X137795000Y-80389000D03*
X142795000Y-77089000D03*
X140295000Y-77089000D03*
D27*
X137795000Y-77089000D03*
%TD*%
%TO.C,U1*%
G36*
G01*
X137959000Y-84052000D02*
X137959000Y-82652000D01*
G75*
G02*
X138034000Y-82577000I75000J0D01*
G01*
X138184000Y-82577000D01*
G75*
G02*
X138259000Y-82652000I0J-75000D01*
G01*
X138259000Y-84052000D01*
G75*
G02*
X138184000Y-84127000I-75000J0D01*
G01*
X138034000Y-84127000D01*
G75*
G02*
X137959000Y-84052000I0J75000D01*
G01*
G37*
G36*
G01*
X138459000Y-84052000D02*
X138459000Y-82652000D01*
G75*
G02*
X138534000Y-82577000I75000J0D01*
G01*
X138684000Y-82577000D01*
G75*
G02*
X138759000Y-82652000I0J-75000D01*
G01*
X138759000Y-84052000D01*
G75*
G02*
X138684000Y-84127000I-75000J0D01*
G01*
X138534000Y-84127000D01*
G75*
G02*
X138459000Y-84052000I0J75000D01*
G01*
G37*
G36*
G01*
X138959000Y-84052000D02*
X138959000Y-82652000D01*
G75*
G02*
X139034000Y-82577000I75000J0D01*
G01*
X139184000Y-82577000D01*
G75*
G02*
X139259000Y-82652000I0J-75000D01*
G01*
X139259000Y-84052000D01*
G75*
G02*
X139184000Y-84127000I-75000J0D01*
G01*
X139034000Y-84127000D01*
G75*
G02*
X138959000Y-84052000I0J75000D01*
G01*
G37*
G36*
G01*
X139459000Y-84052000D02*
X139459000Y-82652000D01*
G75*
G02*
X139534000Y-82577000I75000J0D01*
G01*
X139684000Y-82577000D01*
G75*
G02*
X139759000Y-82652000I0J-75000D01*
G01*
X139759000Y-84052000D01*
G75*
G02*
X139684000Y-84127000I-75000J0D01*
G01*
X139534000Y-84127000D01*
G75*
G02*
X139459000Y-84052000I0J75000D01*
G01*
G37*
G36*
G01*
X139959000Y-84052000D02*
X139959000Y-82652000D01*
G75*
G02*
X140034000Y-82577000I75000J0D01*
G01*
X140184000Y-82577000D01*
G75*
G02*
X140259000Y-82652000I0J-75000D01*
G01*
X140259000Y-84052000D01*
G75*
G02*
X140184000Y-84127000I-75000J0D01*
G01*
X140034000Y-84127000D01*
G75*
G02*
X139959000Y-84052000I0J75000D01*
G01*
G37*
G36*
G01*
X140459000Y-84052000D02*
X140459000Y-82652000D01*
G75*
G02*
X140534000Y-82577000I75000J0D01*
G01*
X140684000Y-82577000D01*
G75*
G02*
X140759000Y-82652000I0J-75000D01*
G01*
X140759000Y-84052000D01*
G75*
G02*
X140684000Y-84127000I-75000J0D01*
G01*
X140534000Y-84127000D01*
G75*
G02*
X140459000Y-84052000I0J75000D01*
G01*
G37*
G36*
G01*
X140959000Y-84052000D02*
X140959000Y-82652000D01*
G75*
G02*
X141034000Y-82577000I75000J0D01*
G01*
X141184000Y-82577000D01*
G75*
G02*
X141259000Y-82652000I0J-75000D01*
G01*
X141259000Y-84052000D01*
G75*
G02*
X141184000Y-84127000I-75000J0D01*
G01*
X141034000Y-84127000D01*
G75*
G02*
X140959000Y-84052000I0J75000D01*
G01*
G37*
G36*
G01*
X141459000Y-84052000D02*
X141459000Y-82652000D01*
G75*
G02*
X141534000Y-82577000I75000J0D01*
G01*
X141684000Y-82577000D01*
G75*
G02*
X141759000Y-82652000I0J-75000D01*
G01*
X141759000Y-84052000D01*
G75*
G02*
X141684000Y-84127000I-75000J0D01*
G01*
X141534000Y-84127000D01*
G75*
G02*
X141459000Y-84052000I0J75000D01*
G01*
G37*
G36*
G01*
X141959000Y-84052000D02*
X141959000Y-82652000D01*
G75*
G02*
X142034000Y-82577000I75000J0D01*
G01*
X142184000Y-82577000D01*
G75*
G02*
X142259000Y-82652000I0J-75000D01*
G01*
X142259000Y-84052000D01*
G75*
G02*
X142184000Y-84127000I-75000J0D01*
G01*
X142034000Y-84127000D01*
G75*
G02*
X141959000Y-84052000I0J75000D01*
G01*
G37*
G36*
G01*
X142459000Y-84052000D02*
X142459000Y-82652000D01*
G75*
G02*
X142534000Y-82577000I75000J0D01*
G01*
X142684000Y-82577000D01*
G75*
G02*
X142759000Y-82652000I0J-75000D01*
G01*
X142759000Y-84052000D01*
G75*
G02*
X142684000Y-84127000I-75000J0D01*
G01*
X142534000Y-84127000D01*
G75*
G02*
X142459000Y-84052000I0J75000D01*
G01*
G37*
G36*
G01*
X142959000Y-84052000D02*
X142959000Y-82652000D01*
G75*
G02*
X143034000Y-82577000I75000J0D01*
G01*
X143184000Y-82577000D01*
G75*
G02*
X143259000Y-82652000I0J-75000D01*
G01*
X143259000Y-84052000D01*
G75*
G02*
X143184000Y-84127000I-75000J0D01*
G01*
X143034000Y-84127000D01*
G75*
G02*
X142959000Y-84052000I0J75000D01*
G01*
G37*
G36*
G01*
X143459000Y-84052000D02*
X143459000Y-82652000D01*
G75*
G02*
X143534000Y-82577000I75000J0D01*
G01*
X143684000Y-82577000D01*
G75*
G02*
X143759000Y-82652000I0J-75000D01*
G01*
X143759000Y-84052000D01*
G75*
G02*
X143684000Y-84127000I-75000J0D01*
G01*
X143534000Y-84127000D01*
G75*
G02*
X143459000Y-84052000I0J75000D01*
G01*
G37*
G36*
G01*
X143959000Y-84052000D02*
X143959000Y-82652000D01*
G75*
G02*
X144034000Y-82577000I75000J0D01*
G01*
X144184000Y-82577000D01*
G75*
G02*
X144259000Y-82652000I0J-75000D01*
G01*
X144259000Y-84052000D01*
G75*
G02*
X144184000Y-84127000I-75000J0D01*
G01*
X144034000Y-84127000D01*
G75*
G02*
X143959000Y-84052000I0J75000D01*
G01*
G37*
G36*
G01*
X144459000Y-84052000D02*
X144459000Y-82652000D01*
G75*
G02*
X144534000Y-82577000I75000J0D01*
G01*
X144684000Y-82577000D01*
G75*
G02*
X144759000Y-82652000I0J-75000D01*
G01*
X144759000Y-84052000D01*
G75*
G02*
X144684000Y-84127000I-75000J0D01*
G01*
X144534000Y-84127000D01*
G75*
G02*
X144459000Y-84052000I0J75000D01*
G01*
G37*
G36*
G01*
X144959000Y-84052000D02*
X144959000Y-82652000D01*
G75*
G02*
X145034000Y-82577000I75000J0D01*
G01*
X145184000Y-82577000D01*
G75*
G02*
X145259000Y-82652000I0J-75000D01*
G01*
X145259000Y-84052000D01*
G75*
G02*
X145184000Y-84127000I-75000J0D01*
G01*
X145034000Y-84127000D01*
G75*
G02*
X144959000Y-84052000I0J75000D01*
G01*
G37*
G36*
G01*
X145459000Y-84052000D02*
X145459000Y-82652000D01*
G75*
G02*
X145534000Y-82577000I75000J0D01*
G01*
X145684000Y-82577000D01*
G75*
G02*
X145759000Y-82652000I0J-75000D01*
G01*
X145759000Y-84052000D01*
G75*
G02*
X145684000Y-84127000I-75000J0D01*
G01*
X145534000Y-84127000D01*
G75*
G02*
X145459000Y-84052000I0J75000D01*
G01*
G37*
G36*
G01*
X146759000Y-85352000D02*
X146759000Y-85202000D01*
G75*
G02*
X146834000Y-85127000I75000J0D01*
G01*
X148234000Y-85127000D01*
G75*
G02*
X148309000Y-85202000I0J-75000D01*
G01*
X148309000Y-85352000D01*
G75*
G02*
X148234000Y-85427000I-75000J0D01*
G01*
X146834000Y-85427000D01*
G75*
G02*
X146759000Y-85352000I0J75000D01*
G01*
G37*
G36*
G01*
X146759000Y-85852000D02*
X146759000Y-85702000D01*
G75*
G02*
X146834000Y-85627000I75000J0D01*
G01*
X148234000Y-85627000D01*
G75*
G02*
X148309000Y-85702000I0J-75000D01*
G01*
X148309000Y-85852000D01*
G75*
G02*
X148234000Y-85927000I-75000J0D01*
G01*
X146834000Y-85927000D01*
G75*
G02*
X146759000Y-85852000I0J75000D01*
G01*
G37*
G36*
G01*
X146759000Y-86352000D02*
X146759000Y-86202000D01*
G75*
G02*
X146834000Y-86127000I75000J0D01*
G01*
X148234000Y-86127000D01*
G75*
G02*
X148309000Y-86202000I0J-75000D01*
G01*
X148309000Y-86352000D01*
G75*
G02*
X148234000Y-86427000I-75000J0D01*
G01*
X146834000Y-86427000D01*
G75*
G02*
X146759000Y-86352000I0J75000D01*
G01*
G37*
G36*
G01*
X146759000Y-86852000D02*
X146759000Y-86702000D01*
G75*
G02*
X146834000Y-86627000I75000J0D01*
G01*
X148234000Y-86627000D01*
G75*
G02*
X148309000Y-86702000I0J-75000D01*
G01*
X148309000Y-86852000D01*
G75*
G02*
X148234000Y-86927000I-75000J0D01*
G01*
X146834000Y-86927000D01*
G75*
G02*
X146759000Y-86852000I0J75000D01*
G01*
G37*
G36*
G01*
X146759000Y-87352000D02*
X146759000Y-87202000D01*
G75*
G02*
X146834000Y-87127000I75000J0D01*
G01*
X148234000Y-87127000D01*
G75*
G02*
X148309000Y-87202000I0J-75000D01*
G01*
X148309000Y-87352000D01*
G75*
G02*
X148234000Y-87427000I-75000J0D01*
G01*
X146834000Y-87427000D01*
G75*
G02*
X146759000Y-87352000I0J75000D01*
G01*
G37*
G36*
G01*
X146759000Y-87852000D02*
X146759000Y-87702000D01*
G75*
G02*
X146834000Y-87627000I75000J0D01*
G01*
X148234000Y-87627000D01*
G75*
G02*
X148309000Y-87702000I0J-75000D01*
G01*
X148309000Y-87852000D01*
G75*
G02*
X148234000Y-87927000I-75000J0D01*
G01*
X146834000Y-87927000D01*
G75*
G02*
X146759000Y-87852000I0J75000D01*
G01*
G37*
G36*
G01*
X146759000Y-88352000D02*
X146759000Y-88202000D01*
G75*
G02*
X146834000Y-88127000I75000J0D01*
G01*
X148234000Y-88127000D01*
G75*
G02*
X148309000Y-88202000I0J-75000D01*
G01*
X148309000Y-88352000D01*
G75*
G02*
X148234000Y-88427000I-75000J0D01*
G01*
X146834000Y-88427000D01*
G75*
G02*
X146759000Y-88352000I0J75000D01*
G01*
G37*
G36*
G01*
X146759000Y-88852000D02*
X146759000Y-88702000D01*
G75*
G02*
X146834000Y-88627000I75000J0D01*
G01*
X148234000Y-88627000D01*
G75*
G02*
X148309000Y-88702000I0J-75000D01*
G01*
X148309000Y-88852000D01*
G75*
G02*
X148234000Y-88927000I-75000J0D01*
G01*
X146834000Y-88927000D01*
G75*
G02*
X146759000Y-88852000I0J75000D01*
G01*
G37*
G36*
G01*
X146759000Y-89352000D02*
X146759000Y-89202000D01*
G75*
G02*
X146834000Y-89127000I75000J0D01*
G01*
X148234000Y-89127000D01*
G75*
G02*
X148309000Y-89202000I0J-75000D01*
G01*
X148309000Y-89352000D01*
G75*
G02*
X148234000Y-89427000I-75000J0D01*
G01*
X146834000Y-89427000D01*
G75*
G02*
X146759000Y-89352000I0J75000D01*
G01*
G37*
G36*
G01*
X146759000Y-89852000D02*
X146759000Y-89702000D01*
G75*
G02*
X146834000Y-89627000I75000J0D01*
G01*
X148234000Y-89627000D01*
G75*
G02*
X148309000Y-89702000I0J-75000D01*
G01*
X148309000Y-89852000D01*
G75*
G02*
X148234000Y-89927000I-75000J0D01*
G01*
X146834000Y-89927000D01*
G75*
G02*
X146759000Y-89852000I0J75000D01*
G01*
G37*
G36*
G01*
X146759000Y-90352000D02*
X146759000Y-90202000D01*
G75*
G02*
X146834000Y-90127000I75000J0D01*
G01*
X148234000Y-90127000D01*
G75*
G02*
X148309000Y-90202000I0J-75000D01*
G01*
X148309000Y-90352000D01*
G75*
G02*
X148234000Y-90427000I-75000J0D01*
G01*
X146834000Y-90427000D01*
G75*
G02*
X146759000Y-90352000I0J75000D01*
G01*
G37*
G36*
G01*
X146759000Y-90852000D02*
X146759000Y-90702000D01*
G75*
G02*
X146834000Y-90627000I75000J0D01*
G01*
X148234000Y-90627000D01*
G75*
G02*
X148309000Y-90702000I0J-75000D01*
G01*
X148309000Y-90852000D01*
G75*
G02*
X148234000Y-90927000I-75000J0D01*
G01*
X146834000Y-90927000D01*
G75*
G02*
X146759000Y-90852000I0J75000D01*
G01*
G37*
G36*
G01*
X146759000Y-91352000D02*
X146759000Y-91202000D01*
G75*
G02*
X146834000Y-91127000I75000J0D01*
G01*
X148234000Y-91127000D01*
G75*
G02*
X148309000Y-91202000I0J-75000D01*
G01*
X148309000Y-91352000D01*
G75*
G02*
X148234000Y-91427000I-75000J0D01*
G01*
X146834000Y-91427000D01*
G75*
G02*
X146759000Y-91352000I0J75000D01*
G01*
G37*
G36*
G01*
X146759000Y-91852000D02*
X146759000Y-91702000D01*
G75*
G02*
X146834000Y-91627000I75000J0D01*
G01*
X148234000Y-91627000D01*
G75*
G02*
X148309000Y-91702000I0J-75000D01*
G01*
X148309000Y-91852000D01*
G75*
G02*
X148234000Y-91927000I-75000J0D01*
G01*
X146834000Y-91927000D01*
G75*
G02*
X146759000Y-91852000I0J75000D01*
G01*
G37*
G36*
G01*
X146759000Y-92352000D02*
X146759000Y-92202000D01*
G75*
G02*
X146834000Y-92127000I75000J0D01*
G01*
X148234000Y-92127000D01*
G75*
G02*
X148309000Y-92202000I0J-75000D01*
G01*
X148309000Y-92352000D01*
G75*
G02*
X148234000Y-92427000I-75000J0D01*
G01*
X146834000Y-92427000D01*
G75*
G02*
X146759000Y-92352000I0J75000D01*
G01*
G37*
G36*
G01*
X146759000Y-92852000D02*
X146759000Y-92702000D01*
G75*
G02*
X146834000Y-92627000I75000J0D01*
G01*
X148234000Y-92627000D01*
G75*
G02*
X148309000Y-92702000I0J-75000D01*
G01*
X148309000Y-92852000D01*
G75*
G02*
X148234000Y-92927000I-75000J0D01*
G01*
X146834000Y-92927000D01*
G75*
G02*
X146759000Y-92852000I0J75000D01*
G01*
G37*
G36*
G01*
X145459000Y-95402000D02*
X145459000Y-94002000D01*
G75*
G02*
X145534000Y-93927000I75000J0D01*
G01*
X145684000Y-93927000D01*
G75*
G02*
X145759000Y-94002000I0J-75000D01*
G01*
X145759000Y-95402000D01*
G75*
G02*
X145684000Y-95477000I-75000J0D01*
G01*
X145534000Y-95477000D01*
G75*
G02*
X145459000Y-95402000I0J75000D01*
G01*
G37*
G36*
G01*
X144959000Y-95402000D02*
X144959000Y-94002000D01*
G75*
G02*
X145034000Y-93927000I75000J0D01*
G01*
X145184000Y-93927000D01*
G75*
G02*
X145259000Y-94002000I0J-75000D01*
G01*
X145259000Y-95402000D01*
G75*
G02*
X145184000Y-95477000I-75000J0D01*
G01*
X145034000Y-95477000D01*
G75*
G02*
X144959000Y-95402000I0J75000D01*
G01*
G37*
G36*
G01*
X144459000Y-95402000D02*
X144459000Y-94002000D01*
G75*
G02*
X144534000Y-93927000I75000J0D01*
G01*
X144684000Y-93927000D01*
G75*
G02*
X144759000Y-94002000I0J-75000D01*
G01*
X144759000Y-95402000D01*
G75*
G02*
X144684000Y-95477000I-75000J0D01*
G01*
X144534000Y-95477000D01*
G75*
G02*
X144459000Y-95402000I0J75000D01*
G01*
G37*
G36*
G01*
X143959000Y-95402000D02*
X143959000Y-94002000D01*
G75*
G02*
X144034000Y-93927000I75000J0D01*
G01*
X144184000Y-93927000D01*
G75*
G02*
X144259000Y-94002000I0J-75000D01*
G01*
X144259000Y-95402000D01*
G75*
G02*
X144184000Y-95477000I-75000J0D01*
G01*
X144034000Y-95477000D01*
G75*
G02*
X143959000Y-95402000I0J75000D01*
G01*
G37*
G36*
G01*
X143459000Y-95402000D02*
X143459000Y-94002000D01*
G75*
G02*
X143534000Y-93927000I75000J0D01*
G01*
X143684000Y-93927000D01*
G75*
G02*
X143759000Y-94002000I0J-75000D01*
G01*
X143759000Y-95402000D01*
G75*
G02*
X143684000Y-95477000I-75000J0D01*
G01*
X143534000Y-95477000D01*
G75*
G02*
X143459000Y-95402000I0J75000D01*
G01*
G37*
G36*
G01*
X142959000Y-95402000D02*
X142959000Y-94002000D01*
G75*
G02*
X143034000Y-93927000I75000J0D01*
G01*
X143184000Y-93927000D01*
G75*
G02*
X143259000Y-94002000I0J-75000D01*
G01*
X143259000Y-95402000D01*
G75*
G02*
X143184000Y-95477000I-75000J0D01*
G01*
X143034000Y-95477000D01*
G75*
G02*
X142959000Y-95402000I0J75000D01*
G01*
G37*
G36*
G01*
X142459000Y-95402000D02*
X142459000Y-94002000D01*
G75*
G02*
X142534000Y-93927000I75000J0D01*
G01*
X142684000Y-93927000D01*
G75*
G02*
X142759000Y-94002000I0J-75000D01*
G01*
X142759000Y-95402000D01*
G75*
G02*
X142684000Y-95477000I-75000J0D01*
G01*
X142534000Y-95477000D01*
G75*
G02*
X142459000Y-95402000I0J75000D01*
G01*
G37*
G36*
G01*
X141959000Y-95402000D02*
X141959000Y-94002000D01*
G75*
G02*
X142034000Y-93927000I75000J0D01*
G01*
X142184000Y-93927000D01*
G75*
G02*
X142259000Y-94002000I0J-75000D01*
G01*
X142259000Y-95402000D01*
G75*
G02*
X142184000Y-95477000I-75000J0D01*
G01*
X142034000Y-95477000D01*
G75*
G02*
X141959000Y-95402000I0J75000D01*
G01*
G37*
G36*
G01*
X141459000Y-95402000D02*
X141459000Y-94002000D01*
G75*
G02*
X141534000Y-93927000I75000J0D01*
G01*
X141684000Y-93927000D01*
G75*
G02*
X141759000Y-94002000I0J-75000D01*
G01*
X141759000Y-95402000D01*
G75*
G02*
X141684000Y-95477000I-75000J0D01*
G01*
X141534000Y-95477000D01*
G75*
G02*
X141459000Y-95402000I0J75000D01*
G01*
G37*
G36*
G01*
X140959000Y-95402000D02*
X140959000Y-94002000D01*
G75*
G02*
X141034000Y-93927000I75000J0D01*
G01*
X141184000Y-93927000D01*
G75*
G02*
X141259000Y-94002000I0J-75000D01*
G01*
X141259000Y-95402000D01*
G75*
G02*
X141184000Y-95477000I-75000J0D01*
G01*
X141034000Y-95477000D01*
G75*
G02*
X140959000Y-95402000I0J75000D01*
G01*
G37*
G36*
G01*
X140459000Y-95402000D02*
X140459000Y-94002000D01*
G75*
G02*
X140534000Y-93927000I75000J0D01*
G01*
X140684000Y-93927000D01*
G75*
G02*
X140759000Y-94002000I0J-75000D01*
G01*
X140759000Y-95402000D01*
G75*
G02*
X140684000Y-95477000I-75000J0D01*
G01*
X140534000Y-95477000D01*
G75*
G02*
X140459000Y-95402000I0J75000D01*
G01*
G37*
G36*
G01*
X139959000Y-95402000D02*
X139959000Y-94002000D01*
G75*
G02*
X140034000Y-93927000I75000J0D01*
G01*
X140184000Y-93927000D01*
G75*
G02*
X140259000Y-94002000I0J-75000D01*
G01*
X140259000Y-95402000D01*
G75*
G02*
X140184000Y-95477000I-75000J0D01*
G01*
X140034000Y-95477000D01*
G75*
G02*
X139959000Y-95402000I0J75000D01*
G01*
G37*
G36*
G01*
X139459000Y-95402000D02*
X139459000Y-94002000D01*
G75*
G02*
X139534000Y-93927000I75000J0D01*
G01*
X139684000Y-93927000D01*
G75*
G02*
X139759000Y-94002000I0J-75000D01*
G01*
X139759000Y-95402000D01*
G75*
G02*
X139684000Y-95477000I-75000J0D01*
G01*
X139534000Y-95477000D01*
G75*
G02*
X139459000Y-95402000I0J75000D01*
G01*
G37*
G36*
G01*
X138959000Y-95402000D02*
X138959000Y-94002000D01*
G75*
G02*
X139034000Y-93927000I75000J0D01*
G01*
X139184000Y-93927000D01*
G75*
G02*
X139259000Y-94002000I0J-75000D01*
G01*
X139259000Y-95402000D01*
G75*
G02*
X139184000Y-95477000I-75000J0D01*
G01*
X139034000Y-95477000D01*
G75*
G02*
X138959000Y-95402000I0J75000D01*
G01*
G37*
G36*
G01*
X138459000Y-95402000D02*
X138459000Y-94002000D01*
G75*
G02*
X138534000Y-93927000I75000J0D01*
G01*
X138684000Y-93927000D01*
G75*
G02*
X138759000Y-94002000I0J-75000D01*
G01*
X138759000Y-95402000D01*
G75*
G02*
X138684000Y-95477000I-75000J0D01*
G01*
X138534000Y-95477000D01*
G75*
G02*
X138459000Y-95402000I0J75000D01*
G01*
G37*
G36*
G01*
X137959000Y-95402000D02*
X137959000Y-94002000D01*
G75*
G02*
X138034000Y-93927000I75000J0D01*
G01*
X138184000Y-93927000D01*
G75*
G02*
X138259000Y-94002000I0J-75000D01*
G01*
X138259000Y-95402000D01*
G75*
G02*
X138184000Y-95477000I-75000J0D01*
G01*
X138034000Y-95477000D01*
G75*
G02*
X137959000Y-95402000I0J75000D01*
G01*
G37*
G36*
G01*
X135409000Y-92852000D02*
X135409000Y-92702000D01*
G75*
G02*
X135484000Y-92627000I75000J0D01*
G01*
X136884000Y-92627000D01*
G75*
G02*
X136959000Y-92702000I0J-75000D01*
G01*
X136959000Y-92852000D01*
G75*
G02*
X136884000Y-92927000I-75000J0D01*
G01*
X135484000Y-92927000D01*
G75*
G02*
X135409000Y-92852000I0J75000D01*
G01*
G37*
G36*
G01*
X135409000Y-92352000D02*
X135409000Y-92202000D01*
G75*
G02*
X135484000Y-92127000I75000J0D01*
G01*
X136884000Y-92127000D01*
G75*
G02*
X136959000Y-92202000I0J-75000D01*
G01*
X136959000Y-92352000D01*
G75*
G02*
X136884000Y-92427000I-75000J0D01*
G01*
X135484000Y-92427000D01*
G75*
G02*
X135409000Y-92352000I0J75000D01*
G01*
G37*
G36*
G01*
X135409000Y-91852000D02*
X135409000Y-91702000D01*
G75*
G02*
X135484000Y-91627000I75000J0D01*
G01*
X136884000Y-91627000D01*
G75*
G02*
X136959000Y-91702000I0J-75000D01*
G01*
X136959000Y-91852000D01*
G75*
G02*
X136884000Y-91927000I-75000J0D01*
G01*
X135484000Y-91927000D01*
G75*
G02*
X135409000Y-91852000I0J75000D01*
G01*
G37*
G36*
G01*
X135409000Y-91352000D02*
X135409000Y-91202000D01*
G75*
G02*
X135484000Y-91127000I75000J0D01*
G01*
X136884000Y-91127000D01*
G75*
G02*
X136959000Y-91202000I0J-75000D01*
G01*
X136959000Y-91352000D01*
G75*
G02*
X136884000Y-91427000I-75000J0D01*
G01*
X135484000Y-91427000D01*
G75*
G02*
X135409000Y-91352000I0J75000D01*
G01*
G37*
G36*
G01*
X135409000Y-90852000D02*
X135409000Y-90702000D01*
G75*
G02*
X135484000Y-90627000I75000J0D01*
G01*
X136884000Y-90627000D01*
G75*
G02*
X136959000Y-90702000I0J-75000D01*
G01*
X136959000Y-90852000D01*
G75*
G02*
X136884000Y-90927000I-75000J0D01*
G01*
X135484000Y-90927000D01*
G75*
G02*
X135409000Y-90852000I0J75000D01*
G01*
G37*
G36*
G01*
X135409000Y-90352000D02*
X135409000Y-90202000D01*
G75*
G02*
X135484000Y-90127000I75000J0D01*
G01*
X136884000Y-90127000D01*
G75*
G02*
X136959000Y-90202000I0J-75000D01*
G01*
X136959000Y-90352000D01*
G75*
G02*
X136884000Y-90427000I-75000J0D01*
G01*
X135484000Y-90427000D01*
G75*
G02*
X135409000Y-90352000I0J75000D01*
G01*
G37*
G36*
G01*
X135409000Y-89852000D02*
X135409000Y-89702000D01*
G75*
G02*
X135484000Y-89627000I75000J0D01*
G01*
X136884000Y-89627000D01*
G75*
G02*
X136959000Y-89702000I0J-75000D01*
G01*
X136959000Y-89852000D01*
G75*
G02*
X136884000Y-89927000I-75000J0D01*
G01*
X135484000Y-89927000D01*
G75*
G02*
X135409000Y-89852000I0J75000D01*
G01*
G37*
G36*
G01*
X135409000Y-89352000D02*
X135409000Y-89202000D01*
G75*
G02*
X135484000Y-89127000I75000J0D01*
G01*
X136884000Y-89127000D01*
G75*
G02*
X136959000Y-89202000I0J-75000D01*
G01*
X136959000Y-89352000D01*
G75*
G02*
X136884000Y-89427000I-75000J0D01*
G01*
X135484000Y-89427000D01*
G75*
G02*
X135409000Y-89352000I0J75000D01*
G01*
G37*
G36*
G01*
X135409000Y-88852000D02*
X135409000Y-88702000D01*
G75*
G02*
X135484000Y-88627000I75000J0D01*
G01*
X136884000Y-88627000D01*
G75*
G02*
X136959000Y-88702000I0J-75000D01*
G01*
X136959000Y-88852000D01*
G75*
G02*
X136884000Y-88927000I-75000J0D01*
G01*
X135484000Y-88927000D01*
G75*
G02*
X135409000Y-88852000I0J75000D01*
G01*
G37*
G36*
G01*
X135409000Y-88352000D02*
X135409000Y-88202000D01*
G75*
G02*
X135484000Y-88127000I75000J0D01*
G01*
X136884000Y-88127000D01*
G75*
G02*
X136959000Y-88202000I0J-75000D01*
G01*
X136959000Y-88352000D01*
G75*
G02*
X136884000Y-88427000I-75000J0D01*
G01*
X135484000Y-88427000D01*
G75*
G02*
X135409000Y-88352000I0J75000D01*
G01*
G37*
G36*
G01*
X135409000Y-87852000D02*
X135409000Y-87702000D01*
G75*
G02*
X135484000Y-87627000I75000J0D01*
G01*
X136884000Y-87627000D01*
G75*
G02*
X136959000Y-87702000I0J-75000D01*
G01*
X136959000Y-87852000D01*
G75*
G02*
X136884000Y-87927000I-75000J0D01*
G01*
X135484000Y-87927000D01*
G75*
G02*
X135409000Y-87852000I0J75000D01*
G01*
G37*
G36*
G01*
X135409000Y-87352000D02*
X135409000Y-87202000D01*
G75*
G02*
X135484000Y-87127000I75000J0D01*
G01*
X136884000Y-87127000D01*
G75*
G02*
X136959000Y-87202000I0J-75000D01*
G01*
X136959000Y-87352000D01*
G75*
G02*
X136884000Y-87427000I-75000J0D01*
G01*
X135484000Y-87427000D01*
G75*
G02*
X135409000Y-87352000I0J75000D01*
G01*
G37*
G36*
G01*
X135409000Y-86852000D02*
X135409000Y-86702000D01*
G75*
G02*
X135484000Y-86627000I75000J0D01*
G01*
X136884000Y-86627000D01*
G75*
G02*
X136959000Y-86702000I0J-75000D01*
G01*
X136959000Y-86852000D01*
G75*
G02*
X136884000Y-86927000I-75000J0D01*
G01*
X135484000Y-86927000D01*
G75*
G02*
X135409000Y-86852000I0J75000D01*
G01*
G37*
G36*
G01*
X135409000Y-86352000D02*
X135409000Y-86202000D01*
G75*
G02*
X135484000Y-86127000I75000J0D01*
G01*
X136884000Y-86127000D01*
G75*
G02*
X136959000Y-86202000I0J-75000D01*
G01*
X136959000Y-86352000D01*
G75*
G02*
X136884000Y-86427000I-75000J0D01*
G01*
X135484000Y-86427000D01*
G75*
G02*
X135409000Y-86352000I0J75000D01*
G01*
G37*
G36*
G01*
X135409000Y-85852000D02*
X135409000Y-85702000D01*
G75*
G02*
X135484000Y-85627000I75000J0D01*
G01*
X136884000Y-85627000D01*
G75*
G02*
X136959000Y-85702000I0J-75000D01*
G01*
X136959000Y-85852000D01*
G75*
G02*
X136884000Y-85927000I-75000J0D01*
G01*
X135484000Y-85927000D01*
G75*
G02*
X135409000Y-85852000I0J75000D01*
G01*
G37*
G36*
G01*
X135409000Y-85352000D02*
X135409000Y-85202000D01*
G75*
G02*
X135484000Y-85127000I75000J0D01*
G01*
X136884000Y-85127000D01*
G75*
G02*
X136959000Y-85202000I0J-75000D01*
G01*
X136959000Y-85352000D01*
G75*
G02*
X136884000Y-85427000I-75000J0D01*
G01*
X135484000Y-85427000D01*
G75*
G02*
X135409000Y-85352000I0J75000D01*
G01*
G37*
%TD*%
%TO.C,U2*%
G36*
G01*
X131014600Y-75549900D02*
X131014600Y-75249900D01*
G75*
G02*
X131164600Y-75099900I150000J0D01*
G01*
X132814600Y-75099900D01*
G75*
G02*
X132964600Y-75249900I0J-150000D01*
G01*
X132964600Y-75549900D01*
G75*
G02*
X132814600Y-75699900I-150000J0D01*
G01*
X131164600Y-75699900D01*
G75*
G02*
X131014600Y-75549900I0J150000D01*
G01*
G37*
G36*
G01*
X131014600Y-76819900D02*
X131014600Y-76519900D01*
G75*
G02*
X131164600Y-76369900I150000J0D01*
G01*
X132814600Y-76369900D01*
G75*
G02*
X132964600Y-76519900I0J-150000D01*
G01*
X132964600Y-76819900D01*
G75*
G02*
X132814600Y-76969900I-150000J0D01*
G01*
X131164600Y-76969900D01*
G75*
G02*
X131014600Y-76819900I0J150000D01*
G01*
G37*
G36*
G01*
X131014600Y-78089900D02*
X131014600Y-77789900D01*
G75*
G02*
X131164600Y-77639900I150000J0D01*
G01*
X132814600Y-77639900D01*
G75*
G02*
X132964600Y-77789900I0J-150000D01*
G01*
X132964600Y-78089900D01*
G75*
G02*
X132814600Y-78239900I-150000J0D01*
G01*
X131164600Y-78239900D01*
G75*
G02*
X131014600Y-78089900I0J150000D01*
G01*
G37*
G36*
G01*
X131014600Y-79359900D02*
X131014600Y-79059900D01*
G75*
G02*
X131164600Y-78909900I150000J0D01*
G01*
X132814600Y-78909900D01*
G75*
G02*
X132964600Y-79059900I0J-150000D01*
G01*
X132964600Y-79359900D01*
G75*
G02*
X132814600Y-79509900I-150000J0D01*
G01*
X131164600Y-79509900D01*
G75*
G02*
X131014600Y-79359900I0J150000D01*
G01*
G37*
G36*
G01*
X126064600Y-79359900D02*
X126064600Y-79059900D01*
G75*
G02*
X126214600Y-78909900I150000J0D01*
G01*
X127864600Y-78909900D01*
G75*
G02*
X128014600Y-79059900I0J-150000D01*
G01*
X128014600Y-79359900D01*
G75*
G02*
X127864600Y-79509900I-150000J0D01*
G01*
X126214600Y-79509900D01*
G75*
G02*
X126064600Y-79359900I0J150000D01*
G01*
G37*
G36*
G01*
X126064600Y-78089900D02*
X126064600Y-77789900D01*
G75*
G02*
X126214600Y-77639900I150000J0D01*
G01*
X127864600Y-77639900D01*
G75*
G02*
X128014600Y-77789900I0J-150000D01*
G01*
X128014600Y-78089900D01*
G75*
G02*
X127864600Y-78239900I-150000J0D01*
G01*
X126214600Y-78239900D01*
G75*
G02*
X126064600Y-78089900I0J150000D01*
G01*
G37*
G36*
G01*
X126064600Y-76819900D02*
X126064600Y-76519900D01*
G75*
G02*
X126214600Y-76369900I150000J0D01*
G01*
X127864600Y-76369900D01*
G75*
G02*
X128014600Y-76519900I0J-150000D01*
G01*
X128014600Y-76819900D01*
G75*
G02*
X127864600Y-76969900I-150000J0D01*
G01*
X126214600Y-76969900D01*
G75*
G02*
X126064600Y-76819900I0J150000D01*
G01*
G37*
G36*
G01*
X126064600Y-75549900D02*
X126064600Y-75249900D01*
G75*
G02*
X126214600Y-75099900I150000J0D01*
G01*
X127864600Y-75099900D01*
G75*
G02*
X128014600Y-75249900I0J-150000D01*
G01*
X128014600Y-75549900D01*
G75*
G02*
X127864600Y-75699900I-150000J0D01*
G01*
X126214600Y-75699900D01*
G75*
G02*
X126064600Y-75549900I0J150000D01*
G01*
G37*
%TD*%
D28*
%TO.C,U5*%
X139827000Y-114597000D03*
X138877000Y-114597000D03*
X140777000Y-114597000D03*
X140777000Y-116797000D03*
X139827000Y-116797000D03*
X138877000Y-116797000D03*
%TD*%
D29*
%TO.C,U6*%
X128270000Y-72009000D03*
X125730000Y-72009000D03*
X123190000Y-72009000D03*
X120650000Y-72009000D03*
X118110000Y-72009000D03*
X115570000Y-72009000D03*
X125730000Y-93599000D03*
X123190000Y-93599000D03*
X120650000Y-93599000D03*
X118110000Y-93599000D03*
X115570000Y-93599000D03*
X113030000Y-93599000D03*
%TD*%
D30*
%TO.C,U8*%
X139246400Y-102919400D03*
X139246400Y-102459400D03*
X139246400Y-103379400D03*
X139246400Y-103839400D03*
X142871400Y-103839400D03*
X142871400Y-103379400D03*
X142871400Y-102459400D03*
X142871400Y-102919400D03*
D31*
X140042900Y-103657400D03*
X140042900Y-103149400D03*
X140550900Y-103657400D03*
X140550900Y-103149400D03*
X141058900Y-103657400D03*
X141058900Y-103149400D03*
X141566900Y-103657400D03*
X141566900Y-103149400D03*
X142074900Y-103657400D03*
X142074900Y-103149400D03*
X140042900Y-102641400D03*
X140550900Y-102641400D03*
X141058900Y-102641400D03*
X141566900Y-102641400D03*
X142074900Y-102641400D03*
D32*
X139558900Y-104599400D03*
X141058900Y-101699400D03*
X140558900Y-104599400D03*
X142558900Y-101699400D03*
X141058900Y-104599400D03*
X141558900Y-101699400D03*
X140558900Y-101699400D03*
X140058900Y-101699400D03*
X139558900Y-101699400D03*
X141558900Y-104599400D03*
X142058900Y-104599400D03*
X142558900Y-104599400D03*
D33*
X141058900Y-103149400D03*
D32*
X142058900Y-101699400D03*
X140058900Y-104599400D03*
%TD*%
D28*
%TO.C,U9*%
X150053000Y-96118500D03*
X151953000Y-96118500D03*
X151953000Y-98318500D03*
X151003000Y-98318500D03*
X150053000Y-98318500D03*
%TD*%
D34*
%TO.C,Y1*%
X128460500Y-90242000D03*
X128460500Y-86542000D03*
%TD*%
M02*
