%TF.GenerationSoftware,KiCad,Pcbnew,(5.1.9)-1*%
%TF.CreationDate,2021-03-08T10:45:14+00:00*%
%TF.ProjectId,gps_tracker_basic,6770735f-7472-4616-936b-65725f626173,1.0*%
%TF.SameCoordinates,Original*%
%TF.FileFunction,Legend,Top*%
%TF.FilePolarity,Positive*%
%FSLAX46Y46*%
G04 Gerber Fmt 4.6, Leading zero omitted, Abs format (unit mm)*
G04 Created by KiCad (PCBNEW (5.1.9)-1) date 2021-03-08 10:45:14*
%MOMM*%
%LPD*%
G01*
G04 APERTURE LIST*
%ADD10C,0.300000*%
%ADD11C,0.120000*%
%ADD12C,0.200000*%
%ADD13C,0.150000*%
%ADD14C,0.110000*%
G04 APERTURE END LIST*
D10*
X134624000Y-118407571D02*
X134124000Y-117693285D01*
X133766857Y-118407571D02*
X133766857Y-116907571D01*
X134338285Y-116907571D01*
X134481142Y-116979000D01*
X134552571Y-117050428D01*
X134624000Y-117193285D01*
X134624000Y-117407571D01*
X134552571Y-117550428D01*
X134481142Y-117621857D01*
X134338285Y-117693285D01*
X133766857Y-117693285D01*
X135124000Y-116907571D02*
X136124000Y-118407571D01*
X136124000Y-116907571D02*
X135124000Y-118407571D01*
X130937142Y-116907571D02*
X131794285Y-116907571D01*
X131365714Y-118407571D02*
X131365714Y-116907571D01*
X132151428Y-116907571D02*
X133151428Y-118407571D01*
X133151428Y-116907571D02*
X132151428Y-118407571D01*
D11*
%TO.C,C31*%
X145819800Y-103023936D02*
X145819800Y-103478064D01*
X144349800Y-103023936D02*
X144349800Y-103478064D01*
%TO.C,C30*%
X147826400Y-103023936D02*
X147826400Y-103478064D01*
X146356400Y-103023936D02*
X146356400Y-103478064D01*
%TO.C,C32*%
X149833000Y-103023936D02*
X149833000Y-103478064D01*
X148363000Y-103023936D02*
X148363000Y-103478064D01*
%TO.C,U10*%
X129122300Y-99647600D02*
X129122300Y-116247600D01*
X110222300Y-116247600D02*
X110222300Y-99647600D01*
X129122300Y-116247600D02*
X110222300Y-116247600D01*
X110222300Y-99647600D02*
X129122300Y-99647600D01*
X111417300Y-100327600D02*
G75*
G03*
X111417300Y-100327600I-500000J0D01*
G01*
X120572300Y-107317600D02*
G75*
G03*
X120572300Y-107317600I-1500000J0D01*
G01*
D10*
%TO.C,U4*%
X129573300Y-99371700D02*
X129573300Y-121371700D01*
X129573300Y-121371700D02*
X107573300Y-121371700D01*
X107573300Y-121371700D02*
X107573300Y-99371700D01*
X107573300Y-99371700D02*
X129573300Y-99371700D01*
D12*
X128253300Y-101171700D02*
X128253300Y-119571700D01*
X128253300Y-119571700D02*
X109853300Y-119571700D01*
X109853300Y-119571700D02*
X109853300Y-101171700D01*
X109853300Y-101171700D02*
X128253300Y-101171700D01*
D11*
%TO.C,R33*%
X109653000Y-93862059D02*
X109653000Y-94169341D01*
X110413000Y-93862059D02*
X110413000Y-94169341D01*
%TO.C,R11*%
X113829300Y-97623741D02*
X113829300Y-97316459D01*
X113069300Y-97623741D02*
X113069300Y-97316459D01*
%TO.C,R7*%
X114972300Y-97623741D02*
X114972300Y-97316459D01*
X114212300Y-97623741D02*
X114212300Y-97316459D01*
%TO.C,Q4*%
X110327100Y-95445600D02*
X111787100Y-95445600D01*
X110327100Y-98605600D02*
X112487100Y-98605600D01*
X110327100Y-98605600D02*
X110327100Y-97675600D01*
X110327100Y-95445600D02*
X110327100Y-96375600D01*
%TO.C,C17*%
X104801480Y-111095200D02*
X104520320Y-111095200D01*
X104801480Y-112115200D02*
X104520320Y-112115200D01*
%TO.C,C33*%
X107179900Y-109731836D02*
X107179900Y-109516164D01*
X106459900Y-109731836D02*
X106459900Y-109516164D01*
%TO.C,C18*%
X104801480Y-112784300D02*
X104520320Y-112784300D01*
X104801480Y-113804300D02*
X104520320Y-113804300D01*
%TO.C,C16*%
X104801480Y-109456900D02*
X104520320Y-109456900D01*
X104801480Y-110476900D02*
X104520320Y-110476900D01*
%TO.C,C15*%
X106459900Y-111522764D02*
X106459900Y-111738436D01*
X107179900Y-111522764D02*
X107179900Y-111738436D01*
%TO.C,R2*%
X131240000Y-89424742D02*
X131240000Y-89899258D01*
X132285000Y-89424742D02*
X132285000Y-89899258D01*
%TO.C,R12*%
X135027641Y-122403600D02*
X134720359Y-122403600D01*
X135027641Y-123163600D02*
X134720359Y-123163600D01*
%TO.C,R26*%
X145654500Y-119523742D02*
X145654500Y-119998258D01*
X146699500Y-119523742D02*
X146699500Y-119998258D01*
%TO.C,L3*%
X132155000Y-106249400D02*
X132605000Y-106249400D01*
X138355000Y-106249400D02*
X137905000Y-106249400D01*
X138355000Y-100049400D02*
X137905000Y-100049400D01*
X138355000Y-100049400D02*
X138355000Y-106249400D01*
X132155000Y-100049400D02*
X132605000Y-100049400D01*
X132155000Y-106249400D02*
X132155000Y-100049400D01*
%TO.C,C21*%
X145975800Y-112383180D02*
X145975800Y-112102020D01*
X144955800Y-112383180D02*
X144955800Y-112102020D01*
%TO.C,C3*%
X126401100Y-83400020D02*
X126401100Y-83681180D01*
X127421100Y-83400020D02*
X127421100Y-83681180D01*
%TO.C,C1*%
X125647336Y-87143000D02*
X125431664Y-87143000D01*
X125647336Y-87863000D02*
X125431664Y-87863000D01*
%TO.C,C2*%
X125647336Y-88921000D02*
X125431664Y-88921000D01*
X125647336Y-89641000D02*
X125431664Y-89641000D01*
%TO.C,C4*%
X130964400Y-83693880D02*
X130964400Y-83412720D01*
X129944400Y-83693880D02*
X129944400Y-83412720D01*
%TO.C,C5*%
X133942500Y-92449764D02*
X133942500Y-92665436D01*
X134662500Y-92449764D02*
X134662500Y-92665436D01*
%TO.C,C6*%
X132873160Y-89122364D02*
X132873160Y-89338036D01*
X133593160Y-89122364D02*
X133593160Y-89338036D01*
%TO.C,C7*%
X135403000Y-83331164D02*
X135403000Y-83546836D01*
X136123000Y-83331164D02*
X136123000Y-83546836D01*
%TO.C,C8*%
X134599000Y-84893036D02*
X134599000Y-84677364D01*
X133879000Y-84893036D02*
X133879000Y-84677364D01*
%TO.C,C9*%
X146655200Y-95523164D02*
X146655200Y-95738836D01*
X147375200Y-95523164D02*
X147375200Y-95738836D01*
%TO.C,C10*%
X144352600Y-112909236D02*
X144352600Y-112693564D01*
X143632600Y-112909236D02*
X143632600Y-112693564D01*
%TO.C,C11*%
X140872800Y-112909236D02*
X140872800Y-112693564D01*
X140152800Y-112909236D02*
X140152800Y-112693564D01*
%TO.C,C12*%
X138790000Y-110724836D02*
X138790000Y-110509164D01*
X138070000Y-110724836D02*
X138070000Y-110509164D01*
%TO.C,C13*%
X137520000Y-110724836D02*
X137520000Y-110509164D01*
X136800000Y-110724836D02*
X136800000Y-110509164D01*
%TO.C,C14*%
X133904400Y-75927064D02*
X133904400Y-76142736D01*
X134624400Y-75927064D02*
X134624400Y-76142736D01*
%TO.C,C19*%
X145053164Y-117123800D02*
X145268836Y-117123800D01*
X145053164Y-116403800D02*
X145268836Y-116403800D01*
%TO.C,C20*%
X145053164Y-114990200D02*
X145268836Y-114990200D01*
X145053164Y-114270200D02*
X145268836Y-114270200D01*
%TO.C,C22*%
X140881980Y-108887800D02*
X140600820Y-108887800D01*
X140881980Y-109907800D02*
X140600820Y-109907800D01*
%TO.C,C23*%
X140881980Y-107389200D02*
X140600820Y-107389200D01*
X140881980Y-108409200D02*
X140600820Y-108409200D01*
%TO.C,C24*%
X140881980Y-105890600D02*
X140600820Y-105890600D01*
X140881980Y-106910600D02*
X140600820Y-106910600D01*
%TO.C,C25*%
X144672164Y-105897000D02*
X144887836Y-105897000D01*
X144672164Y-105177000D02*
X144887836Y-105177000D01*
%TO.C,C26*%
X148449420Y-116715000D02*
X148730580Y-116715000D01*
X148449420Y-115695000D02*
X148730580Y-115695000D01*
%TO.C,C27*%
X150862420Y-100649500D02*
X151143580Y-100649500D01*
X150862420Y-99629500D02*
X151143580Y-99629500D01*
%TO.C,C28*%
X151751420Y-110746000D02*
X152032580Y-110746000D01*
X151751420Y-109726000D02*
X152032580Y-109726000D01*
%TO.C,C29*%
X150862420Y-94807500D02*
X151143580Y-94807500D01*
X150862420Y-93787500D02*
X151143580Y-93787500D01*
%TO.C,D1*%
X133914000Y-118838000D02*
X133914000Y-121523000D01*
X135834000Y-118838000D02*
X133914000Y-118838000D01*
X135834000Y-121523000D02*
X135834000Y-118838000D01*
%TO.C,D2*%
X131247000Y-118838000D02*
X131247000Y-121523000D01*
X133167000Y-118838000D02*
X131247000Y-118838000D01*
X133167000Y-121523000D02*
X133167000Y-118838000D01*
%TO.C,D3*%
X149622800Y-83586200D02*
X152307800Y-83586200D01*
X149622800Y-81666200D02*
X149622800Y-83586200D01*
X152307800Y-81666200D02*
X149622800Y-81666200D01*
%TO.C,D4*%
X149677000Y-115223000D02*
X149677000Y-112538000D01*
X147757000Y-115223000D02*
X149677000Y-115223000D01*
X147757000Y-112538000D02*
X147757000Y-115223000D01*
%TO.C,D5*%
X134746000Y-108741000D02*
X134746000Y-114141000D01*
X131446000Y-108741000D02*
X131446000Y-114141000D01*
X134746000Y-108741000D02*
X131446000Y-108741000D01*
%TO.C,J1*%
X105791000Y-91694000D02*
X104521000Y-91694000D01*
X105791000Y-90424000D02*
X105791000Y-91694000D01*
X103478071Y-79884000D02*
X103081000Y-79884000D01*
X103478071Y-80644000D02*
X103081000Y-80644000D01*
X94421000Y-79884000D02*
X100421000Y-79884000D01*
X94421000Y-80644000D02*
X94421000Y-79884000D01*
X100421000Y-80644000D02*
X94421000Y-80644000D01*
X103081000Y-81534000D02*
X100421000Y-81534000D01*
X103478071Y-82424000D02*
X103081000Y-82424000D01*
X103478071Y-83184000D02*
X103081000Y-83184000D01*
X94421000Y-82424000D02*
X100421000Y-82424000D01*
X94421000Y-83184000D02*
X94421000Y-82424000D01*
X100421000Y-83184000D02*
X94421000Y-83184000D01*
X103081000Y-84074000D02*
X100421000Y-84074000D01*
X103478071Y-84964000D02*
X103081000Y-84964000D01*
X103478071Y-85724000D02*
X103081000Y-85724000D01*
X94421000Y-84964000D02*
X100421000Y-84964000D01*
X94421000Y-85724000D02*
X94421000Y-84964000D01*
X100421000Y-85724000D02*
X94421000Y-85724000D01*
X103081000Y-86614000D02*
X100421000Y-86614000D01*
X103478071Y-87504000D02*
X103081000Y-87504000D01*
X103478071Y-88264000D02*
X103081000Y-88264000D01*
X94421000Y-87504000D02*
X100421000Y-87504000D01*
X94421000Y-88264000D02*
X94421000Y-87504000D01*
X100421000Y-88264000D02*
X94421000Y-88264000D01*
X103081000Y-89154000D02*
X100421000Y-89154000D01*
X103411000Y-90044000D02*
X103081000Y-90044000D01*
X103411000Y-90804000D02*
X103081000Y-90804000D01*
X100421000Y-90144000D02*
X94421000Y-90144000D01*
X100421000Y-90264000D02*
X94421000Y-90264000D01*
X100421000Y-90384000D02*
X94421000Y-90384000D01*
X100421000Y-90504000D02*
X94421000Y-90504000D01*
X100421000Y-90624000D02*
X94421000Y-90624000D01*
X100421000Y-90744000D02*
X94421000Y-90744000D01*
X94421000Y-90044000D02*
X100421000Y-90044000D01*
X94421000Y-90804000D02*
X94421000Y-90044000D01*
X100421000Y-90804000D02*
X94421000Y-90804000D01*
X100421000Y-91754000D02*
X103081000Y-91754000D01*
X100421000Y-78934000D02*
X100421000Y-91754000D01*
X103081000Y-78934000D02*
X100421000Y-78934000D01*
X103081000Y-91754000D02*
X103081000Y-78934000D01*
%TO.C,J3*%
X150832000Y-111716000D02*
X151892000Y-111716000D01*
X150832000Y-112776000D02*
X150832000Y-111716000D01*
X150832000Y-113776000D02*
X152952000Y-113776000D01*
X152952000Y-113776000D02*
X152952000Y-115836000D01*
X150832000Y-113776000D02*
X150832000Y-115836000D01*
X150832000Y-115836000D02*
X152952000Y-115836000D01*
%TO.C,J4*%
X105791000Y-107823000D02*
X104521000Y-107823000D01*
X105791000Y-106553000D02*
X105791000Y-107823000D01*
X103478071Y-96013000D02*
X103081000Y-96013000D01*
X103478071Y-96773000D02*
X103081000Y-96773000D01*
X94421000Y-96013000D02*
X100421000Y-96013000D01*
X94421000Y-96773000D02*
X94421000Y-96013000D01*
X100421000Y-96773000D02*
X94421000Y-96773000D01*
X103081000Y-97663000D02*
X100421000Y-97663000D01*
X103478071Y-98553000D02*
X103081000Y-98553000D01*
X103478071Y-99313000D02*
X103081000Y-99313000D01*
X94421000Y-98553000D02*
X100421000Y-98553000D01*
X94421000Y-99313000D02*
X94421000Y-98553000D01*
X100421000Y-99313000D02*
X94421000Y-99313000D01*
X103081000Y-100203000D02*
X100421000Y-100203000D01*
X103478071Y-101093000D02*
X103081000Y-101093000D01*
X103478071Y-101853000D02*
X103081000Y-101853000D01*
X94421000Y-101093000D02*
X100421000Y-101093000D01*
X94421000Y-101853000D02*
X94421000Y-101093000D01*
X100421000Y-101853000D02*
X94421000Y-101853000D01*
X103081000Y-102743000D02*
X100421000Y-102743000D01*
X103478071Y-103633000D02*
X103081000Y-103633000D01*
X103478071Y-104393000D02*
X103081000Y-104393000D01*
X94421000Y-103633000D02*
X100421000Y-103633000D01*
X94421000Y-104393000D02*
X94421000Y-103633000D01*
X100421000Y-104393000D02*
X94421000Y-104393000D01*
X103081000Y-105283000D02*
X100421000Y-105283000D01*
X103411000Y-106173000D02*
X103081000Y-106173000D01*
X103411000Y-106933000D02*
X103081000Y-106933000D01*
X100421000Y-106273000D02*
X94421000Y-106273000D01*
X100421000Y-106393000D02*
X94421000Y-106393000D01*
X100421000Y-106513000D02*
X94421000Y-106513000D01*
X100421000Y-106633000D02*
X94421000Y-106633000D01*
X100421000Y-106753000D02*
X94421000Y-106753000D01*
X100421000Y-106873000D02*
X94421000Y-106873000D01*
X94421000Y-106173000D02*
X100421000Y-106173000D01*
X94421000Y-106933000D02*
X94421000Y-106173000D01*
X100421000Y-106933000D02*
X94421000Y-106933000D01*
X100421000Y-107883000D02*
X103081000Y-107883000D01*
X100421000Y-95063000D02*
X100421000Y-107883000D01*
X103081000Y-95063000D02*
X100421000Y-95063000D01*
X103081000Y-107883000D02*
X103081000Y-95063000D01*
%TO.C,BOOT*%
X150701500Y-79948000D02*
X150701500Y-78548000D01*
X151401500Y-77848000D02*
X152001500Y-77848000D01*
X152701500Y-78548000D02*
X152701500Y-79948000D01*
X152001500Y-80648000D02*
X151401500Y-80648000D01*
X151401500Y-80648000D02*
G75*
G02*
X150701500Y-79948000I0J700000D01*
G01*
X152701500Y-79948000D02*
G75*
G02*
X152001500Y-80648000I-700000J0D01*
G01*
X152001500Y-77848000D02*
G75*
G02*
X152701500Y-78548000I0J-700000D01*
G01*
X150701500Y-78548000D02*
G75*
G02*
X151401500Y-77848000I700000J0D01*
G01*
%TO.C,RST*%
X129602200Y-92406100D02*
X131002200Y-92406100D01*
X131702200Y-93106100D02*
X131702200Y-93706100D01*
X131002200Y-94406100D02*
X129602200Y-94406100D01*
X128902200Y-93706100D02*
X128902200Y-93106100D01*
X128902200Y-93106100D02*
G75*
G02*
X129602200Y-92406100I700000J0D01*
G01*
X129602200Y-94406100D02*
G75*
G02*
X128902200Y-93706100I0J700000D01*
G01*
X131702200Y-93706100D02*
G75*
G02*
X131002200Y-94406100I-700000J0D01*
G01*
X131002200Y-92406100D02*
G75*
G02*
X131702200Y-93106100I0J-700000D01*
G01*
%TO.C,L1*%
X128166400Y-83390521D02*
X128166400Y-83716079D01*
X129186400Y-83390521D02*
X129186400Y-83716079D01*
%TO.C,L2*%
X143689000Y-116096622D02*
X143689000Y-115297378D01*
X142569000Y-116096622D02*
X142569000Y-115297378D01*
%TO.C,Q1*%
X118039000Y-87149400D02*
X118039000Y-88609400D01*
X114879000Y-87149400D02*
X114879000Y-89309400D01*
X114879000Y-87149400D02*
X115809000Y-87149400D01*
X118039000Y-87149400D02*
X117109000Y-87149400D01*
%TO.C,Q2*%
X152837000Y-85041200D02*
X152837000Y-86501200D01*
X149677000Y-85041200D02*
X149677000Y-87201200D01*
X149677000Y-85041200D02*
X150607000Y-85041200D01*
X152837000Y-85041200D02*
X151907000Y-85041200D01*
%TO.C,Q3*%
X151948000Y-106047000D02*
X151948000Y-107507000D01*
X148788000Y-106047000D02*
X148788000Y-108207000D01*
X148788000Y-106047000D02*
X149718000Y-106047000D01*
X151948000Y-106047000D02*
X151018000Y-106047000D01*
%TO.C,R1*%
X147928359Y-78993000D02*
X148235641Y-78993000D01*
X147928359Y-78233000D02*
X148235641Y-78233000D01*
%TO.C,R3*%
X134822200Y-89383841D02*
X134822200Y-89076559D01*
X134062200Y-89383841D02*
X134062200Y-89076559D01*
%TO.C,R4*%
X148235641Y-79566500D02*
X147928359Y-79566500D01*
X148235641Y-80326500D02*
X147928359Y-80326500D01*
%TO.C,R5*%
X133501159Y-81634600D02*
X133808441Y-81634600D01*
X133501159Y-80874600D02*
X133808441Y-80874600D01*
%TO.C,R6*%
X133501159Y-82904600D02*
X133808441Y-82904600D01*
X133501159Y-82144600D02*
X133808441Y-82144600D01*
%TO.C,R8*%
X142495000Y-112622359D02*
X142495000Y-112929641D01*
X143255000Y-112622359D02*
X143255000Y-112929641D01*
%TO.C,R9*%
X141225000Y-112622359D02*
X141225000Y-112929641D01*
X141985000Y-112622359D02*
X141985000Y-112929641D01*
%TO.C,R10*%
X135535400Y-110488759D02*
X135535400Y-110796041D01*
X136295400Y-110488759D02*
X136295400Y-110796041D01*
%TO.C,R13*%
X132053359Y-123163600D02*
X132360641Y-123163600D01*
X132053359Y-122403600D02*
X132360641Y-122403600D01*
%TO.C,R14*%
X120422400Y-90448159D02*
X120422400Y-90755441D01*
X121182400Y-90448159D02*
X121182400Y-90755441D01*
%TO.C,R15*%
X122302000Y-90448159D02*
X122302000Y-90755441D01*
X123062000Y-90448159D02*
X123062000Y-90755441D01*
%TO.C,R16*%
X119203200Y-90448159D02*
X119203200Y-90755441D01*
X119963200Y-90448159D02*
X119963200Y-90755441D01*
%TO.C,R17*%
X119584200Y-86993759D02*
X119584200Y-87301041D01*
X120344200Y-86993759D02*
X120344200Y-87301041D01*
%TO.C,R18*%
X149911800Y-89101959D02*
X149911800Y-89409241D01*
X150671800Y-89101959D02*
X150671800Y-89409241D01*
%TO.C,R19*%
X118415800Y-86993759D02*
X118415800Y-87301041D01*
X119175800Y-86993759D02*
X119175800Y-87301041D01*
%TO.C,R20*%
X151054800Y-89101959D02*
X151054800Y-89409241D01*
X151814800Y-89101959D02*
X151814800Y-89409241D01*
%TO.C,R21*%
X115797359Y-91515200D02*
X116104641Y-91515200D01*
X115797359Y-90755200D02*
X116104641Y-90755200D01*
%TO.C,R22*%
X152147000Y-89101959D02*
X152147000Y-89409241D01*
X152907000Y-89101959D02*
X152907000Y-89409241D01*
%TO.C,R23*%
X115190000Y-74827159D02*
X115190000Y-75134441D01*
X115950000Y-74827159D02*
X115950000Y-75134441D01*
%TO.C,R24*%
X117730000Y-74801759D02*
X117730000Y-75109041D01*
X118490000Y-74801759D02*
X118490000Y-75109041D01*
%TO.C,R25*%
X120168641Y-75083400D02*
X119861359Y-75083400D01*
X120168641Y-75843400D02*
X119861359Y-75843400D01*
%TO.C,R27*%
X149071359Y-111505000D02*
X149378641Y-111505000D01*
X149071359Y-110745000D02*
X149378641Y-110745000D01*
%TO.C,R28*%
X147573000Y-111151641D02*
X147573000Y-110844359D01*
X146813000Y-111151641D02*
X146813000Y-110844359D01*
%TO.C,R29*%
X149378641Y-109602000D02*
X149071359Y-109602000D01*
X149378641Y-110362000D02*
X149071359Y-110362000D01*
%TO.C,R30*%
X140732742Y-100471500D02*
X141207258Y-100471500D01*
X140732742Y-99426500D02*
X141207258Y-99426500D01*
%TO.C,R31*%
X144542742Y-100090500D02*
X145017258Y-100090500D01*
X144542742Y-99045500D02*
X145017258Y-99045500D01*
%TO.C,R32*%
X140732742Y-98947500D02*
X141207258Y-98947500D01*
X140732742Y-97902500D02*
X141207258Y-97902500D01*
%TO.C,SW1*%
X136895000Y-70797000D02*
X135695000Y-70797000D01*
X135695000Y-70797000D02*
X135695000Y-74997000D01*
X135695000Y-74997000D02*
X136895000Y-74997000D01*
X143695000Y-70797000D02*
X144895000Y-70797000D01*
X144895000Y-70797000D02*
X144895000Y-74997000D01*
X144895000Y-74997000D02*
X143695000Y-74997000D01*
X136595000Y-70497000D02*
X135395000Y-70497000D01*
X135395000Y-70497000D02*
X135395000Y-71697000D01*
%TO.C,SW2*%
X136895000Y-76639000D02*
X135695000Y-76639000D01*
X135695000Y-76639000D02*
X135695000Y-80839000D01*
X135695000Y-80839000D02*
X136895000Y-80839000D01*
X143695000Y-76639000D02*
X144895000Y-76639000D01*
X144895000Y-76639000D02*
X144895000Y-80839000D01*
X144895000Y-80839000D02*
X143695000Y-80839000D01*
X136595000Y-76339000D02*
X135395000Y-76339000D01*
X135395000Y-76339000D02*
X135395000Y-77539000D01*
%TO.C,U1*%
X136749000Y-84867000D02*
X135409000Y-84867000D01*
X136749000Y-83917000D02*
X136749000Y-84867000D01*
X137699000Y-83917000D02*
X136749000Y-83917000D01*
X146969000Y-83917000D02*
X146969000Y-84867000D01*
X146019000Y-83917000D02*
X146969000Y-83917000D01*
X136749000Y-94137000D02*
X136749000Y-93187000D01*
X137699000Y-94137000D02*
X136749000Y-94137000D01*
X146969000Y-94137000D02*
X146969000Y-93187000D01*
X146019000Y-94137000D02*
X146969000Y-94137000D01*
%TO.C,U2*%
X129514600Y-74744900D02*
X126064600Y-74744900D01*
X129514600Y-74744900D02*
X131464600Y-74744900D01*
X129514600Y-79864900D02*
X127564600Y-79864900D01*
X129514600Y-79864900D02*
X131464600Y-79864900D01*
%TO.C,U5*%
X138217000Y-114797000D02*
X138217000Y-117247000D01*
X141437000Y-116597000D02*
X141437000Y-114797000D01*
%TO.C,U6*%
X107442000Y-94869000D02*
X107442000Y-70739000D01*
X107442000Y-70739000D02*
X130810000Y-70739000D01*
X130810000Y-94869000D02*
X130810000Y-70739000D01*
X130810000Y-94869000D02*
X107442000Y-94869000D01*
X109085922Y-93726000D02*
G75*
G03*
X109085922Y-93726000I-567961J0D01*
G01*
D13*
%TO.C,U8*%
X142582900Y-101269400D02*
X143183900Y-101879400D01*
X138933900Y-101269400D02*
X138933900Y-105029400D01*
X143183900Y-101879400D02*
X143183900Y-105029400D01*
X142582900Y-101269400D02*
X138933900Y-101269400D01*
X143183900Y-105029400D02*
X138933900Y-105029400D01*
D11*
%TO.C,U9*%
X149393000Y-96318500D02*
X149393000Y-98768500D01*
X152613000Y-98118500D02*
X152613000Y-96318500D01*
%TO.C,Y1*%
X126660500Y-85342000D02*
X126660500Y-91092000D01*
X130260500Y-85342000D02*
X126660500Y-85342000D01*
X130260500Y-91092000D02*
X130260500Y-85342000D01*
%TD*%
%TO.C,C31*%
X144699085Y-101433285D02*
X144670514Y-101461857D01*
X144584800Y-101490428D01*
X144527657Y-101490428D01*
X144441942Y-101461857D01*
X144384800Y-101404714D01*
X144356228Y-101347571D01*
X144327657Y-101233285D01*
X144327657Y-101147571D01*
X144356228Y-101033285D01*
X144384800Y-100976142D01*
X144441942Y-100919000D01*
X144527657Y-100890428D01*
X144584800Y-100890428D01*
X144670514Y-100919000D01*
X144699085Y-100947571D01*
X144899085Y-100890428D02*
X145270514Y-100890428D01*
X145070514Y-101119000D01*
X145156228Y-101119000D01*
X145213371Y-101147571D01*
X145241942Y-101176142D01*
X145270514Y-101233285D01*
X145270514Y-101376142D01*
X145241942Y-101433285D01*
X145213371Y-101461857D01*
X145156228Y-101490428D01*
X144984800Y-101490428D01*
X144927657Y-101461857D01*
X144899085Y-101433285D01*
X145841942Y-101490428D02*
X145499085Y-101490428D01*
X145670514Y-101490428D02*
X145670514Y-100890428D01*
X145613371Y-100976142D01*
X145556228Y-101033285D01*
X145499085Y-101061857D01*
%TO.C,C30*%
X146705685Y-101433285D02*
X146677114Y-101461857D01*
X146591400Y-101490428D01*
X146534257Y-101490428D01*
X146448542Y-101461857D01*
X146391400Y-101404714D01*
X146362828Y-101347571D01*
X146334257Y-101233285D01*
X146334257Y-101147571D01*
X146362828Y-101033285D01*
X146391400Y-100976142D01*
X146448542Y-100919000D01*
X146534257Y-100890428D01*
X146591400Y-100890428D01*
X146677114Y-100919000D01*
X146705685Y-100947571D01*
X146905685Y-100890428D02*
X147277114Y-100890428D01*
X147077114Y-101119000D01*
X147162828Y-101119000D01*
X147219971Y-101147571D01*
X147248542Y-101176142D01*
X147277114Y-101233285D01*
X147277114Y-101376142D01*
X147248542Y-101433285D01*
X147219971Y-101461857D01*
X147162828Y-101490428D01*
X146991400Y-101490428D01*
X146934257Y-101461857D01*
X146905685Y-101433285D01*
X147648542Y-100890428D02*
X147705685Y-100890428D01*
X147762828Y-100919000D01*
X147791400Y-100947571D01*
X147819971Y-101004714D01*
X147848542Y-101119000D01*
X147848542Y-101261857D01*
X147819971Y-101376142D01*
X147791400Y-101433285D01*
X147762828Y-101461857D01*
X147705685Y-101490428D01*
X147648542Y-101490428D01*
X147591400Y-101461857D01*
X147562828Y-101433285D01*
X147534257Y-101376142D01*
X147505685Y-101261857D01*
X147505685Y-101119000D01*
X147534257Y-101004714D01*
X147562828Y-100947571D01*
X147591400Y-100919000D01*
X147648542Y-100890428D01*
%TO.C,C32*%
X148712285Y-101433285D02*
X148683714Y-101461857D01*
X148598000Y-101490428D01*
X148540857Y-101490428D01*
X148455142Y-101461857D01*
X148398000Y-101404714D01*
X148369428Y-101347571D01*
X148340857Y-101233285D01*
X148340857Y-101147571D01*
X148369428Y-101033285D01*
X148398000Y-100976142D01*
X148455142Y-100919000D01*
X148540857Y-100890428D01*
X148598000Y-100890428D01*
X148683714Y-100919000D01*
X148712285Y-100947571D01*
X148912285Y-100890428D02*
X149283714Y-100890428D01*
X149083714Y-101119000D01*
X149169428Y-101119000D01*
X149226571Y-101147571D01*
X149255142Y-101176142D01*
X149283714Y-101233285D01*
X149283714Y-101376142D01*
X149255142Y-101433285D01*
X149226571Y-101461857D01*
X149169428Y-101490428D01*
X148998000Y-101490428D01*
X148940857Y-101461857D01*
X148912285Y-101433285D01*
X149512285Y-100947571D02*
X149540857Y-100919000D01*
X149598000Y-100890428D01*
X149740857Y-100890428D01*
X149798000Y-100919000D01*
X149826571Y-100947571D01*
X149855142Y-101004714D01*
X149855142Y-101061857D01*
X149826571Y-101147571D01*
X149483714Y-101490428D01*
X149855142Y-101490428D01*
%TO.C,U10*%
D13*
X125546204Y-98509980D02*
X125546204Y-99319504D01*
X125593823Y-99414742D01*
X125641442Y-99462361D01*
X125736680Y-99509980D01*
X125927157Y-99509980D01*
X126022395Y-99462361D01*
X126070014Y-99414742D01*
X126117633Y-99319504D01*
X126117633Y-98509980D01*
X127117633Y-99509980D02*
X126546204Y-99509980D01*
X126831919Y-99509980D02*
X126831919Y-98509980D01*
X126736680Y-98652838D01*
X126641442Y-98748076D01*
X126546204Y-98795695D01*
X127736680Y-98509980D02*
X127831919Y-98509980D01*
X127927157Y-98557600D01*
X127974776Y-98605219D01*
X128022395Y-98700457D01*
X128070014Y-98890933D01*
X128070014Y-99129028D01*
X128022395Y-99319504D01*
X127974776Y-99414742D01*
X127927157Y-99462361D01*
X127831919Y-99509980D01*
X127736680Y-99509980D01*
X127641442Y-99462361D01*
X127593823Y-99414742D01*
X127546204Y-99319504D01*
X127498585Y-99129028D01*
X127498585Y-98890933D01*
X127546204Y-98700457D01*
X127593823Y-98605219D01*
X127641442Y-98557600D01*
X127736680Y-98509980D01*
%TO.C,U4*%
X107620095Y-121776380D02*
X107620095Y-122585904D01*
X107667714Y-122681142D01*
X107715333Y-122728761D01*
X107810571Y-122776380D01*
X108001047Y-122776380D01*
X108096285Y-122728761D01*
X108143904Y-122681142D01*
X108191523Y-122585904D01*
X108191523Y-121776380D01*
X109096285Y-122109714D02*
X109096285Y-122776380D01*
X108858190Y-121728761D02*
X108620095Y-122443047D01*
X109239142Y-122443047D01*
%TO.C,R33*%
D11*
X110304428Y-92483714D02*
X110018714Y-92683714D01*
X110304428Y-92826571D02*
X109704428Y-92826571D01*
X109704428Y-92598000D01*
X109733000Y-92540857D01*
X109761571Y-92512285D01*
X109818714Y-92483714D01*
X109904428Y-92483714D01*
X109961571Y-92512285D01*
X109990142Y-92540857D01*
X110018714Y-92598000D01*
X110018714Y-92826571D01*
X109704428Y-92283714D02*
X109704428Y-91912285D01*
X109933000Y-92112285D01*
X109933000Y-92026571D01*
X109961571Y-91969428D01*
X109990142Y-91940857D01*
X110047285Y-91912285D01*
X110190142Y-91912285D01*
X110247285Y-91940857D01*
X110275857Y-91969428D01*
X110304428Y-92026571D01*
X110304428Y-92198000D01*
X110275857Y-92255142D01*
X110247285Y-92283714D01*
X109704428Y-91712285D02*
X109704428Y-91340857D01*
X109933000Y-91540857D01*
X109933000Y-91455142D01*
X109961571Y-91398000D01*
X109990142Y-91369428D01*
X110047285Y-91340857D01*
X110190142Y-91340857D01*
X110247285Y-91369428D01*
X110275857Y-91398000D01*
X110304428Y-91455142D01*
X110304428Y-91626571D01*
X110275857Y-91683714D01*
X110247285Y-91712285D01*
%TO.C,R11*%
X113720728Y-96014314D02*
X113435014Y-96214314D01*
X113720728Y-96357171D02*
X113120728Y-96357171D01*
X113120728Y-96128600D01*
X113149300Y-96071457D01*
X113177871Y-96042885D01*
X113235014Y-96014314D01*
X113320728Y-96014314D01*
X113377871Y-96042885D01*
X113406442Y-96071457D01*
X113435014Y-96128600D01*
X113435014Y-96357171D01*
X113720728Y-95442885D02*
X113720728Y-95785742D01*
X113720728Y-95614314D02*
X113120728Y-95614314D01*
X113206442Y-95671457D01*
X113263585Y-95728600D01*
X113292157Y-95785742D01*
X113720728Y-94871457D02*
X113720728Y-95214314D01*
X113720728Y-95042885D02*
X113120728Y-95042885D01*
X113206442Y-95100028D01*
X113263585Y-95157171D01*
X113292157Y-95214314D01*
%TO.C,R7*%
X114889128Y-95995300D02*
X114603414Y-96195300D01*
X114889128Y-96338157D02*
X114289128Y-96338157D01*
X114289128Y-96109585D01*
X114317700Y-96052442D01*
X114346271Y-96023871D01*
X114403414Y-95995300D01*
X114489128Y-95995300D01*
X114546271Y-96023871D01*
X114574842Y-96052442D01*
X114603414Y-96109585D01*
X114603414Y-96338157D01*
X114289128Y-95795300D02*
X114289128Y-95395300D01*
X114889128Y-95652442D01*
%TO.C,Q4*%
X108680457Y-95969871D02*
X108623314Y-95941300D01*
X108566171Y-95884157D01*
X108480457Y-95798442D01*
X108423314Y-95769871D01*
X108366171Y-95769871D01*
X108394742Y-95912728D02*
X108337600Y-95884157D01*
X108280457Y-95827014D01*
X108251885Y-95712728D01*
X108251885Y-95512728D01*
X108280457Y-95398442D01*
X108337600Y-95341300D01*
X108394742Y-95312728D01*
X108509028Y-95312728D01*
X108566171Y-95341300D01*
X108623314Y-95398442D01*
X108651885Y-95512728D01*
X108651885Y-95712728D01*
X108623314Y-95827014D01*
X108566171Y-95884157D01*
X108509028Y-95912728D01*
X108394742Y-95912728D01*
X109166171Y-95512728D02*
X109166171Y-95912728D01*
X109023314Y-95284157D02*
X108880457Y-95712728D01*
X109251885Y-95712728D01*
%TO.C,C17*%
X101785985Y-111819485D02*
X101757414Y-111848057D01*
X101671700Y-111876628D01*
X101614557Y-111876628D01*
X101528842Y-111848057D01*
X101471700Y-111790914D01*
X101443128Y-111733771D01*
X101414557Y-111619485D01*
X101414557Y-111533771D01*
X101443128Y-111419485D01*
X101471700Y-111362342D01*
X101528842Y-111305200D01*
X101614557Y-111276628D01*
X101671700Y-111276628D01*
X101757414Y-111305200D01*
X101785985Y-111333771D01*
X102357414Y-111876628D02*
X102014557Y-111876628D01*
X102185985Y-111876628D02*
X102185985Y-111276628D01*
X102128842Y-111362342D01*
X102071700Y-111419485D01*
X102014557Y-111448057D01*
X102557414Y-111276628D02*
X102957414Y-111276628D01*
X102700271Y-111876628D01*
%TO.C,C33*%
X107046885Y-108142814D02*
X107075457Y-108171385D01*
X107104028Y-108257100D01*
X107104028Y-108314242D01*
X107075457Y-108399957D01*
X107018314Y-108457100D01*
X106961171Y-108485671D01*
X106846885Y-108514242D01*
X106761171Y-108514242D01*
X106646885Y-108485671D01*
X106589742Y-108457100D01*
X106532600Y-108399957D01*
X106504028Y-108314242D01*
X106504028Y-108257100D01*
X106532600Y-108171385D01*
X106561171Y-108142814D01*
X106504028Y-107942814D02*
X106504028Y-107571385D01*
X106732600Y-107771385D01*
X106732600Y-107685671D01*
X106761171Y-107628528D01*
X106789742Y-107599957D01*
X106846885Y-107571385D01*
X106989742Y-107571385D01*
X107046885Y-107599957D01*
X107075457Y-107628528D01*
X107104028Y-107685671D01*
X107104028Y-107857100D01*
X107075457Y-107914242D01*
X107046885Y-107942814D01*
X106504028Y-107371385D02*
X106504028Y-106999957D01*
X106732600Y-107199957D01*
X106732600Y-107114242D01*
X106761171Y-107057100D01*
X106789742Y-107028528D01*
X106846885Y-106999957D01*
X106989742Y-106999957D01*
X107046885Y-107028528D01*
X107075457Y-107057100D01*
X107104028Y-107114242D01*
X107104028Y-107285671D01*
X107075457Y-107342814D01*
X107046885Y-107371385D01*
%TO.C,C18*%
X101760585Y-113508585D02*
X101732014Y-113537157D01*
X101646300Y-113565728D01*
X101589157Y-113565728D01*
X101503442Y-113537157D01*
X101446300Y-113480014D01*
X101417728Y-113422871D01*
X101389157Y-113308585D01*
X101389157Y-113222871D01*
X101417728Y-113108585D01*
X101446300Y-113051442D01*
X101503442Y-112994300D01*
X101589157Y-112965728D01*
X101646300Y-112965728D01*
X101732014Y-112994300D01*
X101760585Y-113022871D01*
X102332014Y-113565728D02*
X101989157Y-113565728D01*
X102160585Y-113565728D02*
X102160585Y-112965728D01*
X102103442Y-113051442D01*
X102046300Y-113108585D01*
X101989157Y-113137157D01*
X102674871Y-113222871D02*
X102617728Y-113194300D01*
X102589157Y-113165728D01*
X102560585Y-113108585D01*
X102560585Y-113080014D01*
X102589157Y-113022871D01*
X102617728Y-112994300D01*
X102674871Y-112965728D01*
X102789157Y-112965728D01*
X102846300Y-112994300D01*
X102874871Y-113022871D01*
X102903442Y-113080014D01*
X102903442Y-113108585D01*
X102874871Y-113165728D01*
X102846300Y-113194300D01*
X102789157Y-113222871D01*
X102674871Y-113222871D01*
X102617728Y-113251442D01*
X102589157Y-113280014D01*
X102560585Y-113337157D01*
X102560585Y-113451442D01*
X102589157Y-113508585D01*
X102617728Y-113537157D01*
X102674871Y-113565728D01*
X102789157Y-113565728D01*
X102846300Y-113537157D01*
X102874871Y-113508585D01*
X102903442Y-113451442D01*
X102903442Y-113337157D01*
X102874871Y-113280014D01*
X102846300Y-113251442D01*
X102789157Y-113222871D01*
%TO.C,C16*%
X101824085Y-110181185D02*
X101795514Y-110209757D01*
X101709800Y-110238328D01*
X101652657Y-110238328D01*
X101566942Y-110209757D01*
X101509800Y-110152614D01*
X101481228Y-110095471D01*
X101452657Y-109981185D01*
X101452657Y-109895471D01*
X101481228Y-109781185D01*
X101509800Y-109724042D01*
X101566942Y-109666900D01*
X101652657Y-109638328D01*
X101709800Y-109638328D01*
X101795514Y-109666900D01*
X101824085Y-109695471D01*
X102395514Y-110238328D02*
X102052657Y-110238328D01*
X102224085Y-110238328D02*
X102224085Y-109638328D01*
X102166942Y-109724042D01*
X102109800Y-109781185D01*
X102052657Y-109809757D01*
X102909800Y-109638328D02*
X102795514Y-109638328D01*
X102738371Y-109666900D01*
X102709800Y-109695471D01*
X102652657Y-109781185D01*
X102624085Y-109895471D01*
X102624085Y-110124042D01*
X102652657Y-110181185D01*
X102681228Y-110209757D01*
X102738371Y-110238328D01*
X102852657Y-110238328D01*
X102909800Y-110209757D01*
X102938371Y-110181185D01*
X102966942Y-110124042D01*
X102966942Y-109981185D01*
X102938371Y-109924042D01*
X102909800Y-109895471D01*
X102852657Y-109866900D01*
X102738371Y-109866900D01*
X102681228Y-109895471D01*
X102652657Y-109924042D01*
X102624085Y-109981185D01*
%TO.C,C15*%
X107034185Y-113857814D02*
X107062757Y-113886385D01*
X107091328Y-113972100D01*
X107091328Y-114029242D01*
X107062757Y-114114957D01*
X107005614Y-114172100D01*
X106948471Y-114200671D01*
X106834185Y-114229242D01*
X106748471Y-114229242D01*
X106634185Y-114200671D01*
X106577042Y-114172100D01*
X106519900Y-114114957D01*
X106491328Y-114029242D01*
X106491328Y-113972100D01*
X106519900Y-113886385D01*
X106548471Y-113857814D01*
X107091328Y-113286385D02*
X107091328Y-113629242D01*
X107091328Y-113457814D02*
X106491328Y-113457814D01*
X106577042Y-113514957D01*
X106634185Y-113572100D01*
X106662757Y-113629242D01*
X106491328Y-112743528D02*
X106491328Y-113029242D01*
X106777042Y-113057814D01*
X106748471Y-113029242D01*
X106719900Y-112972100D01*
X106719900Y-112829242D01*
X106748471Y-112772100D01*
X106777042Y-112743528D01*
X106834185Y-112714957D01*
X106977042Y-112714957D01*
X107034185Y-112743528D01*
X107062757Y-112772100D01*
X107091328Y-112829242D01*
X107091328Y-112972100D01*
X107062757Y-113029242D01*
X107034185Y-113057814D01*
%TO.C,R2*%
X132033928Y-87626000D02*
X131748214Y-87826000D01*
X132033928Y-87968857D02*
X131433928Y-87968857D01*
X131433928Y-87740285D01*
X131462500Y-87683142D01*
X131491071Y-87654571D01*
X131548214Y-87626000D01*
X131633928Y-87626000D01*
X131691071Y-87654571D01*
X131719642Y-87683142D01*
X131748214Y-87740285D01*
X131748214Y-87968857D01*
X131491071Y-87397428D02*
X131462500Y-87368857D01*
X131433928Y-87311714D01*
X131433928Y-87168857D01*
X131462500Y-87111714D01*
X131491071Y-87083142D01*
X131548214Y-87054571D01*
X131605357Y-87054571D01*
X131691071Y-87083142D01*
X132033928Y-87426000D01*
X132033928Y-87054571D01*
%TO.C,R12*%
X136393285Y-123055028D02*
X136193285Y-122769314D01*
X136050428Y-123055028D02*
X136050428Y-122455028D01*
X136279000Y-122455028D01*
X136336142Y-122483600D01*
X136364714Y-122512171D01*
X136393285Y-122569314D01*
X136393285Y-122655028D01*
X136364714Y-122712171D01*
X136336142Y-122740742D01*
X136279000Y-122769314D01*
X136050428Y-122769314D01*
X136964714Y-123055028D02*
X136621857Y-123055028D01*
X136793285Y-123055028D02*
X136793285Y-122455028D01*
X136736142Y-122540742D01*
X136679000Y-122597885D01*
X136621857Y-122626457D01*
X137193285Y-122512171D02*
X137221857Y-122483600D01*
X137279000Y-122455028D01*
X137421857Y-122455028D01*
X137479000Y-122483600D01*
X137507571Y-122512171D01*
X137536142Y-122569314D01*
X137536142Y-122626457D01*
X137507571Y-122712171D01*
X137164714Y-123055028D01*
X137536142Y-123055028D01*
%TO.C,H2*%
D13*
X148738095Y-71452380D02*
X148738095Y-70452380D01*
X148738095Y-70928571D02*
X149309523Y-70928571D01*
X149309523Y-71452380D02*
X149309523Y-70452380D01*
X149738095Y-70547619D02*
X149785714Y-70500000D01*
X149880952Y-70452380D01*
X150119047Y-70452380D01*
X150214285Y-70500000D01*
X150261904Y-70547619D01*
X150309523Y-70642857D01*
X150309523Y-70738095D01*
X150261904Y-70880952D01*
X149690476Y-71452380D01*
X150309523Y-71452380D01*
%TO.C,H1*%
X103738095Y-116452380D02*
X103738095Y-115452380D01*
X103738095Y-115928571D02*
X104309523Y-115928571D01*
X104309523Y-116452380D02*
X104309523Y-115452380D01*
X105309523Y-116452380D02*
X104738095Y-116452380D01*
X105023809Y-116452380D02*
X105023809Y-115452380D01*
X104928571Y-115595238D01*
X104833333Y-115690476D01*
X104738095Y-115738095D01*
%TO.C,R26*%
D11*
X145635828Y-121744514D02*
X145350114Y-121944514D01*
X145635828Y-122087371D02*
X145035828Y-122087371D01*
X145035828Y-121858800D01*
X145064400Y-121801657D01*
X145092971Y-121773085D01*
X145150114Y-121744514D01*
X145235828Y-121744514D01*
X145292971Y-121773085D01*
X145321542Y-121801657D01*
X145350114Y-121858800D01*
X145350114Y-122087371D01*
X145092971Y-121515942D02*
X145064400Y-121487371D01*
X145035828Y-121430228D01*
X145035828Y-121287371D01*
X145064400Y-121230228D01*
X145092971Y-121201657D01*
X145150114Y-121173085D01*
X145207257Y-121173085D01*
X145292971Y-121201657D01*
X145635828Y-121544514D01*
X145635828Y-121173085D01*
X145035828Y-120658800D02*
X145035828Y-120773085D01*
X145064400Y-120830228D01*
X145092971Y-120858800D01*
X145178685Y-120915942D01*
X145292971Y-120944514D01*
X145521542Y-120944514D01*
X145578685Y-120915942D01*
X145607257Y-120887371D01*
X145635828Y-120830228D01*
X145635828Y-120715942D01*
X145607257Y-120658800D01*
X145578685Y-120630228D01*
X145521542Y-120601657D01*
X145378685Y-120601657D01*
X145321542Y-120630228D01*
X145292971Y-120658800D01*
X145264400Y-120715942D01*
X145264400Y-120830228D01*
X145292971Y-120887371D01*
X145321542Y-120915942D01*
X145378685Y-120944514D01*
%TO.C,L3*%
D13*
X133065780Y-98769466D02*
X133065780Y-99245657D01*
X132065780Y-99245657D01*
X132065780Y-98531371D02*
X132065780Y-97912323D01*
X132446733Y-98245657D01*
X132446733Y-98102800D01*
X132494352Y-98007561D01*
X132541971Y-97959942D01*
X132637209Y-97912323D01*
X132875304Y-97912323D01*
X132970542Y-97959942D01*
X133018161Y-98007561D01*
X133065780Y-98102800D01*
X133065780Y-98388514D01*
X133018161Y-98483752D01*
X132970542Y-98531371D01*
%TO.C,C21*%
D11*
X145654685Y-110164514D02*
X145683257Y-110193085D01*
X145711828Y-110278800D01*
X145711828Y-110335942D01*
X145683257Y-110421657D01*
X145626114Y-110478800D01*
X145568971Y-110507371D01*
X145454685Y-110535942D01*
X145368971Y-110535942D01*
X145254685Y-110507371D01*
X145197542Y-110478800D01*
X145140400Y-110421657D01*
X145111828Y-110335942D01*
X145111828Y-110278800D01*
X145140400Y-110193085D01*
X145168971Y-110164514D01*
X145168971Y-109935942D02*
X145140400Y-109907371D01*
X145111828Y-109850228D01*
X145111828Y-109707371D01*
X145140400Y-109650228D01*
X145168971Y-109621657D01*
X145226114Y-109593085D01*
X145283257Y-109593085D01*
X145368971Y-109621657D01*
X145711828Y-109964514D01*
X145711828Y-109593085D01*
X145711828Y-109021657D02*
X145711828Y-109364514D01*
X145711828Y-109193085D02*
X145111828Y-109193085D01*
X145197542Y-109250228D01*
X145254685Y-109307371D01*
X145283257Y-109364514D01*
%TO.C,C3*%
X126798400Y-81837185D02*
X126769828Y-81865757D01*
X126684114Y-81894328D01*
X126626971Y-81894328D01*
X126541257Y-81865757D01*
X126484114Y-81808614D01*
X126455542Y-81751471D01*
X126426971Y-81637185D01*
X126426971Y-81551471D01*
X126455542Y-81437185D01*
X126484114Y-81380042D01*
X126541257Y-81322900D01*
X126626971Y-81294328D01*
X126684114Y-81294328D01*
X126769828Y-81322900D01*
X126798400Y-81351471D01*
X126998400Y-81294328D02*
X127369828Y-81294328D01*
X127169828Y-81522900D01*
X127255542Y-81522900D01*
X127312685Y-81551471D01*
X127341257Y-81580042D01*
X127369828Y-81637185D01*
X127369828Y-81780042D01*
X127341257Y-81837185D01*
X127312685Y-81865757D01*
X127255542Y-81894328D01*
X127084114Y-81894328D01*
X127026971Y-81865757D01*
X126998400Y-81837185D01*
%TO.C,C1*%
X123915500Y-87717285D02*
X123886928Y-87745857D01*
X123801214Y-87774428D01*
X123744071Y-87774428D01*
X123658357Y-87745857D01*
X123601214Y-87688714D01*
X123572642Y-87631571D01*
X123544071Y-87517285D01*
X123544071Y-87431571D01*
X123572642Y-87317285D01*
X123601214Y-87260142D01*
X123658357Y-87203000D01*
X123744071Y-87174428D01*
X123801214Y-87174428D01*
X123886928Y-87203000D01*
X123915500Y-87231571D01*
X124486928Y-87774428D02*
X124144071Y-87774428D01*
X124315500Y-87774428D02*
X124315500Y-87174428D01*
X124258357Y-87260142D01*
X124201214Y-87317285D01*
X124144071Y-87345857D01*
%TO.C,C2*%
X123890100Y-89495285D02*
X123861528Y-89523857D01*
X123775814Y-89552428D01*
X123718671Y-89552428D01*
X123632957Y-89523857D01*
X123575814Y-89466714D01*
X123547242Y-89409571D01*
X123518671Y-89295285D01*
X123518671Y-89209571D01*
X123547242Y-89095285D01*
X123575814Y-89038142D01*
X123632957Y-88981000D01*
X123718671Y-88952428D01*
X123775814Y-88952428D01*
X123861528Y-88981000D01*
X123890100Y-89009571D01*
X124118671Y-89009571D02*
X124147242Y-88981000D01*
X124204385Y-88952428D01*
X124347242Y-88952428D01*
X124404385Y-88981000D01*
X124432957Y-89009571D01*
X124461528Y-89066714D01*
X124461528Y-89123857D01*
X124432957Y-89209571D01*
X124090100Y-89552428D01*
X124461528Y-89552428D01*
%TO.C,C4*%
X130354400Y-81862585D02*
X130325828Y-81891157D01*
X130240114Y-81919728D01*
X130182971Y-81919728D01*
X130097257Y-81891157D01*
X130040114Y-81834014D01*
X130011542Y-81776871D01*
X129982971Y-81662585D01*
X129982971Y-81576871D01*
X130011542Y-81462585D01*
X130040114Y-81405442D01*
X130097257Y-81348300D01*
X130182971Y-81319728D01*
X130240114Y-81319728D01*
X130325828Y-81348300D01*
X130354400Y-81376871D01*
X130868685Y-81519728D02*
X130868685Y-81919728D01*
X130725828Y-81291157D02*
X130582971Y-81719728D01*
X130954400Y-81719728D01*
%TO.C,C5*%
X134516785Y-94372100D02*
X134545357Y-94400671D01*
X134573928Y-94486385D01*
X134573928Y-94543528D01*
X134545357Y-94629242D01*
X134488214Y-94686385D01*
X134431071Y-94714957D01*
X134316785Y-94743528D01*
X134231071Y-94743528D01*
X134116785Y-94714957D01*
X134059642Y-94686385D01*
X134002500Y-94629242D01*
X133973928Y-94543528D01*
X133973928Y-94486385D01*
X134002500Y-94400671D01*
X134031071Y-94372100D01*
X133973928Y-93829242D02*
X133973928Y-94114957D01*
X134259642Y-94143528D01*
X134231071Y-94114957D01*
X134202500Y-94057814D01*
X134202500Y-93914957D01*
X134231071Y-93857814D01*
X134259642Y-93829242D01*
X134316785Y-93800671D01*
X134459642Y-93800671D01*
X134516785Y-93829242D01*
X134545357Y-93857814D01*
X134573928Y-93914957D01*
X134573928Y-94057814D01*
X134545357Y-94114957D01*
X134516785Y-94143528D01*
%TO.C,C6*%
X133447445Y-90917700D02*
X133476017Y-90946271D01*
X133504588Y-91031985D01*
X133504588Y-91089128D01*
X133476017Y-91174842D01*
X133418874Y-91231985D01*
X133361731Y-91260557D01*
X133247445Y-91289128D01*
X133161731Y-91289128D01*
X133047445Y-91260557D01*
X132990302Y-91231985D01*
X132933160Y-91174842D01*
X132904588Y-91089128D01*
X132904588Y-91031985D01*
X132933160Y-90946271D01*
X132961731Y-90917700D01*
X132904588Y-90403414D02*
X132904588Y-90517700D01*
X132933160Y-90574842D01*
X132961731Y-90603414D01*
X133047445Y-90660557D01*
X133161731Y-90689128D01*
X133390302Y-90689128D01*
X133447445Y-90660557D01*
X133476017Y-90631985D01*
X133504588Y-90574842D01*
X133504588Y-90460557D01*
X133476017Y-90403414D01*
X133447445Y-90374842D01*
X133390302Y-90346271D01*
X133247445Y-90346271D01*
X133190302Y-90374842D01*
X133161731Y-90403414D01*
X133133160Y-90460557D01*
X133133160Y-90574842D01*
X133161731Y-90631985D01*
X133190302Y-90660557D01*
X133247445Y-90689128D01*
%TO.C,C7*%
X135977285Y-82015000D02*
X136005857Y-82043571D01*
X136034428Y-82129285D01*
X136034428Y-82186428D01*
X136005857Y-82272142D01*
X135948714Y-82329285D01*
X135891571Y-82357857D01*
X135777285Y-82386428D01*
X135691571Y-82386428D01*
X135577285Y-82357857D01*
X135520142Y-82329285D01*
X135463000Y-82272142D01*
X135434428Y-82186428D01*
X135434428Y-82129285D01*
X135463000Y-82043571D01*
X135491571Y-82015000D01*
X135434428Y-81815000D02*
X135434428Y-81415000D01*
X136034428Y-81672142D01*
%TO.C,C8*%
X133488085Y-84885200D02*
X133516657Y-84913771D01*
X133545228Y-84999485D01*
X133545228Y-85056628D01*
X133516657Y-85142342D01*
X133459514Y-85199485D01*
X133402371Y-85228057D01*
X133288085Y-85256628D01*
X133202371Y-85256628D01*
X133088085Y-85228057D01*
X133030942Y-85199485D01*
X132973800Y-85142342D01*
X132945228Y-85056628D01*
X132945228Y-84999485D01*
X132973800Y-84913771D01*
X133002371Y-84885200D01*
X133202371Y-84542342D02*
X133173800Y-84599485D01*
X133145228Y-84628057D01*
X133088085Y-84656628D01*
X133059514Y-84656628D01*
X133002371Y-84628057D01*
X132973800Y-84599485D01*
X132945228Y-84542342D01*
X132945228Y-84428057D01*
X132973800Y-84370914D01*
X133002371Y-84342342D01*
X133059514Y-84313771D01*
X133088085Y-84313771D01*
X133145228Y-84342342D01*
X133173800Y-84370914D01*
X133202371Y-84428057D01*
X133202371Y-84542342D01*
X133230942Y-84599485D01*
X133259514Y-84628057D01*
X133316657Y-84656628D01*
X133430942Y-84656628D01*
X133488085Y-84628057D01*
X133516657Y-84599485D01*
X133545228Y-84542342D01*
X133545228Y-84428057D01*
X133516657Y-84370914D01*
X133488085Y-84342342D01*
X133430942Y-84313771D01*
X133316657Y-84313771D01*
X133259514Y-84342342D01*
X133230942Y-84370914D01*
X133202371Y-84428057D01*
%TO.C,C9*%
X148194685Y-95731000D02*
X148223257Y-95759571D01*
X148251828Y-95845285D01*
X148251828Y-95902428D01*
X148223257Y-95988142D01*
X148166114Y-96045285D01*
X148108971Y-96073857D01*
X147994685Y-96102428D01*
X147908971Y-96102428D01*
X147794685Y-96073857D01*
X147737542Y-96045285D01*
X147680400Y-95988142D01*
X147651828Y-95902428D01*
X147651828Y-95845285D01*
X147680400Y-95759571D01*
X147708971Y-95731000D01*
X148251828Y-95445285D02*
X148251828Y-95331000D01*
X148223257Y-95273857D01*
X148194685Y-95245285D01*
X148108971Y-95188142D01*
X147994685Y-95159571D01*
X147766114Y-95159571D01*
X147708971Y-95188142D01*
X147680400Y-95216714D01*
X147651828Y-95273857D01*
X147651828Y-95388142D01*
X147680400Y-95445285D01*
X147708971Y-95473857D01*
X147766114Y-95502428D01*
X147908971Y-95502428D01*
X147966114Y-95473857D01*
X147994685Y-95445285D01*
X148023257Y-95388142D01*
X148023257Y-95273857D01*
X147994685Y-95216714D01*
X147966114Y-95188142D01*
X147908971Y-95159571D01*
%TO.C,C10*%
X144206885Y-111282114D02*
X144235457Y-111310685D01*
X144264028Y-111396400D01*
X144264028Y-111453542D01*
X144235457Y-111539257D01*
X144178314Y-111596400D01*
X144121171Y-111624971D01*
X144006885Y-111653542D01*
X143921171Y-111653542D01*
X143806885Y-111624971D01*
X143749742Y-111596400D01*
X143692600Y-111539257D01*
X143664028Y-111453542D01*
X143664028Y-111396400D01*
X143692600Y-111310685D01*
X143721171Y-111282114D01*
X144264028Y-110710685D02*
X144264028Y-111053542D01*
X144264028Y-110882114D02*
X143664028Y-110882114D01*
X143749742Y-110939257D01*
X143806885Y-110996400D01*
X143835457Y-111053542D01*
X143664028Y-110339257D02*
X143664028Y-110282114D01*
X143692600Y-110224971D01*
X143721171Y-110196400D01*
X143778314Y-110167828D01*
X143892600Y-110139257D01*
X144035457Y-110139257D01*
X144149742Y-110167828D01*
X144206885Y-110196400D01*
X144235457Y-110224971D01*
X144264028Y-110282114D01*
X144264028Y-110339257D01*
X144235457Y-110396400D01*
X144206885Y-110424971D01*
X144149742Y-110453542D01*
X144035457Y-110482114D01*
X143892600Y-110482114D01*
X143778314Y-110453542D01*
X143721171Y-110424971D01*
X143692600Y-110396400D01*
X143664028Y-110339257D01*
%TO.C,C11*%
X140727085Y-111409114D02*
X140755657Y-111437685D01*
X140784228Y-111523400D01*
X140784228Y-111580542D01*
X140755657Y-111666257D01*
X140698514Y-111723400D01*
X140641371Y-111751971D01*
X140527085Y-111780542D01*
X140441371Y-111780542D01*
X140327085Y-111751971D01*
X140269942Y-111723400D01*
X140212800Y-111666257D01*
X140184228Y-111580542D01*
X140184228Y-111523400D01*
X140212800Y-111437685D01*
X140241371Y-111409114D01*
X140784228Y-110837685D02*
X140784228Y-111180542D01*
X140784228Y-111009114D02*
X140184228Y-111009114D01*
X140269942Y-111066257D01*
X140327085Y-111123400D01*
X140355657Y-111180542D01*
X140784228Y-110266257D02*
X140784228Y-110609114D01*
X140784228Y-110437685D02*
X140184228Y-110437685D01*
X140269942Y-110494828D01*
X140327085Y-110551971D01*
X140355657Y-110609114D01*
%TO.C,C12*%
X138644285Y-109097714D02*
X138672857Y-109126285D01*
X138701428Y-109212000D01*
X138701428Y-109269142D01*
X138672857Y-109354857D01*
X138615714Y-109412000D01*
X138558571Y-109440571D01*
X138444285Y-109469142D01*
X138358571Y-109469142D01*
X138244285Y-109440571D01*
X138187142Y-109412000D01*
X138130000Y-109354857D01*
X138101428Y-109269142D01*
X138101428Y-109212000D01*
X138130000Y-109126285D01*
X138158571Y-109097714D01*
X138701428Y-108526285D02*
X138701428Y-108869142D01*
X138701428Y-108697714D02*
X138101428Y-108697714D01*
X138187142Y-108754857D01*
X138244285Y-108812000D01*
X138272857Y-108869142D01*
X138158571Y-108297714D02*
X138130000Y-108269142D01*
X138101428Y-108212000D01*
X138101428Y-108069142D01*
X138130000Y-108012000D01*
X138158571Y-107983428D01*
X138215714Y-107954857D01*
X138272857Y-107954857D01*
X138358571Y-107983428D01*
X138701428Y-108326285D01*
X138701428Y-107954857D01*
%TO.C,C13*%
X137374285Y-109097714D02*
X137402857Y-109126285D01*
X137431428Y-109212000D01*
X137431428Y-109269142D01*
X137402857Y-109354857D01*
X137345714Y-109412000D01*
X137288571Y-109440571D01*
X137174285Y-109469142D01*
X137088571Y-109469142D01*
X136974285Y-109440571D01*
X136917142Y-109412000D01*
X136860000Y-109354857D01*
X136831428Y-109269142D01*
X136831428Y-109212000D01*
X136860000Y-109126285D01*
X136888571Y-109097714D01*
X137431428Y-108526285D02*
X137431428Y-108869142D01*
X137431428Y-108697714D02*
X136831428Y-108697714D01*
X136917142Y-108754857D01*
X136974285Y-108812000D01*
X137002857Y-108869142D01*
X136831428Y-108326285D02*
X136831428Y-107954857D01*
X137060000Y-108154857D01*
X137060000Y-108069142D01*
X137088571Y-108012000D01*
X137117142Y-107983428D01*
X137174285Y-107954857D01*
X137317142Y-107954857D01*
X137374285Y-107983428D01*
X137402857Y-108012000D01*
X137431428Y-108069142D01*
X137431428Y-108240571D01*
X137402857Y-108297714D01*
X137374285Y-108326285D01*
%TO.C,C14*%
X134478685Y-74528314D02*
X134507257Y-74556885D01*
X134535828Y-74642600D01*
X134535828Y-74699742D01*
X134507257Y-74785457D01*
X134450114Y-74842600D01*
X134392971Y-74871171D01*
X134278685Y-74899742D01*
X134192971Y-74899742D01*
X134078685Y-74871171D01*
X134021542Y-74842600D01*
X133964400Y-74785457D01*
X133935828Y-74699742D01*
X133935828Y-74642600D01*
X133964400Y-74556885D01*
X133992971Y-74528314D01*
X134535828Y-73956885D02*
X134535828Y-74299742D01*
X134535828Y-74128314D02*
X133935828Y-74128314D01*
X134021542Y-74185457D01*
X134078685Y-74242600D01*
X134107257Y-74299742D01*
X134135828Y-73442600D02*
X134535828Y-73442600D01*
X133907257Y-73585457D02*
X134335828Y-73728314D01*
X134335828Y-73356885D01*
%TO.C,C19*%
X145791285Y-117943285D02*
X145762714Y-117971857D01*
X145677000Y-118000428D01*
X145619857Y-118000428D01*
X145534142Y-117971857D01*
X145477000Y-117914714D01*
X145448428Y-117857571D01*
X145419857Y-117743285D01*
X145419857Y-117657571D01*
X145448428Y-117543285D01*
X145477000Y-117486142D01*
X145534142Y-117429000D01*
X145619857Y-117400428D01*
X145677000Y-117400428D01*
X145762714Y-117429000D01*
X145791285Y-117457571D01*
X146362714Y-118000428D02*
X146019857Y-118000428D01*
X146191285Y-118000428D02*
X146191285Y-117400428D01*
X146134142Y-117486142D01*
X146077000Y-117543285D01*
X146019857Y-117571857D01*
X146648428Y-118000428D02*
X146762714Y-118000428D01*
X146819857Y-117971857D01*
X146848428Y-117943285D01*
X146905571Y-117857571D01*
X146934142Y-117743285D01*
X146934142Y-117514714D01*
X146905571Y-117457571D01*
X146877000Y-117429000D01*
X146819857Y-117400428D01*
X146705571Y-117400428D01*
X146648428Y-117429000D01*
X146619857Y-117457571D01*
X146591285Y-117514714D01*
X146591285Y-117657571D01*
X146619857Y-117714714D01*
X146648428Y-117743285D01*
X146705571Y-117771857D01*
X146819857Y-117771857D01*
X146877000Y-117743285D01*
X146905571Y-117714714D01*
X146934142Y-117657571D01*
%TO.C,C20*%
X145791285Y-115784285D02*
X145762714Y-115812857D01*
X145677000Y-115841428D01*
X145619857Y-115841428D01*
X145534142Y-115812857D01*
X145477000Y-115755714D01*
X145448428Y-115698571D01*
X145419857Y-115584285D01*
X145419857Y-115498571D01*
X145448428Y-115384285D01*
X145477000Y-115327142D01*
X145534142Y-115270000D01*
X145619857Y-115241428D01*
X145677000Y-115241428D01*
X145762714Y-115270000D01*
X145791285Y-115298571D01*
X146019857Y-115298571D02*
X146048428Y-115270000D01*
X146105571Y-115241428D01*
X146248428Y-115241428D01*
X146305571Y-115270000D01*
X146334142Y-115298571D01*
X146362714Y-115355714D01*
X146362714Y-115412857D01*
X146334142Y-115498571D01*
X145991285Y-115841428D01*
X146362714Y-115841428D01*
X146734142Y-115241428D02*
X146791285Y-115241428D01*
X146848428Y-115270000D01*
X146877000Y-115298571D01*
X146905571Y-115355714D01*
X146934142Y-115470000D01*
X146934142Y-115612857D01*
X146905571Y-115727142D01*
X146877000Y-115784285D01*
X146848428Y-115812857D01*
X146791285Y-115841428D01*
X146734142Y-115841428D01*
X146677000Y-115812857D01*
X146648428Y-115784285D01*
X146619857Y-115727142D01*
X146591285Y-115612857D01*
X146591285Y-115470000D01*
X146619857Y-115355714D01*
X146648428Y-115298571D01*
X146677000Y-115270000D01*
X146734142Y-115241428D01*
%TO.C,C22*%
X142717885Y-109586685D02*
X142689314Y-109615257D01*
X142603600Y-109643828D01*
X142546457Y-109643828D01*
X142460742Y-109615257D01*
X142403600Y-109558114D01*
X142375028Y-109500971D01*
X142346457Y-109386685D01*
X142346457Y-109300971D01*
X142375028Y-109186685D01*
X142403600Y-109129542D01*
X142460742Y-109072400D01*
X142546457Y-109043828D01*
X142603600Y-109043828D01*
X142689314Y-109072400D01*
X142717885Y-109100971D01*
X142946457Y-109100971D02*
X142975028Y-109072400D01*
X143032171Y-109043828D01*
X143175028Y-109043828D01*
X143232171Y-109072400D01*
X143260742Y-109100971D01*
X143289314Y-109158114D01*
X143289314Y-109215257D01*
X143260742Y-109300971D01*
X142917885Y-109643828D01*
X143289314Y-109643828D01*
X143517885Y-109100971D02*
X143546457Y-109072400D01*
X143603600Y-109043828D01*
X143746457Y-109043828D01*
X143803600Y-109072400D01*
X143832171Y-109100971D01*
X143860742Y-109158114D01*
X143860742Y-109215257D01*
X143832171Y-109300971D01*
X143489314Y-109643828D01*
X143860742Y-109643828D01*
%TO.C,C23*%
X142717885Y-108037285D02*
X142689314Y-108065857D01*
X142603600Y-108094428D01*
X142546457Y-108094428D01*
X142460742Y-108065857D01*
X142403600Y-108008714D01*
X142375028Y-107951571D01*
X142346457Y-107837285D01*
X142346457Y-107751571D01*
X142375028Y-107637285D01*
X142403600Y-107580142D01*
X142460742Y-107523000D01*
X142546457Y-107494428D01*
X142603600Y-107494428D01*
X142689314Y-107523000D01*
X142717885Y-107551571D01*
X142946457Y-107551571D02*
X142975028Y-107523000D01*
X143032171Y-107494428D01*
X143175028Y-107494428D01*
X143232171Y-107523000D01*
X143260742Y-107551571D01*
X143289314Y-107608714D01*
X143289314Y-107665857D01*
X143260742Y-107751571D01*
X142917885Y-108094428D01*
X143289314Y-108094428D01*
X143489314Y-107494428D02*
X143860742Y-107494428D01*
X143660742Y-107723000D01*
X143746457Y-107723000D01*
X143803600Y-107751571D01*
X143832171Y-107780142D01*
X143860742Y-107837285D01*
X143860742Y-107980142D01*
X143832171Y-108037285D01*
X143803600Y-108065857D01*
X143746457Y-108094428D01*
X143575028Y-108094428D01*
X143517885Y-108065857D01*
X143489314Y-108037285D01*
%TO.C,C24*%
X142768685Y-106741885D02*
X142740114Y-106770457D01*
X142654400Y-106799028D01*
X142597257Y-106799028D01*
X142511542Y-106770457D01*
X142454400Y-106713314D01*
X142425828Y-106656171D01*
X142397257Y-106541885D01*
X142397257Y-106456171D01*
X142425828Y-106341885D01*
X142454400Y-106284742D01*
X142511542Y-106227600D01*
X142597257Y-106199028D01*
X142654400Y-106199028D01*
X142740114Y-106227600D01*
X142768685Y-106256171D01*
X142997257Y-106256171D02*
X143025828Y-106227600D01*
X143082971Y-106199028D01*
X143225828Y-106199028D01*
X143282971Y-106227600D01*
X143311542Y-106256171D01*
X143340114Y-106313314D01*
X143340114Y-106370457D01*
X143311542Y-106456171D01*
X142968685Y-106799028D01*
X143340114Y-106799028D01*
X143854400Y-106399028D02*
X143854400Y-106799028D01*
X143711542Y-106170457D02*
X143568685Y-106599028D01*
X143940114Y-106599028D01*
%TO.C,C25*%
X146299285Y-105751285D02*
X146270714Y-105779857D01*
X146185000Y-105808428D01*
X146127857Y-105808428D01*
X146042142Y-105779857D01*
X145985000Y-105722714D01*
X145956428Y-105665571D01*
X145927857Y-105551285D01*
X145927857Y-105465571D01*
X145956428Y-105351285D01*
X145985000Y-105294142D01*
X146042142Y-105237000D01*
X146127857Y-105208428D01*
X146185000Y-105208428D01*
X146270714Y-105237000D01*
X146299285Y-105265571D01*
X146527857Y-105265571D02*
X146556428Y-105237000D01*
X146613571Y-105208428D01*
X146756428Y-105208428D01*
X146813571Y-105237000D01*
X146842142Y-105265571D01*
X146870714Y-105322714D01*
X146870714Y-105379857D01*
X146842142Y-105465571D01*
X146499285Y-105808428D01*
X146870714Y-105808428D01*
X147413571Y-105208428D02*
X147127857Y-105208428D01*
X147099285Y-105494142D01*
X147127857Y-105465571D01*
X147185000Y-105437000D01*
X147327857Y-105437000D01*
X147385000Y-105465571D01*
X147413571Y-105494142D01*
X147442142Y-105551285D01*
X147442142Y-105694142D01*
X147413571Y-105751285D01*
X147385000Y-105779857D01*
X147327857Y-105808428D01*
X147185000Y-105808428D01*
X147127857Y-105779857D01*
X147099285Y-105751285D01*
%TO.C,C26*%
X150734685Y-116524814D02*
X150763257Y-116553385D01*
X150791828Y-116639100D01*
X150791828Y-116696242D01*
X150763257Y-116781957D01*
X150706114Y-116839100D01*
X150648971Y-116867671D01*
X150534685Y-116896242D01*
X150448971Y-116896242D01*
X150334685Y-116867671D01*
X150277542Y-116839100D01*
X150220400Y-116781957D01*
X150191828Y-116696242D01*
X150191828Y-116639100D01*
X150220400Y-116553385D01*
X150248971Y-116524814D01*
X150248971Y-116296242D02*
X150220400Y-116267671D01*
X150191828Y-116210528D01*
X150191828Y-116067671D01*
X150220400Y-116010528D01*
X150248971Y-115981957D01*
X150306114Y-115953385D01*
X150363257Y-115953385D01*
X150448971Y-115981957D01*
X150791828Y-116324814D01*
X150791828Y-115953385D01*
X150191828Y-115439100D02*
X150191828Y-115553385D01*
X150220400Y-115610528D01*
X150248971Y-115639100D01*
X150334685Y-115696242D01*
X150448971Y-115724814D01*
X150677542Y-115724814D01*
X150734685Y-115696242D01*
X150763257Y-115667671D01*
X150791828Y-115610528D01*
X150791828Y-115496242D01*
X150763257Y-115439100D01*
X150734685Y-115410528D01*
X150677542Y-115381957D01*
X150534685Y-115381957D01*
X150477542Y-115410528D01*
X150448971Y-115439100D01*
X150420400Y-115496242D01*
X150420400Y-115610528D01*
X150448971Y-115667671D01*
X150477542Y-115696242D01*
X150534685Y-115724814D01*
%TO.C,C27*%
X151696785Y-101623785D02*
X151668214Y-101652357D01*
X151582500Y-101680928D01*
X151525357Y-101680928D01*
X151439642Y-101652357D01*
X151382500Y-101595214D01*
X151353928Y-101538071D01*
X151325357Y-101423785D01*
X151325357Y-101338071D01*
X151353928Y-101223785D01*
X151382500Y-101166642D01*
X151439642Y-101109500D01*
X151525357Y-101080928D01*
X151582500Y-101080928D01*
X151668214Y-101109500D01*
X151696785Y-101138071D01*
X151925357Y-101138071D02*
X151953928Y-101109500D01*
X152011071Y-101080928D01*
X152153928Y-101080928D01*
X152211071Y-101109500D01*
X152239642Y-101138071D01*
X152268214Y-101195214D01*
X152268214Y-101252357D01*
X152239642Y-101338071D01*
X151896785Y-101680928D01*
X152268214Y-101680928D01*
X152468214Y-101080928D02*
X152868214Y-101080928D01*
X152611071Y-101680928D01*
%TO.C,C28*%
X151506285Y-109180285D02*
X151477714Y-109208857D01*
X151392000Y-109237428D01*
X151334857Y-109237428D01*
X151249142Y-109208857D01*
X151192000Y-109151714D01*
X151163428Y-109094571D01*
X151134857Y-108980285D01*
X151134857Y-108894571D01*
X151163428Y-108780285D01*
X151192000Y-108723142D01*
X151249142Y-108666000D01*
X151334857Y-108637428D01*
X151392000Y-108637428D01*
X151477714Y-108666000D01*
X151506285Y-108694571D01*
X151734857Y-108694571D02*
X151763428Y-108666000D01*
X151820571Y-108637428D01*
X151963428Y-108637428D01*
X152020571Y-108666000D01*
X152049142Y-108694571D01*
X152077714Y-108751714D01*
X152077714Y-108808857D01*
X152049142Y-108894571D01*
X151706285Y-109237428D01*
X152077714Y-109237428D01*
X152420571Y-108894571D02*
X152363428Y-108866000D01*
X152334857Y-108837428D01*
X152306285Y-108780285D01*
X152306285Y-108751714D01*
X152334857Y-108694571D01*
X152363428Y-108666000D01*
X152420571Y-108637428D01*
X152534857Y-108637428D01*
X152592000Y-108666000D01*
X152620571Y-108694571D01*
X152649142Y-108751714D01*
X152649142Y-108780285D01*
X152620571Y-108837428D01*
X152592000Y-108866000D01*
X152534857Y-108894571D01*
X152420571Y-108894571D01*
X152363428Y-108923142D01*
X152334857Y-108951714D01*
X152306285Y-109008857D01*
X152306285Y-109123142D01*
X152334857Y-109180285D01*
X152363428Y-109208857D01*
X152420571Y-109237428D01*
X152534857Y-109237428D01*
X152592000Y-109208857D01*
X152620571Y-109180285D01*
X152649142Y-109123142D01*
X152649142Y-109008857D01*
X152620571Y-108951714D01*
X152592000Y-108923142D01*
X152534857Y-108894571D01*
%TO.C,C29*%
X150617285Y-93279885D02*
X150588714Y-93308457D01*
X150503000Y-93337028D01*
X150445857Y-93337028D01*
X150360142Y-93308457D01*
X150303000Y-93251314D01*
X150274428Y-93194171D01*
X150245857Y-93079885D01*
X150245857Y-92994171D01*
X150274428Y-92879885D01*
X150303000Y-92822742D01*
X150360142Y-92765600D01*
X150445857Y-92737028D01*
X150503000Y-92737028D01*
X150588714Y-92765600D01*
X150617285Y-92794171D01*
X150845857Y-92794171D02*
X150874428Y-92765600D01*
X150931571Y-92737028D01*
X151074428Y-92737028D01*
X151131571Y-92765600D01*
X151160142Y-92794171D01*
X151188714Y-92851314D01*
X151188714Y-92908457D01*
X151160142Y-92994171D01*
X150817285Y-93337028D01*
X151188714Y-93337028D01*
X151474428Y-93337028D02*
X151588714Y-93337028D01*
X151645857Y-93308457D01*
X151674428Y-93279885D01*
X151731571Y-93194171D01*
X151760142Y-93079885D01*
X151760142Y-92851314D01*
X151731571Y-92794171D01*
X151703000Y-92765600D01*
X151645857Y-92737028D01*
X151531571Y-92737028D01*
X151474428Y-92765600D01*
X151445857Y-92794171D01*
X151417285Y-92851314D01*
X151417285Y-92994171D01*
X151445857Y-93051314D01*
X151474428Y-93079885D01*
X151531571Y-93108457D01*
X151645857Y-93108457D01*
X151703000Y-93079885D01*
X151731571Y-93051314D01*
X151760142Y-92994171D01*
%TO.C,D1*%
D13*
X134135904Y-121102380D02*
X134135904Y-120102380D01*
X134374000Y-120102380D01*
X134516857Y-120150000D01*
X134612095Y-120245238D01*
X134659714Y-120340476D01*
X134707333Y-120530952D01*
X134707333Y-120673809D01*
X134659714Y-120864285D01*
X134612095Y-120959523D01*
X134516857Y-121054761D01*
X134374000Y-121102380D01*
X134135904Y-121102380D01*
X135659714Y-121102380D02*
X135088285Y-121102380D01*
X135374000Y-121102380D02*
X135374000Y-120102380D01*
X135278761Y-120245238D01*
X135183523Y-120340476D01*
X135088285Y-120388095D01*
%TO.C,D2*%
X131468904Y-120975380D02*
X131468904Y-119975380D01*
X131707000Y-119975380D01*
X131849857Y-120023000D01*
X131945095Y-120118238D01*
X131992714Y-120213476D01*
X132040333Y-120403952D01*
X132040333Y-120546809D01*
X131992714Y-120737285D01*
X131945095Y-120832523D01*
X131849857Y-120927761D01*
X131707000Y-120975380D01*
X131468904Y-120975380D01*
X132421285Y-120070619D02*
X132468904Y-120023000D01*
X132564142Y-119975380D01*
X132802238Y-119975380D01*
X132897476Y-120023000D01*
X132945095Y-120070619D01*
X132992714Y-120165857D01*
X132992714Y-120261095D01*
X132945095Y-120403952D01*
X132373666Y-120975380D01*
X132992714Y-120975380D01*
%TO.C,D3*%
D11*
X148464642Y-81741928D02*
X148464642Y-81141928D01*
X148607500Y-81141928D01*
X148693214Y-81170500D01*
X148750357Y-81227642D01*
X148778928Y-81284785D01*
X148807500Y-81399071D01*
X148807500Y-81484785D01*
X148778928Y-81599071D01*
X148750357Y-81656214D01*
X148693214Y-81713357D01*
X148607500Y-81741928D01*
X148464642Y-81741928D01*
X149007500Y-81141928D02*
X149378928Y-81141928D01*
X149178928Y-81370500D01*
X149264642Y-81370500D01*
X149321785Y-81399071D01*
X149350357Y-81427642D01*
X149378928Y-81484785D01*
X149378928Y-81627642D01*
X149350357Y-81684785D01*
X149321785Y-81713357D01*
X149264642Y-81741928D01*
X149093214Y-81741928D01*
X149036071Y-81713357D01*
X149007500Y-81684785D01*
%TO.C,D4*%
X148126523Y-113899904D02*
X148126523Y-113099904D01*
X148317000Y-113099904D01*
X148431285Y-113138000D01*
X148507476Y-113214190D01*
X148545571Y-113290380D01*
X148583666Y-113442761D01*
X148583666Y-113557047D01*
X148545571Y-113709428D01*
X148507476Y-113785619D01*
X148431285Y-113861809D01*
X148317000Y-113899904D01*
X148126523Y-113899904D01*
X149269380Y-113366571D02*
X149269380Y-113899904D01*
X149078904Y-113061809D02*
X148888428Y-113633238D01*
X149383666Y-113633238D01*
%TO.C,D5*%
D13*
X131186180Y-112853695D02*
X130186180Y-112853695D01*
X130186180Y-112615600D01*
X130233800Y-112472742D01*
X130329038Y-112377504D01*
X130424276Y-112329885D01*
X130614752Y-112282266D01*
X130757609Y-112282266D01*
X130948085Y-112329885D01*
X131043323Y-112377504D01*
X131138561Y-112472742D01*
X131186180Y-112615600D01*
X131186180Y-112853695D01*
X130186180Y-111377504D02*
X130186180Y-111853695D01*
X130662371Y-111901314D01*
X130614752Y-111853695D01*
X130567133Y-111758457D01*
X130567133Y-111520361D01*
X130614752Y-111425123D01*
X130662371Y-111377504D01*
X130757609Y-111329885D01*
X130995704Y-111329885D01*
X131090942Y-111377504D01*
X131138561Y-111425123D01*
X131186180Y-111520361D01*
X131186180Y-111758457D01*
X131138561Y-111853695D01*
X131090942Y-111901314D01*
%TO.C,J1*%
X101647666Y-92416380D02*
X101647666Y-93130666D01*
X101600047Y-93273523D01*
X101504809Y-93368761D01*
X101361952Y-93416380D01*
X101266714Y-93416380D01*
X102647666Y-93416380D02*
X102076238Y-93416380D01*
X102361952Y-93416380D02*
X102361952Y-92416380D01*
X102266714Y-92559238D01*
X102171476Y-92654476D01*
X102076238Y-92702095D01*
%TO.C,J3*%
X152324033Y-115967704D02*
X152324033Y-116539133D01*
X152285938Y-116653419D01*
X152209747Y-116729609D01*
X152095461Y-116767704D01*
X152019271Y-116767704D01*
X152628795Y-115967704D02*
X153124033Y-115967704D01*
X152857366Y-116272466D01*
X152971652Y-116272466D01*
X153047842Y-116310561D01*
X153085938Y-116348657D01*
X153124033Y-116424847D01*
X153124033Y-116615323D01*
X153085938Y-116691514D01*
X153047842Y-116729609D01*
X152971652Y-116767704D01*
X152743080Y-116767704D01*
X152666890Y-116729609D01*
X152628795Y-116691514D01*
%TO.C,J4*%
X101647666Y-108545380D02*
X101647666Y-109259666D01*
X101600047Y-109402523D01*
X101504809Y-109497761D01*
X101361952Y-109545380D01*
X101266714Y-109545380D01*
X102552428Y-108878714D02*
X102552428Y-109545380D01*
X102314333Y-108497761D02*
X102076238Y-109212047D01*
X102695285Y-109212047D01*
%TO.C,BOOT*%
D11*
X149858642Y-80062285D02*
X149887214Y-79976571D01*
X149915785Y-79948000D01*
X149972928Y-79919428D01*
X150058642Y-79919428D01*
X150115785Y-79948000D01*
X150144357Y-79976571D01*
X150172928Y-80033714D01*
X150172928Y-80262285D01*
X149572928Y-80262285D01*
X149572928Y-80062285D01*
X149601500Y-80005142D01*
X149630071Y-79976571D01*
X149687214Y-79948000D01*
X149744357Y-79948000D01*
X149801500Y-79976571D01*
X149830071Y-80005142D01*
X149858642Y-80062285D01*
X149858642Y-80262285D01*
X149572928Y-79548000D02*
X149572928Y-79433714D01*
X149601500Y-79376571D01*
X149658642Y-79319428D01*
X149772928Y-79290857D01*
X149972928Y-79290857D01*
X150087214Y-79319428D01*
X150144357Y-79376571D01*
X150172928Y-79433714D01*
X150172928Y-79548000D01*
X150144357Y-79605142D01*
X150087214Y-79662285D01*
X149972928Y-79690857D01*
X149772928Y-79690857D01*
X149658642Y-79662285D01*
X149601500Y-79605142D01*
X149572928Y-79548000D01*
X149572928Y-78919428D02*
X149572928Y-78805142D01*
X149601500Y-78748000D01*
X149658642Y-78690857D01*
X149772928Y-78662285D01*
X149972928Y-78662285D01*
X150087214Y-78690857D01*
X150144357Y-78748000D01*
X150172928Y-78805142D01*
X150172928Y-78919428D01*
X150144357Y-78976571D01*
X150087214Y-79033714D01*
X149972928Y-79062285D01*
X149772928Y-79062285D01*
X149658642Y-79033714D01*
X149601500Y-78976571D01*
X149572928Y-78919428D01*
X149572928Y-78490857D02*
X149572928Y-78148000D01*
X150172928Y-78319428D02*
X149572928Y-78319428D01*
%TO.C,RST*%
D14*
X132437428Y-93715628D02*
X132237428Y-93429914D01*
X132094571Y-93715628D02*
X132094571Y-93115628D01*
X132323142Y-93115628D01*
X132380285Y-93144200D01*
X132408857Y-93172771D01*
X132437428Y-93229914D01*
X132437428Y-93315628D01*
X132408857Y-93372771D01*
X132380285Y-93401342D01*
X132323142Y-93429914D01*
X132094571Y-93429914D01*
X132666000Y-93687057D02*
X132751714Y-93715628D01*
X132894571Y-93715628D01*
X132951714Y-93687057D01*
X132980285Y-93658485D01*
X133008857Y-93601342D01*
X133008857Y-93544200D01*
X132980285Y-93487057D01*
X132951714Y-93458485D01*
X132894571Y-93429914D01*
X132780285Y-93401342D01*
X132723142Y-93372771D01*
X132694571Y-93344200D01*
X132666000Y-93287057D01*
X132666000Y-93229914D01*
X132694571Y-93172771D01*
X132723142Y-93144200D01*
X132780285Y-93115628D01*
X132923142Y-93115628D01*
X133008857Y-93144200D01*
X133180285Y-93115628D02*
X133523142Y-93115628D01*
X133351714Y-93715628D02*
X133351714Y-93115628D01*
%TO.C,L1*%
D11*
X128576400Y-81945128D02*
X128290685Y-81945128D01*
X128290685Y-81345128D01*
X129090685Y-81945128D02*
X128747828Y-81945128D01*
X128919257Y-81945128D02*
X128919257Y-81345128D01*
X128862114Y-81430842D01*
X128804971Y-81487985D01*
X128747828Y-81516557D01*
%TO.C,L2*%
X144426000Y-115993828D02*
X144140285Y-115993828D01*
X144140285Y-115393828D01*
X144597428Y-115450971D02*
X144626000Y-115422400D01*
X144683142Y-115393828D01*
X144826000Y-115393828D01*
X144883142Y-115422400D01*
X144911714Y-115450971D01*
X144940285Y-115508114D01*
X144940285Y-115565257D01*
X144911714Y-115650971D01*
X144568857Y-115993828D01*
X144940285Y-115993828D01*
%TO.C,Q1*%
D13*
X115423961Y-86069419D02*
X115328723Y-86021800D01*
X115233485Y-85926561D01*
X115090628Y-85783704D01*
X114995390Y-85736085D01*
X114900152Y-85736085D01*
X114947771Y-85974180D02*
X114852533Y-85926561D01*
X114757295Y-85831323D01*
X114709676Y-85640847D01*
X114709676Y-85307514D01*
X114757295Y-85117038D01*
X114852533Y-85021800D01*
X114947771Y-84974180D01*
X115138247Y-84974180D01*
X115233485Y-85021800D01*
X115328723Y-85117038D01*
X115376342Y-85307514D01*
X115376342Y-85640847D01*
X115328723Y-85831323D01*
X115233485Y-85926561D01*
X115138247Y-85974180D01*
X114947771Y-85974180D01*
X116328723Y-85974180D02*
X115757295Y-85974180D01*
X116043009Y-85974180D02*
X116043009Y-84974180D01*
X115947771Y-85117038D01*
X115852533Y-85212276D01*
X115757295Y-85259895D01*
%TO.C,Q2*%
D11*
X149371057Y-88263371D02*
X149313914Y-88234800D01*
X149256771Y-88177657D01*
X149171057Y-88091942D01*
X149113914Y-88063371D01*
X149056771Y-88063371D01*
X149085342Y-88206228D02*
X149028200Y-88177657D01*
X148971057Y-88120514D01*
X148942485Y-88006228D01*
X148942485Y-87806228D01*
X148971057Y-87691942D01*
X149028200Y-87634800D01*
X149085342Y-87606228D01*
X149199628Y-87606228D01*
X149256771Y-87634800D01*
X149313914Y-87691942D01*
X149342485Y-87806228D01*
X149342485Y-88006228D01*
X149313914Y-88120514D01*
X149256771Y-88177657D01*
X149199628Y-88206228D01*
X149085342Y-88206228D01*
X149571057Y-87663371D02*
X149599628Y-87634800D01*
X149656771Y-87606228D01*
X149799628Y-87606228D01*
X149856771Y-87634800D01*
X149885342Y-87663371D01*
X149913914Y-87720514D01*
X149913914Y-87777657D01*
X149885342Y-87863371D01*
X149542485Y-88206228D01*
X149913914Y-88206228D01*
%TO.C,Q3*%
X152723857Y-107262571D02*
X152666714Y-107234000D01*
X152609571Y-107176857D01*
X152523857Y-107091142D01*
X152466714Y-107062571D01*
X152409571Y-107062571D01*
X152438142Y-107205428D02*
X152381000Y-107176857D01*
X152323857Y-107119714D01*
X152295285Y-107005428D01*
X152295285Y-106805428D01*
X152323857Y-106691142D01*
X152381000Y-106634000D01*
X152438142Y-106605428D01*
X152552428Y-106605428D01*
X152609571Y-106634000D01*
X152666714Y-106691142D01*
X152695285Y-106805428D01*
X152695285Y-107005428D01*
X152666714Y-107119714D01*
X152609571Y-107176857D01*
X152552428Y-107205428D01*
X152438142Y-107205428D01*
X152895285Y-106605428D02*
X153266714Y-106605428D01*
X153066714Y-106834000D01*
X153152428Y-106834000D01*
X153209571Y-106862571D01*
X153238142Y-106891142D01*
X153266714Y-106948285D01*
X153266714Y-107091142D01*
X153238142Y-107148285D01*
X153209571Y-107176857D01*
X153152428Y-107205428D01*
X152981000Y-107205428D01*
X152923857Y-107176857D01*
X152895285Y-107148285D01*
%TO.C,R1*%
X146331000Y-78884428D02*
X146131000Y-78598714D01*
X145988142Y-78884428D02*
X145988142Y-78284428D01*
X146216714Y-78284428D01*
X146273857Y-78313000D01*
X146302428Y-78341571D01*
X146331000Y-78398714D01*
X146331000Y-78484428D01*
X146302428Y-78541571D01*
X146273857Y-78570142D01*
X146216714Y-78598714D01*
X145988142Y-78598714D01*
X146902428Y-78884428D02*
X146559571Y-78884428D01*
X146731000Y-78884428D02*
X146731000Y-78284428D01*
X146673857Y-78370142D01*
X146616714Y-78427285D01*
X146559571Y-78455857D01*
%TO.C,R3*%
X134777128Y-87704600D02*
X134491414Y-87904600D01*
X134777128Y-88047457D02*
X134177128Y-88047457D01*
X134177128Y-87818885D01*
X134205700Y-87761742D01*
X134234271Y-87733171D01*
X134291414Y-87704600D01*
X134377128Y-87704600D01*
X134434271Y-87733171D01*
X134462842Y-87761742D01*
X134491414Y-87818885D01*
X134491414Y-88047457D01*
X134177128Y-87504600D02*
X134177128Y-87133171D01*
X134405700Y-87333171D01*
X134405700Y-87247457D01*
X134434271Y-87190314D01*
X134462842Y-87161742D01*
X134519985Y-87133171D01*
X134662842Y-87133171D01*
X134719985Y-87161742D01*
X134748557Y-87190314D01*
X134777128Y-87247457D01*
X134777128Y-87418885D01*
X134748557Y-87476028D01*
X134719985Y-87504600D01*
%TO.C,R4*%
X146331000Y-80217928D02*
X146131000Y-79932214D01*
X145988142Y-80217928D02*
X145988142Y-79617928D01*
X146216714Y-79617928D01*
X146273857Y-79646500D01*
X146302428Y-79675071D01*
X146331000Y-79732214D01*
X146331000Y-79817928D01*
X146302428Y-79875071D01*
X146273857Y-79903642D01*
X146216714Y-79932214D01*
X145988142Y-79932214D01*
X146845285Y-79817928D02*
X146845285Y-80217928D01*
X146702428Y-79589357D02*
X146559571Y-80017928D01*
X146931000Y-80017928D01*
%TO.C,R5*%
X131929200Y-81526028D02*
X131729200Y-81240314D01*
X131586342Y-81526028D02*
X131586342Y-80926028D01*
X131814914Y-80926028D01*
X131872057Y-80954600D01*
X131900628Y-80983171D01*
X131929200Y-81040314D01*
X131929200Y-81126028D01*
X131900628Y-81183171D01*
X131872057Y-81211742D01*
X131814914Y-81240314D01*
X131586342Y-81240314D01*
X132472057Y-80926028D02*
X132186342Y-80926028D01*
X132157771Y-81211742D01*
X132186342Y-81183171D01*
X132243485Y-81154600D01*
X132386342Y-81154600D01*
X132443485Y-81183171D01*
X132472057Y-81211742D01*
X132500628Y-81268885D01*
X132500628Y-81411742D01*
X132472057Y-81468885D01*
X132443485Y-81497457D01*
X132386342Y-81526028D01*
X132243485Y-81526028D01*
X132186342Y-81497457D01*
X132157771Y-81468885D01*
%TO.C,R6*%
X131954600Y-82796028D02*
X131754600Y-82510314D01*
X131611742Y-82796028D02*
X131611742Y-82196028D01*
X131840314Y-82196028D01*
X131897457Y-82224600D01*
X131926028Y-82253171D01*
X131954600Y-82310314D01*
X131954600Y-82396028D01*
X131926028Y-82453171D01*
X131897457Y-82481742D01*
X131840314Y-82510314D01*
X131611742Y-82510314D01*
X132468885Y-82196028D02*
X132354600Y-82196028D01*
X132297457Y-82224600D01*
X132268885Y-82253171D01*
X132211742Y-82338885D01*
X132183171Y-82453171D01*
X132183171Y-82681742D01*
X132211742Y-82738885D01*
X132240314Y-82767457D01*
X132297457Y-82796028D01*
X132411742Y-82796028D01*
X132468885Y-82767457D01*
X132497457Y-82738885D01*
X132526028Y-82681742D01*
X132526028Y-82538885D01*
X132497457Y-82481742D01*
X132468885Y-82453171D01*
X132411742Y-82424600D01*
X132297457Y-82424600D01*
X132240314Y-82453171D01*
X132211742Y-82481742D01*
X132183171Y-82538885D01*
%TO.C,R8*%
X143146428Y-111225000D02*
X142860714Y-111425000D01*
X143146428Y-111567857D02*
X142546428Y-111567857D01*
X142546428Y-111339285D01*
X142575000Y-111282142D01*
X142603571Y-111253571D01*
X142660714Y-111225000D01*
X142746428Y-111225000D01*
X142803571Y-111253571D01*
X142832142Y-111282142D01*
X142860714Y-111339285D01*
X142860714Y-111567857D01*
X142803571Y-110882142D02*
X142775000Y-110939285D01*
X142746428Y-110967857D01*
X142689285Y-110996428D01*
X142660714Y-110996428D01*
X142603571Y-110967857D01*
X142575000Y-110939285D01*
X142546428Y-110882142D01*
X142546428Y-110767857D01*
X142575000Y-110710714D01*
X142603571Y-110682142D01*
X142660714Y-110653571D01*
X142689285Y-110653571D01*
X142746428Y-110682142D01*
X142775000Y-110710714D01*
X142803571Y-110767857D01*
X142803571Y-110882142D01*
X142832142Y-110939285D01*
X142860714Y-110967857D01*
X142917857Y-110996428D01*
X143032142Y-110996428D01*
X143089285Y-110967857D01*
X143117857Y-110939285D01*
X143146428Y-110882142D01*
X143146428Y-110767857D01*
X143117857Y-110710714D01*
X143089285Y-110682142D01*
X143032142Y-110653571D01*
X142917857Y-110653571D01*
X142860714Y-110682142D01*
X142832142Y-110710714D01*
X142803571Y-110767857D01*
%TO.C,R9*%
X141876428Y-111225000D02*
X141590714Y-111425000D01*
X141876428Y-111567857D02*
X141276428Y-111567857D01*
X141276428Y-111339285D01*
X141305000Y-111282142D01*
X141333571Y-111253571D01*
X141390714Y-111225000D01*
X141476428Y-111225000D01*
X141533571Y-111253571D01*
X141562142Y-111282142D01*
X141590714Y-111339285D01*
X141590714Y-111567857D01*
X141876428Y-110939285D02*
X141876428Y-110825000D01*
X141847857Y-110767857D01*
X141819285Y-110739285D01*
X141733571Y-110682142D01*
X141619285Y-110653571D01*
X141390714Y-110653571D01*
X141333571Y-110682142D01*
X141305000Y-110710714D01*
X141276428Y-110767857D01*
X141276428Y-110882142D01*
X141305000Y-110939285D01*
X141333571Y-110967857D01*
X141390714Y-110996428D01*
X141533571Y-110996428D01*
X141590714Y-110967857D01*
X141619285Y-110939285D01*
X141647857Y-110882142D01*
X141647857Y-110767857D01*
X141619285Y-110710714D01*
X141590714Y-110682142D01*
X141533571Y-110653571D01*
%TO.C,R10*%
X136186828Y-109097714D02*
X135901114Y-109297714D01*
X136186828Y-109440571D02*
X135586828Y-109440571D01*
X135586828Y-109212000D01*
X135615400Y-109154857D01*
X135643971Y-109126285D01*
X135701114Y-109097714D01*
X135786828Y-109097714D01*
X135843971Y-109126285D01*
X135872542Y-109154857D01*
X135901114Y-109212000D01*
X135901114Y-109440571D01*
X136186828Y-108526285D02*
X136186828Y-108869142D01*
X136186828Y-108697714D02*
X135586828Y-108697714D01*
X135672542Y-108754857D01*
X135729685Y-108812000D01*
X135758257Y-108869142D01*
X135586828Y-108154857D02*
X135586828Y-108097714D01*
X135615400Y-108040571D01*
X135643971Y-108012000D01*
X135701114Y-107983428D01*
X135815400Y-107954857D01*
X135958257Y-107954857D01*
X136072542Y-107983428D01*
X136129685Y-108012000D01*
X136158257Y-108040571D01*
X136186828Y-108097714D01*
X136186828Y-108154857D01*
X136158257Y-108212000D01*
X136129685Y-108240571D01*
X136072542Y-108269142D01*
X135958257Y-108297714D01*
X135815400Y-108297714D01*
X135701114Y-108269142D01*
X135643971Y-108240571D01*
X135615400Y-108212000D01*
X135586828Y-108154857D01*
%TO.C,R13*%
X129916285Y-123055028D02*
X129716285Y-122769314D01*
X129573428Y-123055028D02*
X129573428Y-122455028D01*
X129802000Y-122455028D01*
X129859142Y-122483600D01*
X129887714Y-122512171D01*
X129916285Y-122569314D01*
X129916285Y-122655028D01*
X129887714Y-122712171D01*
X129859142Y-122740742D01*
X129802000Y-122769314D01*
X129573428Y-122769314D01*
X130487714Y-123055028D02*
X130144857Y-123055028D01*
X130316285Y-123055028D02*
X130316285Y-122455028D01*
X130259142Y-122540742D01*
X130202000Y-122597885D01*
X130144857Y-122626457D01*
X130687714Y-122455028D02*
X131059142Y-122455028D01*
X130859142Y-122683600D01*
X130944857Y-122683600D01*
X131002000Y-122712171D01*
X131030571Y-122740742D01*
X131059142Y-122797885D01*
X131059142Y-122940742D01*
X131030571Y-122997885D01*
X131002000Y-123026457D01*
X130944857Y-123055028D01*
X130773428Y-123055028D01*
X130716285Y-123026457D01*
X130687714Y-122997885D01*
%TO.C,R14*%
X121073828Y-89133314D02*
X120788114Y-89333314D01*
X121073828Y-89476171D02*
X120473828Y-89476171D01*
X120473828Y-89247600D01*
X120502400Y-89190457D01*
X120530971Y-89161885D01*
X120588114Y-89133314D01*
X120673828Y-89133314D01*
X120730971Y-89161885D01*
X120759542Y-89190457D01*
X120788114Y-89247600D01*
X120788114Y-89476171D01*
X121073828Y-88561885D02*
X121073828Y-88904742D01*
X121073828Y-88733314D02*
X120473828Y-88733314D01*
X120559542Y-88790457D01*
X120616685Y-88847600D01*
X120645257Y-88904742D01*
X120673828Y-88047600D02*
X121073828Y-88047600D01*
X120445257Y-88190457D02*
X120873828Y-88333314D01*
X120873828Y-87961885D01*
%TO.C,R15*%
X122953428Y-89133314D02*
X122667714Y-89333314D01*
X122953428Y-89476171D02*
X122353428Y-89476171D01*
X122353428Y-89247600D01*
X122382000Y-89190457D01*
X122410571Y-89161885D01*
X122467714Y-89133314D01*
X122553428Y-89133314D01*
X122610571Y-89161885D01*
X122639142Y-89190457D01*
X122667714Y-89247600D01*
X122667714Y-89476171D01*
X122953428Y-88561885D02*
X122953428Y-88904742D01*
X122953428Y-88733314D02*
X122353428Y-88733314D01*
X122439142Y-88790457D01*
X122496285Y-88847600D01*
X122524857Y-88904742D01*
X122353428Y-88019028D02*
X122353428Y-88304742D01*
X122639142Y-88333314D01*
X122610571Y-88304742D01*
X122582000Y-88247600D01*
X122582000Y-88104742D01*
X122610571Y-88047600D01*
X122639142Y-88019028D01*
X122696285Y-87990457D01*
X122839142Y-87990457D01*
X122896285Y-88019028D01*
X122924857Y-88047600D01*
X122953428Y-88104742D01*
X122953428Y-88247600D01*
X122924857Y-88304742D01*
X122896285Y-88333314D01*
%TO.C,R16*%
X119854628Y-89107914D02*
X119568914Y-89307914D01*
X119854628Y-89450771D02*
X119254628Y-89450771D01*
X119254628Y-89222200D01*
X119283200Y-89165057D01*
X119311771Y-89136485D01*
X119368914Y-89107914D01*
X119454628Y-89107914D01*
X119511771Y-89136485D01*
X119540342Y-89165057D01*
X119568914Y-89222200D01*
X119568914Y-89450771D01*
X119854628Y-88536485D02*
X119854628Y-88879342D01*
X119854628Y-88707914D02*
X119254628Y-88707914D01*
X119340342Y-88765057D01*
X119397485Y-88822200D01*
X119426057Y-88879342D01*
X119254628Y-88022200D02*
X119254628Y-88136485D01*
X119283200Y-88193628D01*
X119311771Y-88222200D01*
X119397485Y-88279342D01*
X119511771Y-88307914D01*
X119740342Y-88307914D01*
X119797485Y-88279342D01*
X119826057Y-88250771D01*
X119854628Y-88193628D01*
X119854628Y-88079342D01*
X119826057Y-88022200D01*
X119797485Y-87993628D01*
X119740342Y-87965057D01*
X119597485Y-87965057D01*
X119540342Y-87993628D01*
X119511771Y-88022200D01*
X119483200Y-88079342D01*
X119483200Y-88193628D01*
X119511771Y-88250771D01*
X119540342Y-88279342D01*
X119597485Y-88307914D01*
%TO.C,R17*%
X120261028Y-85704314D02*
X119975314Y-85904314D01*
X120261028Y-86047171D02*
X119661028Y-86047171D01*
X119661028Y-85818600D01*
X119689600Y-85761457D01*
X119718171Y-85732885D01*
X119775314Y-85704314D01*
X119861028Y-85704314D01*
X119918171Y-85732885D01*
X119946742Y-85761457D01*
X119975314Y-85818600D01*
X119975314Y-86047171D01*
X120261028Y-85132885D02*
X120261028Y-85475742D01*
X120261028Y-85304314D02*
X119661028Y-85304314D01*
X119746742Y-85361457D01*
X119803885Y-85418600D01*
X119832457Y-85475742D01*
X119661028Y-84932885D02*
X119661028Y-84532885D01*
X120261028Y-84790028D01*
%TO.C,R18*%
X150563228Y-91622514D02*
X150277514Y-91822514D01*
X150563228Y-91965371D02*
X149963228Y-91965371D01*
X149963228Y-91736800D01*
X149991800Y-91679657D01*
X150020371Y-91651085D01*
X150077514Y-91622514D01*
X150163228Y-91622514D01*
X150220371Y-91651085D01*
X150248942Y-91679657D01*
X150277514Y-91736800D01*
X150277514Y-91965371D01*
X150563228Y-91051085D02*
X150563228Y-91393942D01*
X150563228Y-91222514D02*
X149963228Y-91222514D01*
X150048942Y-91279657D01*
X150106085Y-91336800D01*
X150134657Y-91393942D01*
X150220371Y-90708228D02*
X150191800Y-90765371D01*
X150163228Y-90793942D01*
X150106085Y-90822514D01*
X150077514Y-90822514D01*
X150020371Y-90793942D01*
X149991800Y-90765371D01*
X149963228Y-90708228D01*
X149963228Y-90593942D01*
X149991800Y-90536800D01*
X150020371Y-90508228D01*
X150077514Y-90479657D01*
X150106085Y-90479657D01*
X150163228Y-90508228D01*
X150191800Y-90536800D01*
X150220371Y-90593942D01*
X150220371Y-90708228D01*
X150248942Y-90765371D01*
X150277514Y-90793942D01*
X150334657Y-90822514D01*
X150448942Y-90822514D01*
X150506085Y-90793942D01*
X150534657Y-90765371D01*
X150563228Y-90708228D01*
X150563228Y-90593942D01*
X150534657Y-90536800D01*
X150506085Y-90508228D01*
X150448942Y-90479657D01*
X150334657Y-90479657D01*
X150277514Y-90508228D01*
X150248942Y-90536800D01*
X150220371Y-90593942D01*
%TO.C,R19*%
X119143428Y-85704314D02*
X118857714Y-85904314D01*
X119143428Y-86047171D02*
X118543428Y-86047171D01*
X118543428Y-85818600D01*
X118572000Y-85761457D01*
X118600571Y-85732885D01*
X118657714Y-85704314D01*
X118743428Y-85704314D01*
X118800571Y-85732885D01*
X118829142Y-85761457D01*
X118857714Y-85818600D01*
X118857714Y-86047171D01*
X119143428Y-85132885D02*
X119143428Y-85475742D01*
X119143428Y-85304314D02*
X118543428Y-85304314D01*
X118629142Y-85361457D01*
X118686285Y-85418600D01*
X118714857Y-85475742D01*
X119143428Y-84847171D02*
X119143428Y-84732885D01*
X119114857Y-84675742D01*
X119086285Y-84647171D01*
X119000571Y-84590028D01*
X118886285Y-84561457D01*
X118657714Y-84561457D01*
X118600571Y-84590028D01*
X118572000Y-84618600D01*
X118543428Y-84675742D01*
X118543428Y-84790028D01*
X118572000Y-84847171D01*
X118600571Y-84875742D01*
X118657714Y-84904314D01*
X118800571Y-84904314D01*
X118857714Y-84875742D01*
X118886285Y-84847171D01*
X118914857Y-84790028D01*
X118914857Y-84675742D01*
X118886285Y-84618600D01*
X118857714Y-84590028D01*
X118800571Y-84561457D01*
%TO.C,R20*%
X151706228Y-91622514D02*
X151420514Y-91822514D01*
X151706228Y-91965371D02*
X151106228Y-91965371D01*
X151106228Y-91736800D01*
X151134800Y-91679657D01*
X151163371Y-91651085D01*
X151220514Y-91622514D01*
X151306228Y-91622514D01*
X151363371Y-91651085D01*
X151391942Y-91679657D01*
X151420514Y-91736800D01*
X151420514Y-91965371D01*
X151163371Y-91393942D02*
X151134800Y-91365371D01*
X151106228Y-91308228D01*
X151106228Y-91165371D01*
X151134800Y-91108228D01*
X151163371Y-91079657D01*
X151220514Y-91051085D01*
X151277657Y-91051085D01*
X151363371Y-91079657D01*
X151706228Y-91422514D01*
X151706228Y-91051085D01*
X151106228Y-90679657D02*
X151106228Y-90622514D01*
X151134800Y-90565371D01*
X151163371Y-90536800D01*
X151220514Y-90508228D01*
X151334800Y-90479657D01*
X151477657Y-90479657D01*
X151591942Y-90508228D01*
X151649085Y-90536800D01*
X151677657Y-90565371D01*
X151706228Y-90622514D01*
X151706228Y-90679657D01*
X151677657Y-90736800D01*
X151649085Y-90765371D01*
X151591942Y-90793942D01*
X151477657Y-90822514D01*
X151334800Y-90822514D01*
X151220514Y-90793942D01*
X151163371Y-90765371D01*
X151134800Y-90736800D01*
X151106228Y-90679657D01*
%TO.C,R21*%
X115565285Y-90492228D02*
X115365285Y-90206514D01*
X115222428Y-90492228D02*
X115222428Y-89892228D01*
X115451000Y-89892228D01*
X115508142Y-89920800D01*
X115536714Y-89949371D01*
X115565285Y-90006514D01*
X115565285Y-90092228D01*
X115536714Y-90149371D01*
X115508142Y-90177942D01*
X115451000Y-90206514D01*
X115222428Y-90206514D01*
X115793857Y-89949371D02*
X115822428Y-89920800D01*
X115879571Y-89892228D01*
X116022428Y-89892228D01*
X116079571Y-89920800D01*
X116108142Y-89949371D01*
X116136714Y-90006514D01*
X116136714Y-90063657D01*
X116108142Y-90149371D01*
X115765285Y-90492228D01*
X116136714Y-90492228D01*
X116708142Y-90492228D02*
X116365285Y-90492228D01*
X116536714Y-90492228D02*
X116536714Y-89892228D01*
X116479571Y-89977942D01*
X116422428Y-90035085D01*
X116365285Y-90063657D01*
%TO.C,R22*%
X152798428Y-91622514D02*
X152512714Y-91822514D01*
X152798428Y-91965371D02*
X152198428Y-91965371D01*
X152198428Y-91736800D01*
X152227000Y-91679657D01*
X152255571Y-91651085D01*
X152312714Y-91622514D01*
X152398428Y-91622514D01*
X152455571Y-91651085D01*
X152484142Y-91679657D01*
X152512714Y-91736800D01*
X152512714Y-91965371D01*
X152255571Y-91393942D02*
X152227000Y-91365371D01*
X152198428Y-91308228D01*
X152198428Y-91165371D01*
X152227000Y-91108228D01*
X152255571Y-91079657D01*
X152312714Y-91051085D01*
X152369857Y-91051085D01*
X152455571Y-91079657D01*
X152798428Y-91422514D01*
X152798428Y-91051085D01*
X152255571Y-90822514D02*
X152227000Y-90793942D01*
X152198428Y-90736800D01*
X152198428Y-90593942D01*
X152227000Y-90536800D01*
X152255571Y-90508228D01*
X152312714Y-90479657D01*
X152369857Y-90479657D01*
X152455571Y-90508228D01*
X152798428Y-90851085D01*
X152798428Y-90479657D01*
%TO.C,R23*%
X114800028Y-75366514D02*
X114514314Y-75566514D01*
X114800028Y-75709371D02*
X114200028Y-75709371D01*
X114200028Y-75480800D01*
X114228600Y-75423657D01*
X114257171Y-75395085D01*
X114314314Y-75366514D01*
X114400028Y-75366514D01*
X114457171Y-75395085D01*
X114485742Y-75423657D01*
X114514314Y-75480800D01*
X114514314Y-75709371D01*
X114257171Y-75137942D02*
X114228600Y-75109371D01*
X114200028Y-75052228D01*
X114200028Y-74909371D01*
X114228600Y-74852228D01*
X114257171Y-74823657D01*
X114314314Y-74795085D01*
X114371457Y-74795085D01*
X114457171Y-74823657D01*
X114800028Y-75166514D01*
X114800028Y-74795085D01*
X114200028Y-74595085D02*
X114200028Y-74223657D01*
X114428600Y-74423657D01*
X114428600Y-74337942D01*
X114457171Y-74280800D01*
X114485742Y-74252228D01*
X114542885Y-74223657D01*
X114685742Y-74223657D01*
X114742885Y-74252228D01*
X114771457Y-74280800D01*
X114800028Y-74337942D01*
X114800028Y-74509371D01*
X114771457Y-74566514D01*
X114742885Y-74595085D01*
%TO.C,R24*%
X117390828Y-75366514D02*
X117105114Y-75566514D01*
X117390828Y-75709371D02*
X116790828Y-75709371D01*
X116790828Y-75480800D01*
X116819400Y-75423657D01*
X116847971Y-75395085D01*
X116905114Y-75366514D01*
X116990828Y-75366514D01*
X117047971Y-75395085D01*
X117076542Y-75423657D01*
X117105114Y-75480800D01*
X117105114Y-75709371D01*
X116847971Y-75137942D02*
X116819400Y-75109371D01*
X116790828Y-75052228D01*
X116790828Y-74909371D01*
X116819400Y-74852228D01*
X116847971Y-74823657D01*
X116905114Y-74795085D01*
X116962257Y-74795085D01*
X117047971Y-74823657D01*
X117390828Y-75166514D01*
X117390828Y-74795085D01*
X116990828Y-74280800D02*
X117390828Y-74280800D01*
X116762257Y-74423657D02*
X117190828Y-74566514D01*
X117190828Y-74195085D01*
%TO.C,R25*%
X121483485Y-75734828D02*
X121283485Y-75449114D01*
X121140628Y-75734828D02*
X121140628Y-75134828D01*
X121369200Y-75134828D01*
X121426342Y-75163400D01*
X121454914Y-75191971D01*
X121483485Y-75249114D01*
X121483485Y-75334828D01*
X121454914Y-75391971D01*
X121426342Y-75420542D01*
X121369200Y-75449114D01*
X121140628Y-75449114D01*
X121712057Y-75191971D02*
X121740628Y-75163400D01*
X121797771Y-75134828D01*
X121940628Y-75134828D01*
X121997771Y-75163400D01*
X122026342Y-75191971D01*
X122054914Y-75249114D01*
X122054914Y-75306257D01*
X122026342Y-75391971D01*
X121683485Y-75734828D01*
X122054914Y-75734828D01*
X122597771Y-75134828D02*
X122312057Y-75134828D01*
X122283485Y-75420542D01*
X122312057Y-75391971D01*
X122369200Y-75363400D01*
X122512057Y-75363400D01*
X122569200Y-75391971D01*
X122597771Y-75420542D01*
X122626342Y-75477685D01*
X122626342Y-75620542D01*
X122597771Y-75677685D01*
X122569200Y-75706257D01*
X122512057Y-75734828D01*
X122369200Y-75734828D01*
X122312057Y-75706257D01*
X122283485Y-75677685D01*
%TO.C,R27*%
X150591885Y-111421828D02*
X150391885Y-111136114D01*
X150249028Y-111421828D02*
X150249028Y-110821828D01*
X150477600Y-110821828D01*
X150534742Y-110850400D01*
X150563314Y-110878971D01*
X150591885Y-110936114D01*
X150591885Y-111021828D01*
X150563314Y-111078971D01*
X150534742Y-111107542D01*
X150477600Y-111136114D01*
X150249028Y-111136114D01*
X150820457Y-110878971D02*
X150849028Y-110850400D01*
X150906171Y-110821828D01*
X151049028Y-110821828D01*
X151106171Y-110850400D01*
X151134742Y-110878971D01*
X151163314Y-110936114D01*
X151163314Y-110993257D01*
X151134742Y-111078971D01*
X150791885Y-111421828D01*
X151163314Y-111421828D01*
X151363314Y-110821828D02*
X151763314Y-110821828D01*
X151506171Y-111421828D01*
%TO.C,R28*%
X147464428Y-109605714D02*
X147178714Y-109805714D01*
X147464428Y-109948571D02*
X146864428Y-109948571D01*
X146864428Y-109720000D01*
X146893000Y-109662857D01*
X146921571Y-109634285D01*
X146978714Y-109605714D01*
X147064428Y-109605714D01*
X147121571Y-109634285D01*
X147150142Y-109662857D01*
X147178714Y-109720000D01*
X147178714Y-109948571D01*
X146921571Y-109377142D02*
X146893000Y-109348571D01*
X146864428Y-109291428D01*
X146864428Y-109148571D01*
X146893000Y-109091428D01*
X146921571Y-109062857D01*
X146978714Y-109034285D01*
X147035857Y-109034285D01*
X147121571Y-109062857D01*
X147464428Y-109405714D01*
X147464428Y-109034285D01*
X147121571Y-108691428D02*
X147093000Y-108748571D01*
X147064428Y-108777142D01*
X147007285Y-108805714D01*
X146978714Y-108805714D01*
X146921571Y-108777142D01*
X146893000Y-108748571D01*
X146864428Y-108691428D01*
X146864428Y-108577142D01*
X146893000Y-108520000D01*
X146921571Y-108491428D01*
X146978714Y-108462857D01*
X147007285Y-108462857D01*
X147064428Y-108491428D01*
X147093000Y-108520000D01*
X147121571Y-108577142D01*
X147121571Y-108691428D01*
X147150142Y-108748571D01*
X147178714Y-108777142D01*
X147235857Y-108805714D01*
X147350142Y-108805714D01*
X147407285Y-108777142D01*
X147435857Y-108748571D01*
X147464428Y-108691428D01*
X147464428Y-108577142D01*
X147435857Y-108520000D01*
X147407285Y-108491428D01*
X147350142Y-108462857D01*
X147235857Y-108462857D01*
X147178714Y-108491428D01*
X147150142Y-108520000D01*
X147121571Y-108577142D01*
%TO.C,R29*%
X148839285Y-109237428D02*
X148639285Y-108951714D01*
X148496428Y-109237428D02*
X148496428Y-108637428D01*
X148725000Y-108637428D01*
X148782142Y-108666000D01*
X148810714Y-108694571D01*
X148839285Y-108751714D01*
X148839285Y-108837428D01*
X148810714Y-108894571D01*
X148782142Y-108923142D01*
X148725000Y-108951714D01*
X148496428Y-108951714D01*
X149067857Y-108694571D02*
X149096428Y-108666000D01*
X149153571Y-108637428D01*
X149296428Y-108637428D01*
X149353571Y-108666000D01*
X149382142Y-108694571D01*
X149410714Y-108751714D01*
X149410714Y-108808857D01*
X149382142Y-108894571D01*
X149039285Y-109237428D01*
X149410714Y-109237428D01*
X149696428Y-109237428D02*
X149810714Y-109237428D01*
X149867857Y-109208857D01*
X149896428Y-109180285D01*
X149953571Y-109094571D01*
X149982142Y-108980285D01*
X149982142Y-108751714D01*
X149953571Y-108694571D01*
X149925000Y-108666000D01*
X149867857Y-108637428D01*
X149753571Y-108637428D01*
X149696428Y-108666000D01*
X149667857Y-108694571D01*
X149639285Y-108751714D01*
X149639285Y-108894571D01*
X149667857Y-108951714D01*
X149696428Y-108980285D01*
X149753571Y-109008857D01*
X149867857Y-109008857D01*
X149925000Y-108980285D01*
X149953571Y-108951714D01*
X149982142Y-108894571D01*
%TO.C,R30*%
X143146428Y-100334714D02*
X142860714Y-100534714D01*
X143146428Y-100677571D02*
X142546428Y-100677571D01*
X142546428Y-100449000D01*
X142575000Y-100391857D01*
X142603571Y-100363285D01*
X142660714Y-100334714D01*
X142746428Y-100334714D01*
X142803571Y-100363285D01*
X142832142Y-100391857D01*
X142860714Y-100449000D01*
X142860714Y-100677571D01*
X142546428Y-100134714D02*
X142546428Y-99763285D01*
X142775000Y-99963285D01*
X142775000Y-99877571D01*
X142803571Y-99820428D01*
X142832142Y-99791857D01*
X142889285Y-99763285D01*
X143032142Y-99763285D01*
X143089285Y-99791857D01*
X143117857Y-99820428D01*
X143146428Y-99877571D01*
X143146428Y-100049000D01*
X143117857Y-100106142D01*
X143089285Y-100134714D01*
X142546428Y-99391857D02*
X142546428Y-99334714D01*
X142575000Y-99277571D01*
X142603571Y-99249000D01*
X142660714Y-99220428D01*
X142775000Y-99191857D01*
X142917857Y-99191857D01*
X143032142Y-99220428D01*
X143089285Y-99249000D01*
X143117857Y-99277571D01*
X143146428Y-99334714D01*
X143146428Y-99391857D01*
X143117857Y-99449000D01*
X143089285Y-99477571D01*
X143032142Y-99506142D01*
X142917857Y-99534714D01*
X142775000Y-99534714D01*
X142660714Y-99506142D01*
X142603571Y-99477571D01*
X142575000Y-99449000D01*
X142546428Y-99391857D01*
%TO.C,R31*%
X146956428Y-99953714D02*
X146670714Y-100153714D01*
X146956428Y-100296571D02*
X146356428Y-100296571D01*
X146356428Y-100068000D01*
X146385000Y-100010857D01*
X146413571Y-99982285D01*
X146470714Y-99953714D01*
X146556428Y-99953714D01*
X146613571Y-99982285D01*
X146642142Y-100010857D01*
X146670714Y-100068000D01*
X146670714Y-100296571D01*
X146356428Y-99753714D02*
X146356428Y-99382285D01*
X146585000Y-99582285D01*
X146585000Y-99496571D01*
X146613571Y-99439428D01*
X146642142Y-99410857D01*
X146699285Y-99382285D01*
X146842142Y-99382285D01*
X146899285Y-99410857D01*
X146927857Y-99439428D01*
X146956428Y-99496571D01*
X146956428Y-99668000D01*
X146927857Y-99725142D01*
X146899285Y-99753714D01*
X146956428Y-98810857D02*
X146956428Y-99153714D01*
X146956428Y-98982285D02*
X146356428Y-98982285D01*
X146442142Y-99039428D01*
X146499285Y-99096571D01*
X146527857Y-99153714D01*
%TO.C,R32*%
X142997285Y-98696428D02*
X142797285Y-98410714D01*
X142654428Y-98696428D02*
X142654428Y-98096428D01*
X142883000Y-98096428D01*
X142940142Y-98125000D01*
X142968714Y-98153571D01*
X142997285Y-98210714D01*
X142997285Y-98296428D01*
X142968714Y-98353571D01*
X142940142Y-98382142D01*
X142883000Y-98410714D01*
X142654428Y-98410714D01*
X143197285Y-98096428D02*
X143568714Y-98096428D01*
X143368714Y-98325000D01*
X143454428Y-98325000D01*
X143511571Y-98353571D01*
X143540142Y-98382142D01*
X143568714Y-98439285D01*
X143568714Y-98582142D01*
X143540142Y-98639285D01*
X143511571Y-98667857D01*
X143454428Y-98696428D01*
X143283000Y-98696428D01*
X143225857Y-98667857D01*
X143197285Y-98639285D01*
X143797285Y-98153571D02*
X143825857Y-98125000D01*
X143883000Y-98096428D01*
X144025857Y-98096428D01*
X144083000Y-98125000D01*
X144111571Y-98153571D01*
X144140142Y-98210714D01*
X144140142Y-98267857D01*
X144111571Y-98353571D01*
X143768714Y-98696428D01*
X144140142Y-98696428D01*
%TO.C,SW1*%
D13*
X145351666Y-71651761D02*
X145494523Y-71699380D01*
X145732619Y-71699380D01*
X145827857Y-71651761D01*
X145875476Y-71604142D01*
X145923095Y-71508904D01*
X145923095Y-71413666D01*
X145875476Y-71318428D01*
X145827857Y-71270809D01*
X145732619Y-71223190D01*
X145542142Y-71175571D01*
X145446904Y-71127952D01*
X145399285Y-71080333D01*
X145351666Y-70985095D01*
X145351666Y-70889857D01*
X145399285Y-70794619D01*
X145446904Y-70747000D01*
X145542142Y-70699380D01*
X145780238Y-70699380D01*
X145923095Y-70747000D01*
X146256428Y-70699380D02*
X146494523Y-71699380D01*
X146685000Y-70985095D01*
X146875476Y-71699380D01*
X147113571Y-70699380D01*
X148018333Y-71699380D02*
X147446904Y-71699380D01*
X147732619Y-71699380D02*
X147732619Y-70699380D01*
X147637380Y-70842238D01*
X147542142Y-70937476D01*
X147446904Y-70985095D01*
%TO.C,SW2*%
X145351666Y-77493761D02*
X145494523Y-77541380D01*
X145732619Y-77541380D01*
X145827857Y-77493761D01*
X145875476Y-77446142D01*
X145923095Y-77350904D01*
X145923095Y-77255666D01*
X145875476Y-77160428D01*
X145827857Y-77112809D01*
X145732619Y-77065190D01*
X145542142Y-77017571D01*
X145446904Y-76969952D01*
X145399285Y-76922333D01*
X145351666Y-76827095D01*
X145351666Y-76731857D01*
X145399285Y-76636619D01*
X145446904Y-76589000D01*
X145542142Y-76541380D01*
X145780238Y-76541380D01*
X145923095Y-76589000D01*
X146256428Y-76541380D02*
X146494523Y-77541380D01*
X146685000Y-76827095D01*
X146875476Y-77541380D01*
X147113571Y-76541380D01*
X147446904Y-76636619D02*
X147494523Y-76589000D01*
X147589761Y-76541380D01*
X147827857Y-76541380D01*
X147923095Y-76589000D01*
X147970714Y-76636619D01*
X148018333Y-76731857D01*
X148018333Y-76827095D01*
X147970714Y-76969952D01*
X147399285Y-77541380D01*
X148018333Y-77541380D01*
%TO.C,U1*%
X147193095Y-82383380D02*
X147193095Y-83192904D01*
X147240714Y-83288142D01*
X147288333Y-83335761D01*
X147383571Y-83383380D01*
X147574047Y-83383380D01*
X147669285Y-83335761D01*
X147716904Y-83288142D01*
X147764523Y-83192904D01*
X147764523Y-82383380D01*
X148764523Y-83383380D02*
X148193095Y-83383380D01*
X148478809Y-83383380D02*
X148478809Y-82383380D01*
X148383571Y-82526238D01*
X148288333Y-82621476D01*
X148193095Y-82669095D01*
%TO.C,U2*%
X125933295Y-73353680D02*
X125933295Y-74163204D01*
X125980914Y-74258442D01*
X126028533Y-74306061D01*
X126123771Y-74353680D01*
X126314247Y-74353680D01*
X126409485Y-74306061D01*
X126457104Y-74258442D01*
X126504723Y-74163204D01*
X126504723Y-73353680D01*
X126933295Y-73448919D02*
X126980914Y-73401300D01*
X127076152Y-73353680D01*
X127314247Y-73353680D01*
X127409485Y-73401300D01*
X127457104Y-73448919D01*
X127504723Y-73544157D01*
X127504723Y-73639395D01*
X127457104Y-73782252D01*
X126885676Y-74353680D01*
X127504723Y-74353680D01*
%TO.C,U5*%
X136144095Y-115149380D02*
X136144095Y-115958904D01*
X136191714Y-116054142D01*
X136239333Y-116101761D01*
X136334571Y-116149380D01*
X136525047Y-116149380D01*
X136620285Y-116101761D01*
X136667904Y-116054142D01*
X136715523Y-115958904D01*
X136715523Y-115149380D01*
X137667904Y-115149380D02*
X137191714Y-115149380D01*
X137144095Y-115625571D01*
X137191714Y-115577952D01*
X137286952Y-115530333D01*
X137525047Y-115530333D01*
X137620285Y-115577952D01*
X137667904Y-115625571D01*
X137715523Y-115720809D01*
X137715523Y-115958904D01*
X137667904Y-116054142D01*
X137620285Y-116101761D01*
X137525047Y-116149380D01*
X137286952Y-116149380D01*
X137191714Y-116101761D01*
X137144095Y-116054142D01*
%TO.C,U6*%
X113244380Y-83565904D02*
X114053904Y-83565904D01*
X114149142Y-83518285D01*
X114196761Y-83470666D01*
X114244380Y-83375428D01*
X114244380Y-83184952D01*
X114196761Y-83089714D01*
X114149142Y-83042095D01*
X114053904Y-82994476D01*
X113244380Y-82994476D01*
X113244380Y-82089714D02*
X113244380Y-82280190D01*
X113292000Y-82375428D01*
X113339619Y-82423047D01*
X113482476Y-82518285D01*
X113672952Y-82565904D01*
X114053904Y-82565904D01*
X114149142Y-82518285D01*
X114196761Y-82470666D01*
X114244380Y-82375428D01*
X114244380Y-82184952D01*
X114196761Y-82089714D01*
X114149142Y-82042095D01*
X114053904Y-81994476D01*
X113815809Y-81994476D01*
X113720571Y-82042095D01*
X113672952Y-82089714D01*
X113625333Y-82184952D01*
X113625333Y-82375428D01*
X113672952Y-82470666D01*
X113720571Y-82518285D01*
X113815809Y-82565904D01*
D10*
X111986142Y-91696857D02*
X112057571Y-91482571D01*
X112057571Y-91125428D01*
X111986142Y-90982571D01*
X111914714Y-90911142D01*
X111771857Y-90839714D01*
X111629000Y-90839714D01*
X111486142Y-90911142D01*
X111414714Y-90982571D01*
X111343285Y-91125428D01*
X111271857Y-91411142D01*
X111200428Y-91554000D01*
X111129000Y-91625428D01*
X110986142Y-91696857D01*
X110843285Y-91696857D01*
X110700428Y-91625428D01*
X110629000Y-91554000D01*
X110557571Y-91411142D01*
X110557571Y-91054000D01*
X110629000Y-90839714D01*
X112057571Y-90196857D02*
X110557571Y-90196857D01*
X112057571Y-89482571D02*
X110557571Y-89482571D01*
X111629000Y-88982571D01*
X110557571Y-88482571D01*
X112057571Y-88482571D01*
X111200428Y-87554000D02*
X111129000Y-87696857D01*
X111057571Y-87768285D01*
X110914714Y-87839714D01*
X110843285Y-87839714D01*
X110700428Y-87768285D01*
X110629000Y-87696857D01*
X110557571Y-87554000D01*
X110557571Y-87268285D01*
X110629000Y-87125428D01*
X110700428Y-87054000D01*
X110843285Y-86982571D01*
X110914714Y-86982571D01*
X111057571Y-87054000D01*
X111129000Y-87125428D01*
X111200428Y-87268285D01*
X111200428Y-87554000D01*
X111271857Y-87696857D01*
X111343285Y-87768285D01*
X111486142Y-87839714D01*
X111771857Y-87839714D01*
X111914714Y-87768285D01*
X111986142Y-87696857D01*
X112057571Y-87554000D01*
X112057571Y-87268285D01*
X111986142Y-87125428D01*
X111914714Y-87054000D01*
X111771857Y-86982571D01*
X111486142Y-86982571D01*
X111343285Y-87054000D01*
X111271857Y-87125428D01*
X111200428Y-87268285D01*
X110557571Y-86054000D02*
X110557571Y-85911142D01*
X110629000Y-85768285D01*
X110700428Y-85696857D01*
X110843285Y-85625428D01*
X111129000Y-85554000D01*
X111486142Y-85554000D01*
X111771857Y-85625428D01*
X111914714Y-85696857D01*
X111986142Y-85768285D01*
X112057571Y-85911142D01*
X112057571Y-86054000D01*
X111986142Y-86196857D01*
X111914714Y-86268285D01*
X111771857Y-86339714D01*
X111486142Y-86411142D01*
X111129000Y-86411142D01*
X110843285Y-86339714D01*
X110700428Y-86268285D01*
X110629000Y-86196857D01*
X110557571Y-86054000D01*
X110557571Y-84625428D02*
X110557571Y-84482571D01*
X110629000Y-84339714D01*
X110700428Y-84268285D01*
X110843285Y-84196857D01*
X111129000Y-84125428D01*
X111486142Y-84125428D01*
X111771857Y-84196857D01*
X111914714Y-84268285D01*
X111986142Y-84339714D01*
X112057571Y-84482571D01*
X112057571Y-84625428D01*
X111986142Y-84768285D01*
X111914714Y-84839714D01*
X111771857Y-84911142D01*
X111486142Y-84982571D01*
X111129000Y-84982571D01*
X110843285Y-84911142D01*
X110700428Y-84839714D01*
X110629000Y-84768285D01*
X110557571Y-84625428D01*
X112057571Y-82768285D02*
X112057571Y-83482571D01*
X110557571Y-83482571D01*
X112057571Y-81125428D02*
X110557571Y-81125428D01*
X111629000Y-80625428D01*
X110557571Y-80125428D01*
X112057571Y-80125428D01*
X112057571Y-79196857D02*
X111986142Y-79339714D01*
X111914714Y-79411142D01*
X111771857Y-79482571D01*
X111343285Y-79482571D01*
X111200428Y-79411142D01*
X111129000Y-79339714D01*
X111057571Y-79196857D01*
X111057571Y-78982571D01*
X111129000Y-78839714D01*
X111200428Y-78768285D01*
X111343285Y-78696857D01*
X111771857Y-78696857D01*
X111914714Y-78768285D01*
X111986142Y-78839714D01*
X112057571Y-78982571D01*
X112057571Y-79196857D01*
X112057571Y-77411142D02*
X110557571Y-77411142D01*
X111986142Y-77411142D02*
X112057571Y-77554000D01*
X112057571Y-77839714D01*
X111986142Y-77982571D01*
X111914714Y-78054000D01*
X111771857Y-78125428D01*
X111343285Y-78125428D01*
X111200428Y-78054000D01*
X111129000Y-77982571D01*
X111057571Y-77839714D01*
X111057571Y-77554000D01*
X111129000Y-77411142D01*
X111057571Y-76054000D02*
X112057571Y-76054000D01*
X111057571Y-76696857D02*
X111843285Y-76696857D01*
X111986142Y-76625428D01*
X112057571Y-76482571D01*
X112057571Y-76268285D01*
X111986142Y-76125428D01*
X111914714Y-76054000D01*
X112057571Y-75125428D02*
X111986142Y-75268285D01*
X111843285Y-75339714D01*
X110557571Y-75339714D01*
X111986142Y-73982571D02*
X112057571Y-74125428D01*
X112057571Y-74411142D01*
X111986142Y-74554000D01*
X111843285Y-74625428D01*
X111271857Y-74625428D01*
X111129000Y-74554000D01*
X111057571Y-74411142D01*
X111057571Y-74125428D01*
X111129000Y-73982571D01*
X111271857Y-73911142D01*
X111414714Y-73911142D01*
X111557571Y-74625428D01*
%TO.C,U8*%
D11*
X138772976Y-105352904D02*
X138772976Y-106000523D01*
X138811071Y-106076714D01*
X138849166Y-106114809D01*
X138925357Y-106152904D01*
X139077738Y-106152904D01*
X139153928Y-106114809D01*
X139192023Y-106076714D01*
X139230119Y-106000523D01*
X139230119Y-105352904D01*
X139725357Y-105695761D02*
X139649166Y-105657666D01*
X139611071Y-105619571D01*
X139572976Y-105543380D01*
X139572976Y-105505285D01*
X139611071Y-105429095D01*
X139649166Y-105391000D01*
X139725357Y-105352904D01*
X139877738Y-105352904D01*
X139953928Y-105391000D01*
X139992023Y-105429095D01*
X140030119Y-105505285D01*
X140030119Y-105543380D01*
X139992023Y-105619571D01*
X139953928Y-105657666D01*
X139877738Y-105695761D01*
X139725357Y-105695761D01*
X139649166Y-105733857D01*
X139611071Y-105771952D01*
X139572976Y-105848142D01*
X139572976Y-106000523D01*
X139611071Y-106076714D01*
X139649166Y-106114809D01*
X139725357Y-106152904D01*
X139877738Y-106152904D01*
X139953928Y-106114809D01*
X139992023Y-106076714D01*
X140030119Y-106000523D01*
X140030119Y-105848142D01*
X139992023Y-105771952D01*
X139953928Y-105733857D01*
X139877738Y-105695761D01*
%TO.C,U9*%
X148107457Y-98502828D02*
X148107457Y-98988542D01*
X148136028Y-99045685D01*
X148164600Y-99074257D01*
X148221742Y-99102828D01*
X148336028Y-99102828D01*
X148393171Y-99074257D01*
X148421742Y-99045685D01*
X148450314Y-98988542D01*
X148450314Y-98502828D01*
X148764600Y-99102828D02*
X148878885Y-99102828D01*
X148936028Y-99074257D01*
X148964600Y-99045685D01*
X149021742Y-98959971D01*
X149050314Y-98845685D01*
X149050314Y-98617114D01*
X149021742Y-98559971D01*
X148993171Y-98531400D01*
X148936028Y-98502828D01*
X148821742Y-98502828D01*
X148764600Y-98531400D01*
X148736028Y-98559971D01*
X148707457Y-98617114D01*
X148707457Y-98759971D01*
X148736028Y-98817114D01*
X148764600Y-98845685D01*
X148821742Y-98874257D01*
X148936028Y-98874257D01*
X148993171Y-98845685D01*
X149021742Y-98817114D01*
X149050314Y-98759971D01*
%TO.C,Y1*%
D13*
X127082809Y-92074190D02*
X127082809Y-92550380D01*
X126749476Y-91550380D02*
X127082809Y-92074190D01*
X127416142Y-91550380D01*
X128273285Y-92550380D02*
X127701857Y-92550380D01*
X127987571Y-92550380D02*
X127987571Y-91550380D01*
X127892333Y-91693238D01*
X127797095Y-91788476D01*
X127701857Y-91836095D01*
%TD*%
M02*
