M48
; DRILL file {KiCad (5.1.9)-1} date 03/08/21 10:45:22
; FORMAT={-:-/ absolute / inch / decimal}
; #@! TF.CreationDate,2021-03-08T10:45:22+00:00
; #@! TF.GenerationSoftware,Kicad,Pcbnew,(5.1.9)-1
; #@! TF.FileFunction,Plated,1,2,PTH
FMAT,2
INCH
T1C0.0059
T2C0.0118
T3C0.0157
T4C0.0197
T5C0.0217
T6C0.0315
T7C0.0354
T8C0.0394
%
G90
G05
T1
X5.5135Y-4.041
X5.5135Y-4.061
X5.5135Y-4.081
X5.5335Y-4.041
X5.5335Y-4.061
X5.5335Y-4.081
X5.5535Y-4.041
X5.5535Y-4.061
X5.5535Y-4.081
X5.5735Y-4.041
X5.5735Y-4.061
X5.5735Y-4.081
X5.5935Y-4.041
X5.5935Y-4.061
X5.5935Y-4.081
T2
X3.98Y-4.201
X3.981Y-4.254
X3.982Y-4.309
X3.987Y-3.2659
X4.002Y-3.5909
X4.006Y-3.362
X4.012Y-3.0709
X4.017Y-3.9159
X4.041Y-3.479
X4.047Y-3.2159
X4.052Y-3.6509
X4.052Y-3.8459
X4.057Y-4.0109
X4.057Y-4.1059
X4.063Y-3.315
X4.091Y-4.5139
X4.092Y-3.0709
X4.095Y-4.2699
X4.112Y-3.7059
X4.147Y-4.2699
X4.162Y-3.9409
X4.162Y-4.0459
X4.162Y-4.1409
X4.172Y-3.0709
X4.197Y-3.2159
X4.197Y-3.3009
X4.197Y-3.3659
X4.205Y-4.4629
X4.205Y-4.5039
X4.232Y-3.5159
X4.232Y-3.5959
X4.232Y-3.6859
X4.232Y-3.7859
X4.232Y-3.8709
X4.272Y-3.2159
X4.277Y-3.3009
X4.334Y-3.511
X4.3425Y-3.3575
X4.347Y-3.2159
X4.3474Y-3.4236
X4.3516Y-3.4734
X4.371Y-4.4499
X4.377Y-3.6809
X4.377Y-3.8199
X4.387Y-4.1519
X4.391Y-3.448
X4.4Y-3.3025
X4.4025Y-3.38
X4.405Y-3.167
X4.4065Y-4.6989
X4.407Y-4.6019
X4.409Y-3.513
X4.425Y-4.4499
X4.456Y-3.121
X4.46Y-3.3025
X4.46Y-3.35
X4.462Y-4.6009
X4.462Y-4.7009
X4.466Y-3.465
X4.479Y-4.4499
X4.479Y-4.5199
X4.49Y-3.21
X4.501Y-3.076
X4.505Y-2.897
X4.505Y-2.961
X4.505Y-3.017
X4.507Y-3.9559
X4.511Y-4.1519
X4.511Y-4.1859
X4.511Y-4.2179
X4.517Y-4.6009
X4.5175Y-3.3025
X4.522Y-4.7009
X4.5425Y-3.1525
X4.552Y-3.0144
X4.587Y-3.8759
X4.589Y-2.962
X4.59Y-2.999
X4.5925Y-3.0975
X4.6Y-3.215
X4.602Y-2.893
X4.607Y-4.5259
X4.624Y-3.55
X4.628Y-3.001
X4.634Y-3.45
X4.6425Y-3.17
X4.649Y-3.7499
X4.65Y-3.576
X4.651Y-3.8759
X4.6525Y-3.085
X4.6575Y-3.305
X4.685Y-3.125
X4.693Y-3.7659
X4.699Y-2.892
X4.708Y-3.008
X4.711Y-3.8759
X4.725Y-3.0825
X4.735Y-3.2025
X4.735Y-3.305
X4.747Y-4.5259
X4.7544Y-3.0077
X4.759Y-2.893
X4.761Y-3.8619
X4.767Y-4.0059
X4.7775Y-3.3625
X4.7775Y-3.42
X4.78Y-3.1575
X4.7875Y-3.3025
X4.79Y-3.2175
X4.792Y-3.002
X4.795Y-3.5659
X4.795Y-3.8634
X4.807Y-4.0459
X4.815Y-2.979
X4.817Y-4.2059
X4.817Y-4.2959
X4.82Y-3.115
X4.826Y-2.892
X4.8355Y-3.8644
X4.855Y-3.2175
X4.8625Y-3.3525
X4.8625Y-3.4025
X4.875Y-3.5599
X4.89Y-3.48
X4.8975Y-3.315
X4.919Y-3.5999
X4.927Y-4.0059
X4.927Y-4.0559
X4.927Y-4.2059
X4.927Y-4.3159
X4.93Y-3.02
X4.93Y-3.0675
X4.93Y-3.1175
X4.9425Y-3.3
X4.9425Y-3.4025
X4.959Y-3.5659
X4.967Y-4.1559
X4.967Y-4.2559
X4.9775Y-3.48
X5.0025Y-3.205
X5.005Y-3.6859
X5.017Y-3.6509
X5.0175Y-3.48
X5.035Y-3.7079
X5.0425Y-3.205
X5.0575Y-3.48
X5.07Y-3.02
X5.07Y-3.0675
X5.07Y-3.1175
X5.093Y-4.809
X5.094Y-4.677
X5.098Y-4.338
X5.1Y-3.48
X5.101Y-3.9424
X5.1075Y-3.7739
X5.114Y-2.989
X5.127Y-3.9959
X5.127Y-4.0959
X5.127Y-4.1559
X5.1275Y-3.0675
X5.1275Y-3.1175
X5.133Y-2.86
X5.1345Y-3.7934
X5.137Y-4.263
X5.14Y-3.4
X5.14Y-3.4925
X5.14Y-3.5275
X5.152Y-4.336
X5.167Y-2.808
X5.167Y-3.9559
X5.177Y-4.0359
X5.177Y-4.0859
X5.177Y-4.1359
X5.177Y-4.1859
X5.182Y-3.4009
X5.189Y-4.416
X5.191Y-3.7444
X5.1975Y-2.86
X5.213Y-4.585
X5.227Y-4.2259
X5.237Y-4.0559
X5.2375Y-4.415
X5.2575Y-2.86
X5.2575Y-3.04
X5.2575Y-3.57
X5.2575Y-4.655
X5.2575Y-4.705
X5.258Y-4.788
X5.2715Y-3.283
X5.275Y-4.575
X5.28Y-3.129
X5.281Y-3.076
X5.287Y-2.806
X5.289Y-4.416
X5.297Y-4.0559
X5.3025Y-3.3975
X5.307Y-4.2259
X5.31Y-3.285
X5.312Y-3.907
X5.315Y-2.86
X5.316Y-3.199
X5.317Y-3.6819
X5.317Y-4.2859
X5.32Y-3.33
X5.3225Y-4.5375
X5.325Y-4.4525
X5.3275Y-3.0175
X5.346Y-4.574
X5.35Y-3.2
X5.365Y-3.045
X5.367Y-4.0559
X5.37Y-4.695
X5.37Y-4.74
X5.371Y-2.806
X5.375Y-3.3275
X5.375Y-4.4675
X5.3775Y-3.1425
X5.382Y-2.883
X5.387Y-4.2259
X5.391Y-4.418
X5.3925Y-4.6575
X5.3975Y-3.105
X5.3975Y-3.305
X5.4025Y-4.6075
X5.415Y-3.4675
X5.415Y-4.4975
X5.4175Y-3.6225
X5.42Y-3.56
X5.422Y-3.404
X5.425Y-4.455
X5.4275Y-4.055
X5.43Y-4.26
X5.434Y-4.418
X5.4375Y-3.0875
X5.4375Y-3.9075
X5.445Y-3.535
X5.4475Y-4.845
X5.4555Y-3.6725
X5.457Y-4.1559
X5.4591Y-3.6346
X5.467Y-4.2259
X5.468Y-4.5556
X5.469Y-2.883
X5.474Y-2.95
X5.475Y-2.832
X5.5Y-3.12
X5.502Y-3.6659
X5.508Y-3.406
X5.508Y-3.544
X5.51Y-4.845
X5.522Y-3.446
X5.522Y-3.498
X5.525Y-4.6406
X5.542Y-3.6259
X5.544Y-4.555
X5.547Y-2.89
X5.5672Y-3.3516
X5.5675Y-4.845
X5.57Y-4.635
X5.5875Y-4.555
X5.595Y-3.5225
X5.5975Y-3.4025
X5.605Y-4.3993
X5.6175Y-3.455
X5.62Y-3.345
X5.6225Y-3.555
X5.625Y-4.845
X5.6336Y-3.8514
X5.635Y-4.555
X5.6425Y-4.12
X5.6425Y-4.375
X5.6532Y-4.1624
X5.658Y-3.074
X5.66Y-4.235
X5.6625Y-2.845
X5.6625Y-3.4975
X5.667Y-3.6724
X5.669Y-3.014
X5.675Y-2.9625
X5.68Y-3.345
X5.68Y-3.4075
X5.682Y-2.91
X5.6854Y-3.2206
X5.687Y-3.8775
X5.695Y-2.815
X5.695Y-3.108
X5.697Y-3.05
X5.7Y-4.635
X5.7Y-4.675
X5.702Y-3.5359
X5.7025Y-3.9525
X5.703Y-3.803
X5.705Y-4.235
X5.705Y-4.725
X5.711Y-2.986
X5.7225Y-2.8775
X5.7325Y-3.345
X5.74Y-4.635
X5.742Y-3.5559
X5.7425Y-3.79
X5.745Y-3.485
X5.745Y-4.235
X5.7475Y-3.4025
X5.752Y-3.8259
X5.76Y-2.915
X5.765Y-4.7919
X5.7672Y-3.1386
X5.7725Y-3.2525
X5.775Y-2.8375
X5.7775Y-3.06
X5.78Y-2.9975
X5.78Y-4.235
X5.78Y-4.62
X5.785Y-3.305
X5.786Y-4.416
X5.787Y-4.1409
X5.797Y-3.8459
X5.8Y-3.96
X5.817Y-3.9259
X5.82Y-4.315
X5.8275Y-3.32
X5.832Y-4.1409
X5.837Y-3.8859
X5.845Y-4.285
X5.847Y-3.8209
X5.8525Y-3.05
X5.853Y-3.7119
X5.8625Y-3.57
X5.8625Y-3.6275
X5.863Y-3.7739
X5.865Y-3.92
X5.871Y-3.7379
X5.875Y-3.2
X5.8925Y-3.5975
X5.8975Y-3.0725
X5.8975Y-3.1075
X5.899Y-3.6624
X5.905Y-3.175
X5.915Y-3.315
X5.915Y-3.3625
X5.918Y-4.427
X5.92Y-4.005
X5.92Y-4.03
X5.92Y-4.055
X5.925Y-3.57
X5.93Y-4.29
X5.942Y-3.6309
X5.944Y-3.912
X5.945Y-3.755
X5.945Y-3.7925
X5.96Y-4.58
X5.9675Y-4.2
X5.973Y-3.0379
X5.982Y-3.6309
X5.9825Y-3.6675
X5.9875Y-3.1975
X5.9875Y-3.46
X5.9875Y-3.57
X5.99Y-3.3075
X5.99Y-3.3775
X5.992Y-3.987
X5.992Y-4.027
X6.0025Y-4.13
X6.01Y-4.58
X6.025Y-4.2975
X6.0325Y-4.1025
X6.0325Y-4.1525
X6.035Y-4.4225
X6.035Y-4.46
X6.035Y-4.51
T3
X4.376Y-4.3504
X4.4125Y-4.3504
X4.4485Y-4.3504
X4.8295Y-4.1119
X4.9295Y-4.1159
X5.183Y-3.206
X5.183Y-3.246
X5.212Y-3.226
X5.3075Y-4.368
X5.507Y-3.83
X5.545Y-3.829
X5.582Y-3.829
X5.584Y-4.514
X5.624Y-4.284
X5.635Y-4.6446
X5.776Y-4.575
X5.959Y-4.383
X6.01Y-4.385
T6
X5.98Y-4.44
X5.98Y-4.5187
T7
X5.425Y-2.805
X5.425Y-2.9349
X5.425Y-3.035
X5.425Y-3.1649
X5.5234Y-2.805
X5.5234Y-2.9349
X5.5234Y-3.035
X5.5234Y-3.1649
X5.6219Y-2.805
X5.6219Y-2.9349
X5.6219Y-3.035
X5.6219Y-3.1649
T8
X4.115Y-3.16
X4.115Y-3.26
X4.115Y-3.36
X4.115Y-3.46
X4.115Y-3.56
X4.115Y-3.795
X4.115Y-3.895
X4.115Y-3.995
X4.115Y-4.095
X4.115Y-4.195
X4.2765Y-3.9914
X4.2765Y-4.0914
X4.2765Y-4.1914
X4.2765Y-4.2914
X4.2765Y-4.3914
X4.2765Y-4.4914
X4.45Y-3.685
X4.55Y-2.835
X4.55Y-3.685
X4.65Y-2.835
X4.65Y-3.685
X4.75Y-2.835
X4.75Y-3.685
X4.85Y-2.835
X4.85Y-3.685
X4.95Y-2.835
X4.95Y-3.685
X5.05Y-2.835
T4
G00X5.4072Y-4.8081
M15
G01X5.4072Y-4.7825
M16
G05
G00X5.6828Y-4.8081
M15
G01X5.6828Y-4.7825
M16
G05
T5
G00X5.4525Y-4.689
M15
G01X5.4407Y-4.689
M16
G05
G00X5.6493Y-4.689
M15
G01X5.6375Y-4.689
M16
G05
T0
M30
