%TF.GenerationSoftware,KiCad,Pcbnew,(5.1.9)-1*%
%TF.CreationDate,2021-03-08T10:45:14+00:00*%
%TF.ProjectId,gps_tracker_basic,6770735f-7472-4616-936b-65725f626173,1.0*%
%TF.SameCoordinates,Original*%
%TF.FileFunction,Legend,Bot*%
%TF.FilePolarity,Positive*%
%FSLAX46Y46*%
G04 Gerber Fmt 4.6, Leading zero omitted, Abs format (unit mm)*
G04 Created by KiCad (PCBNEW (5.1.9)-1) date 2021-03-08 10:45:14*
%MOMM*%
%LPD*%
G01*
G04 APERTURE LIST*
%ADD10C,0.150000*%
%ADD11C,0.300000*%
%ADD12C,0.010000*%
%ADD13C,0.120000*%
G04 APERTURE END LIST*
D10*
X134732761Y-121157142D02*
X134780380Y-121204761D01*
X134923238Y-121252380D01*
X135018476Y-121252380D01*
X135161333Y-121204761D01*
X135256571Y-121109523D01*
X135304190Y-121014285D01*
X135351809Y-120823809D01*
X135351809Y-120680952D01*
X135304190Y-120490476D01*
X135256571Y-120395238D01*
X135161333Y-120300000D01*
X135018476Y-120252380D01*
X134923238Y-120252380D01*
X134780380Y-120300000D01*
X134732761Y-120347619D01*
X134161333Y-121252380D02*
X134256571Y-121204761D01*
X134304190Y-121157142D01*
X134351809Y-121061904D01*
X134351809Y-120776190D01*
X134304190Y-120680952D01*
X134256571Y-120633333D01*
X134161333Y-120585714D01*
X134018476Y-120585714D01*
X133923238Y-120633333D01*
X133875619Y-120680952D01*
X133828000Y-120776190D01*
X133828000Y-121061904D01*
X133875619Y-121157142D01*
X133923238Y-121204761D01*
X134018476Y-121252380D01*
X134161333Y-121252380D01*
X133399428Y-120585714D02*
X133399428Y-121585714D01*
X133399428Y-120633333D02*
X133304190Y-120585714D01*
X133113714Y-120585714D01*
X133018476Y-120633333D01*
X132970857Y-120680952D01*
X132923238Y-120776190D01*
X132923238Y-121061904D01*
X132970857Y-121157142D01*
X133018476Y-121204761D01*
X133113714Y-121252380D01*
X133304190Y-121252380D01*
X133399428Y-121204761D01*
X132589904Y-120585714D02*
X132351809Y-121252380D01*
X132113714Y-120585714D02*
X132351809Y-121252380D01*
X132447047Y-121490476D01*
X132494666Y-121538095D01*
X132589904Y-121585714D01*
X131732761Y-121252380D02*
X131732761Y-120585714D01*
X131732761Y-120776190D02*
X131685142Y-120680952D01*
X131637523Y-120633333D01*
X131542285Y-120585714D01*
X131447047Y-120585714D01*
X131113714Y-121252380D02*
X131113714Y-120585714D01*
X131113714Y-120252380D02*
X131161333Y-120300000D01*
X131113714Y-120347619D01*
X131066095Y-120300000D01*
X131113714Y-120252380D01*
X131113714Y-120347619D01*
X130208952Y-120585714D02*
X130208952Y-121395238D01*
X130256571Y-121490476D01*
X130304190Y-121538095D01*
X130399428Y-121585714D01*
X130542285Y-121585714D01*
X130637523Y-121538095D01*
X130208952Y-121204761D02*
X130304190Y-121252380D01*
X130494666Y-121252380D01*
X130589904Y-121204761D01*
X130637523Y-121157142D01*
X130685142Y-121061904D01*
X130685142Y-120776190D01*
X130637523Y-120680952D01*
X130589904Y-120633333D01*
X130494666Y-120585714D01*
X130304190Y-120585714D01*
X130208952Y-120633333D01*
X129732761Y-121252380D02*
X129732761Y-120252380D01*
X129304190Y-121252380D02*
X129304190Y-120728571D01*
X129351809Y-120633333D01*
X129447047Y-120585714D01*
X129589904Y-120585714D01*
X129685142Y-120633333D01*
X129732761Y-120680952D01*
X128970857Y-120585714D02*
X128589904Y-120585714D01*
X128828000Y-120252380D02*
X128828000Y-121109523D01*
X128780380Y-121204761D01*
X128685142Y-121252380D01*
X128589904Y-121252380D01*
X127208952Y-121633333D02*
X127256571Y-121585714D01*
X127351809Y-121442857D01*
X127399428Y-121347619D01*
X127447047Y-121204761D01*
X127494666Y-120966666D01*
X127494666Y-120776190D01*
X127447047Y-120538095D01*
X127399428Y-120395238D01*
X127351809Y-120300000D01*
X127256571Y-120157142D01*
X127208952Y-120109523D01*
X126256571Y-121157142D02*
X126304190Y-121204761D01*
X126447047Y-121252380D01*
X126542285Y-121252380D01*
X126685142Y-121204761D01*
X126780380Y-121109523D01*
X126828000Y-121014285D01*
X126875619Y-120823809D01*
X126875619Y-120680952D01*
X126828000Y-120490476D01*
X126780380Y-120395238D01*
X126685142Y-120300000D01*
X126542285Y-120252380D01*
X126447047Y-120252380D01*
X126304190Y-120300000D01*
X126256571Y-120347619D01*
X125923238Y-121633333D02*
X125875619Y-121585714D01*
X125780380Y-121442857D01*
X125732761Y-121347619D01*
X125685142Y-121204761D01*
X125637523Y-120966666D01*
X125637523Y-120776190D01*
X125685142Y-120538095D01*
X125732761Y-120395238D01*
X125780380Y-120300000D01*
X125875619Y-120157142D01*
X125923238Y-120109523D01*
X124447047Y-120347619D02*
X124399428Y-120300000D01*
X124304190Y-120252380D01*
X124066095Y-120252380D01*
X123970857Y-120300000D01*
X123923238Y-120347619D01*
X123875619Y-120442857D01*
X123875619Y-120538095D01*
X123923238Y-120680952D01*
X124494666Y-121252380D01*
X123875619Y-121252380D01*
X123256571Y-120252380D02*
X123161333Y-120252380D01*
X123066095Y-120300000D01*
X123018476Y-120347619D01*
X122970857Y-120442857D01*
X122923238Y-120633333D01*
X122923238Y-120871428D01*
X122970857Y-121061904D01*
X123018476Y-121157142D01*
X123066095Y-121204761D01*
X123161333Y-121252380D01*
X123256571Y-121252380D01*
X123351809Y-121204761D01*
X123399428Y-121157142D01*
X123447047Y-121061904D01*
X123494666Y-120871428D01*
X123494666Y-120633333D01*
X123447047Y-120442857D01*
X123399428Y-120347619D01*
X123351809Y-120300000D01*
X123256571Y-120252380D01*
X122542285Y-120347619D02*
X122494666Y-120300000D01*
X122399428Y-120252380D01*
X122161333Y-120252380D01*
X122066095Y-120300000D01*
X122018476Y-120347619D01*
X121970857Y-120442857D01*
X121970857Y-120538095D01*
X122018476Y-120680952D01*
X122589904Y-121252380D01*
X121970857Y-121252380D01*
X121018476Y-121252380D02*
X121589904Y-121252380D01*
X121304190Y-121252380D02*
X121304190Y-120252380D01*
X121399428Y-120395238D01*
X121494666Y-120490476D01*
X121589904Y-120538095D01*
X119256571Y-121252380D02*
X119589904Y-120776190D01*
X119828000Y-121252380D02*
X119828000Y-120252380D01*
X119447047Y-120252380D01*
X119351809Y-120300000D01*
X119304190Y-120347619D01*
X119256571Y-120442857D01*
X119256571Y-120585714D01*
X119304190Y-120680952D01*
X119351809Y-120728571D01*
X119447047Y-120776190D01*
X119828000Y-120776190D01*
X118828000Y-121252380D02*
X118828000Y-120585714D01*
X118828000Y-120252380D02*
X118875619Y-120300000D01*
X118828000Y-120347619D01*
X118780380Y-120300000D01*
X118828000Y-120252380D01*
X118828000Y-120347619D01*
X117923238Y-121204761D02*
X118018476Y-121252380D01*
X118208952Y-121252380D01*
X118304190Y-121204761D01*
X118351809Y-121157142D01*
X118399428Y-121061904D01*
X118399428Y-120776190D01*
X118351809Y-120680952D01*
X118304190Y-120633333D01*
X118208952Y-120585714D01*
X118018476Y-120585714D01*
X117923238Y-120633333D01*
X117066095Y-121252380D02*
X117066095Y-120728571D01*
X117113714Y-120633333D01*
X117208952Y-120585714D01*
X117399428Y-120585714D01*
X117494666Y-120633333D01*
X117066095Y-121204761D02*
X117161333Y-121252380D01*
X117399428Y-121252380D01*
X117494666Y-121204761D01*
X117542285Y-121109523D01*
X117542285Y-121014285D01*
X117494666Y-120919047D01*
X117399428Y-120871428D01*
X117161333Y-120871428D01*
X117066095Y-120823809D01*
X116589904Y-121252380D02*
X116589904Y-120585714D01*
X116589904Y-120776190D02*
X116542285Y-120680952D01*
X116494666Y-120633333D01*
X116399428Y-120585714D01*
X116304190Y-120585714D01*
X115542285Y-121252380D02*
X115542285Y-120252380D01*
X115542285Y-121204761D02*
X115637523Y-121252380D01*
X115828000Y-121252380D01*
X115923238Y-121204761D01*
X115970857Y-121157142D01*
X116018476Y-121061904D01*
X116018476Y-120776190D01*
X115970857Y-120680952D01*
X115923238Y-120633333D01*
X115828000Y-120585714D01*
X115637523Y-120585714D01*
X115542285Y-120633333D01*
X114923238Y-121252380D02*
X115018476Y-121204761D01*
X115066095Y-121157142D01*
X115113714Y-121061904D01*
X115113714Y-120776190D01*
X115066095Y-120680952D01*
X115018476Y-120633333D01*
X114923238Y-120585714D01*
X114780380Y-120585714D01*
X114685142Y-120633333D01*
X114637523Y-120680952D01*
X114589904Y-120776190D01*
X114589904Y-121061904D01*
X114637523Y-121157142D01*
X114685142Y-121204761D01*
X114780380Y-121252380D01*
X114923238Y-121252380D01*
X112875619Y-120300000D02*
X112970857Y-120252380D01*
X113113714Y-120252380D01*
X113256571Y-120300000D01*
X113351809Y-120395238D01*
X113399428Y-120490476D01*
X113447047Y-120680952D01*
X113447047Y-120823809D01*
X113399428Y-121014285D01*
X113351809Y-121109523D01*
X113256571Y-121204761D01*
X113113714Y-121252380D01*
X113018476Y-121252380D01*
X112875619Y-121204761D01*
X112828000Y-121157142D01*
X112828000Y-120823809D01*
X113018476Y-120823809D01*
X112256571Y-121252380D02*
X112351809Y-121204761D01*
X112399428Y-121157142D01*
X112447047Y-121061904D01*
X112447047Y-120776190D01*
X112399428Y-120680952D01*
X112351809Y-120633333D01*
X112256571Y-120585714D01*
X112113714Y-120585714D01*
X112018476Y-120633333D01*
X111970857Y-120680952D01*
X111923238Y-120776190D01*
X111923238Y-121061904D01*
X111970857Y-121157142D01*
X112018476Y-121204761D01*
X112113714Y-121252380D01*
X112256571Y-121252380D01*
X111494666Y-120585714D02*
X111494666Y-121252380D01*
X111494666Y-120680952D02*
X111447047Y-120633333D01*
X111351809Y-120585714D01*
X111208952Y-120585714D01*
X111113714Y-120633333D01*
X111066095Y-120728571D01*
X111066095Y-121252380D01*
X110161333Y-121204761D02*
X110256571Y-121252380D01*
X110447047Y-121252380D01*
X110542285Y-121204761D01*
X110589904Y-121157142D01*
X110637523Y-121061904D01*
X110637523Y-120776190D01*
X110589904Y-120680952D01*
X110542285Y-120633333D01*
X110447047Y-120585714D01*
X110256571Y-120585714D01*
X110161333Y-120633333D01*
X109304190Y-121252380D02*
X109304190Y-120728571D01*
X109351809Y-120633333D01*
X109447047Y-120585714D01*
X109637523Y-120585714D01*
X109732761Y-120633333D01*
X109304190Y-121204761D02*
X109399428Y-121252380D01*
X109637523Y-121252380D01*
X109732761Y-121204761D01*
X109780380Y-121109523D01*
X109780380Y-121014285D01*
X109732761Y-120919047D01*
X109637523Y-120871428D01*
X109399428Y-120871428D01*
X109304190Y-120823809D01*
X108685142Y-121252380D02*
X108780380Y-121204761D01*
X108828000Y-121109523D01*
X108828000Y-120252380D01*
X108399428Y-120585714D02*
X108161333Y-121252380D01*
X107923238Y-120585714D01*
X107161333Y-121204761D02*
X107256571Y-121252380D01*
X107447047Y-121252380D01*
X107542285Y-121204761D01*
X107589904Y-121109523D01*
X107589904Y-120728571D01*
X107542285Y-120633333D01*
X107447047Y-120585714D01*
X107256571Y-120585714D01*
X107161333Y-120633333D01*
X107113714Y-120728571D01*
X107113714Y-120823809D01*
X107589904Y-120919047D01*
X106732761Y-121204761D02*
X106637523Y-121252380D01*
X106447047Y-121252380D01*
X106351809Y-121204761D01*
X106304190Y-121109523D01*
X106304190Y-121061904D01*
X106351809Y-120966666D01*
X106447047Y-120919047D01*
X106589904Y-120919047D01*
X106685142Y-120871428D01*
X106732761Y-120776190D01*
X106732761Y-120728571D01*
X106685142Y-120633333D01*
X106589904Y-120585714D01*
X106447047Y-120585714D01*
X106351809Y-120633333D01*
D11*
X149466571Y-113414142D02*
X150609428Y-113414142D01*
X150038000Y-113985571D02*
X150038000Y-112842714D01*
X149339571Y-115700142D02*
X150482428Y-115700142D01*
D10*
X113804438Y-122228804D02*
X113804438Y-122800233D01*
X113842533Y-122914519D01*
X113918723Y-122990709D01*
X114033009Y-123028804D01*
X114109200Y-123028804D01*
X113042533Y-123028804D02*
X113423485Y-123028804D01*
X113423485Y-122228804D01*
X112318723Y-122952614D02*
X112356819Y-122990709D01*
X112471104Y-123028804D01*
X112547295Y-123028804D01*
X112661580Y-122990709D01*
X112737771Y-122914519D01*
X112775866Y-122838328D01*
X112813961Y-122685947D01*
X112813961Y-122571661D01*
X112775866Y-122419280D01*
X112737771Y-122343090D01*
X112661580Y-122266900D01*
X112547295Y-122228804D01*
X112471104Y-122228804D01*
X112356819Y-122266900D01*
X112318723Y-122304995D01*
X111747295Y-122228804D02*
X111747295Y-122800233D01*
X111785390Y-122914519D01*
X111861580Y-122990709D01*
X111975866Y-123028804D01*
X112052057Y-123028804D01*
X110985390Y-123028804D02*
X111366342Y-123028804D01*
X111366342Y-122228804D01*
X110261580Y-122952614D02*
X110299676Y-122990709D01*
X110413961Y-123028804D01*
X110490152Y-123028804D01*
X110604438Y-122990709D01*
X110680628Y-122914519D01*
X110718723Y-122838328D01*
X110756819Y-122685947D01*
X110756819Y-122571661D01*
X110718723Y-122419280D01*
X110680628Y-122343090D01*
X110604438Y-122266900D01*
X110490152Y-122228804D01*
X110413961Y-122228804D01*
X110299676Y-122266900D01*
X110261580Y-122304995D01*
X109690152Y-122228804D02*
X109690152Y-122800233D01*
X109728247Y-122914519D01*
X109804438Y-122990709D01*
X109918723Y-123028804D01*
X109994914Y-123028804D01*
X108928247Y-123028804D02*
X109309200Y-123028804D01*
X109309200Y-122228804D01*
X108204438Y-122952614D02*
X108242533Y-122990709D01*
X108356819Y-123028804D01*
X108433009Y-123028804D01*
X108547295Y-122990709D01*
X108623485Y-122914519D01*
X108661580Y-122838328D01*
X108699676Y-122685947D01*
X108699676Y-122571661D01*
X108661580Y-122419280D01*
X108623485Y-122343090D01*
X108547295Y-122266900D01*
X108433009Y-122228804D01*
X108356819Y-122228804D01*
X108242533Y-122266900D01*
X108204438Y-122304995D01*
X107633009Y-122228804D02*
X107633009Y-122800233D01*
X107671104Y-122914519D01*
X107747295Y-122990709D01*
X107861580Y-123028804D01*
X107937771Y-123028804D01*
X106871104Y-123028804D02*
X107252057Y-123028804D01*
X107252057Y-122228804D01*
X106147295Y-122952614D02*
X106185390Y-122990709D01*
X106299676Y-123028804D01*
X106375866Y-123028804D01*
X106490152Y-122990709D01*
X106566342Y-122914519D01*
X106604438Y-122838328D01*
X106642533Y-122685947D01*
X106642533Y-122571661D01*
X106604438Y-122419280D01*
X106566342Y-122343090D01*
X106490152Y-122266900D01*
X106375866Y-122228804D01*
X106299676Y-122228804D01*
X106185390Y-122266900D01*
X106147295Y-122304995D01*
D12*
%TO.C,REF\u002A\u002A*%
G36*
X110929036Y-74018576D02*
G01*
X110853487Y-74419322D01*
X110295959Y-74649154D01*
X109961535Y-74421748D01*
X109867878Y-74358431D01*
X109783218Y-74301896D01*
X109711505Y-74254727D01*
X109656689Y-74219502D01*
X109622720Y-74198805D01*
X109613470Y-74194342D01*
X109596805Y-74205820D01*
X109561194Y-74237551D01*
X109510629Y-74285483D01*
X109449100Y-74345562D01*
X109380601Y-74413733D01*
X109309121Y-74485945D01*
X109238653Y-74558142D01*
X109173189Y-74626273D01*
X109116720Y-74686283D01*
X109073237Y-74734119D01*
X109046732Y-74765727D01*
X109040395Y-74776305D01*
X109049514Y-74795806D01*
X109075080Y-74838531D01*
X109114403Y-74900298D01*
X109164797Y-74976931D01*
X109223573Y-75064248D01*
X109257632Y-75114052D01*
X109319711Y-75204993D01*
X109374874Y-75287059D01*
X109420446Y-75356163D01*
X109453750Y-75408222D01*
X109472110Y-75439150D01*
X109474869Y-75445650D01*
X109468615Y-75464121D01*
X109451566Y-75507172D01*
X109426297Y-75568749D01*
X109395378Y-75642799D01*
X109361382Y-75723270D01*
X109326882Y-75804107D01*
X109294449Y-75879258D01*
X109266657Y-75942671D01*
X109246077Y-75988293D01*
X109235281Y-76010069D01*
X109234644Y-76010926D01*
X109217693Y-76015084D01*
X109172549Y-76024361D01*
X109103890Y-76037844D01*
X109016398Y-76054621D01*
X108914750Y-76073781D01*
X108855444Y-76084830D01*
X108746828Y-76105510D01*
X108648723Y-76125189D01*
X108566091Y-76142789D01*
X108503896Y-76157233D01*
X108467101Y-76167446D01*
X108459704Y-76170686D01*
X108452460Y-76192617D01*
X108446615Y-76242147D01*
X108442165Y-76313485D01*
X108439107Y-76400839D01*
X108437435Y-76498417D01*
X108437147Y-76600426D01*
X108438239Y-76701075D01*
X108440706Y-76794572D01*
X108444544Y-76875125D01*
X108449750Y-76936942D01*
X108456319Y-76974230D01*
X108460259Y-76981993D01*
X108483812Y-76991298D01*
X108533718Y-77004600D01*
X108603377Y-77020337D01*
X108686187Y-77036946D01*
X108715095Y-77042319D01*
X108854469Y-77067848D01*
X108964564Y-77088408D01*
X109049018Y-77104815D01*
X109111470Y-77117887D01*
X109155556Y-77128441D01*
X109184915Y-77137294D01*
X109203185Y-77145263D01*
X109214002Y-77153165D01*
X109215515Y-77154727D01*
X109230623Y-77179886D01*
X109253671Y-77228850D01*
X109282356Y-77295621D01*
X109314378Y-77374205D01*
X109347435Y-77458607D01*
X109379227Y-77542830D01*
X109407451Y-77620879D01*
X109429807Y-77686759D01*
X109443993Y-77734473D01*
X109447707Y-77758027D01*
X109447398Y-77758852D01*
X109434811Y-77778104D01*
X109406256Y-77820463D01*
X109364733Y-77881521D01*
X109313244Y-77956868D01*
X109254789Y-78042096D01*
X109238142Y-78066315D01*
X109178785Y-78154123D01*
X109126553Y-78234238D01*
X109084292Y-78302062D01*
X109054847Y-78352993D01*
X109041063Y-78382431D01*
X109040395Y-78386048D01*
X109051976Y-78405057D01*
X109083976Y-78442714D01*
X109132282Y-78494973D01*
X109192780Y-78557786D01*
X109261356Y-78627106D01*
X109333896Y-78698885D01*
X109406288Y-78769077D01*
X109474416Y-78833635D01*
X109534168Y-78888510D01*
X109581429Y-78929656D01*
X109612087Y-78953026D01*
X109620568Y-78956842D01*
X109640309Y-78947855D01*
X109680726Y-78923616D01*
X109735237Y-78888209D01*
X109777177Y-78859711D01*
X109853171Y-78807418D01*
X109943166Y-78745845D01*
X110033436Y-78684370D01*
X110081968Y-78651469D01*
X110246238Y-78540359D01*
X110384131Y-78614916D01*
X110446951Y-78647578D01*
X110500371Y-78672966D01*
X110536516Y-78687446D01*
X110545716Y-78689460D01*
X110556779Y-78674584D01*
X110578606Y-78632547D01*
X110609566Y-78567227D01*
X110648030Y-78482500D01*
X110692368Y-78382245D01*
X110740953Y-78270339D01*
X110792154Y-78150659D01*
X110844341Y-78027084D01*
X110895887Y-77903491D01*
X110945160Y-77783757D01*
X110990533Y-77671759D01*
X111030375Y-77571377D01*
X111063058Y-77486486D01*
X111086951Y-77420965D01*
X111100426Y-77378690D01*
X111102594Y-77364172D01*
X111085417Y-77345653D01*
X111047810Y-77315590D01*
X110997634Y-77280232D01*
X110993422Y-77277434D01*
X110863736Y-77173625D01*
X110759166Y-77052515D01*
X110680619Y-76917976D01*
X110629001Y-76773882D01*
X110605218Y-76624105D01*
X110610177Y-76472517D01*
X110644783Y-76322992D01*
X110709943Y-76179400D01*
X110729114Y-76147984D01*
X110828826Y-76021125D01*
X110946623Y-75919255D01*
X111078429Y-75842904D01*
X111220167Y-75792602D01*
X111367758Y-75768879D01*
X111517127Y-75772265D01*
X111664197Y-75803288D01*
X111804889Y-75862480D01*
X111935127Y-75950369D01*
X111975414Y-75986042D01*
X112077945Y-76097706D01*
X112152659Y-76215257D01*
X112203910Y-76347020D01*
X112232454Y-76477507D01*
X112239500Y-76624216D01*
X112216004Y-76771653D01*
X112164351Y-76914834D01*
X112086929Y-77048777D01*
X111986125Y-77168498D01*
X111864324Y-77269014D01*
X111848316Y-77279609D01*
X111797602Y-77314306D01*
X111759050Y-77344370D01*
X111740619Y-77363565D01*
X111740351Y-77364172D01*
X111744308Y-77384936D01*
X111759993Y-77432062D01*
X111785778Y-77501673D01*
X111820031Y-77589893D01*
X111861123Y-77692844D01*
X111907424Y-77806650D01*
X111957304Y-77927435D01*
X112009133Y-78051321D01*
X112061281Y-78174432D01*
X112112118Y-78292891D01*
X112160013Y-78402823D01*
X112203338Y-78500349D01*
X112240462Y-78581593D01*
X112269756Y-78642679D01*
X112289588Y-78679730D01*
X112297574Y-78689460D01*
X112321979Y-78681883D01*
X112367642Y-78661560D01*
X112426690Y-78632125D01*
X112459160Y-78614916D01*
X112597053Y-78540359D01*
X112761323Y-78651469D01*
X112845179Y-78708390D01*
X112936987Y-78771030D01*
X113023020Y-78830011D01*
X113066113Y-78859711D01*
X113126723Y-78900410D01*
X113178045Y-78932663D01*
X113213385Y-78952384D01*
X113224863Y-78956554D01*
X113241570Y-78945307D01*
X113278546Y-78913911D01*
X113332205Y-78865624D01*
X113398962Y-78803708D01*
X113475234Y-78731421D01*
X113523473Y-78685008D01*
X113607867Y-78602087D01*
X113680803Y-78527920D01*
X113739331Y-78465680D01*
X113780503Y-78418541D01*
X113801372Y-78389673D01*
X113803374Y-78383815D01*
X113794083Y-78361532D01*
X113768409Y-78316477D01*
X113729200Y-78253211D01*
X113679303Y-78176295D01*
X113621567Y-78090292D01*
X113605149Y-78066315D01*
X113545323Y-77979170D01*
X113491650Y-77900710D01*
X113447130Y-77835345D01*
X113414765Y-77787484D01*
X113397555Y-77761535D01*
X113395893Y-77758852D01*
X113398379Y-77738172D01*
X113411577Y-77692704D01*
X113433186Y-77628444D01*
X113460904Y-77551387D01*
X113492430Y-77467529D01*
X113525463Y-77382866D01*
X113557701Y-77303392D01*
X113586843Y-77235104D01*
X113610588Y-77183997D01*
X113626635Y-77156067D01*
X113627775Y-77154727D01*
X113637588Y-77146745D01*
X113654161Y-77138851D01*
X113681132Y-77130229D01*
X113722139Y-77120062D01*
X113780820Y-77107531D01*
X113860813Y-77091821D01*
X113965755Y-77072113D01*
X114099285Y-77047592D01*
X114128196Y-77042319D01*
X114213882Y-77025764D01*
X114288582Y-77009569D01*
X114345694Y-76995296D01*
X114378617Y-76984508D01*
X114383031Y-76981993D01*
X114390306Y-76959696D01*
X114396219Y-76909869D01*
X114400766Y-76838304D01*
X114403945Y-76750793D01*
X114405749Y-76653128D01*
X114406177Y-76551101D01*
X114405223Y-76450503D01*
X114402884Y-76357127D01*
X114399156Y-76276765D01*
X114394034Y-76215209D01*
X114387516Y-76178250D01*
X114383586Y-76170686D01*
X114361708Y-76163056D01*
X114311891Y-76150642D01*
X114239097Y-76134522D01*
X114148289Y-76115773D01*
X114044431Y-76095471D01*
X113987846Y-76084830D01*
X113880486Y-76064760D01*
X113784746Y-76046580D01*
X113705306Y-76031199D01*
X113646846Y-76019531D01*
X113614045Y-76012488D01*
X113608646Y-76010926D01*
X113599522Y-75993322D01*
X113580235Y-75950918D01*
X113553355Y-75889772D01*
X113521454Y-75815943D01*
X113487102Y-75735489D01*
X113452871Y-75654468D01*
X113421331Y-75578937D01*
X113395054Y-75514955D01*
X113376611Y-75468580D01*
X113368571Y-75445869D01*
X113368422Y-75444876D01*
X113377535Y-75426961D01*
X113403086Y-75385733D01*
X113442388Y-75325291D01*
X113492757Y-75249731D01*
X113551506Y-75163152D01*
X113585658Y-75113421D01*
X113647890Y-75022236D01*
X113703164Y-74939449D01*
X113748782Y-74869249D01*
X113782048Y-74815824D01*
X113800264Y-74783361D01*
X113802895Y-74776083D01*
X113791586Y-74759145D01*
X113760319Y-74722978D01*
X113713090Y-74671635D01*
X113653892Y-74609167D01*
X113586719Y-74539626D01*
X113515566Y-74467065D01*
X113444426Y-74395535D01*
X113377293Y-74329087D01*
X113318161Y-74271774D01*
X113271025Y-74227647D01*
X113239877Y-74200759D01*
X113229457Y-74194342D01*
X113212491Y-74203365D01*
X113171911Y-74228715D01*
X113111663Y-74267810D01*
X113035693Y-74318071D01*
X112947946Y-74376917D01*
X112881756Y-74421748D01*
X112547332Y-74649154D01*
X112268567Y-74534238D01*
X111989803Y-74419322D01*
X111914254Y-74018576D01*
X111838706Y-73617829D01*
X111004585Y-73617829D01*
X110929036Y-74018576D01*
G37*
X110929036Y-74018576D02*
X110853487Y-74419322D01*
X110295959Y-74649154D01*
X109961535Y-74421748D01*
X109867878Y-74358431D01*
X109783218Y-74301896D01*
X109711505Y-74254727D01*
X109656689Y-74219502D01*
X109622720Y-74198805D01*
X109613470Y-74194342D01*
X109596805Y-74205820D01*
X109561194Y-74237551D01*
X109510629Y-74285483D01*
X109449100Y-74345562D01*
X109380601Y-74413733D01*
X109309121Y-74485945D01*
X109238653Y-74558142D01*
X109173189Y-74626273D01*
X109116720Y-74686283D01*
X109073237Y-74734119D01*
X109046732Y-74765727D01*
X109040395Y-74776305D01*
X109049514Y-74795806D01*
X109075080Y-74838531D01*
X109114403Y-74900298D01*
X109164797Y-74976931D01*
X109223573Y-75064248D01*
X109257632Y-75114052D01*
X109319711Y-75204993D01*
X109374874Y-75287059D01*
X109420446Y-75356163D01*
X109453750Y-75408222D01*
X109472110Y-75439150D01*
X109474869Y-75445650D01*
X109468615Y-75464121D01*
X109451566Y-75507172D01*
X109426297Y-75568749D01*
X109395378Y-75642799D01*
X109361382Y-75723270D01*
X109326882Y-75804107D01*
X109294449Y-75879258D01*
X109266657Y-75942671D01*
X109246077Y-75988293D01*
X109235281Y-76010069D01*
X109234644Y-76010926D01*
X109217693Y-76015084D01*
X109172549Y-76024361D01*
X109103890Y-76037844D01*
X109016398Y-76054621D01*
X108914750Y-76073781D01*
X108855444Y-76084830D01*
X108746828Y-76105510D01*
X108648723Y-76125189D01*
X108566091Y-76142789D01*
X108503896Y-76157233D01*
X108467101Y-76167446D01*
X108459704Y-76170686D01*
X108452460Y-76192617D01*
X108446615Y-76242147D01*
X108442165Y-76313485D01*
X108439107Y-76400839D01*
X108437435Y-76498417D01*
X108437147Y-76600426D01*
X108438239Y-76701075D01*
X108440706Y-76794572D01*
X108444544Y-76875125D01*
X108449750Y-76936942D01*
X108456319Y-76974230D01*
X108460259Y-76981993D01*
X108483812Y-76991298D01*
X108533718Y-77004600D01*
X108603377Y-77020337D01*
X108686187Y-77036946D01*
X108715095Y-77042319D01*
X108854469Y-77067848D01*
X108964564Y-77088408D01*
X109049018Y-77104815D01*
X109111470Y-77117887D01*
X109155556Y-77128441D01*
X109184915Y-77137294D01*
X109203185Y-77145263D01*
X109214002Y-77153165D01*
X109215515Y-77154727D01*
X109230623Y-77179886D01*
X109253671Y-77228850D01*
X109282356Y-77295621D01*
X109314378Y-77374205D01*
X109347435Y-77458607D01*
X109379227Y-77542830D01*
X109407451Y-77620879D01*
X109429807Y-77686759D01*
X109443993Y-77734473D01*
X109447707Y-77758027D01*
X109447398Y-77758852D01*
X109434811Y-77778104D01*
X109406256Y-77820463D01*
X109364733Y-77881521D01*
X109313244Y-77956868D01*
X109254789Y-78042096D01*
X109238142Y-78066315D01*
X109178785Y-78154123D01*
X109126553Y-78234238D01*
X109084292Y-78302062D01*
X109054847Y-78352993D01*
X109041063Y-78382431D01*
X109040395Y-78386048D01*
X109051976Y-78405057D01*
X109083976Y-78442714D01*
X109132282Y-78494973D01*
X109192780Y-78557786D01*
X109261356Y-78627106D01*
X109333896Y-78698885D01*
X109406288Y-78769077D01*
X109474416Y-78833635D01*
X109534168Y-78888510D01*
X109581429Y-78929656D01*
X109612087Y-78953026D01*
X109620568Y-78956842D01*
X109640309Y-78947855D01*
X109680726Y-78923616D01*
X109735237Y-78888209D01*
X109777177Y-78859711D01*
X109853171Y-78807418D01*
X109943166Y-78745845D01*
X110033436Y-78684370D01*
X110081968Y-78651469D01*
X110246238Y-78540359D01*
X110384131Y-78614916D01*
X110446951Y-78647578D01*
X110500371Y-78672966D01*
X110536516Y-78687446D01*
X110545716Y-78689460D01*
X110556779Y-78674584D01*
X110578606Y-78632547D01*
X110609566Y-78567227D01*
X110648030Y-78482500D01*
X110692368Y-78382245D01*
X110740953Y-78270339D01*
X110792154Y-78150659D01*
X110844341Y-78027084D01*
X110895887Y-77903491D01*
X110945160Y-77783757D01*
X110990533Y-77671759D01*
X111030375Y-77571377D01*
X111063058Y-77486486D01*
X111086951Y-77420965D01*
X111100426Y-77378690D01*
X111102594Y-77364172D01*
X111085417Y-77345653D01*
X111047810Y-77315590D01*
X110997634Y-77280232D01*
X110993422Y-77277434D01*
X110863736Y-77173625D01*
X110759166Y-77052515D01*
X110680619Y-76917976D01*
X110629001Y-76773882D01*
X110605218Y-76624105D01*
X110610177Y-76472517D01*
X110644783Y-76322992D01*
X110709943Y-76179400D01*
X110729114Y-76147984D01*
X110828826Y-76021125D01*
X110946623Y-75919255D01*
X111078429Y-75842904D01*
X111220167Y-75792602D01*
X111367758Y-75768879D01*
X111517127Y-75772265D01*
X111664197Y-75803288D01*
X111804889Y-75862480D01*
X111935127Y-75950369D01*
X111975414Y-75986042D01*
X112077945Y-76097706D01*
X112152659Y-76215257D01*
X112203910Y-76347020D01*
X112232454Y-76477507D01*
X112239500Y-76624216D01*
X112216004Y-76771653D01*
X112164351Y-76914834D01*
X112086929Y-77048777D01*
X111986125Y-77168498D01*
X111864324Y-77269014D01*
X111848316Y-77279609D01*
X111797602Y-77314306D01*
X111759050Y-77344370D01*
X111740619Y-77363565D01*
X111740351Y-77364172D01*
X111744308Y-77384936D01*
X111759993Y-77432062D01*
X111785778Y-77501673D01*
X111820031Y-77589893D01*
X111861123Y-77692844D01*
X111907424Y-77806650D01*
X111957304Y-77927435D01*
X112009133Y-78051321D01*
X112061281Y-78174432D01*
X112112118Y-78292891D01*
X112160013Y-78402823D01*
X112203338Y-78500349D01*
X112240462Y-78581593D01*
X112269756Y-78642679D01*
X112289588Y-78679730D01*
X112297574Y-78689460D01*
X112321979Y-78681883D01*
X112367642Y-78661560D01*
X112426690Y-78632125D01*
X112459160Y-78614916D01*
X112597053Y-78540359D01*
X112761323Y-78651469D01*
X112845179Y-78708390D01*
X112936987Y-78771030D01*
X113023020Y-78830011D01*
X113066113Y-78859711D01*
X113126723Y-78900410D01*
X113178045Y-78932663D01*
X113213385Y-78952384D01*
X113224863Y-78956554D01*
X113241570Y-78945307D01*
X113278546Y-78913911D01*
X113332205Y-78865624D01*
X113398962Y-78803708D01*
X113475234Y-78731421D01*
X113523473Y-78685008D01*
X113607867Y-78602087D01*
X113680803Y-78527920D01*
X113739331Y-78465680D01*
X113780503Y-78418541D01*
X113801372Y-78389673D01*
X113803374Y-78383815D01*
X113794083Y-78361532D01*
X113768409Y-78316477D01*
X113729200Y-78253211D01*
X113679303Y-78176295D01*
X113621567Y-78090292D01*
X113605149Y-78066315D01*
X113545323Y-77979170D01*
X113491650Y-77900710D01*
X113447130Y-77835345D01*
X113414765Y-77787484D01*
X113397555Y-77761535D01*
X113395893Y-77758852D01*
X113398379Y-77738172D01*
X113411577Y-77692704D01*
X113433186Y-77628444D01*
X113460904Y-77551387D01*
X113492430Y-77467529D01*
X113525463Y-77382866D01*
X113557701Y-77303392D01*
X113586843Y-77235104D01*
X113610588Y-77183997D01*
X113626635Y-77156067D01*
X113627775Y-77154727D01*
X113637588Y-77146745D01*
X113654161Y-77138851D01*
X113681132Y-77130229D01*
X113722139Y-77120062D01*
X113780820Y-77107531D01*
X113860813Y-77091821D01*
X113965755Y-77072113D01*
X114099285Y-77047592D01*
X114128196Y-77042319D01*
X114213882Y-77025764D01*
X114288582Y-77009569D01*
X114345694Y-76995296D01*
X114378617Y-76984508D01*
X114383031Y-76981993D01*
X114390306Y-76959696D01*
X114396219Y-76909869D01*
X114400766Y-76838304D01*
X114403945Y-76750793D01*
X114405749Y-76653128D01*
X114406177Y-76551101D01*
X114405223Y-76450503D01*
X114402884Y-76357127D01*
X114399156Y-76276765D01*
X114394034Y-76215209D01*
X114387516Y-76178250D01*
X114383586Y-76170686D01*
X114361708Y-76163056D01*
X114311891Y-76150642D01*
X114239097Y-76134522D01*
X114148289Y-76115773D01*
X114044431Y-76095471D01*
X113987846Y-76084830D01*
X113880486Y-76064760D01*
X113784746Y-76046580D01*
X113705306Y-76031199D01*
X113646846Y-76019531D01*
X113614045Y-76012488D01*
X113608646Y-76010926D01*
X113599522Y-75993322D01*
X113580235Y-75950918D01*
X113553355Y-75889772D01*
X113521454Y-75815943D01*
X113487102Y-75735489D01*
X113452871Y-75654468D01*
X113421331Y-75578937D01*
X113395054Y-75514955D01*
X113376611Y-75468580D01*
X113368571Y-75445869D01*
X113368422Y-75444876D01*
X113377535Y-75426961D01*
X113403086Y-75385733D01*
X113442388Y-75325291D01*
X113492757Y-75249731D01*
X113551506Y-75163152D01*
X113585658Y-75113421D01*
X113647890Y-75022236D01*
X113703164Y-74939449D01*
X113748782Y-74869249D01*
X113782048Y-74815824D01*
X113800264Y-74783361D01*
X113802895Y-74776083D01*
X113791586Y-74759145D01*
X113760319Y-74722978D01*
X113713090Y-74671635D01*
X113653892Y-74609167D01*
X113586719Y-74539626D01*
X113515566Y-74467065D01*
X113444426Y-74395535D01*
X113377293Y-74329087D01*
X113318161Y-74271774D01*
X113271025Y-74227647D01*
X113239877Y-74200759D01*
X113229457Y-74194342D01*
X113212491Y-74203365D01*
X113171911Y-74228715D01*
X113111663Y-74267810D01*
X113035693Y-74318071D01*
X112947946Y-74376917D01*
X112881756Y-74421748D01*
X112547332Y-74649154D01*
X112268567Y-74534238D01*
X111989803Y-74419322D01*
X111914254Y-74018576D01*
X111838706Y-73617829D01*
X111004585Y-73617829D01*
X110929036Y-74018576D01*
G36*
X109038612Y-79557645D02*
G01*
X108981135Y-79575206D01*
X108944128Y-79597395D01*
X108932073Y-79614942D01*
X108935391Y-79635742D01*
X108956921Y-79668419D01*
X108975126Y-79691562D01*
X109012656Y-79733402D01*
X109040852Y-79751005D01*
X109064889Y-79749856D01*
X109136192Y-79731710D01*
X109188558Y-79732534D01*
X109231082Y-79753098D01*
X109245358Y-79765134D01*
X109291053Y-79807483D01*
X109291053Y-80360526D01*
X109474869Y-80360526D01*
X109474869Y-79558421D01*
X109382961Y-79558421D01*
X109327781Y-79560603D01*
X109299312Y-79568351D01*
X109291057Y-79583468D01*
X109291053Y-79583916D01*
X109287155Y-79599749D01*
X109269526Y-79597684D01*
X109245099Y-79586261D01*
X109194650Y-79565005D01*
X109153684Y-79552216D01*
X109100972Y-79548938D01*
X109038612Y-79557645D01*
G37*
X109038612Y-79557645D02*
X108981135Y-79575206D01*
X108944128Y-79597395D01*
X108932073Y-79614942D01*
X108935391Y-79635742D01*
X108956921Y-79668419D01*
X108975126Y-79691562D01*
X109012656Y-79733402D01*
X109040852Y-79751005D01*
X109064889Y-79749856D01*
X109136192Y-79731710D01*
X109188558Y-79732534D01*
X109231082Y-79753098D01*
X109245358Y-79765134D01*
X109291053Y-79807483D01*
X109291053Y-80360526D01*
X109474869Y-80360526D01*
X109474869Y-79558421D01*
X109382961Y-79558421D01*
X109327781Y-79560603D01*
X109299312Y-79568351D01*
X109291057Y-79583468D01*
X109291053Y-79583916D01*
X109287155Y-79599749D01*
X109269526Y-79597684D01*
X109245099Y-79586261D01*
X109194650Y-79565005D01*
X109153684Y-79552216D01*
X109100972Y-79548938D01*
X109038612Y-79557645D01*
G36*
X112432043Y-79572226D02*
G01*
X112390454Y-79592090D01*
X112350175Y-79620784D01*
X112319490Y-79653809D01*
X112297139Y-79695931D01*
X112281864Y-79751915D01*
X112272408Y-79826528D01*
X112267513Y-79924535D01*
X112265919Y-80050702D01*
X112265894Y-80063914D01*
X112265527Y-80360526D01*
X112449343Y-80360526D01*
X112449343Y-80087081D01*
X112449473Y-79985777D01*
X112450379Y-79912353D01*
X112452827Y-79861271D01*
X112457586Y-79826990D01*
X112465426Y-79803971D01*
X112477115Y-79786673D01*
X112493398Y-79769581D01*
X112550366Y-79732857D01*
X112612555Y-79726042D01*
X112671801Y-79749261D01*
X112692405Y-79766543D01*
X112707530Y-79782791D01*
X112718390Y-79800191D01*
X112725690Y-79824212D01*
X112730137Y-79860322D01*
X112732436Y-79913988D01*
X112733296Y-79990680D01*
X112733422Y-80084043D01*
X112733422Y-80360526D01*
X112917237Y-80360526D01*
X112917237Y-79558421D01*
X112825329Y-79558421D01*
X112770149Y-79560603D01*
X112741680Y-79568351D01*
X112733425Y-79583468D01*
X112733422Y-79583916D01*
X112729592Y-79598720D01*
X112712699Y-79597040D01*
X112679112Y-79580773D01*
X112602937Y-79556840D01*
X112515800Y-79554178D01*
X112432043Y-79572226D01*
G37*
X112432043Y-79572226D02*
X112390454Y-79592090D01*
X112350175Y-79620784D01*
X112319490Y-79653809D01*
X112297139Y-79695931D01*
X112281864Y-79751915D01*
X112272408Y-79826528D01*
X112267513Y-79924535D01*
X112265919Y-80050702D01*
X112265894Y-80063914D01*
X112265527Y-80360526D01*
X112449343Y-80360526D01*
X112449343Y-80087081D01*
X112449473Y-79985777D01*
X112450379Y-79912353D01*
X112452827Y-79861271D01*
X112457586Y-79826990D01*
X112465426Y-79803971D01*
X112477115Y-79786673D01*
X112493398Y-79769581D01*
X112550366Y-79732857D01*
X112612555Y-79726042D01*
X112671801Y-79749261D01*
X112692405Y-79766543D01*
X112707530Y-79782791D01*
X112718390Y-79800191D01*
X112725690Y-79824212D01*
X112730137Y-79860322D01*
X112732436Y-79913988D01*
X112733296Y-79990680D01*
X112733422Y-80084043D01*
X112733422Y-80360526D01*
X112917237Y-80360526D01*
X112917237Y-79558421D01*
X112825329Y-79558421D01*
X112770149Y-79560603D01*
X112741680Y-79568351D01*
X112733425Y-79583468D01*
X112733422Y-79583916D01*
X112729592Y-79598720D01*
X112712699Y-79597040D01*
X112679112Y-79580773D01*
X112602937Y-79556840D01*
X112515800Y-79554178D01*
X112432043Y-79572226D01*
G36*
X107871216Y-79555554D02*
G01*
X107828426Y-79565949D01*
X107746391Y-79604013D01*
X107676243Y-79662149D01*
X107627695Y-79731852D01*
X107621025Y-79747502D01*
X107611876Y-79788496D01*
X107605471Y-79849138D01*
X107603290Y-79910430D01*
X107603290Y-80026316D01*
X107845593Y-80026316D01*
X107945529Y-80026693D01*
X108015931Y-80028987D01*
X108060687Y-80034938D01*
X108083685Y-80046285D01*
X108088811Y-80064771D01*
X108079952Y-80092136D01*
X108064083Y-80124155D01*
X108019816Y-80177592D01*
X107958301Y-80204215D01*
X107883115Y-80203347D01*
X107797947Y-80174371D01*
X107724341Y-80138611D01*
X107663266Y-80186904D01*
X107602190Y-80235197D01*
X107659649Y-80288285D01*
X107736359Y-80338445D01*
X107830698Y-80368688D01*
X107932173Y-80377151D01*
X108030289Y-80361974D01*
X108046119Y-80356824D01*
X108132353Y-80311791D01*
X108196499Y-80244652D01*
X108239909Y-80153405D01*
X108263936Y-80036044D01*
X108264216Y-80033529D01*
X108266367Y-79905627D01*
X108257671Y-79859997D01*
X108087895Y-79859997D01*
X108072303Y-79867013D01*
X108029971Y-79872388D01*
X107967566Y-79875457D01*
X107928019Y-79875921D01*
X107854272Y-79875630D01*
X107808160Y-79873783D01*
X107783900Y-79868912D01*
X107775706Y-79859555D01*
X107777794Y-79844245D01*
X107779545Y-79838322D01*
X107809440Y-79782668D01*
X107856458Y-79737815D01*
X107897951Y-79718105D01*
X107953074Y-79719295D01*
X108008932Y-79743875D01*
X108055788Y-79784570D01*
X108083906Y-79834108D01*
X108087895Y-79859997D01*
X108257671Y-79859997D01*
X108244926Y-79793133D01*
X108202389Y-79698727D01*
X108141253Y-79625088D01*
X108064015Y-79574893D01*
X107973170Y-79550822D01*
X107871216Y-79555554D01*
G37*
X107871216Y-79555554D02*
X107828426Y-79565949D01*
X107746391Y-79604013D01*
X107676243Y-79662149D01*
X107627695Y-79731852D01*
X107621025Y-79747502D01*
X107611876Y-79788496D01*
X107605471Y-79849138D01*
X107603290Y-79910430D01*
X107603290Y-80026316D01*
X107845593Y-80026316D01*
X107945529Y-80026693D01*
X108015931Y-80028987D01*
X108060687Y-80034938D01*
X108083685Y-80046285D01*
X108088811Y-80064771D01*
X108079952Y-80092136D01*
X108064083Y-80124155D01*
X108019816Y-80177592D01*
X107958301Y-80204215D01*
X107883115Y-80203347D01*
X107797947Y-80174371D01*
X107724341Y-80138611D01*
X107663266Y-80186904D01*
X107602190Y-80235197D01*
X107659649Y-80288285D01*
X107736359Y-80338445D01*
X107830698Y-80368688D01*
X107932173Y-80377151D01*
X108030289Y-80361974D01*
X108046119Y-80356824D01*
X108132353Y-80311791D01*
X108196499Y-80244652D01*
X108239909Y-80153405D01*
X108263936Y-80036044D01*
X108264216Y-80033529D01*
X108266367Y-79905627D01*
X108257671Y-79859997D01*
X108087895Y-79859997D01*
X108072303Y-79867013D01*
X108029971Y-79872388D01*
X107967566Y-79875457D01*
X107928019Y-79875921D01*
X107854272Y-79875630D01*
X107808160Y-79873783D01*
X107783900Y-79868912D01*
X107775706Y-79859555D01*
X107777794Y-79844245D01*
X107779545Y-79838322D01*
X107809440Y-79782668D01*
X107856458Y-79737815D01*
X107897951Y-79718105D01*
X107953074Y-79719295D01*
X108008932Y-79743875D01*
X108055788Y-79784570D01*
X108083906Y-79834108D01*
X108087895Y-79859997D01*
X108257671Y-79859997D01*
X108244926Y-79793133D01*
X108202389Y-79698727D01*
X108141253Y-79625088D01*
X108064015Y-79574893D01*
X107973170Y-79550822D01*
X107871216Y-79555554D01*
G36*
X108483424Y-79565419D02*
G01*
X108386605Y-79606549D01*
X108356110Y-79626571D01*
X108317135Y-79657340D01*
X108292669Y-79681533D01*
X108288422Y-79689413D01*
X108300416Y-79706899D01*
X108331113Y-79736570D01*
X108355688Y-79757279D01*
X108422954Y-79811336D01*
X108476070Y-79766642D01*
X108517116Y-79737789D01*
X108557137Y-79727829D01*
X108602941Y-79730261D01*
X108675676Y-79748345D01*
X108725744Y-79785881D01*
X108756171Y-79846562D01*
X108769983Y-79934081D01*
X108769987Y-79934136D01*
X108768792Y-80031958D01*
X108750228Y-80103730D01*
X108713196Y-80152595D01*
X108687950Y-80169143D01*
X108620903Y-80189749D01*
X108549291Y-80189762D01*
X108486985Y-80169768D01*
X108472237Y-80160000D01*
X108435250Y-80135047D01*
X108406332Y-80130958D01*
X108375144Y-80149530D01*
X108340664Y-80182887D01*
X108286088Y-80239196D01*
X108346682Y-80289142D01*
X108440302Y-80345513D01*
X108545875Y-80373293D01*
X108656202Y-80371282D01*
X108728657Y-80352862D01*
X108813344Y-80307310D01*
X108881073Y-80235650D01*
X108911843Y-80185066D01*
X108936764Y-80112488D01*
X108949234Y-80020569D01*
X108949330Y-79920948D01*
X108937130Y-79825267D01*
X108912710Y-79745169D01*
X108908864Y-79736956D01*
X108851907Y-79656413D01*
X108774791Y-79597771D01*
X108683610Y-79562247D01*
X108584457Y-79551057D01*
X108483424Y-79565419D01*
G37*
X108483424Y-79565419D02*
X108386605Y-79606549D01*
X108356110Y-79626571D01*
X108317135Y-79657340D01*
X108292669Y-79681533D01*
X108288422Y-79689413D01*
X108300416Y-79706899D01*
X108331113Y-79736570D01*
X108355688Y-79757279D01*
X108422954Y-79811336D01*
X108476070Y-79766642D01*
X108517116Y-79737789D01*
X108557137Y-79727829D01*
X108602941Y-79730261D01*
X108675676Y-79748345D01*
X108725744Y-79785881D01*
X108756171Y-79846562D01*
X108769983Y-79934081D01*
X108769987Y-79934136D01*
X108768792Y-80031958D01*
X108750228Y-80103730D01*
X108713196Y-80152595D01*
X108687950Y-80169143D01*
X108620903Y-80189749D01*
X108549291Y-80189762D01*
X108486985Y-80169768D01*
X108472237Y-80160000D01*
X108435250Y-80135047D01*
X108406332Y-80130958D01*
X108375144Y-80149530D01*
X108340664Y-80182887D01*
X108286088Y-80239196D01*
X108346682Y-80289142D01*
X108440302Y-80345513D01*
X108545875Y-80373293D01*
X108656202Y-80371282D01*
X108728657Y-80352862D01*
X108813344Y-80307310D01*
X108881073Y-80235650D01*
X108911843Y-80185066D01*
X108936764Y-80112488D01*
X108949234Y-80020569D01*
X108949330Y-79920948D01*
X108937130Y-79825267D01*
X108912710Y-79745169D01*
X108908864Y-79736956D01*
X108851907Y-79656413D01*
X108774791Y-79597771D01*
X108683610Y-79562247D01*
X108584457Y-79551057D01*
X108483424Y-79565419D01*
G36*
X110109869Y-79818533D02*
G01*
X110108290Y-79941089D01*
X110102519Y-80034179D01*
X110091009Y-80101651D01*
X110072210Y-80147355D01*
X110044574Y-80175139D01*
X110006552Y-80188854D01*
X109959474Y-80192358D01*
X109910168Y-80188432D01*
X109872717Y-80174089D01*
X109845572Y-80145478D01*
X109827185Y-80098751D01*
X109816007Y-80030058D01*
X109810489Y-79935550D01*
X109809079Y-79818533D01*
X109809079Y-79558421D01*
X109625264Y-79558421D01*
X109625264Y-80360526D01*
X109717172Y-80360526D01*
X109772578Y-80358281D01*
X109801109Y-80350396D01*
X109809079Y-80335428D01*
X109813880Y-80322097D01*
X109832986Y-80324917D01*
X109871496Y-80343783D01*
X109959761Y-80372887D01*
X110053377Y-80370825D01*
X110143079Y-80339221D01*
X110185796Y-80314257D01*
X110218379Y-80287226D01*
X110242183Y-80253405D01*
X110258561Y-80208068D01*
X110268869Y-80146489D01*
X110274459Y-80063943D01*
X110276688Y-79955705D01*
X110276974Y-79872004D01*
X110276974Y-79558421D01*
X110109869Y-79558421D01*
X110109869Y-79818533D01*
G37*
X110109869Y-79818533D02*
X110108290Y-79941089D01*
X110102519Y-80034179D01*
X110091009Y-80101651D01*
X110072210Y-80147355D01*
X110044574Y-80175139D01*
X110006552Y-80188854D01*
X109959474Y-80192358D01*
X109910168Y-80188432D01*
X109872717Y-80174089D01*
X109845572Y-80145478D01*
X109827185Y-80098751D01*
X109816007Y-80030058D01*
X109810489Y-79935550D01*
X109809079Y-79818533D01*
X109809079Y-79558421D01*
X109625264Y-79558421D01*
X109625264Y-80360526D01*
X109717172Y-80360526D01*
X109772578Y-80358281D01*
X109801109Y-80350396D01*
X109809079Y-80335428D01*
X109813880Y-80322097D01*
X109832986Y-80324917D01*
X109871496Y-80343783D01*
X109959761Y-80372887D01*
X110053377Y-80370825D01*
X110143079Y-80339221D01*
X110185796Y-80314257D01*
X110218379Y-80287226D01*
X110242183Y-80253405D01*
X110258561Y-80208068D01*
X110268869Y-80146489D01*
X110274459Y-80063943D01*
X110276688Y-79955705D01*
X110276974Y-79872004D01*
X110276974Y-79558421D01*
X110109869Y-79558421D01*
X110109869Y-79818533D01*
G36*
X110618331Y-79568310D02*
G01*
X110533808Y-79614340D01*
X110467679Y-79687006D01*
X110436522Y-79746106D01*
X110423145Y-79798305D01*
X110414478Y-79872719D01*
X110410763Y-79958442D01*
X110412246Y-80044569D01*
X110419169Y-80120193D01*
X110427255Y-80160584D01*
X110454535Y-80215840D01*
X110501780Y-80274530D01*
X110558718Y-80325852D01*
X110615076Y-80359005D01*
X110616450Y-80359531D01*
X110686384Y-80374018D01*
X110769263Y-80374377D01*
X110848023Y-80361188D01*
X110878434Y-80350617D01*
X110956761Y-80306201D01*
X111012857Y-80248007D01*
X111049714Y-80170965D01*
X111070320Y-80070001D01*
X111074982Y-80017116D01*
X111074387Y-79950663D01*
X110895264Y-79950663D01*
X110889230Y-80047630D01*
X110871862Y-80121523D01*
X110844260Y-80168736D01*
X110824596Y-80182237D01*
X110774213Y-80191651D01*
X110714327Y-80188864D01*
X110662551Y-80175316D01*
X110648973Y-80167862D01*
X110613151Y-80124451D01*
X110589507Y-80058014D01*
X110579442Y-79977161D01*
X110584358Y-79890502D01*
X110595345Y-79838349D01*
X110626891Y-79777951D01*
X110676689Y-79740197D01*
X110736663Y-79727143D01*
X110798736Y-79740849D01*
X110846418Y-79774372D01*
X110871475Y-79802031D01*
X110886100Y-79829294D01*
X110893071Y-79866190D01*
X110895167Y-79922750D01*
X110895264Y-79950663D01*
X111074387Y-79950663D01*
X111073718Y-79875994D01*
X111050735Y-79760271D01*
X111006028Y-79669941D01*
X110939595Y-79605000D01*
X110851435Y-79565445D01*
X110832505Y-79560858D01*
X110718734Y-79550090D01*
X110618331Y-79568310D01*
G37*
X110618331Y-79568310D02*
X110533808Y-79614340D01*
X110467679Y-79687006D01*
X110436522Y-79746106D01*
X110423145Y-79798305D01*
X110414478Y-79872719D01*
X110410763Y-79958442D01*
X110412246Y-80044569D01*
X110419169Y-80120193D01*
X110427255Y-80160584D01*
X110454535Y-80215840D01*
X110501780Y-80274530D01*
X110558718Y-80325852D01*
X110615076Y-80359005D01*
X110616450Y-80359531D01*
X110686384Y-80374018D01*
X110769263Y-80374377D01*
X110848023Y-80361188D01*
X110878434Y-80350617D01*
X110956761Y-80306201D01*
X111012857Y-80248007D01*
X111049714Y-80170965D01*
X111070320Y-80070001D01*
X111074982Y-80017116D01*
X111074387Y-79950663D01*
X110895264Y-79950663D01*
X110889230Y-80047630D01*
X110871862Y-80121523D01*
X110844260Y-80168736D01*
X110824596Y-80182237D01*
X110774213Y-80191651D01*
X110714327Y-80188864D01*
X110662551Y-80175316D01*
X110648973Y-80167862D01*
X110613151Y-80124451D01*
X110589507Y-80058014D01*
X110579442Y-79977161D01*
X110584358Y-79890502D01*
X110595345Y-79838349D01*
X110626891Y-79777951D01*
X110676689Y-79740197D01*
X110736663Y-79727143D01*
X110798736Y-79740849D01*
X110846418Y-79774372D01*
X110871475Y-79802031D01*
X110886100Y-79829294D01*
X110893071Y-79866190D01*
X110895167Y-79922750D01*
X110895264Y-79950663D01*
X111074387Y-79950663D01*
X111073718Y-79875994D01*
X111050735Y-79760271D01*
X111006028Y-79669941D01*
X110939595Y-79605000D01*
X110851435Y-79565445D01*
X110832505Y-79560858D01*
X110718734Y-79550090D01*
X110618331Y-79568310D01*
G36*
X111411372Y-79555547D02*
G01*
X111348092Y-79567548D01*
X111282443Y-79592648D01*
X111275428Y-79595848D01*
X111225644Y-79622026D01*
X111191166Y-79646353D01*
X111180022Y-79661937D01*
X111190634Y-79687353D01*
X111216412Y-79724853D01*
X111227854Y-79738852D01*
X111275008Y-79793954D01*
X111335799Y-79758086D01*
X111393653Y-79734192D01*
X111460500Y-79721420D01*
X111524606Y-79720613D01*
X111574236Y-79732615D01*
X111586146Y-79740105D01*
X111608828Y-79774450D01*
X111611584Y-79814013D01*
X111594612Y-79844920D01*
X111584573Y-79850913D01*
X111554490Y-79858357D01*
X111501611Y-79867106D01*
X111436425Y-79875467D01*
X111424400Y-79876778D01*
X111319703Y-79894888D01*
X111243768Y-79925651D01*
X111193408Y-79971907D01*
X111165436Y-80036497D01*
X111156722Y-80115387D01*
X111168760Y-80205065D01*
X111207849Y-80275486D01*
X111274145Y-80326777D01*
X111367806Y-80359067D01*
X111471777Y-80371807D01*
X111556562Y-80371654D01*
X111625335Y-80360083D01*
X111672303Y-80344109D01*
X111731650Y-80316275D01*
X111786494Y-80283973D01*
X111805987Y-80269755D01*
X111856119Y-80228835D01*
X111735197Y-80106477D01*
X111666457Y-80151967D01*
X111597512Y-80186133D01*
X111523889Y-80204004D01*
X111453117Y-80205889D01*
X111392726Y-80192101D01*
X111350243Y-80162949D01*
X111336526Y-80138352D01*
X111338583Y-80098904D01*
X111372670Y-80068737D01*
X111438692Y-80047906D01*
X111511026Y-80038279D01*
X111622348Y-80019910D01*
X111705048Y-79985254D01*
X111760235Y-79933297D01*
X111789012Y-79863023D01*
X111792999Y-79779707D01*
X111773307Y-79692681D01*
X111728411Y-79626902D01*
X111657909Y-79582068D01*
X111561399Y-79557879D01*
X111489900Y-79553137D01*
X111411372Y-79555547D01*
G37*
X111411372Y-79555547D02*
X111348092Y-79567548D01*
X111282443Y-79592648D01*
X111275428Y-79595848D01*
X111225644Y-79622026D01*
X111191166Y-79646353D01*
X111180022Y-79661937D01*
X111190634Y-79687353D01*
X111216412Y-79724853D01*
X111227854Y-79738852D01*
X111275008Y-79793954D01*
X111335799Y-79758086D01*
X111393653Y-79734192D01*
X111460500Y-79721420D01*
X111524606Y-79720613D01*
X111574236Y-79732615D01*
X111586146Y-79740105D01*
X111608828Y-79774450D01*
X111611584Y-79814013D01*
X111594612Y-79844920D01*
X111584573Y-79850913D01*
X111554490Y-79858357D01*
X111501611Y-79867106D01*
X111436425Y-79875467D01*
X111424400Y-79876778D01*
X111319703Y-79894888D01*
X111243768Y-79925651D01*
X111193408Y-79971907D01*
X111165436Y-80036497D01*
X111156722Y-80115387D01*
X111168760Y-80205065D01*
X111207849Y-80275486D01*
X111274145Y-80326777D01*
X111367806Y-80359067D01*
X111471777Y-80371807D01*
X111556562Y-80371654D01*
X111625335Y-80360083D01*
X111672303Y-80344109D01*
X111731650Y-80316275D01*
X111786494Y-80283973D01*
X111805987Y-80269755D01*
X111856119Y-80228835D01*
X111735197Y-80106477D01*
X111666457Y-80151967D01*
X111597512Y-80186133D01*
X111523889Y-80204004D01*
X111453117Y-80205889D01*
X111392726Y-80192101D01*
X111350243Y-80162949D01*
X111336526Y-80138352D01*
X111338583Y-80098904D01*
X111372670Y-80068737D01*
X111438692Y-80047906D01*
X111511026Y-80038279D01*
X111622348Y-80019910D01*
X111705048Y-79985254D01*
X111760235Y-79933297D01*
X111789012Y-79863023D01*
X111792999Y-79779707D01*
X111773307Y-79692681D01*
X111728411Y-79626902D01*
X111657909Y-79582068D01*
X111561399Y-79557879D01*
X111489900Y-79553137D01*
X111411372Y-79555547D01*
G36*
X113232982Y-79577027D02*
G01*
X113216330Y-79584866D01*
X113158695Y-79627086D01*
X113104195Y-79688700D01*
X113063501Y-79756543D01*
X113051926Y-79787734D01*
X113041366Y-79843449D01*
X113035069Y-79910781D01*
X113034304Y-79938585D01*
X113034211Y-80026316D01*
X113539150Y-80026316D01*
X113528387Y-80072270D01*
X113501967Y-80126620D01*
X113455778Y-80173591D01*
X113400828Y-80203848D01*
X113365811Y-80210131D01*
X113318323Y-80202506D01*
X113261665Y-80183383D01*
X113242418Y-80174584D01*
X113171241Y-80139036D01*
X113110498Y-80185367D01*
X113075448Y-80216703D01*
X113056798Y-80242567D01*
X113055853Y-80250158D01*
X113072515Y-80268556D01*
X113109030Y-80296515D01*
X113142172Y-80318327D01*
X113231607Y-80357537D01*
X113331871Y-80375285D01*
X113431246Y-80370670D01*
X113510461Y-80346551D01*
X113592120Y-80294884D01*
X113650151Y-80226856D01*
X113686454Y-80138843D01*
X113702928Y-80027216D01*
X113704389Y-79976138D01*
X113698543Y-79859091D01*
X113697825Y-79855686D01*
X113530511Y-79855686D01*
X113525903Y-79866662D01*
X113506964Y-79872715D01*
X113467902Y-79875310D01*
X113402923Y-79875910D01*
X113377903Y-79875921D01*
X113301779Y-79875014D01*
X113253504Y-79871720D01*
X113227540Y-79865181D01*
X113218352Y-79854537D01*
X113218027Y-79851119D01*
X113228513Y-79823956D01*
X113254758Y-79785903D01*
X113266041Y-79772579D01*
X113307928Y-79734896D01*
X113351591Y-79720080D01*
X113375115Y-79718842D01*
X113438757Y-79734329D01*
X113492127Y-79775930D01*
X113525981Y-79836353D01*
X113526581Y-79838322D01*
X113530511Y-79855686D01*
X113697825Y-79855686D01*
X113679101Y-79766928D01*
X113644078Y-79693190D01*
X113601244Y-79640848D01*
X113522052Y-79584092D01*
X113428960Y-79553762D01*
X113329945Y-79551021D01*
X113232982Y-79577027D01*
G37*
X113232982Y-79577027D02*
X113216330Y-79584866D01*
X113158695Y-79627086D01*
X113104195Y-79688700D01*
X113063501Y-79756543D01*
X113051926Y-79787734D01*
X113041366Y-79843449D01*
X113035069Y-79910781D01*
X113034304Y-79938585D01*
X113034211Y-80026316D01*
X113539150Y-80026316D01*
X113528387Y-80072270D01*
X113501967Y-80126620D01*
X113455778Y-80173591D01*
X113400828Y-80203848D01*
X113365811Y-80210131D01*
X113318323Y-80202506D01*
X113261665Y-80183383D01*
X113242418Y-80174584D01*
X113171241Y-80139036D01*
X113110498Y-80185367D01*
X113075448Y-80216703D01*
X113056798Y-80242567D01*
X113055853Y-80250158D01*
X113072515Y-80268556D01*
X113109030Y-80296515D01*
X113142172Y-80318327D01*
X113231607Y-80357537D01*
X113331871Y-80375285D01*
X113431246Y-80370670D01*
X113510461Y-80346551D01*
X113592120Y-80294884D01*
X113650151Y-80226856D01*
X113686454Y-80138843D01*
X113702928Y-80027216D01*
X113704389Y-79976138D01*
X113698543Y-79859091D01*
X113697825Y-79855686D01*
X113530511Y-79855686D01*
X113525903Y-79866662D01*
X113506964Y-79872715D01*
X113467902Y-79875310D01*
X113402923Y-79875910D01*
X113377903Y-79875921D01*
X113301779Y-79875014D01*
X113253504Y-79871720D01*
X113227540Y-79865181D01*
X113218352Y-79854537D01*
X113218027Y-79851119D01*
X113228513Y-79823956D01*
X113254758Y-79785903D01*
X113266041Y-79772579D01*
X113307928Y-79734896D01*
X113351591Y-79720080D01*
X113375115Y-79718842D01*
X113438757Y-79734329D01*
X113492127Y-79775930D01*
X113525981Y-79836353D01*
X113526581Y-79838322D01*
X113530511Y-79855686D01*
X113697825Y-79855686D01*
X113679101Y-79766928D01*
X113644078Y-79693190D01*
X113601244Y-79640848D01*
X113522052Y-79584092D01*
X113428960Y-79553762D01*
X113329945Y-79551021D01*
X113232982Y-79577027D01*
G36*
X114803216Y-79567104D02*
G01*
X114715795Y-79605754D01*
X114649430Y-79670290D01*
X114604024Y-79760812D01*
X114579482Y-79877418D01*
X114577723Y-79895624D01*
X114576344Y-80023984D01*
X114594216Y-80136496D01*
X114630250Y-80227688D01*
X114649545Y-80257022D01*
X114716755Y-80319106D01*
X114802350Y-80359316D01*
X114898110Y-80376003D01*
X114995813Y-80367517D01*
X115070083Y-80341380D01*
X115133953Y-80297335D01*
X115186154Y-80239587D01*
X115187057Y-80238236D01*
X115208256Y-80202593D01*
X115222033Y-80166752D01*
X115230376Y-80121519D01*
X115235273Y-80057701D01*
X115237431Y-80005368D01*
X115238329Y-79957910D01*
X115071257Y-79957910D01*
X115069624Y-80005154D01*
X115063696Y-80068046D01*
X115053239Y-80108407D01*
X115034381Y-80137122D01*
X115016719Y-80153896D01*
X114954106Y-80189016D01*
X114888592Y-80193710D01*
X114827579Y-80168440D01*
X114797072Y-80140124D01*
X114775089Y-80111589D01*
X114762231Y-80084284D01*
X114756588Y-80048750D01*
X114756249Y-79995524D01*
X114757988Y-79946506D01*
X114761729Y-79876482D01*
X114767659Y-79831064D01*
X114778347Y-79801440D01*
X114796361Y-79778797D01*
X114810637Y-79765855D01*
X114870349Y-79731860D01*
X114934766Y-79730165D01*
X114988781Y-79750301D01*
X115034860Y-79792352D01*
X115062311Y-79861428D01*
X115071257Y-79957910D01*
X115238329Y-79957910D01*
X115239401Y-79901299D01*
X115236036Y-79823468D01*
X115225955Y-79764930D01*
X115207774Y-79718737D01*
X115180110Y-79677942D01*
X115169854Y-79665828D01*
X115105722Y-79605474D01*
X115036934Y-79570220D01*
X114952811Y-79555450D01*
X114911791Y-79554243D01*
X114803216Y-79567104D01*
G37*
X114803216Y-79567104D02*
X114715795Y-79605754D01*
X114649430Y-79670290D01*
X114604024Y-79760812D01*
X114579482Y-79877418D01*
X114577723Y-79895624D01*
X114576344Y-80023984D01*
X114594216Y-80136496D01*
X114630250Y-80227688D01*
X114649545Y-80257022D01*
X114716755Y-80319106D01*
X114802350Y-80359316D01*
X114898110Y-80376003D01*
X114995813Y-80367517D01*
X115070083Y-80341380D01*
X115133953Y-80297335D01*
X115186154Y-80239587D01*
X115187057Y-80238236D01*
X115208256Y-80202593D01*
X115222033Y-80166752D01*
X115230376Y-80121519D01*
X115235273Y-80057701D01*
X115237431Y-80005368D01*
X115238329Y-79957910D01*
X115071257Y-79957910D01*
X115069624Y-80005154D01*
X115063696Y-80068046D01*
X115053239Y-80108407D01*
X115034381Y-80137122D01*
X115016719Y-80153896D01*
X114954106Y-80189016D01*
X114888592Y-80193710D01*
X114827579Y-80168440D01*
X114797072Y-80140124D01*
X114775089Y-80111589D01*
X114762231Y-80084284D01*
X114756588Y-80048750D01*
X114756249Y-79995524D01*
X114757988Y-79946506D01*
X114761729Y-79876482D01*
X114767659Y-79831064D01*
X114778347Y-79801440D01*
X114796361Y-79778797D01*
X114810637Y-79765855D01*
X114870349Y-79731860D01*
X114934766Y-79730165D01*
X114988781Y-79750301D01*
X115034860Y-79792352D01*
X115062311Y-79861428D01*
X115071257Y-79957910D01*
X115238329Y-79957910D01*
X115239401Y-79901299D01*
X115236036Y-79823468D01*
X115225955Y-79764930D01*
X115207774Y-79718737D01*
X115180110Y-79677942D01*
X115169854Y-79665828D01*
X115105722Y-79605474D01*
X115036934Y-79570220D01*
X114952811Y-79555450D01*
X114911791Y-79554243D01*
X114803216Y-79567104D01*
G36*
X108728807Y-80816078D02*
G01*
X108648932Y-80836845D01*
X108582038Y-80879705D01*
X108549649Y-80911723D01*
X108496555Y-80987413D01*
X108466127Y-81075216D01*
X108455673Y-81183150D01*
X108455620Y-81191875D01*
X108455527Y-81279605D01*
X108960466Y-81279605D01*
X108949702Y-81325559D01*
X108930268Y-81367178D01*
X108896255Y-81410544D01*
X108889140Y-81417467D01*
X108827997Y-81454935D01*
X108758271Y-81461289D01*
X108678013Y-81436638D01*
X108664408Y-81430000D01*
X108622681Y-81409819D01*
X108594732Y-81398321D01*
X108589855Y-81397258D01*
X108572832Y-81407583D01*
X108540367Y-81432845D01*
X108523886Y-81446650D01*
X108489736Y-81478361D01*
X108478522Y-81499299D01*
X108486305Y-81518560D01*
X108490465Y-81523827D01*
X108518643Y-81546878D01*
X108565138Y-81574892D01*
X108597566Y-81591246D01*
X108689615Y-81620059D01*
X108791524Y-81629395D01*
X108888037Y-81618332D01*
X108915066Y-81610412D01*
X108998724Y-81565581D01*
X109060734Y-81496598D01*
X109101455Y-81402794D01*
X109121245Y-81283498D01*
X109123418Y-81221118D01*
X109117074Y-81130298D01*
X108956843Y-81130298D01*
X108941345Y-81137012D01*
X108899688Y-81142280D01*
X108839124Y-81145389D01*
X108798093Y-81145921D01*
X108724289Y-81145408D01*
X108677707Y-81143006D01*
X108652152Y-81137422D01*
X108641431Y-81127361D01*
X108639343Y-81112763D01*
X108653669Y-81067796D01*
X108689738Y-81023353D01*
X108737185Y-80989242D01*
X108784651Y-80975288D01*
X108849121Y-80987666D01*
X108904930Y-81023452D01*
X108943626Y-81075033D01*
X108956843Y-81130298D01*
X109117074Y-81130298D01*
X109114179Y-81088866D01*
X109085664Y-80983498D01*
X109037271Y-80904178D01*
X108968396Y-80850071D01*
X108878435Y-80820343D01*
X108829700Y-80814618D01*
X108728807Y-80816078D01*
G37*
X108728807Y-80816078D02*
X108648932Y-80836845D01*
X108582038Y-80879705D01*
X108549649Y-80911723D01*
X108496555Y-80987413D01*
X108466127Y-81075216D01*
X108455673Y-81183150D01*
X108455620Y-81191875D01*
X108455527Y-81279605D01*
X108960466Y-81279605D01*
X108949702Y-81325559D01*
X108930268Y-81367178D01*
X108896255Y-81410544D01*
X108889140Y-81417467D01*
X108827997Y-81454935D01*
X108758271Y-81461289D01*
X108678013Y-81436638D01*
X108664408Y-81430000D01*
X108622681Y-81409819D01*
X108594732Y-81398321D01*
X108589855Y-81397258D01*
X108572832Y-81407583D01*
X108540367Y-81432845D01*
X108523886Y-81446650D01*
X108489736Y-81478361D01*
X108478522Y-81499299D01*
X108486305Y-81518560D01*
X108490465Y-81523827D01*
X108518643Y-81546878D01*
X108565138Y-81574892D01*
X108597566Y-81591246D01*
X108689615Y-81620059D01*
X108791524Y-81629395D01*
X108888037Y-81618332D01*
X108915066Y-81610412D01*
X108998724Y-81565581D01*
X109060734Y-81496598D01*
X109101455Y-81402794D01*
X109121245Y-81283498D01*
X109123418Y-81221118D01*
X109117074Y-81130298D01*
X108956843Y-81130298D01*
X108941345Y-81137012D01*
X108899688Y-81142280D01*
X108839124Y-81145389D01*
X108798093Y-81145921D01*
X108724289Y-81145408D01*
X108677707Y-81143006D01*
X108652152Y-81137422D01*
X108641431Y-81127361D01*
X108639343Y-81112763D01*
X108653669Y-81067796D01*
X108689738Y-81023353D01*
X108737185Y-80989242D01*
X108784651Y-80975288D01*
X108849121Y-80987666D01*
X108904930Y-81023452D01*
X108943626Y-81075033D01*
X108956843Y-81130298D01*
X109117074Y-81130298D01*
X109114179Y-81088866D01*
X109085664Y-80983498D01*
X109037271Y-80904178D01*
X108968396Y-80850071D01*
X108878435Y-80820343D01*
X108829700Y-80814618D01*
X108728807Y-80816078D01*
G36*
X109256833Y-80811447D02*
G01*
X109192592Y-80824112D01*
X109156020Y-80842864D01*
X109117547Y-80874017D01*
X109172283Y-80943127D01*
X109206031Y-80984979D01*
X109228947Y-81005398D01*
X109251721Y-81008517D01*
X109285044Y-80998472D01*
X109300686Y-80992789D01*
X109364458Y-80984404D01*
X109422860Y-81002378D01*
X109465736Y-81042982D01*
X109472701Y-81055929D01*
X109480287Y-81090224D01*
X109486141Y-81153427D01*
X109489989Y-81241060D01*
X109491557Y-81348640D01*
X109491579Y-81363944D01*
X109491579Y-81630526D01*
X109675395Y-81630526D01*
X109675395Y-80811710D01*
X109583487Y-80811710D01*
X109530493Y-80813094D01*
X109502885Y-80819252D01*
X109492676Y-80833194D01*
X109491579Y-80846344D01*
X109491579Y-80880978D01*
X109447550Y-80846344D01*
X109397063Y-80822716D01*
X109329240Y-80811033D01*
X109256833Y-80811447D01*
G37*
X109256833Y-80811447D02*
X109192592Y-80824112D01*
X109156020Y-80842864D01*
X109117547Y-80874017D01*
X109172283Y-80943127D01*
X109206031Y-80984979D01*
X109228947Y-81005398D01*
X109251721Y-81008517D01*
X109285044Y-80998472D01*
X109300686Y-80992789D01*
X109364458Y-80984404D01*
X109422860Y-81002378D01*
X109465736Y-81042982D01*
X109472701Y-81055929D01*
X109480287Y-81090224D01*
X109486141Y-81153427D01*
X109489989Y-81241060D01*
X109491557Y-81348640D01*
X109491579Y-81363944D01*
X109491579Y-81630526D01*
X109675395Y-81630526D01*
X109675395Y-80811710D01*
X109583487Y-80811710D01*
X109530493Y-80813094D01*
X109502885Y-80819252D01*
X109492676Y-80833194D01*
X109491579Y-80846344D01*
X109491579Y-80880978D01*
X109447550Y-80846344D01*
X109397063Y-80822716D01*
X109329240Y-80811033D01*
X109256833Y-80811447D01*
G36*
X110050008Y-80816673D02*
G01*
X109979573Y-80833780D01*
X109959213Y-80842844D01*
X109919747Y-80866583D01*
X109889459Y-80893321D01*
X109867048Y-80927699D01*
X109851214Y-80974360D01*
X109840657Y-81037946D01*
X109834076Y-81123099D01*
X109830172Y-81234462D01*
X109828690Y-81308849D01*
X109823235Y-81630526D01*
X109916420Y-81630526D01*
X109972953Y-81628156D01*
X110002078Y-81620055D01*
X110009606Y-81606451D01*
X110013580Y-81591741D01*
X110031348Y-81594554D01*
X110055560Y-81606348D01*
X110116172Y-81624427D01*
X110194071Y-81629299D01*
X110276005Y-81621330D01*
X110348719Y-81600889D01*
X110355241Y-81598051D01*
X110421698Y-81551365D01*
X110465509Y-81486464D01*
X110485668Y-81410600D01*
X110484128Y-81383344D01*
X110319655Y-81383344D01*
X110305163Y-81420024D01*
X110262195Y-81446309D01*
X110192871Y-81460417D01*
X110155823Y-81462290D01*
X110094081Y-81457494D01*
X110053040Y-81438858D01*
X110043027Y-81430000D01*
X110015900Y-81381806D01*
X110009606Y-81338092D01*
X110009606Y-81279605D01*
X110091070Y-81279605D01*
X110185766Y-81284432D01*
X110252187Y-81299613D01*
X110294154Y-81326200D01*
X110303551Y-81338052D01*
X110319655Y-81383344D01*
X110484128Y-81383344D01*
X110481171Y-81331026D01*
X110451015Y-81254995D01*
X110409869Y-81203612D01*
X110384948Y-81181397D01*
X110360552Y-81166798D01*
X110328809Y-81157897D01*
X110281848Y-81152775D01*
X110211796Y-81149515D01*
X110184010Y-81148577D01*
X110009606Y-81142879D01*
X110009862Y-81090091D01*
X110016616Y-81034603D01*
X110041036Y-81001052D01*
X110090370Y-80979618D01*
X110091694Y-80979236D01*
X110161640Y-80970808D01*
X110230086Y-80981816D01*
X110280953Y-81008585D01*
X110301363Y-81021803D01*
X110323346Y-81019974D01*
X110357174Y-81000824D01*
X110377039Y-80987308D01*
X110415894Y-80958432D01*
X110439962Y-80936786D01*
X110443824Y-80930589D01*
X110427921Y-80898519D01*
X110380935Y-80860219D01*
X110360527Y-80847297D01*
X110301857Y-80825041D01*
X110222788Y-80812432D01*
X110134959Y-80809600D01*
X110050008Y-80816673D01*
G37*
X110050008Y-80816673D02*
X109979573Y-80833780D01*
X109959213Y-80842844D01*
X109919747Y-80866583D01*
X109889459Y-80893321D01*
X109867048Y-80927699D01*
X109851214Y-80974360D01*
X109840657Y-81037946D01*
X109834076Y-81123099D01*
X109830172Y-81234462D01*
X109828690Y-81308849D01*
X109823235Y-81630526D01*
X109916420Y-81630526D01*
X109972953Y-81628156D01*
X110002078Y-81620055D01*
X110009606Y-81606451D01*
X110013580Y-81591741D01*
X110031348Y-81594554D01*
X110055560Y-81606348D01*
X110116172Y-81624427D01*
X110194071Y-81629299D01*
X110276005Y-81621330D01*
X110348719Y-81600889D01*
X110355241Y-81598051D01*
X110421698Y-81551365D01*
X110465509Y-81486464D01*
X110485668Y-81410600D01*
X110484128Y-81383344D01*
X110319655Y-81383344D01*
X110305163Y-81420024D01*
X110262195Y-81446309D01*
X110192871Y-81460417D01*
X110155823Y-81462290D01*
X110094081Y-81457494D01*
X110053040Y-81438858D01*
X110043027Y-81430000D01*
X110015900Y-81381806D01*
X110009606Y-81338092D01*
X110009606Y-81279605D01*
X110091070Y-81279605D01*
X110185766Y-81284432D01*
X110252187Y-81299613D01*
X110294154Y-81326200D01*
X110303551Y-81338052D01*
X110319655Y-81383344D01*
X110484128Y-81383344D01*
X110481171Y-81331026D01*
X110451015Y-81254995D01*
X110409869Y-81203612D01*
X110384948Y-81181397D01*
X110360552Y-81166798D01*
X110328809Y-81157897D01*
X110281848Y-81152775D01*
X110211796Y-81149515D01*
X110184010Y-81148577D01*
X110009606Y-81142879D01*
X110009862Y-81090091D01*
X110016616Y-81034603D01*
X110041036Y-81001052D01*
X110090370Y-80979618D01*
X110091694Y-80979236D01*
X110161640Y-80970808D01*
X110230086Y-80981816D01*
X110280953Y-81008585D01*
X110301363Y-81021803D01*
X110323346Y-81019974D01*
X110357174Y-81000824D01*
X110377039Y-80987308D01*
X110415894Y-80958432D01*
X110439962Y-80936786D01*
X110443824Y-80930589D01*
X110427921Y-80898519D01*
X110380935Y-80860219D01*
X110360527Y-80847297D01*
X110301857Y-80825041D01*
X110222788Y-80812432D01*
X110134959Y-80809600D01*
X110050008Y-80816673D01*
G36*
X111055870Y-80815104D02*
G01*
X110989780Y-80820066D01*
X110903374Y-81079079D01*
X110816969Y-81338092D01*
X110789876Y-81246184D01*
X110773572Y-81189384D01*
X110752125Y-81112625D01*
X110728965Y-81028251D01*
X110716720Y-80982993D01*
X110670656Y-80811710D01*
X110480613Y-80811710D01*
X110537418Y-80991349D01*
X110565393Y-81079704D01*
X110599187Y-81186281D01*
X110634480Y-81297454D01*
X110665987Y-81396579D01*
X110737750Y-81622171D01*
X110892714Y-81632253D01*
X110934730Y-81493528D01*
X110960641Y-81407351D01*
X110988917Y-81312347D01*
X111013631Y-81228441D01*
X111014606Y-81225102D01*
X111033065Y-81168248D01*
X111049351Y-81129456D01*
X111060758Y-81114787D01*
X111063102Y-81116483D01*
X111071329Y-81139225D01*
X111086962Y-81187940D01*
X111108096Y-81256502D01*
X111132830Y-81338785D01*
X111146213Y-81384046D01*
X111218689Y-81630526D01*
X111372505Y-81630526D01*
X111495469Y-81242006D01*
X111530012Y-81133022D01*
X111561479Y-81034048D01*
X111588384Y-80949736D01*
X111609241Y-80884734D01*
X111622562Y-80843692D01*
X111626612Y-80831701D01*
X111623406Y-80819423D01*
X111598235Y-80814046D01*
X111545854Y-80814584D01*
X111537655Y-80814990D01*
X111440518Y-80820066D01*
X111376900Y-81054013D01*
X111353516Y-81139333D01*
X111332619Y-81214335D01*
X111316049Y-81272507D01*
X111305646Y-81307337D01*
X111303724Y-81313016D01*
X111295759Y-81306486D01*
X111279696Y-81272654D01*
X111257379Y-81216127D01*
X111230655Y-81141510D01*
X111208063Y-81074107D01*
X111121959Y-80810143D01*
X111055870Y-80815104D01*
G37*
X111055870Y-80815104D02*
X110989780Y-80820066D01*
X110903374Y-81079079D01*
X110816969Y-81338092D01*
X110789876Y-81246184D01*
X110773572Y-81189384D01*
X110752125Y-81112625D01*
X110728965Y-81028251D01*
X110716720Y-80982993D01*
X110670656Y-80811710D01*
X110480613Y-80811710D01*
X110537418Y-80991349D01*
X110565393Y-81079704D01*
X110599187Y-81186281D01*
X110634480Y-81297454D01*
X110665987Y-81396579D01*
X110737750Y-81622171D01*
X110892714Y-81632253D01*
X110934730Y-81493528D01*
X110960641Y-81407351D01*
X110988917Y-81312347D01*
X111013631Y-81228441D01*
X111014606Y-81225102D01*
X111033065Y-81168248D01*
X111049351Y-81129456D01*
X111060758Y-81114787D01*
X111063102Y-81116483D01*
X111071329Y-81139225D01*
X111086962Y-81187940D01*
X111108096Y-81256502D01*
X111132830Y-81338785D01*
X111146213Y-81384046D01*
X111218689Y-81630526D01*
X111372505Y-81630526D01*
X111495469Y-81242006D01*
X111530012Y-81133022D01*
X111561479Y-81034048D01*
X111588384Y-80949736D01*
X111609241Y-80884734D01*
X111622562Y-80843692D01*
X111626612Y-80831701D01*
X111623406Y-80819423D01*
X111598235Y-80814046D01*
X111545854Y-80814584D01*
X111537655Y-80814990D01*
X111440518Y-80820066D01*
X111376900Y-81054013D01*
X111353516Y-81139333D01*
X111332619Y-81214335D01*
X111316049Y-81272507D01*
X111305646Y-81307337D01*
X111303724Y-81313016D01*
X111295759Y-81306486D01*
X111279696Y-81272654D01*
X111257379Y-81216127D01*
X111230655Y-81141510D01*
X111208063Y-81074107D01*
X111121959Y-80810143D01*
X111055870Y-80815104D01*
G36*
X111697369Y-81630526D02*
G01*
X111789277Y-81630526D01*
X111842623Y-81628962D01*
X111870407Y-81622485D01*
X111880410Y-81608418D01*
X111881185Y-81598906D01*
X111882872Y-81579832D01*
X111893510Y-81576174D01*
X111921465Y-81587932D01*
X111943205Y-81598906D01*
X112026668Y-81624911D01*
X112117396Y-81626416D01*
X112191158Y-81607021D01*
X112259846Y-81560165D01*
X112312206Y-81491004D01*
X112340878Y-81409427D01*
X112341608Y-81404866D01*
X112345868Y-81355101D01*
X112347986Y-81283659D01*
X112347816Y-81229626D01*
X112165280Y-81229626D01*
X112161051Y-81301441D01*
X112151432Y-81360634D01*
X112138410Y-81394060D01*
X112089144Y-81439740D01*
X112030650Y-81456115D01*
X111970329Y-81442873D01*
X111918783Y-81403373D01*
X111899262Y-81376807D01*
X111887848Y-81345106D01*
X111882502Y-81298832D01*
X111881185Y-81229328D01*
X111883542Y-81160499D01*
X111889767Y-81100026D01*
X111898592Y-81059556D01*
X111900063Y-81055929D01*
X111935653Y-81012802D01*
X111987600Y-80989124D01*
X112045722Y-80985301D01*
X112099840Y-81001738D01*
X112139774Y-81038840D01*
X112143917Y-81046222D01*
X112156884Y-81091239D01*
X112163948Y-81155967D01*
X112165280Y-81229626D01*
X112347816Y-81229626D01*
X112347729Y-81202230D01*
X112346528Y-81158405D01*
X112338355Y-81049988D01*
X112321370Y-80968588D01*
X112293113Y-80908412D01*
X112251128Y-80863666D01*
X112210368Y-80837400D01*
X112153419Y-80818935D01*
X112082589Y-80812602D01*
X112010059Y-80817760D01*
X111948014Y-80833769D01*
X111915232Y-80852920D01*
X111881185Y-80883732D01*
X111881185Y-80494210D01*
X111697369Y-80494210D01*
X111697369Y-81630526D01*
G37*
X111697369Y-81630526D02*
X111789277Y-81630526D01*
X111842623Y-81628962D01*
X111870407Y-81622485D01*
X111880410Y-81608418D01*
X111881185Y-81598906D01*
X111882872Y-81579832D01*
X111893510Y-81576174D01*
X111921465Y-81587932D01*
X111943205Y-81598906D01*
X112026668Y-81624911D01*
X112117396Y-81626416D01*
X112191158Y-81607021D01*
X112259846Y-81560165D01*
X112312206Y-81491004D01*
X112340878Y-81409427D01*
X112341608Y-81404866D01*
X112345868Y-81355101D01*
X112347986Y-81283659D01*
X112347816Y-81229626D01*
X112165280Y-81229626D01*
X112161051Y-81301441D01*
X112151432Y-81360634D01*
X112138410Y-81394060D01*
X112089144Y-81439740D01*
X112030650Y-81456115D01*
X111970329Y-81442873D01*
X111918783Y-81403373D01*
X111899262Y-81376807D01*
X111887848Y-81345106D01*
X111882502Y-81298832D01*
X111881185Y-81229328D01*
X111883542Y-81160499D01*
X111889767Y-81100026D01*
X111898592Y-81059556D01*
X111900063Y-81055929D01*
X111935653Y-81012802D01*
X111987600Y-80989124D01*
X112045722Y-80985301D01*
X112099840Y-81001738D01*
X112139774Y-81038840D01*
X112143917Y-81046222D01*
X112156884Y-81091239D01*
X112163948Y-81155967D01*
X112165280Y-81229626D01*
X112347816Y-81229626D01*
X112347729Y-81202230D01*
X112346528Y-81158405D01*
X112338355Y-81049988D01*
X112321370Y-80968588D01*
X112293113Y-80908412D01*
X112251128Y-80863666D01*
X112210368Y-80837400D01*
X112153419Y-80818935D01*
X112082589Y-80812602D01*
X112010059Y-80817760D01*
X111948014Y-80833769D01*
X111915232Y-80852920D01*
X111881185Y-80883732D01*
X111881185Y-80494210D01*
X111697369Y-80494210D01*
X111697369Y-81630526D01*
G36*
X112750119Y-80813486D02*
G01*
X112725112Y-80820982D01*
X112717050Y-80837451D01*
X112716711Y-80844886D01*
X112715264Y-80865594D01*
X112705302Y-80868845D01*
X112678388Y-80854648D01*
X112662402Y-80844948D01*
X112611967Y-80824175D01*
X112551728Y-80813904D01*
X112488566Y-80813114D01*
X112429363Y-80820786D01*
X112380998Y-80835898D01*
X112350354Y-80857432D01*
X112344311Y-80884366D01*
X112347361Y-80891660D01*
X112369594Y-80921937D01*
X112404070Y-80959175D01*
X112410306Y-80965195D01*
X112443167Y-80992875D01*
X112471520Y-81001818D01*
X112511173Y-80995576D01*
X112527058Y-80991429D01*
X112576491Y-80981467D01*
X112611248Y-80985947D01*
X112640600Y-81001746D01*
X112667487Y-81022949D01*
X112687290Y-81049614D01*
X112701052Y-81086827D01*
X112709816Y-81139673D01*
X112714626Y-81213237D01*
X112716526Y-81312605D01*
X112716711Y-81372601D01*
X112716711Y-81630526D01*
X112883816Y-81630526D01*
X112883816Y-80811710D01*
X112800264Y-80811710D01*
X112750119Y-80813486D01*
G37*
X112750119Y-80813486D02*
X112725112Y-80820982D01*
X112717050Y-80837451D01*
X112716711Y-80844886D01*
X112715264Y-80865594D01*
X112705302Y-80868845D01*
X112678388Y-80854648D01*
X112662402Y-80844948D01*
X112611967Y-80824175D01*
X112551728Y-80813904D01*
X112488566Y-80813114D01*
X112429363Y-80820786D01*
X112380998Y-80835898D01*
X112350354Y-80857432D01*
X112344311Y-80884366D01*
X112347361Y-80891660D01*
X112369594Y-80921937D01*
X112404070Y-80959175D01*
X112410306Y-80965195D01*
X112443167Y-80992875D01*
X112471520Y-81001818D01*
X112511173Y-80995576D01*
X112527058Y-80991429D01*
X112576491Y-80981467D01*
X112611248Y-80985947D01*
X112640600Y-81001746D01*
X112667487Y-81022949D01*
X112687290Y-81049614D01*
X112701052Y-81086827D01*
X112709816Y-81139673D01*
X112714626Y-81213237D01*
X112716526Y-81312605D01*
X112716711Y-81372601D01*
X112716711Y-81630526D01*
X112883816Y-81630526D01*
X112883816Y-80811710D01*
X112800264Y-80811710D01*
X112750119Y-80813486D01*
G36*
X113269543Y-80818184D02*
G01*
X113190930Y-80839160D01*
X113131084Y-80877180D01*
X113088853Y-80926978D01*
X113075725Y-80948230D01*
X113066032Y-80970492D01*
X113059256Y-80998970D01*
X113054877Y-81038871D01*
X113052376Y-81095401D01*
X113051232Y-81173767D01*
X113050928Y-81279176D01*
X113050922Y-81307142D01*
X113050922Y-81630526D01*
X113131132Y-81630526D01*
X113182294Y-81626943D01*
X113220123Y-81617866D01*
X113229601Y-81612268D01*
X113255512Y-81602606D01*
X113281976Y-81612268D01*
X113325548Y-81624330D01*
X113388840Y-81629185D01*
X113458990Y-81627078D01*
X113523140Y-81618256D01*
X113560593Y-81606937D01*
X113633067Y-81560412D01*
X113678360Y-81495846D01*
X113698722Y-81410000D01*
X113698912Y-81407796D01*
X113697125Y-81369713D01*
X113535527Y-81369713D01*
X113521399Y-81413030D01*
X113498388Y-81437408D01*
X113452196Y-81455845D01*
X113391225Y-81463205D01*
X113329051Y-81459583D01*
X113279249Y-81445074D01*
X113265297Y-81435765D01*
X113240915Y-81392753D01*
X113234737Y-81343857D01*
X113234737Y-81279605D01*
X113327182Y-81279605D01*
X113415005Y-81286366D01*
X113481582Y-81305520D01*
X113522998Y-81335376D01*
X113535527Y-81369713D01*
X113697125Y-81369713D01*
X113694510Y-81314004D01*
X113663576Y-81239847D01*
X113605419Y-81183767D01*
X113597380Y-81178665D01*
X113562837Y-81162055D01*
X113520082Y-81151996D01*
X113460314Y-81147107D01*
X113389310Y-81145983D01*
X113234737Y-81145921D01*
X113234737Y-81081125D01*
X113241294Y-81030850D01*
X113258025Y-80997169D01*
X113259984Y-80995376D01*
X113297217Y-80980642D01*
X113353420Y-80974931D01*
X113415533Y-80977737D01*
X113470490Y-80988556D01*
X113503101Y-81004782D01*
X113520772Y-81017780D01*
X113539431Y-81020262D01*
X113565181Y-81009613D01*
X113604127Y-80983218D01*
X113662370Y-80938465D01*
X113667716Y-80934273D01*
X113664977Y-80918760D01*
X113642124Y-80892960D01*
X113607391Y-80864289D01*
X113569010Y-80840166D01*
X113556952Y-80834470D01*
X113512966Y-80823103D01*
X113448513Y-80814995D01*
X113376503Y-80811743D01*
X113373136Y-80811736D01*
X113269543Y-80818184D01*
G37*
X113269543Y-80818184D02*
X113190930Y-80839160D01*
X113131084Y-80877180D01*
X113088853Y-80926978D01*
X113075725Y-80948230D01*
X113066032Y-80970492D01*
X113059256Y-80998970D01*
X113054877Y-81038871D01*
X113052376Y-81095401D01*
X113051232Y-81173767D01*
X113050928Y-81279176D01*
X113050922Y-81307142D01*
X113050922Y-81630526D01*
X113131132Y-81630526D01*
X113182294Y-81626943D01*
X113220123Y-81617866D01*
X113229601Y-81612268D01*
X113255512Y-81602606D01*
X113281976Y-81612268D01*
X113325548Y-81624330D01*
X113388840Y-81629185D01*
X113458990Y-81627078D01*
X113523140Y-81618256D01*
X113560593Y-81606937D01*
X113633067Y-81560412D01*
X113678360Y-81495846D01*
X113698722Y-81410000D01*
X113698912Y-81407796D01*
X113697125Y-81369713D01*
X113535527Y-81369713D01*
X113521399Y-81413030D01*
X113498388Y-81437408D01*
X113452196Y-81455845D01*
X113391225Y-81463205D01*
X113329051Y-81459583D01*
X113279249Y-81445074D01*
X113265297Y-81435765D01*
X113240915Y-81392753D01*
X113234737Y-81343857D01*
X113234737Y-81279605D01*
X113327182Y-81279605D01*
X113415005Y-81286366D01*
X113481582Y-81305520D01*
X113522998Y-81335376D01*
X113535527Y-81369713D01*
X113697125Y-81369713D01*
X113694510Y-81314004D01*
X113663576Y-81239847D01*
X113605419Y-81183767D01*
X113597380Y-81178665D01*
X113562837Y-81162055D01*
X113520082Y-81151996D01*
X113460314Y-81147107D01*
X113389310Y-81145983D01*
X113234737Y-81145921D01*
X113234737Y-81081125D01*
X113241294Y-81030850D01*
X113258025Y-80997169D01*
X113259984Y-80995376D01*
X113297217Y-80980642D01*
X113353420Y-80974931D01*
X113415533Y-80977737D01*
X113470490Y-80988556D01*
X113503101Y-81004782D01*
X113520772Y-81017780D01*
X113539431Y-81020262D01*
X113565181Y-81009613D01*
X113604127Y-80983218D01*
X113662370Y-80938465D01*
X113667716Y-80934273D01*
X113664977Y-80918760D01*
X113642124Y-80892960D01*
X113607391Y-80864289D01*
X113569010Y-80840166D01*
X113556952Y-80834470D01*
X113512966Y-80823103D01*
X113448513Y-80814995D01*
X113376503Y-80811743D01*
X113373136Y-80811736D01*
X113269543Y-80818184D01*
G36*
X113966640Y-79572468D02*
G01*
X113931408Y-79589874D01*
X113887960Y-79620206D01*
X113856294Y-79653283D01*
X113834606Y-79694817D01*
X113821097Y-79750522D01*
X113813962Y-79826111D01*
X113811400Y-79927296D01*
X113811250Y-79970797D01*
X113811688Y-80066135D01*
X113813504Y-80134271D01*
X113817455Y-80181418D01*
X113824298Y-80213790D01*
X113834789Y-80237600D01*
X113845704Y-80253843D01*
X113915381Y-80322952D01*
X113997434Y-80364521D01*
X114085950Y-80377023D01*
X114175019Y-80358934D01*
X114203237Y-80346142D01*
X114270790Y-80310931D01*
X114270790Y-80862700D01*
X114221488Y-80837205D01*
X114156527Y-80817480D01*
X114076680Y-80812427D01*
X113996948Y-80821756D01*
X113936735Y-80842714D01*
X113886792Y-80882627D01*
X113844119Y-80939741D01*
X113840910Y-80945605D01*
X113827378Y-80973227D01*
X113817495Y-81001068D01*
X113810691Y-81034794D01*
X113806399Y-81080071D01*
X113804049Y-81142562D01*
X113803072Y-81227935D01*
X113802895Y-81324010D01*
X113802895Y-81630526D01*
X113986711Y-81630526D01*
X113986711Y-81065339D01*
X114038125Y-81022077D01*
X114091534Y-80987472D01*
X114142112Y-80981180D01*
X114192970Y-80997372D01*
X114220075Y-81013227D01*
X114240249Y-81035810D01*
X114254597Y-81069940D01*
X114264224Y-81120434D01*
X114270237Y-81192111D01*
X114273740Y-81289788D01*
X114274974Y-81354802D01*
X114279145Y-81622171D01*
X114366875Y-81627222D01*
X114454606Y-81632273D01*
X114454606Y-79973101D01*
X114270790Y-79973101D01*
X114266104Y-80065600D01*
X114250312Y-80129809D01*
X114220817Y-80169759D01*
X114175020Y-80189480D01*
X114128750Y-80193421D01*
X114076372Y-80188892D01*
X114041610Y-80171069D01*
X114019872Y-80147519D01*
X114002760Y-80122189D01*
X113992573Y-80093969D01*
X113988040Y-80054431D01*
X113987891Y-79995142D01*
X113989416Y-79945498D01*
X113992919Y-79870710D01*
X113998133Y-79821611D01*
X114006913Y-79790467D01*
X114021114Y-79769545D01*
X114034516Y-79757452D01*
X114090513Y-79731081D01*
X114156789Y-79726822D01*
X114194844Y-79735906D01*
X114232523Y-79768196D01*
X114257481Y-79831006D01*
X114269578Y-79923894D01*
X114270790Y-79973101D01*
X114454606Y-79973101D01*
X114454606Y-79558421D01*
X114362698Y-79558421D01*
X114307517Y-79560603D01*
X114279048Y-79568351D01*
X114270794Y-79583468D01*
X114270790Y-79583916D01*
X114266960Y-79598720D01*
X114250067Y-79597039D01*
X114216481Y-79580772D01*
X114138222Y-79555887D01*
X114050173Y-79553271D01*
X113966640Y-79572468D01*
G37*
X113966640Y-79572468D02*
X113931408Y-79589874D01*
X113887960Y-79620206D01*
X113856294Y-79653283D01*
X113834606Y-79694817D01*
X113821097Y-79750522D01*
X113813962Y-79826111D01*
X113811400Y-79927296D01*
X113811250Y-79970797D01*
X113811688Y-80066135D01*
X113813504Y-80134271D01*
X113817455Y-80181418D01*
X113824298Y-80213790D01*
X113834789Y-80237600D01*
X113845704Y-80253843D01*
X113915381Y-80322952D01*
X113997434Y-80364521D01*
X114085950Y-80377023D01*
X114175019Y-80358934D01*
X114203237Y-80346142D01*
X114270790Y-80310931D01*
X114270790Y-80862700D01*
X114221488Y-80837205D01*
X114156527Y-80817480D01*
X114076680Y-80812427D01*
X113996948Y-80821756D01*
X113936735Y-80842714D01*
X113886792Y-80882627D01*
X113844119Y-80939741D01*
X113840910Y-80945605D01*
X113827378Y-80973227D01*
X113817495Y-81001068D01*
X113810691Y-81034794D01*
X113806399Y-81080071D01*
X113804049Y-81142562D01*
X113803072Y-81227935D01*
X113802895Y-81324010D01*
X113802895Y-81630526D01*
X113986711Y-81630526D01*
X113986711Y-81065339D01*
X114038125Y-81022077D01*
X114091534Y-80987472D01*
X114142112Y-80981180D01*
X114192970Y-80997372D01*
X114220075Y-81013227D01*
X114240249Y-81035810D01*
X114254597Y-81069940D01*
X114264224Y-81120434D01*
X114270237Y-81192111D01*
X114273740Y-81289788D01*
X114274974Y-81354802D01*
X114279145Y-81622171D01*
X114366875Y-81627222D01*
X114454606Y-81632273D01*
X114454606Y-79973101D01*
X114270790Y-79973101D01*
X114266104Y-80065600D01*
X114250312Y-80129809D01*
X114220817Y-80169759D01*
X114175020Y-80189480D01*
X114128750Y-80193421D01*
X114076372Y-80188892D01*
X114041610Y-80171069D01*
X114019872Y-80147519D01*
X114002760Y-80122189D01*
X113992573Y-80093969D01*
X113988040Y-80054431D01*
X113987891Y-79995142D01*
X113989416Y-79945498D01*
X113992919Y-79870710D01*
X113998133Y-79821611D01*
X114006913Y-79790467D01*
X114021114Y-79769545D01*
X114034516Y-79757452D01*
X114090513Y-79731081D01*
X114156789Y-79726822D01*
X114194844Y-79735906D01*
X114232523Y-79768196D01*
X114257481Y-79831006D01*
X114269578Y-79923894D01*
X114270790Y-79973101D01*
X114454606Y-79973101D01*
X114454606Y-79558421D01*
X114362698Y-79558421D01*
X114307517Y-79560603D01*
X114279048Y-79568351D01*
X114270794Y-79583468D01*
X114270790Y-79583916D01*
X114266960Y-79598720D01*
X114250067Y-79597039D01*
X114216481Y-79580772D01*
X114138222Y-79555887D01*
X114050173Y-79553271D01*
X113966640Y-79572468D01*
D13*
%TO.C,TP2*%
X109573300Y-116964600D02*
G75*
G03*
X109573300Y-116964600I-950000J0D01*
G01*
%TO.C,J2*%
X137083000Y-120820000D02*
X137083000Y-118840000D01*
X137083000Y-118840000D02*
X137503000Y-118840000D01*
X137083000Y-122790000D02*
X137083000Y-123190000D01*
X144603000Y-123190000D02*
X144603000Y-122790000D01*
X144603000Y-120820000D02*
X144603000Y-118840000D01*
X144603000Y-118840000D02*
X144183000Y-118840000D01*
X142153000Y-118160000D02*
X142603000Y-118160000D01*
X142603000Y-118610000D02*
X142603000Y-118160000D01*
%TO.C,TP1*%
X137055900Y-82854800D02*
G75*
G03*
X137055900Y-82854800I-950000J0D01*
G01*
%TO.C,TP4*%
X135836700Y-116916200D02*
G75*
G03*
X135836700Y-116916200I-950000J0D01*
G01*
%TO.C,TP5*%
X150886200Y-79235300D02*
G75*
G03*
X150886200Y-79235300I-950000J0D01*
G01*
%TO.C,TP6*%
X130617000Y-114147600D02*
G75*
G03*
X130617000Y-114147600I-950000J0D01*
G01*
%TO.C,TP7*%
X133957300Y-114081700D02*
G75*
G03*
X133957300Y-114081700I-950000J0D01*
G01*
%TO.C,TP8*%
X141894600Y-99237800D02*
G75*
G03*
X141894600Y-99237800I-950000J0D01*
G01*
%TO.C,TP9*%
X148448000Y-95654000D02*
G75*
G03*
X148448000Y-95654000I-950000J0D01*
G01*
%TO.C,TP10*%
X147127000Y-98956000D02*
G75*
G03*
X147127000Y-98956000I-950000J0D01*
G01*
D10*
%TO.C,U3*%
X145515000Y-107892000D02*
X140240000Y-107892000D01*
X144240000Y-113292000D02*
X140240000Y-113292000D01*
D13*
%TO.C,U7*%
X147309000Y-112309000D02*
X149759000Y-112309000D01*
X149109000Y-115529000D02*
X147309000Y-115529000D01*
%TD*%
%TO.C,TP2*%
X109367742Y-118693428D02*
X109024885Y-118693428D01*
X109196314Y-119293428D02*
X109196314Y-118693428D01*
X108824885Y-119293428D02*
X108824885Y-118693428D01*
X108596314Y-118693428D01*
X108539171Y-118722000D01*
X108510600Y-118750571D01*
X108482028Y-118807714D01*
X108482028Y-118893428D01*
X108510600Y-118950571D01*
X108539171Y-118979142D01*
X108596314Y-119007714D01*
X108824885Y-119007714D01*
X108253457Y-118750571D02*
X108224885Y-118722000D01*
X108167742Y-118693428D01*
X108024885Y-118693428D01*
X107967742Y-118722000D01*
X107939171Y-118750571D01*
X107910600Y-118807714D01*
X107910600Y-118864857D01*
X107939171Y-118950571D01*
X108282028Y-119293428D01*
X107910600Y-119293428D01*
%TO.C,J2*%
D10*
X141176333Y-116452380D02*
X141176333Y-117166666D01*
X141223952Y-117309523D01*
X141319190Y-117404761D01*
X141462047Y-117452380D01*
X141557285Y-117452380D01*
X140747761Y-116547619D02*
X140700142Y-116500000D01*
X140604904Y-116452380D01*
X140366809Y-116452380D01*
X140271571Y-116500000D01*
X140223952Y-116547619D01*
X140176333Y-116642857D01*
X140176333Y-116738095D01*
X140223952Y-116880952D01*
X140795380Y-117452380D01*
X140176333Y-117452380D01*
%TO.C,TP1*%
D13*
X136863042Y-84174228D02*
X136520185Y-84174228D01*
X136691614Y-84774228D02*
X136691614Y-84174228D01*
X136320185Y-84774228D02*
X136320185Y-84174228D01*
X136091614Y-84174228D01*
X136034471Y-84202800D01*
X136005900Y-84231371D01*
X135977328Y-84288514D01*
X135977328Y-84374228D01*
X136005900Y-84431371D01*
X136034471Y-84459942D01*
X136091614Y-84488514D01*
X136320185Y-84488514D01*
X135405900Y-84774228D02*
X135748757Y-84774228D01*
X135577328Y-84774228D02*
X135577328Y-84174228D01*
X135634471Y-84259942D01*
X135691614Y-84317085D01*
X135748757Y-84345657D01*
%TO.C,TP4*%
X135643842Y-118235628D02*
X135300985Y-118235628D01*
X135472414Y-118835628D02*
X135472414Y-118235628D01*
X135100985Y-118835628D02*
X135100985Y-118235628D01*
X134872414Y-118235628D01*
X134815271Y-118264200D01*
X134786700Y-118292771D01*
X134758128Y-118349914D01*
X134758128Y-118435628D01*
X134786700Y-118492771D01*
X134815271Y-118521342D01*
X134872414Y-118549914D01*
X135100985Y-118549914D01*
X134243842Y-118435628D02*
X134243842Y-118835628D01*
X134386700Y-118207057D02*
X134529557Y-118635628D01*
X134158128Y-118635628D01*
%TO.C,TP5*%
X150693342Y-80554728D02*
X150350485Y-80554728D01*
X150521914Y-81154728D02*
X150521914Y-80554728D01*
X150150485Y-81154728D02*
X150150485Y-80554728D01*
X149921914Y-80554728D01*
X149864771Y-80583300D01*
X149836200Y-80611871D01*
X149807628Y-80669014D01*
X149807628Y-80754728D01*
X149836200Y-80811871D01*
X149864771Y-80840442D01*
X149921914Y-80869014D01*
X150150485Y-80869014D01*
X149264771Y-80554728D02*
X149550485Y-80554728D01*
X149579057Y-80840442D01*
X149550485Y-80811871D01*
X149493342Y-80783300D01*
X149350485Y-80783300D01*
X149293342Y-80811871D01*
X149264771Y-80840442D01*
X149236200Y-80897585D01*
X149236200Y-81040442D01*
X149264771Y-81097585D01*
X149293342Y-81126157D01*
X149350485Y-81154728D01*
X149493342Y-81154728D01*
X149550485Y-81126157D01*
X149579057Y-81097585D01*
%TO.C,TP6*%
X130424142Y-115470028D02*
X130081285Y-115470028D01*
X130252714Y-116070028D02*
X130252714Y-115470028D01*
X129881285Y-116070028D02*
X129881285Y-115470028D01*
X129652714Y-115470028D01*
X129595571Y-115498600D01*
X129567000Y-115527171D01*
X129538428Y-115584314D01*
X129538428Y-115670028D01*
X129567000Y-115727171D01*
X129595571Y-115755742D01*
X129652714Y-115784314D01*
X129881285Y-115784314D01*
X129024142Y-115470028D02*
X129138428Y-115470028D01*
X129195571Y-115498600D01*
X129224142Y-115527171D01*
X129281285Y-115612885D01*
X129309857Y-115727171D01*
X129309857Y-115955742D01*
X129281285Y-116012885D01*
X129252714Y-116041457D01*
X129195571Y-116070028D01*
X129081285Y-116070028D01*
X129024142Y-116041457D01*
X128995571Y-116012885D01*
X128967000Y-115955742D01*
X128967000Y-115812885D01*
X128995571Y-115755742D01*
X129024142Y-115727171D01*
X129081285Y-115698600D01*
X129195571Y-115698600D01*
X129252714Y-115727171D01*
X129281285Y-115755742D01*
X129309857Y-115812885D01*
%TO.C,TP7*%
X133764442Y-115401128D02*
X133421585Y-115401128D01*
X133593014Y-116001128D02*
X133593014Y-115401128D01*
X133221585Y-116001128D02*
X133221585Y-115401128D01*
X132993014Y-115401128D01*
X132935871Y-115429700D01*
X132907300Y-115458271D01*
X132878728Y-115515414D01*
X132878728Y-115601128D01*
X132907300Y-115658271D01*
X132935871Y-115686842D01*
X132993014Y-115715414D01*
X133221585Y-115715414D01*
X132678728Y-115401128D02*
X132278728Y-115401128D01*
X132535871Y-116001128D01*
%TO.C,TP8*%
X141701742Y-100557228D02*
X141358885Y-100557228D01*
X141530314Y-101157228D02*
X141530314Y-100557228D01*
X141158885Y-101157228D02*
X141158885Y-100557228D01*
X140930314Y-100557228D01*
X140873171Y-100585800D01*
X140844600Y-100614371D01*
X140816028Y-100671514D01*
X140816028Y-100757228D01*
X140844600Y-100814371D01*
X140873171Y-100842942D01*
X140930314Y-100871514D01*
X141158885Y-100871514D01*
X140473171Y-100814371D02*
X140530314Y-100785800D01*
X140558885Y-100757228D01*
X140587457Y-100700085D01*
X140587457Y-100671514D01*
X140558885Y-100614371D01*
X140530314Y-100585800D01*
X140473171Y-100557228D01*
X140358885Y-100557228D01*
X140301742Y-100585800D01*
X140273171Y-100614371D01*
X140244600Y-100671514D01*
X140244600Y-100700085D01*
X140273171Y-100757228D01*
X140301742Y-100785800D01*
X140358885Y-100814371D01*
X140473171Y-100814371D01*
X140530314Y-100842942D01*
X140558885Y-100871514D01*
X140587457Y-100928657D01*
X140587457Y-101042942D01*
X140558885Y-101100085D01*
X140530314Y-101128657D01*
X140473171Y-101157228D01*
X140358885Y-101157228D01*
X140301742Y-101128657D01*
X140273171Y-101100085D01*
X140244600Y-101042942D01*
X140244600Y-100928657D01*
X140273171Y-100871514D01*
X140301742Y-100842942D01*
X140358885Y-100814371D01*
%TO.C,TP9*%
X148255142Y-96973428D02*
X147912285Y-96973428D01*
X148083714Y-97573428D02*
X148083714Y-96973428D01*
X147712285Y-97573428D02*
X147712285Y-96973428D01*
X147483714Y-96973428D01*
X147426571Y-97002000D01*
X147398000Y-97030571D01*
X147369428Y-97087714D01*
X147369428Y-97173428D01*
X147398000Y-97230571D01*
X147426571Y-97259142D01*
X147483714Y-97287714D01*
X147712285Y-97287714D01*
X147083714Y-97573428D02*
X146969428Y-97573428D01*
X146912285Y-97544857D01*
X146883714Y-97516285D01*
X146826571Y-97430571D01*
X146798000Y-97316285D01*
X146798000Y-97087714D01*
X146826571Y-97030571D01*
X146855142Y-97002000D01*
X146912285Y-96973428D01*
X147026571Y-96973428D01*
X147083714Y-97002000D01*
X147112285Y-97030571D01*
X147140857Y-97087714D01*
X147140857Y-97230571D01*
X147112285Y-97287714D01*
X147083714Y-97316285D01*
X147026571Y-97344857D01*
X146912285Y-97344857D01*
X146855142Y-97316285D01*
X146826571Y-97287714D01*
X146798000Y-97230571D01*
%TO.C,TP10*%
X149556857Y-99389428D02*
X149214000Y-99389428D01*
X149385428Y-99989428D02*
X149385428Y-99389428D01*
X149014000Y-99989428D02*
X149014000Y-99389428D01*
X148785428Y-99389428D01*
X148728285Y-99418000D01*
X148699714Y-99446571D01*
X148671142Y-99503714D01*
X148671142Y-99589428D01*
X148699714Y-99646571D01*
X148728285Y-99675142D01*
X148785428Y-99703714D01*
X149014000Y-99703714D01*
X148099714Y-99989428D02*
X148442571Y-99989428D01*
X148271142Y-99989428D02*
X148271142Y-99389428D01*
X148328285Y-99475142D01*
X148385428Y-99532285D01*
X148442571Y-99560857D01*
X147728285Y-99389428D02*
X147671142Y-99389428D01*
X147614000Y-99418000D01*
X147585428Y-99446571D01*
X147556857Y-99503714D01*
X147528285Y-99618000D01*
X147528285Y-99760857D01*
X147556857Y-99875142D01*
X147585428Y-99932285D01*
X147614000Y-99960857D01*
X147671142Y-99989428D01*
X147728285Y-99989428D01*
X147785428Y-99960857D01*
X147814000Y-99932285D01*
X147842571Y-99875142D01*
X147871142Y-99760857D01*
X147871142Y-99618000D01*
X147842571Y-99503714D01*
X147814000Y-99446571D01*
X147785428Y-99418000D01*
X147728285Y-99389428D01*
%TO.C,U3*%
D10*
X140715904Y-106640380D02*
X140715904Y-107449904D01*
X140668285Y-107545142D01*
X140620666Y-107592761D01*
X140525428Y-107640380D01*
X140334952Y-107640380D01*
X140239714Y-107592761D01*
X140192095Y-107545142D01*
X140144476Y-107449904D01*
X140144476Y-106640380D01*
X139763523Y-106640380D02*
X139144476Y-106640380D01*
X139477809Y-107021333D01*
X139334952Y-107021333D01*
X139239714Y-107068952D01*
X139192095Y-107116571D01*
X139144476Y-107211809D01*
X139144476Y-107449904D01*
X139192095Y-107545142D01*
X139239714Y-107592761D01*
X139334952Y-107640380D01*
X139620666Y-107640380D01*
X139715904Y-107592761D01*
X139763523Y-107545142D01*
%TO.C,U7*%
D13*
X148818523Y-111067904D02*
X148818523Y-111715523D01*
X148780428Y-111791714D01*
X148742333Y-111829809D01*
X148666142Y-111867904D01*
X148513761Y-111867904D01*
X148437571Y-111829809D01*
X148399476Y-111791714D01*
X148361380Y-111715523D01*
X148361380Y-111067904D01*
X148056619Y-111067904D02*
X147523285Y-111067904D01*
X147866142Y-111867904D01*
%TD*%
M02*
