%TF.GenerationSoftware,KiCad,Pcbnew,(5.1.9)-1*%
%TF.CreationDate,2021-03-08T10:45:14+00:00*%
%TF.ProjectId,gps_tracker_basic,6770735f-7472-4616-936b-65725f626173,1.0*%
%TF.SameCoordinates,Original*%
%TF.FileFunction,Soldermask,Bot*%
%TF.FilePolarity,Negative*%
%FSLAX46Y46*%
G04 Gerber Fmt 4.6, Leading zero omitted, Abs format (unit mm)*
G04 Created by KiCad (PCBNEW (5.1.9)-1) date 2021-03-08 10:45:14*
%MOMM*%
%LPD*%
G01*
G04 APERTURE LIST*
%ADD10C,1.000000*%
%ADD11R,2.000000X1.400000*%
%ADD12C,1.500000*%
%ADD13C,2.500000*%
%ADD14O,1.700000X1.700000*%
%ADD15R,1.700000X1.700000*%
%ADD16O,0.890000X1.550000*%
%ADD17R,1.200000X1.550000*%
%ADD18R,1.500000X1.550000*%
%ADD19O,1.250000X0.950000*%
%ADD20R,0.400000X1.350000*%
%ADD21O,1.350000X1.350000*%
%ADD22R,1.350000X1.350000*%
%ADD23C,1.400000*%
%ADD24R,1.400000X1.400000*%
%ADD25R,1.200000X0.400000*%
%ADD26R,1.524000X1.524000*%
%ADD27R,1.060000X0.650000*%
%ADD28C,0.300000*%
G04 APERTURE END LIST*
D10*
%TO.C,U10*%
X119072300Y-107317600D03*
%TD*%
D11*
%TO.C,U4*%
X108623300Y-114081700D03*
X108623300Y-111541700D03*
X108623300Y-109001700D03*
X108623300Y-106461700D03*
X108623300Y-103921700D03*
X108623300Y-101381700D03*
%TD*%
D12*
%TO.C,TP2*%
X108623300Y-116964600D03*
%TD*%
D13*
%TO.C,H2*%
X149500000Y-74500000D03*
%TD*%
%TO.C,H1*%
X104500000Y-119500000D03*
%TD*%
D14*
%TO.C,J1*%
X104521000Y-80264000D03*
X104521000Y-82804000D03*
X104521000Y-85344000D03*
X104521000Y-87884000D03*
D15*
X104521000Y-90424000D03*
%TD*%
D16*
%TO.C,J2*%
X137343000Y-121800000D03*
X144343000Y-121800000D03*
D17*
X137943000Y-121800000D03*
X143743000Y-121800000D03*
D18*
X139843000Y-121800000D03*
X141843000Y-121800000D03*
D19*
X138343000Y-119100000D03*
X143343000Y-119100000D03*
D20*
X139543000Y-119100000D03*
X140193000Y-119100000D03*
X140843000Y-119100000D03*
X141493000Y-119100000D03*
X142143000Y-119100000D03*
%TD*%
D21*
%TO.C,J3*%
X151892000Y-114776000D03*
D22*
X151892000Y-112776000D03*
%TD*%
D14*
%TO.C,J4*%
X104521000Y-96393000D03*
X104521000Y-98933000D03*
X104521000Y-101473000D03*
X104521000Y-104013000D03*
D15*
X104521000Y-106553000D03*
%TD*%
D23*
%TO.C,SW1*%
X142795000Y-74547000D03*
X140295000Y-74547000D03*
X137795000Y-74547000D03*
X142795000Y-71247000D03*
X140295000Y-71247000D03*
D24*
X137795000Y-71247000D03*
%TD*%
D23*
%TO.C,SW2*%
X142795000Y-80389000D03*
X140295000Y-80389000D03*
X137795000Y-80389000D03*
X142795000Y-77089000D03*
X140295000Y-77089000D03*
D24*
X137795000Y-77089000D03*
%TD*%
D12*
%TO.C,TP1*%
X136105900Y-82854800D03*
%TD*%
%TO.C,TP4*%
X134886700Y-116916200D03*
%TD*%
%TO.C,TP5*%
X149936200Y-79235300D03*
%TD*%
%TO.C,TP6*%
X129667000Y-114147600D03*
%TD*%
%TO.C,TP7*%
X133007300Y-114081700D03*
%TD*%
%TO.C,TP8*%
X140944600Y-99237800D03*
%TD*%
%TO.C,TP9*%
X147498000Y-95654000D03*
%TD*%
%TO.C,TP10*%
X146177000Y-98956000D03*
%TD*%
D25*
%TO.C,U3*%
X139640000Y-108394500D03*
X139640000Y-109029500D03*
X139640000Y-109664500D03*
X139640000Y-110299500D03*
X139640000Y-110934500D03*
X139640000Y-111569500D03*
X139640000Y-112204500D03*
X139640000Y-112839500D03*
X144840000Y-112839500D03*
X144840000Y-112204500D03*
X144840000Y-111569500D03*
X144840000Y-110934500D03*
X144840000Y-110299500D03*
X144840000Y-109664500D03*
X144840000Y-109029500D03*
X144840000Y-108394500D03*
%TD*%
D26*
%TO.C,U6*%
X128270000Y-72009000D03*
X125730000Y-72009000D03*
X123190000Y-72009000D03*
X120650000Y-72009000D03*
X118110000Y-72009000D03*
X115570000Y-72009000D03*
X125730000Y-93599000D03*
X123190000Y-93599000D03*
X120650000Y-93599000D03*
X118110000Y-93599000D03*
X115570000Y-93599000D03*
X113030000Y-93599000D03*
%TD*%
D27*
%TO.C,U7*%
X147109000Y-112969000D03*
X147109000Y-114869000D03*
X149309000Y-114869000D03*
X149309000Y-113919000D03*
X149309000Y-112969000D03*
%TD*%
D28*
%TO.C,U8*%
X140042900Y-103657400D03*
X140042900Y-103149400D03*
X140550900Y-103657400D03*
X140550900Y-103149400D03*
X141058900Y-103657400D03*
X141058900Y-103149400D03*
X141566900Y-103657400D03*
X141566900Y-103149400D03*
X142074900Y-103657400D03*
X142074900Y-103149400D03*
X140042900Y-102641400D03*
X140550900Y-102641400D03*
X141058900Y-102641400D03*
X141566900Y-102641400D03*
X142074900Y-102641400D03*
%TD*%
M02*
